/* XPM */
static char *_bdd81d549db48eed32b2308f2408ebeC6G6SarY8fgZA1Ds[] = {
/* columns rows colors chars-per-pixel */
"64 64 182 2 ",
"   c None",
".  c #010101",
"X  c #080704",
"o  c #0B0A06",
"O  c #0E0D09",
"+  c #120E08",
"@  c #17130B",
"#  c #181208",
"$  c #1E190E",
"%  c #1A1407",
"&  c #211A0B",
"*  c #2A1F09",
"=  c #251E10",
"-  c #2E230B",
";  c #35290E",
":  c #3C2E0F",
">  c #32270E",
",  c #272112",
"<  c #2A2211",
"1  c #302612",
"2  c #3C2E11",
"3  c #372A12",
"4  c #453412",
"5  c #4B3913",
"6  c #523F16",
"7  c #544015",
"8  c #5B4515",
"9  c #5F4D1C",
"0  c #654B15",
"q  c #6A4E13",
"w  c #644B18",
"e  c #6D5114",
"r  c #6F5418",
"t  c #745615",
"y  c #765816",
"u  c #7C5B16",
"i  c #755818",
"p  c #7D5D18",
"a  c #71561A",
"s  c #805F17",
"d  c #815F18",
"f  c #846117",
"g  c #856319",
"h  c #8B6619",
"j  c #8E691A",
"k  c #936D1B",
"l  c #97701B",
"z  c #9D741C",
"x  c #A0771D",
"c  c #A4791D",
"v  c #A97C1F",
"b  c #876721",
"n  c #886720",
"m  c #8B6921",
"M  c #866D2A",
"N  c #906D20",
"B  c #9B7522",
"V  c #977729",
"C  c #9C7828",
"Z  c #9D7824",
"A  c #8E7733",
"S  c #A67D22",
"D  c #AA7D20",
"F  c #AE8121",
"G  c #A9832B",
"H  c #B38522",
"J  c #B78922",
"K  c #BB8B24",
"L  c #B38A2D",
"P  c #BA8E2B",
"I  c #BE922B",
"U  c #AF8A30",
"Y  c #B28E37",
"T  c #B18F3F",
"R  c #BF9833",
"E  c #B79539",
"W  c #C38F23",
"Q  c #CA9625",
"!  c #CF9925",
"~  c #C5952B",
"^  c #CC9A2C",
"/  c #C69225",
"(  c #D39C27",
")  c #D39E2B",
"_  c #C79931",
"`  c #CB9C32",
"'  c #C19938",
"]  c #D7A12C",
"[  c #DAA229",
"{  c #C6A033",
"}  c #CDA335",
"|  c #CDAA3D",
" . c #D6AB3A",
".. c #DAAC3A",
"X. c #D6A536",
"o. c #E1A62A",
"O. c #E4A92A",
"+. c #EBAE2B",
"@. c #EFB22D",
"#. c #F4B42C",
"$. c #F6B92E",
"%. c #FDBC2F",
"&. c #E2AC32",
"*. c #EEB737",
"=. c #EAB53A",
"-. c #E6B939",
";. c #F4BC39",
":. c #FEC02F",
">. c #ECC03E",
",. c #FEC233",
"<. c #FECB3C",
"1. c #F7C23B",
"2. c #A88940",
"3. c #B39241",
"4. c #B99B4D",
"5. c #D1AF45",
"6. c #D1AC4C",
"7. c #D8B640",
"8. c #DAB74A",
"9. c #DEBA4C",
"0. c #CBAD5B",
"q. c #D0B056",
"w. c #E4B642",
"e. c #EAB640",
"r. c #E6B944",
"t. c #E2BB4A",
"y. c #F4BE42",
"u. c #CBAA60",
"i. c #D4B763",
"p. c #EDC143",
"a. c #EFC845",
"s. c #FFCC43",
"d. c #FECC4C",
"f. c #FFD047",
"g. c #E2C150",
"h. c #E0C852",
"j. c #FAC950",
"k. c #FFDC56",
"l. c #FBDD5F",
"z. c #FEE35C",
"x. c #FDE555",
"c. c #F0DB6A",
"v. c #FBE463",
"b. c #FDEA64",
"n. c #FAE66F",
"m. c #FCEB68",
"M. c #FFF96C",
"N. c #FEF366",
"B. c #F7EB76",
"V. c #FEE07D",
"C. c #FBEF72",
"Z. c #FCF172",
"A. c #FFFC71",
"S. c #FFFD7F",
"D. c #FCF27F",
"F. c #E5D597",
"G. c #F1E081",
"H. c #FEE886",
"J. c #FBEE88",
"K. c #F2E388",
"L. c #FFFB8B",
"P. c #FEF286",
"I. c #F6E795",
"U. c #F8E796",
"Y. c #FFEE94",
"T. c #FCF593",
"R. c #FFFC91",
"E. c #FEFD9C",
"W. c #F0DFB2",
"Q. c #FFFDA4",
"!. c #FEF5A8",
"~. c #EFE5B3",
"^. c #FFFFB8",
"/. c #FFFDBB",
"(. c #FEF4BE",
"). c #FFFFC0",
"_. c #FFFECA",
"`. c #FCF5CD",
"'. c #FBF7D7",
"]. c #FFFFEC",
"[. c #FDF9E0",
"{. c #FFFDF3",
/* pixels */
"                                                                                                                                ",
"                                                                                                                                ",
"                                                                                                                                ",
"                                                                                                                                ",
"                                                                                                                                ",
"                                                                                                                                ",
"                                                                                                                                ",
"                                                                                                                                ",
"                                                                                                                                ",
"                                                                                                                                ",
"                                                                                                                                ",
"                                                                                                                                ",
"                                                                                                                                ",
"                                                                                                                                ",
"                                                                                                                                ",
"                                                                                                                                ",
"                                                                                                                                ",
"                                                                                                                                ",
"                                                                                                                                ",
"                                                                                                                                ",
"                                                                                                                                ",
"                                                                                                                                ",
"                                                                                                                                ",
"                                                                                                                                ",
"                                                                                                                                ",
"                                                    . . . . . . X o o X . . . .                                                 ",
"                                                . . ; 7 b { *.1.*.&.] ( Q B 6 - X .                                             ",
"                                            . . : ( +.<.x.f.1.] K J H H H H K H z - .                                           ",
"                                          . - B %.,.x.N.a.) F c x l k l z x c D H H w + .                                       ",
"                                        . < @.,.s.L.M...H c j t q q q q A 4.3.Z c v D k o .                                     ",
"                                      . 8 ,.:.s.T.Z.} v k i e q e t t y t t M 2.2.G v v l & .                                   ",
"                                    . , $.,.<./.P.I c p 0 e t u d h h h k h g p u 3.U v c j .                                   ",
"                                  . - $.,.,.Y.E.| c p e t u f h k k k z z l l l k h 3.U S c r X                                 ",
"                                  . Z :.,.l.^.9.v u e t f h j l z x x c c c c c z l h V l c c 2 .                               ",
"                                . 5 %.:.s._.V.F j e t f h l z z x c c c c c c c c c z k j x c d X                               ",
"                                X o.%.%.V.^.5.x t t p g l z z c c c c c c c c c c c x z z z v x 6 .                             ",
"                              . 5 $.%.%.!.J.H f e u g k l l z z z z z z z z x z x c c x l c S S f o                             ",
"                              . m $.$.<.^. .c 0 t g j l g y i i t y u y u u p d x v c c z c D F l * .                           ",
"                              . O.#.$.H.T.H j e u j l z t e q e q e q q q q q C _ D c c c c F J c 5 .                           ",
"                              & @.@.$.Q.c.v f t g l z z t t f g g h h d g d u t.w.F D c c l I ~ v u .                           ",
"                            . a +.+.;.L.h.c y p h l z c u u j l l l l l k k j c.e.F D c c z I X.D j o                           ",
"                            . F O.O.p.S.7.c t s k z c z u u l z x x x x c z l b.-.H D c c z F e.K k $                           ",
"                            . K o.o.y.A.} c e g l z v z u u l c c c c c c c x m.e.H D c c z S j.} l < .                         ",
"                            X J ( o.;.b._ z t g l c c c u u l c c c c c c c z v.w.D D c c z S z...z 2 .                         ",
"                            X H ( ) -.k.~ z t h z v c z u u k c c v c c c x z v.w.F v v c x F Z.8.z 4 .                         ",
"                            . F ! ! &.d.~ z t h z v c z u u k c c c c c c c z v.w.F v c c x G L.8.z 3 .                         ",
"                            . c Q Q ] y.~ c t h z c c z y p k c c c c c c c z v.w.F v c x z Y Q.| k ,                           ",
"                            . u W W / =.^ v u h c c c z u f k z c c c c x x z l.w.F v c c z q./.K j +                           ",
"                            . 2 K K W X.^ v d h z c c z y d k z x x x S x z l v.w.H v c x z U.`.D d .                           ",
"                              o H H H ^ ^ v g f z c c x i f z F v F v F v v c n.w.D v c x G ).F.S w .                           ",
"                              . m F F H / F l y l c c c l J ^ ) ) ) ^ ( ( ) ( 9...H v x z i.{.u.l ; .                           ",
"                              . 4 c c D K K D p j c c c v H H H H H H H H H H H H v c x Z ~.'.L h % .                           ",
"                              . # k z z D J v x g c c c v v D D D D D D v v v v c c x z 0.].i.x 0 .                             ",
"                                . w k k x H D v j k z c c c v c v v v v c c v v c c x E _.W.D h & .                             ",
"                                  . g h h c D v c g l x c c c c c c x c c c c c c z l U.[.E l 6 .                               ",
"                                  . > p f h x c v c l l z c c c c c c c c c c x z Y K.`.6.c u # .                               ",
"                                    . 8 u u h Z x c c z z z x x c x c c z x z z L P._.6.x g < .                                 ",
"                                      X 7 u u j z x c D c S x z z z z z z z I g.J.G.' S h 2 .                                   ",
"                                      . X q u u N k k c v D H J H v F H _ p.Z.B. .D z f 4 .                                     ",
"                                        . . 2 u d d k h z c D F H W / ^  .| R H c k p - .                                       ",
"                                            . @ w y d N g g k z c c v c c c z j u 8 o .                                         ",
"                                              . . & 4 i f n m f d g g g g f u 5 $ X .                                           ",
"                                                  . . . O = 2 7 w 0 0 8 5 $ . . .                                               ",
"                                                            . . . . . . .                                                       "
};
