/* XPM */
static char *d34e77163f3d4cca9cce4e8eba1cc5138u0mDf1CHeGJ3CFE[] = {
/* columns rows colors chars-per-pixel */
"64 64 178 2 ",
"   c #040402",
".  c #080704",
"X  c #0C0904",
"o  c #0B0B0B",
"O  c #110E07",
"+  c #161106",
"@  c #17140D",
"#  c #1C160C",
"$  c #1B160A",
"%  c gray8",
"&  c #1E1E1E",
"*  c #241C0C",
"=  c #31250C",
"-  c #372A0C",
";  c #2F2511",
":  c #342A13",
">  c #392C13",
",  c #3D3115",
"<  c #232322",
"1  c gray18",
"2  c #333333",
"3  c #3A3A3A",
"4  c #4C3A14",
"5  c #463512",
"6  c #503E15",
"7  c #5B4515",
"8  c #544319",
"9  c #624914",
"0  c #6A4E14",
"q  c #6E5115",
"w  c #6D5219",
"e  c #745515",
"r  c #7B5B16",
"t  c #75591B",
"y  c #7C5D1A",
"u  c #745717",
"i  c #7E601C",
"p  c #775F22",
"a  c #796121",
"s  c #444444",
"d  c gray29",
"f  c gray33",
"g  c #5A5A5A",
"h  c #636363",
"j  c #6A6A6A",
"k  c #727272",
"l  c #7C7C7C",
"z  c #805F17",
"x  c #836117",
"c  c #856218",
"v  c #896619",
"b  c #8D691A",
"n  c #936D1B",
"m  c #97701B",
"M  c #9D741C",
"N  c #A0771D",
"B  c #A4791D",
"V  c #A97C1F",
"C  c #8B6920",
"Z  c #926E23",
"A  c #997729",
"S  c #957B34",
"D  c #A37A22",
"F  c #AA7E20",
"G  c #AE8121",
"H  c #A6812C",
"J  c #AC852E",
"K  c #B28422",
"L  c #BA8A24",
"P  c #B78D2B",
"I  c #BD8F2A",
"U  c #BB932E",
"Y  c #BB9438",
"T  c #C18F24",
"R  c #C08F28",
"E  c #C49124",
"W  c #CA9526",
"Q  c #CF9A26",
"!  c #C3942A",
"~  c #CC9A2C",
"^  c #D49E2A",
"/  c #D29B27",
"(  c #C69D33",
")  c #CB9E34",
"_  c #DDA428",
"`  c #DFA92E",
"'  c #CCA53D",
"]  c #CEAA3F",
"[  c #C9A135",
"{  c #DFAA31",
"}  c #D2AB3D",
"|  c #D9A839",
" . c #E5A92A",
".. c #EFB12C",
"X. c #F4B42D",
"o. c #F7B82D",
"O. c #FDBC2F",
"+. c #E0AE3C",
"@. c #E1B73F",
"#. c #E9B83A",
"$. c #F4B934",
"%. c #FFBE32",
"&. c #F6BE3A",
"*. c #FEC02F",
"=. c #FFC332",
"-. c #FDCC3F",
";. c #AE8D43",
":. c #BE9F4E",
">. c #B79642",
",. c #C69F40",
"<. c #C39E4B",
"1. c #C7A141",
"2. c #CFAD41",
"3. c #C5A54F",
"4. c #D0AD40",
"5. c #DEB947",
"6. c #DDB947",
"7. c #E3BE4D",
"8. c #F5BF43",
"9. c #D6BA68",
"0. c #EFC84F",
"q. c #F9CD4A",
"w. c #FFDA4D",
"e. c #E0CC53",
"r. c #F4CF59",
"t. c #FDDF58",
"y. c #F4D751",
"u. c #E1C864",
"i. c #E4D86E",
"p. c #FFDA67",
"a. c #ECD977",
"s. c #F6E462",
"d. c #FEE76E",
"f. c #F7E763",
"g. c #FFF569",
"h. c #F9E778",
"j. c #FFFD79",
"k. c #FFFB71",
"l. c #838383",
"z. c gray55",
"x. c #929292",
"c. c #9D9D9D",
"v. c #A2A2A2",
"b. c #ADADAD",
"n. c #BBBBBB",
"m. c #B4B4B4",
"M. c #E2CF83",
"N. c #EEDD84",
"B. c #FEEC8A",
"V. c #FAE986",
"C. c #FEF685",
"Z. c #FFFF8D",
"A. c #F0E597",
"S. c #FFFD97",
"D. c #EFDDAB",
"F. c #F8EFAE",
"G. c #FFFDAB",
"H. c #FFFAB3",
"J. c #FAF5BA",
"K. c #F7E6B6",
"L. c #CBCBCB",
"P. c #C4C4C4",
"I. c #D2D2D2",
"U. c #DADADA",
"Y. c #DCDCDC",
"T. c #FEFFC6",
"R. c #FAF4CF",
"E. c #FEF9D0",
"W. c #E2E2E2",
"Q. c gray92",
"!. c #F6F6F6",
"~. c #F5F5F5",
"^. c #FFFFF4",
"/. c #FAFAFA",
"(. c white",
"). c #FEFEFE",
"_. c gray99",
"`. c #FFFFFF",
/* pixels */
"(.(.(.(.(.(.(.(.(.(.(.(.(.(.(.(.(.(.(.(.(.(.(.(.(.(.(.(.(.(.(.(.(.(.(.(.(.(.(.(.(.(.(.(.(.(.(.(.(.(.(.(.(.(.(.(.(.(.(.(.(.(.(.(.",
"(.(.(.(.(.(.(.(.(.(.(.(.(.(.(.(.(.(.(.(.(.(.(.(.(.(.(.(.(.(.(.(.(.(.(.(.(.(.(.(.(.(.(.(.(.(.(.(.(.(.(.(.(.(.(.(.(.(.(.(.(.(.(.(.",
"(.(.(.(.(.(.(.(.(.(.(.(.(.(.(.(.(.(.(.(.(.(.(.(.(.(.(.(.(.(.(.(.(.(.(.(.(.(.(.(.(.(.(.(.(.(.(.(.(.(.(.(.(.(.(.(.(.(.(.(.(.(.(.(.",
"(.(.(.(.(.(.(.(.(.(.(.(.(.(.(.(.(.(.(.(.(.(.(.(.(.(.(.(.(.(.(.(.(.(.(.(.(.(.(.(.(.(.(.(.(.(.(.(.(.(.(.(.(.(.(.(.(.(.(.(.(.(.(.(.",
"(.(.(.(.(.(.(.(.(.(.(.(.(.(.(.(.(.(.(.(.(.(.(.(.(.(.(.(.(.(.(.(.(.(.(.(.(.(.(.(.(.(.(.(.(.(.(.(.(.(.(.(.(.(.(.(.(.(.(.(.(.(.(.(.",
"(.(.(.(.(.(.(.(.(.(.(.(.(.(.(.(.(.(.(.(.(.(.(.(.(.(.(.(.(.(.(.(.(.(.(.(.(.(.(.(.(.(.(.(.(.(.(.(.(.(.(.(.(.(.(.(.(.(.(.(.(.(.(.(.",
"(.(.(.(.(.(.(.(.(.(.(.(.(.(.(.(.(.(.(.(.(.(.(.(.(.(.(.(.(.(.(.(.(.(.(.(.(.(.(.(.(.(.(.(.(.(.(.(.(.(.(.(.(.(.(.(.(.(.(.(.(.(.(.(.",
"(.(.(.(.(.(.(.(.(.(.(.(.(.(.(.(.(.(.(.(.(.(.(.(.(.(.(.(.(.(.(.(.(.(.(.(.(.(.(.(.(.(.(.(.(.(.(.(.(.(.(.(.(.(.(.(.(.(.(.(.(.(.(.(.",
"(.(.(.(.(.(.(.(.(.(.(.(.(.(.(.(.(.(.(.(.(.(.(.(.(.(.(.(.(.(.(.(.(.(.(.(.(.(.(.(.(.(.(.(.(.(.(.(.(.(.(.(.(.(.(.(.(.(.(.(.(.(.(.(.",
"(.(.(.(.(.(.(.(.(.(.(.(.(.(.(.(.(.(.(.(.(.(.(.(.(.(.(.(.(.(.(.(.(.(.(.(.(.(.(.(.(.(.(.(.(.(.(.(.(.(.(.(.(.(.(.(.(.(.(.(.(.(.(.(.",
"(.(.(.(.(.(.(.(.(.(.(.(.(.(.(.(.(.(.(.(.(.(.(.(.(.(.(.(.(.(.(.(.(.(.(.(.(.(.(.(.(.(.(.(.(.(.(.(.(.(.(.(.(.(.(.(.(.(.(.(.(.(.(.(.",
"(.(.(.(.(.(.(.(.(.(.(.(.(.(.(.(.(.(.(.(.(.(.(.(.(.(.(.(.(.(.(.(.(.(.(.(.(.(.(.(.(.(.(.(.(.(.(.(.(.(.(.(.(.(.(.(.(.(.(.(.(.(.(.(.",
"(.(.(.(.(.(.(.(.(.(.(.(.(.(.(.(.(.(.(.(.(.(.(.(.(.(.(.(.(.(.(.(.(.(.(.(.(.(.(.(.(.(.(.(.(.(.(.(.(.(.(.(.(.(.(.(.(.(.(.(.(.(.(.(.",
"(.(.(.(.(.(.(.(.(.(.(.(.(.(.(.(.(.(.(.(.(.(.(.(.(.(.(.(.(.(.(.(.(.(.(.(.(.(.(.(.(.(.(.(.(.(.(.(.(.(.(.(.(.(.(.(.(.(.(.(.(.(.(.(.",
"(.(.(.(.(.(.(.(.(.(.(.(.(.(.(.(.(.(.(.(.(.(.(.(.(.(.(.(.(.(.(.(.(.(.(.(.(.(.(.(.(.(.(.(.(.(.(.(.(.(.(.(.(.(.(.(.(.(.(.(.(.(.(.(.",
"(.(.(.(.(.(.(.(.(.(.(.(.(.(.(.(.(.(.(.(.(.(.(.(.(.(.(.(.(.(.(.(.(.(.(.(.(.(.(.(.(.(.(.(.(.(.(.(.(.(.(.(.(.(.(.(.(.(.(.(.(.(.(.(.",
"(.(.(.(.(.(.(.(.(.(.(.(.(.(.(.(.(.(.(.(.(.(.(.(.(.(.(.(.(.(.(.(.(.(.(.(.(.(.(.(.(.(.(.(.(.(.(.(.(.(.(.(.(.(.(.(.(.(.(.(.(.(.(.(.",
"(.(.(.(.(.(.(.(.(.(.(.(.(.(.(.(.(.(.(.(.(.(.(.(.(.(.(.(.(.(.(.(.(.(.(.(.(.(.(.(.(.(.(.(.(.(.(.(.(.(.(.(.(.(.(.(.(.(.(.(.(.(.(.(.",
"(.(.(.(.(.(.(.(.(.(.(.(.(.(.(.(.(.(.(.(.(.(.(.(.(.(.(.(.(.(.(.(.(.(.(.(.(.(.(.(.(.(.(.(.(.(.(.(.(.(.(.(.(.(.(.(.(.(.(.(.(.(.(.(.",
"(.(.(.(.(.(.(.(.(.(.(.(.(.(.(.(.(.(.(.(.(.(.(.(.(.(.(.(.(.(.(.(.(.(.(.(.(.(.(.(.(.(.(.(.(.(.(.(.(.(.(.(.(.(.(.(.(.(.(.(.(.(.(.(.",
"(.(.(.(.(.(.(.(.(.(.(.(.(.(.(.(.(.(.(.(.(.(.(.(.(.(.(.(.(.(.(.(.(.(.(.(.(.(.(.(.(.(.(.(.(.(.(.(.(.(.(.(.(.(.(.(.(.(.(.(.(.(.(.(.",
"(.(.(.(.(.(.(.(.(.(.(.(.(.(.(.(.(.(.(.(.(.(.(.(.(.(.(.(.(.(.(.(.(.(.(.(.(.(.(.(.(.(.(.(.(.(.(.(.(.(.(.(.(.(.(.(.(.(.(.(.(.(.(.(.",
"(.(.(.(.(.(.(.(.(.(.(.(.(.(.(.(.(.(.(.(.(.(.(.(.(.(.(.(.(.(.(.(.(.(.(.(.(.(.(.(.(.(.(.(.(.(.(.(.(.(.(.(.(.(.(.(.(.(.(.(.(.(.(.(.",
"(.(.(.(.(.(.(.(.(.(.(.(.(.(.(.(.(.(.(.(.(.(.(.(.(.(.(.(.(.(.(.(.(.(.(.(.(.(.(.(.(.(.(.(.(.(.(.(.(.(.(.(.(.(.(.(.(.(.(.(.(.(.(.(.",
"(.(.(.(.(.(.(.(.(.(.(.(.(.(.(.(.(.(.(.(.(.(.(.(.(.(.(.(.(.!.~.!./.(.(.(.(.(.(.(.(.(.(.(.(.(.(.(.(.(.(.(.(.(.(.(.(.(.(.(.(.(.(.(.",
"(.(.(.(.(.(.(.(.(.(.(.(.(.(.(.(.(.(.(.(.(.(.(.(.(.(.U.l.s 3 2 2 3 3 f z.U.(.(.(.(.(.(.(.(.(.(.(.(.(.(.(.(.(.(.(.(.(.(.(.(.(.(.(.",
"(.(.(.(.(.(.(.(.(.(.(.(.(.(.(.(.(.(.(.(.(.(.(.~.v.1 . = 7 q t y a t 7 = . & k L.(.(.(.(.(.(.(.(.(.(.(.(.(.(.(.(.(.(.(.(.(.(.(.(.",
"(.(.(.(.(.(.(.(.(.(.(.(.(.(.(.(.(.(.(.(.(.(.n.< + 7 L E T E W ^  .&.w.q.o.D =   k Q.(.(.(.(.(.(.(.(.(.(.(.(.(.(.(.(.(.(.(.(.(.(.",
"(.(.(.(.(.(.(.(.(.(.(.(.(.(.(.(.(.(.(.(.(.l   4 K K F F B B B B V G [ w.g.q.O...+ < Y.(.(.(.(.(.(.(.(.(.(.(.(.(.(.(.(.(.(.(.(.(.",
"(.(.(.(.(.(.(.(.(.(.(.(.(.(.(.(.(.(.(.!.j . y F V N H ;.S e q q e b B K @.k.d.*.X.w % I.(.(.(.(.(.(.(.(.(.(.(.(.(.(.(.(.(.(.(.(.",
"(.(.(.(.(.(.(.(.(.(.(.(.(.(.(.(.(.(.(.l.. b V F J ;.S r e e e e e 0 q b V } j.B.=.%.t   L.(.(.(.(.(.(.(.(.(.(.(.(.(.(.(.(.(.(.(.",
"(.(.(.(.(.(.(.(.(.(.(.(.(.(.(.(.(.(.v.  v B F Y A y v b n b b v z r q 0 r N [ S.h.=.*.8 < Q.(.(.(.(.(.(.(.(.(.(.(.(.(.(.(.(.(.(.",
"(.(.(.(.(.(.(.(.(.(.(.(.(.(.(.(.(.(.& 4 B V >.Z b m M M N M m m n b z r q e B | G.p.%.*.- f (.(.(.(.(.(.(.(.(.(.(.(.(.(.(.(.(.(.",
"(.(.(.(.(.(.(.(.(.(.(.(.(.(.(.(.(.h * M B m m m B B B B B B B B M m n c r q r G a.H.=.O._ o n.(.(.(.(.(.(.(.(.(.(.(.(.(.(.(.(.(.",
"(.(.(.(.(.(.(.(.(.(.(.(.(.(.(.(.Q.o 0 B N n m N B B B B B B B B B N m n v r e n I G.V.O.%.q 3 /.(.(.(.(.(.(.(.(.(.(.(.(.(.(.(.(.",
"(.(.(.(.(.(.(.(.(.(.(.(.(.(.(.(.l @ M V N M M B B B B M M B M B N N M m b x e 9 B u.H.%.O.~ . Q.(.(.(.(.(.(.(.(.(.(.(.(.(.(.(.(.",
"(.(.(.(.(.(.(.(.(.(.(.(.(.(.(.(.. 9 N K D M N V B b c x x x r r y r r x n n r e n ( G.-.o.o.: h (.(.(.(.(.(.(.(.(.(.(.(.(.(.(.(.",
"(.(.(.(.(.(.(.(.(.(.(.(.(.(.(.L.. y F L V N B V G U t 0 0 q 0 q q q 0 q M m v e e G V.B.X.o.K o /.(.(.(.(.(.(.(.(.(.(.(.(.(.(.(.",
"(.(.(.(.(.(.(.(.(.(.(.(.(.(.(.v.X m L U m B N V G r.J x c c c v c c r q M M n z 0 M 7.G.X.X./   I.(.(.(.(.(.(.(.(.(.(.(.(.(.(.(.",
"(.(.(.(.(.(.(.(.(.(.(.(.(.(.(.l # M ~ ) M B B V K f.' m M m M m M m x q M B m c e b ( Z.$..._ O m.(.(.(.(.(.(.(.(.(.(.(.(.(.(.(.",
"(.(.(.(.(.(.(.(.(.(.(.(.(.(.(.d > D +.| M B B D K f.2.M N V B B B M c q M B M b r x U k.#. . .+ c.(.(.(.(.(.(.(.(.(.(.(.(.(.(.(.",
"(.(.(.(.(.(.(.(.(.(.(.(.(.(.(.1 4 B 0.| N B V F K f.2.N B N B B B M c q N B N n r x L g.#._ _ # z.(.(.(.(.(.(.(.(.(.(.(.(.(.(.(.",
"(.(.(.(.(.(.(.(.(.(.(.(.(.(.(.< 7 D s.6.N B V V K f.} N B B B B B M x q M B N m i x L t.#./ ^ * z.(.(.(.(.(.(.(.(.(.(.(.(.(.(.(.",
"(.(.(.(.(.(.(.(.(.(.(.(.(.(.(.1 6 D h.e.M B B V K f.2.M V B B B B M x e M V B m x c K q. .Q Q * z.(.(.(.(.(.(.(.(.(.(.(.(.(.(.(.",
"(.(.(.(.(.(.(.(.(.(.(.(.(.(.(.d , B N.i.M N B V K s.' N B B B B B M c q M B B M y v K 8.^ W E + c.(.(.(.(.(.(.(.(.(.(.(.(.(.(.(.",
"(.(.(.(.(.(.(.(.(.(.(.(.(.(.(.k * N M.A.M B V F K s.' N N B B B B M c q M B B m r n L #.W T L X b.(.(.(.(.(.(.(.(.(.(.(.(.(.(.(.",
"(.(.(.(.(.(.(.(.(.(.(.(.(.(.(.c.X n 9.R.M N B V K s.' M M B N N M m x q M N B m e N T | L L B   L.(.(.(.(.(.(.(.(.(.(.(.(.(.(.(.",
"(.(.(.(.(.(.(.(.(.(.(.(.(.(.(.P.  y P ^.3.N B V G V.@.T T T E T E L M q M G N n e V W E K K n   /.(.(.(.(.(.(.(.(.(.(.(.(.(.(.(.",
"(.(.(.(.(.(.(.(.(.(.(.(.(.(.(.~.. 9 F D.J.A N V K ) T E T T E I E E L V B B N v n K E G G D ; f (.(.(.(.(.(.(.(.(.(.(.(.(.(.(.(.",
"(.(.(.(.(.(.(.(.(.(.(.(.(.(.(.(.j # n <.^.<.N B F F F F F G G F F G V V B B M r B K K B A C   U.(.(.(.(.(.(.(.(.(.(.(.(.(.(.(.(.",
"(.(.(.(.(.(.(.(.(.(.(.(.(.(.(.(.Q.o 9 B K.T.H N B V D V V V V V V V B B N N n m V K B n m 6 ; ~.(.(.(.(.(.(.(.(.(.(.(.(.(.(.(.(.",
"(.(.(.(.(.(.(.(.(.(.(.(.(.(.(.(.(.f * b G R.N.Z B N B B B B B B B B B B N m b V F B n b v   b.(.(.(.(.(.(.(.(.(.(.(.(.(.(.(.(.(.",
"(.(.(.(.(.(.(.(.(.(.(.(.(.(.(.(.(.W.% 6 M ,.R.a.M M N B B B B B B N N N M m B V B n z z * d (.(.(.(.(.(.(.(.(.(.(.(.(.(.(.(.(.(.",
"(.(.(.(.(.(.(.(.(.(.(.(.(.(.(.(.(.(.x.. w M 1.F.h.P M A M M N M N N M M N B B M n y r 4 % I.(.(.(.(.(.(.(.(.(.(.(.(.(.(.(.(.(.(.",
"(.(.(.(.(.(.(.(.(.(.(.(.(.(.(.(.(.(.(.h   w M K h.C.0.G M M M M M B F V V B m A r r 7   m.(.(.(.(.(.(.(.(.(.(.(.(.(.(.(.(.(.(.(.",
"(.(.(.(.(.(.(.(.(.(.(.(.(.(.(.(.(.(.(.~.d X 0 n G U 6.f.y./ W E L K V V m n Z r r 5 X b.(.(.(.(.(.(.(.(.(.(.(.(.(.(.(.(.(.(.(.(.",
"(.(.(.(.(.(.(.(.(.(.(.(.(.(.(.(.(.(.(.(.).h . 4 x n B V K K K F V B m b C C r 0 * % m.(.(.(.(.(.(.(.(.(.(.(.(.(.(.(.(.(.(.(.(.(.",
"(.(.(.(.(.(.(.(.(.(.(.(.(.(.(.(.(.(.(.(.(.(.c.% $ 7 e c n m n n v z z C r 9 >   s U.(.(.(.(.(.(.(.(.(.(.(.(.(.(.(.(.(.(.(.(.(.(.",
"(.(.(.(.(.(.(.(.(.(.(.(.(.(.(.(.(.(.(.(.(.(.(.~.g .   @ 6 e y y p 7 : @     2 W.(.(.(.(.(.(.(.(.(.(.(.(.(.(.(.(.(.(.(.(.(.(.(.(.",
"(.(.(.(.(.(.(.(.(.(.(.(.(.(.(.(.(.(.(.(.(.(.(.(.(.Q.L.l.3 & % % < 3 g x.P.Y.).).(.(.(.(.(.(.(.(.(.(.(.(.(.(.(.(.(.(.(.(.(.(.(.(.",
"(.(.(.(.(.(.(.(.(.(.(.(.(.(.(.(.(.(.(.(.(.(.(.(.(.(.(.(.(.(.(.(.(.(.(.(.(.(.(.(.(.(.(.(.(.(.(.(.(.(.(.(.(.(.(.(.(.(.(.(.(.(.(.(.",
"(.(.(.(.(.(.(.(.(.(.(.(.(.(.(.(.(.(.(.(.(.(.(.(.(.(.(.(.(.(.(.(.(.(.(.(.(.(.(.(.(.(.(.(.(.(.(.(.(.(.(.(.(.(.(.(.(.(.(.(.(.(.(.(.",
"(.(.(.(.(.(.(.(.(.(.(.(.(.(.(.(.(.(.(.(.(.(.(.(.(.(.(.(.(.(.(.(.(.(.(.(.(.(.(.(.(.(.(.(.(.(.(.(.(.(.(.(.(.(.(.(.(.(.(.(.(.(.(.(.",
"(.(.(.(.(.(.(.(.(.(.(.(.(.(.(.(.(.(.(.(.(.(.(.(.(.(.(.(.(.(.(.(.(.(.(.(.(.(.(.(.(.(.(.(.(.(.(.(.(.(.(.(.(.(.(.(.(.(.(.(.(.(.(.(."
};
