/* XPM */
static char *ab62ee2f457e4a3deba34479db976ff0wToVpDGkvijSjZeX[] = {
/* columns rows colors chars-per-pixel */
"64 64 179 2 ",
"   c None",
".  c #010101",
"X  c #080704",
"o  c #0B0905",
"O  c #0D0C09",
"+  c #100E09",
"@  c #100C05",
"#  c #171207",
"$  c #15120A",
"%  c #1B1509",
"&  c #1D190E",
"*  c #21190A",
"=  c #2C220B",
"-  c #25210C",
";  c #33270D",
":  c #3B2C0D",
">  c #2C2412",
",  c #3C2F12",
"<  c #40300D",
"1  c #443413",
"2  c #4A3914",
"3  c #554115",
"4  c #5C4515",
"5  c #5A4819",
"6  c #644B15",
"7  c #6A4F16",
"8  c #644C19",
"9  c #6C5115",
"0  c #6E531A",
"q  c #745516",
"w  c #775816",
"e  c #7B5A15",
"r  c #725619",
"t  c #7B5D1A",
"y  c #72591C",
"u  c #7E601E",
"i  c #605A25",
"p  c #805F16",
"a  c #815F19",
"s  c #84621A",
"d  c #8A671A",
"f  c #8E6A1A",
"g  c #926D1D",
"h  c #97701D",
"j  c #9D741D",
"k  c #A4791E",
"l  c #A87B1E",
"z  c #8D6D24",
"x  c #957222",
"c  c #9C7624",
"v  c #9C7825",
"b  c #9B7728",
"n  c #A47C22",
"m  c #AA7F20",
"M  c #A07C2C",
"N  c #A07D30",
"B  c #AD8122",
"V  c #AB832A",
"C  c #B48624",
"Z  c #B58A26",
"A  c #BB8B25",
"S  c #B68B2A",
"D  c #BA8F29",
"F  c #BE922D",
"G  c #B38B31",
"H  c #B08D3B",
"J  c #A49335",
"K  c #BE9332",
"L  c #C38F24",
"P  c #C2942C",
"I  c #C8962B",
"U  c #C7982F",
"Y  c #CC9B2B",
"T  c #C69326",
"R  c #C49A32",
"E  c #CA9D32",
"W  c #CDA030",
"Q  c #CFA53D",
"!  c #D3A334",
"~  c #D9A736",
"^  c #DBAC34",
"/  c #D3A639",
"(  c #D4AB3B",
")  c #DBAE3A",
"_  c #D7B13C",
"`  c #DEB13B",
"'  c #E2AC34",
"]  c #E2B53E",
"[  c #E4BB3E",
"{  c #EBBB3D",
"}  c #F0B837",
"|  c #F4BE3A",
" . c #F4C23E",
".. c #FAC23D",
"X. c #9E9143",
"o. c #B49444",
"O. c #BC9944",
"+. c #C7A64F",
"@. c #CAA343",
"#. c #D8AC40",
"$. c #D4AB46",
"%. c #CBB141",
"&. c #DEB342",
"*. c #DDBC42",
"=. c #C4A451",
"-. c #DCB958",
";. c #E4B543",
":. c #E3BB42",
">. c #EDBC42",
",. c #EDBE48",
"<. c #E9B641",
"1. c #E5C040",
"2. c #ECC244",
"3. c #EECB4C",
"4. c #F4C342",
"5. c #F9C542",
"6. c #FBCA43",
"7. c #F4C44A",
"8. c #F6CB49",
"9. c #FECD4A",
"0. c #FED242",
"q. c #F4D24A",
"w. c #FED44B",
"e. c #F7D84E",
"r. c #FFDA4E",
"t. c #E7D055",
"y. c #FDD551",
"u. c #FFDC52",
"i. c #FDD45D",
"p. c #F3D657",
"a. c #E5E150",
"s. c #FFE255",
"d. c #FEE956",
"f. c #FFE55A",
"g. c #FEEB5B",
"h. c #E7C869",
"j. c #FEDE6F",
"k. c #EED077",
"l. c #F4DD70",
"z. c #EFE46B",
"x. c #FFE364",
"c. c #FFED61",
"v. c #FEE46A",
"b. c #FFEF6D",
"n. c #FFF264",
"m. c #FFF26B",
"M. c #FFE673",
"N. c #FEED73",
"B. c #FFF474",
"V. c #FFFB73",
"C. c #FFF77E",
"Z. c #FFFC7D",
"A. c #FFDE82",
"S. c #FEDF8E",
"D. c #FEEC80",
"F. c #FFF283",
"G. c #FFFE84",
"H. c #FFF48D",
"J. c #FFFB8B",
"K. c #FFEB9E",
"L. c #FEE49B",
"P. c #FFFE94",
"I. c #FFFD98",
"U. c #F9E7A9",
"Y. c #FDEFA2",
"T. c #FEFDA3",
"R. c #FEF7AC",
"E. c #FFFAAE",
"W. c #FFE9B1",
"Q. c #FFFFB3",
"!. c #FEFCBD",
"~. c #FFFCC2",
"^. c #FFFECB",
"/. c #FBF2CE",
"(. c #FFFFD5",
"). c #FEFDDC",
"_. c #FFFEEB",
"`. c #FEFDE1",
"'. c #FFFFF3",
/* pixels */
"                                                                                                                                ",
"                                                                                                                                ",
"                                                                                                                                ",
"                                                                                                                                ",
"                                                                                                                                ",
"                                                                                                                                ",
"                                                                                                                                ",
"                                                                                                                                ",
"                                                                                                                                ",
"                                                                                                                                ",
"                                                                                                                                ",
"                                                                                                                                ",
"                                                                                                                                ",
"                                                                                                                                ",
"                                                                                                                                ",
"                                                                                                                                ",
"                                                                                                                                ",
"                                                                                                                                ",
"                                                                                                                                ",
"                                                                                                                                ",
"                                                                                                                                ",
"                                                                                                                                ",
"                                                                                                                                ",
"                                                                                                                                ",
"                                                                                                                                ",
"                                                    . . . . O O X . . . . . .                                                   ",
"                                                . - i X.z.G.I.T.Q.Y.k.+.z 3 : o .                                               ",
"                                            . X J a.n.n.c.n.m.m.B.J.^.`./.h.L C 6 X .                                           ",
"                                          . 5 r.d.g.f.e.3.*.*.*.3.f.g.C.~._.U.$.L n : X                                         ",
"                                      . . M e.s.d. .@.=.o.u e e t s F u.g.G.'.).;.A A 8 .                                       ",
"                                      . v r.d.3.%.o.H S R ) &.&.( K b f R u.m.^.).-.C C 0 o                                     ",
"                                    . c r.s.[ +.N G 7.u.f.f.f.d.g.d.u.,.V h e.n.^.^.Y B B 8 .                                   ",
"                                  . 5 ..u.) O.V ` r.s.f.f.d.d.d.g.g.g.g.u.( n 2.n.~.R.K k l 2 .                                 ",
"                                  .  .u._ z V 7.u.s.s.f.f.f.f.f.d.g.d.g.g.g.7.n u.B.^.h.k k j % .                               ",
"                                . v r.q.x x >.u.s.s.s.s.s.s.s.s.f.f.f.f.f.g.g.*.Z f.J.T.F j j 7 .                               ",
"                              . ;  .u.n d >.u.s.u.u.r.r.r.r.r.r.r.r.r.s.s.f.f.f./ ) c.I.l.j j h & .                             ",
"                              . y r.1.d D y.u.u.w.5.5...5.| 4.>. . .5.5.5.u.s.f.f.E f.C.J.S g f 9 .                             ",
"                              . ^ r.F j >.u.s.s.8.Z m B m m m m B l j j A 6.f.f.g.&.:.c.G._ f f s #                             ",
"                              & 4.e.j D w.u.s.d.g.V v b b b b v v v b b B 6.s.f.g.u.Z g.Z.t.d d s = .                           ",
"                            . s e. .k { r.r.s.f.m.F <.9.9.9.9.9.9.9.9.9.I ..s.f.f.g./ q.n.g.f s s 2 .                           ",
"                            . A r.U C 8.r.r.u.d.n.P 2.u.u.f.s.u.f.f.s.s.Y 6.u.s.d.f.e.[ c.f.n t t 9 .                           ",
"                            X E s.S P 9.r.u.s.d.n.P 2.u.u.u.s.s.f.s.s.f.Y 6.u.f.d.f.s.[ g.u.S e e e .                           ",
"                            # ( e.Z ^ w.r.r.u.d.n.F ,.u.u.s.s.u.s.s.u.s.Y 6.r.s.f.f.f.{ g.y.P e e e o                           ",
"                            % ) e.Z [ w.r.r.s.f.n.P 2.u.u.s.u.s.u.u.s.s.Y 6.u.s.s.f.f.>.d.9.P e e e $                           ",
"                            & _ r.P { w.w.r.s.f.n.P 2.u.u.u.u.s.s.s.u.u.E 6.u.s.f.s.f.>.s.4.P e e e $                           ",
"                            # / u.E 7.w.w.r.r.f.n.P >.r.u.u.u.u.u.u.u.u.Y 6.u.s.s.f.u. .s.>.C e e e +                           ",
"                            O W s.^ 7.9.w.r.r.d.c.F >.r.r.r.u.u.u.u.u.u.Y 6.r.s.s.s.u.2.f.` l e e e X                           ",
"                            . S u.7.8.w.w.r.r.f.c.U >.r.r.r.r.u.u.u.u.u.Y 6.r.u.s.u.u.2.s.W g e e w .                           ",
"                            . h w.v.t.w.w.w.r.f.c.P >.w.r.r.w.u.r.r.r.u.I 5.u.s.u.u.6.q.u.I p e e 4 .                           ",
"                            . 2  .b.i.x.9.w.r.s.n.Q p.i.x.f.f.f.g.x.x.x.W 5.r.u.u.u.' u.] C e e e : .                           ",
"                              X ^ r.M.J.9.0.r.s.G.!.J.J.J.G.J.G.G.G.G.G.w.w.u.y.u.9.{ s.L c e e e * .                           ",
"                              . z w.N.N.j.9.w.r.n.Z.Z.Z.Z.Z.Z.Z.G.G.G.Z.V.d.u.u.u.2.r.2.C d e e 7 X                             ",
"                              . <  .x.V.H.9.w.y.r.s.d.d.d.g.g.g.g.g.g.g.f.s.u.u.y.| s.! B e e e 1 .                             ",
"                                o V w.J.I.K.9.9.w.r.r.r.u.s.u.s.s.s.s.s.u.y.r.w.} y.8.C d e e 7 X                               ",
"                                . > ^ r.I.T.j.9.9.w.w.w.r.r.r.r.r.r.r.r.u.r.w.| e.s.S j e e e ; .                               ",
"                                  . t 4.x.Q.^.L.9.9.9.w.w.w.r.r.r.r.w.r.r.9.| 0.r.) l d e e 4 X                                 ",
"                                  . # n 6.f.^.(.W.9.9.9.9.w.w.r.w.w.w.w.9...r.r.2.l f e e r X .                                 ",
"                                    . & V 6.x.E.(.~.L.i.6.6.9.9.9.9.r.6.6.r.r.[ l c e e e * .                                   ",
"                                      . * c { r.D.^.!.~.E.D.v.x.g.d.0.s.s.w._ k n t e q $ .                                     ",
"                                        . % s W 6.u.M.F.J.G.B.n.g.f.s.r.2.D j x t e 4 # .                                       ",
"                                          . . 3 g ~ 4.6.w.w.r.r.w.8.2.P j c f e 9 , . .                                         ",
"                                              . # 1 s B S S F Z C n v v d t 3 = o .                                             ",
"                                                  . . $ , 6 r r 9 5 1 > $ . . .                                                 ",
"                                                        . . . . . . . .                                                         "
};
