/* XPM */
static char *_b2901c3a1a146409f906a10d45d40dfF3a4lX1AQjdbscXm[] = {
/* columns rows colors chars-per-pixel */
"64 64 178 2 ",
"   c #040402",
".  c #080704",
"X  c #0C0904",
"o  c #0B0B0B",
"O  c #110E07",
"+  c #161106",
"@  c #17140D",
"#  c #1C160C",
"$  c #1B160A",
"%  c gray8",
"&  c #1E1E1E",
"*  c #241C0C",
"=  c #31250C",
"-  c #372A0C",
";  c #2F2511",
":  c #342A13",
">  c #392C13",
",  c #3D3115",
"<  c #232322",
"1  c gray18",
"2  c #333333",
"3  c #3A3A3A",
"4  c #4C3A14",
"5  c #463512",
"6  c #503E15",
"7  c #5B4515",
"8  c #544319",
"9  c #624914",
"0  c #6A4E14",
"q  c #6E5115",
"w  c #6D5219",
"e  c #745515",
"r  c #7B5B16",
"t  c #75591B",
"y  c #7C5D1A",
"u  c #745717",
"i  c #7E601C",
"p  c #775F22",
"a  c #796121",
"s  c #444444",
"d  c gray29",
"f  c gray33",
"g  c #5A5A5A",
"h  c #636363",
"j  c #6A6A6A",
"k  c #727272",
"l  c #7C7C7C",
"z  c #805F17",
"x  c #836117",
"c  c #856218",
"v  c #896619",
"b  c #8D691A",
"n  c #936D1B",
"m  c #97701B",
"M  c #9D741C",
"N  c #A0771D",
"B  c #A4791D",
"V  c #A97C1F",
"C  c #8B6920",
"Z  c #926E23",
"A  c #997729",
"S  c #957B34",
"D  c #A37A22",
"F  c #AA7E20",
"G  c #AE8121",
"H  c #A6812C",
"J  c #AC852E",
"K  c #B28422",
"L  c #BA8A24",
"P  c #B78D2B",
"I  c #BD8F2A",
"U  c #BB932E",
"Y  c #BB9438",
"T  c #C18F24",
"R  c #C08F28",
"E  c #C49124",
"W  c #CA9526",
"Q  c #CF9A26",
"!  c #C3942A",
"~  c #CC9A2C",
"^  c #D49E2A",
"/  c #D29B27",
"(  c #C69D33",
")  c #CB9E34",
"_  c #DDA428",
"`  c #DFA92E",
"'  c #CCA53D",
"]  c #CEAA3F",
"[  c #C9A135",
"{  c #DFAA31",
"}  c #D2AB3D",
"|  c #D9A839",
" . c #E5A92A",
".. c #EFB12C",
"X. c #F4B42D",
"o. c #F7B82D",
"O. c #FDBC2F",
"+. c #E0AE3C",
"@. c #E1B73F",
"#. c #E9B83A",
"$. c #F4B934",
"%. c #FFBE32",
"&. c #F6BE3A",
"*. c #FEC02F",
"=. c #FFC332",
"-. c #FDCC3F",
";. c #AE8D43",
":. c #BE9F4E",
">. c #B79642",
",. c #C69F40",
"<. c #C39E4B",
"1. c #C7A141",
"2. c #CFAD41",
"3. c #C5A54F",
"4. c #D0AD40",
"5. c #DEB947",
"6. c #DDB947",
"7. c #E3BE4D",
"8. c #F5BF43",
"9. c #D6BA68",
"0. c #EFC84F",
"q. c #F9CD4A",
"w. c #FFDA4D",
"e. c #E0CC53",
"r. c #F4CF59",
"t. c #FDDF58",
"y. c #F4D751",
"u. c #E1C864",
"i. c #E4D86E",
"p. c #FFDA67",
"a. c #ECD977",
"s. c #F6E462",
"d. c #FEE76E",
"f. c #F7E763",
"g. c #FFF569",
"h. c #F9E778",
"j. c #FFFD79",
"k. c #FFFB71",
"l. c #838383",
"z. c gray55",
"x. c #929292",
"c. c #9D9D9D",
"v. c #A2A2A2",
"b. c #ADADAD",
"n. c #BBBBBB",
"m. c #B4B4B4",
"M. c #E2CF83",
"N. c #EEDD84",
"B. c #FEEC8A",
"V. c #FAE986",
"C. c #FEF685",
"Z. c #FFFF8D",
"A. c #F0E597",
"S. c #FFFD97",
"D. c #EFDDAB",
"F. c #F8EFAE",
"G. c #FFFDAB",
"H. c #FFFAB3",
"J. c #FAF5BA",
"K. c #F7E6B6",
"L. c #CBCBCB",
"P. c #C4C4C4",
"I. c #D2D2D2",
"U. c #DADADA",
"Y. c #DCDCDC",
"T. c #FEFFC6",
"R. c #FAF4CF",
"E. c #FEF9D0",
"W. c #E2E2E2",
"Q. c gray92",
"!. c #F6F6F6",
"~. c #F5F5F5",
"^. c #FFFFF4",
"/. c #FAFAFA",
"(. c white",
"). c #FEFEFE",
"_. c gray99",
"`. c #FFFFFF",
/* pixels */
"(.(.(.(.(.(.(.(.(.(.(.(.(.(.(.(.(.(.(.(.(.(.(.(.(.(.(.(.(.(.(.(.(.(.(.(.(.(.(.(.(.(.(.(.(.(.(.(.(.(.(.(.(.(.(.(.(.(.(.(.(.(.(.(.",
"(.(.(.(.(.(.(.(.(.(.(.(.(.(.(.(.(.(.(.(.(.(.(.(.(.(.(.(.(.(.(.(.(.(.(.(.(.(.(.(.(.(.(.(.(.(.(.(.(.(.(.(.(.(.(.(.(.(.(.(.(.(.(.(.",
"(.(.(.(.(.(.(.(.(.(.(.(.(.(.(.(.(.(.(.(.(.(.(.(.(.(.(.(.(.(.(.(.(.(.(.(.(.(.(.(.(.(.(.(.(.(.(.(.(.(.(.(.(.(.(.(.(.(.(.(.(.(.(.(.",
"(.(.(.(.(.(.(.(.(.(.(.(.(.(.(.(.(.(.(.(.(.(.(.(.(.(.(.(.(.(.(.(.(.(.(.(.(.(.(.(.(.(.(.(.(.(.(.(.(.(.(.(.(.(.(.(.(.(.(.(.(.(.(.(.",
"(.(.(.(.(.(.(.(.(.(.(.(.(.(.(.(.(.(.(.(.(.(.(.(.(.(.(.(.(.(.(.(.(.(.(.(.(.(.(.(.(.(.(.(.(.(.(.(.(.(.(.(.(.(.(.(.(.(.(.(.(.(.(.(.",
"(.(.(.(.(.(.(.(.(.(.(.(.(.(.(.(.(.(.(.(.(.(.(.(.(.(.(.(.(.(.(.(.(.(.(.(.(.(.(.(.(.(.(.(.(.(.(.(.(.(.(.(.(.(.(.(.(.(.(.(.(.(.(.(.",
"(.(.(.(.(.(.(.(.(.(.(.(.(.(.(.(.(.(.(.(.(.(.(.(.(.(.(.(.(.(.(.(.(.(.(.(.(.(.(.(.(.(.(.(.(.(.(.(.(.(.(.(.(.(.(.(.(.(.(.(.(.(.(.(.",
"(.(.(.(.(.(.(.(.(.(.(.(.(.(.(.(.(.(.(.(.(.(.(.(.(.(.(.(.(.(.(.(.(.(.(.(.(.(.(.(.(.(.(.(.(.(.(.(.(.(.(.(.(.(.(.(.(.(.(.(.(.(.(.(.",
"(.(.(.(.(.(.(.(.(.(.(.(.(.(.(.(.(.(.(.(.(.(.(.(.(.(.(.(.(.(.(.(.(.(.(.(.(.(.(.(.(.(.(.(.(.(.(.(.(.(.(.(.(.(.(.(.(.(.(.(.(.(.(.(.",
"(.(.(.(.(.(.(.(.(.(.(.(.(.(.(.(.(.(.(.(.(.(.(.(.(.(.(.(.(.(.(.(.(.(.(.(.(.(.(.(.(.(.(.(.(.(.(.(.(.(.(.(.(.(.(.(.(.(.(.(.(.(.(.(.",
"(.(.(.(.(.(.(.(.(.(.(.(.(.(.(.(.(.(.(.(.(.(.(.(.(.(.(.(.(.(.(.(.(.(.(.(.(.(.(.(.(.(.(.(.(.(.(.(.(.(.(.(.(.(.(.(.(.(.(.(.(.(.(.(.",
"(.(.(.(.(.(.(.(.(.(.(.(.(.(.(.(.(.(.(.(.(.(.(.(.(.(.(.(.(.(.(.(.(.(.(.(.(.(.(.(.(.(.(.(.(.(.(.(.(.(.(.(.(.(.(.(.(.(.(.(.(.(.(.(.",
"(.(.(.(.(.(.(.(.(.(.(.(.(.(.(.(.(.(.(.(.(.(.(.(.(.(.(.(.(.(.(.(.(.(.(.(.(.(.(.(.(.(.(.(.(.(.(.(.(.(.(.(.(.(.(.(.(.(.(.(.(.(.(.(.",
"(.(.(.(.(.(.(.(.(.(.(.(.(.(.(.(.(.(.(.(.(.(.(.(.(.(.(.(.(.(.(.(.(.(.(.(.(.(.(.(.(.(.(.(.(.(.(.(.(.(.(.(.(.(.(.(.(.(.(.(.(.(.(.(.",
"(.(.(.(.(.(.(.(.(.(.(.(.(.(.(.(.(.(.(.(.(.(.(.(.(.(.(.(.(.(.(.(.(.(.(.(.(.(.(.(.(.(.(.(.(.(.(.(.(.(.(.(.(.(.(.(.(.(.(.(.(.(.(.(.",
"(.(.(.(.(.(.(.(.(.(.(.(.(.(.(.(.(.(.(.(.(.(.(.(.(.(.(.(.(.(.(.(.(.(.(.(.(.(.(.(.(.(.(.(.(.(.(.(.(.(.(.(.(.(.(.(.(.(.(.(.(.(.(.(.",
"(.(.(.(.(.(.(.(.(.(.(.(.(.(.(.(.(.(.(.(.(.(.(.(.(.(.(.(.(.(.(.(.(.(.(.(.(.(.(.(.(.(.(.(.(.(.(.(.(.(.(.(.(.(.(.(.(.(.(.(.(.(.(.(.",
"(.(.(.(.(.(.(.(.(.(.(.(.(.(.(.(.(.(.(.(.(.(.(.(.(.(.(.(.(.(.(.(.(.(.(.(.(.(.(.(.(.(.(.(.(.(.(.(.(.(.(.(.(.(.(.(.(.(.(.(.(.(.(.(.",
"(.(.(.(.(.(.(.(.(.(.(.(.(.(.(.(.(.(.(.(.(.(.(.(.(.(.(.(.(.(.(.(.(.(.(.(.(.(.(.(.(.(.(.(.(.(.(.(.(.(.(.(.(.(.(.(.(.(.(.(.(.(.(.(.",
"(.(.(.(.(.(.(.(.(.(.(.(.(.(.(.(.(.(.(.(.(.(.(.(.(.(.(.(.(.(.(.(.(.(.(.(.(.(.(.(.(.(.(.(.(.(.(.(.(.(.(.(.(.(.(.(.(.(.(.(.(.(.(.(.",
"(.(.(.(.(.(.(.(.(.(.(.(.(.(.(.(.(.(.(.(.(.(.(.(.(.(.(.(.(.(.(.(.(.(.(.(.(.(.(.(.(.(.(.(.(.(.(.(.(.(.(.(.(.(.(.(.(.(.(.(.(.(.(.(.",
"(.(.(.(.(.(.(.(.(.(.(.(.(.(.(.(.(.(.(.(.(.(.(.(.(.(.(.(.(.(.(.(.(.(.(.(.(.(.(.(.(.(.(.(.(.(.(.(.(.(.(.(.(.(.(.(.(.(.(.(.(.(.(.(.",
"(.(.(.(.(.(.(.(.(.(.(.(.(.(.(.(.(.(.(.(.(.(.(.(.(.(.(.(.(.(.(.(.(.(.(.(.(.(.(.(.(.(.(.(.(.(.(.(.(.(.(.(.(.(.(.(.(.(.(.(.(.(.(.(.",
"(.(.(.(.(.(.(.(.(.(.(.(.(.(.(.(.(.(.(.(.(.(.(.(.(.(.(.(.(.(.(.(.(.(.(.(.(.(.(.(.(.(.(.(.(.(.(.(.(.(.(.(.(.(.(.(.(.(.(.(.(.(.(.(.",
"(.(.(.(.(.(.(.(.(.(.(.(.(.(.(.(.(.(.(.(.(.(.(.(.(.(.(.(.(.(.).!.!.!.!.(.(.(.(.(.(.(.(.(.(.(.(.(.(.(.(.(.(.(.(.(.(.(.(.(.(.(.(.(.",
"(.(.(.(.(.(.(.(.(.(.(.(.(.(.(.(.(.(.(.(.(.(.(.(.(.(.(.U.z.f s 3 2 2 3 s l.U.(.(.(.(.(.(.(.(.(.(.(.(.(.(.(.(.(.(.(.(.(.(.(.(.(.(.",
"(.(.(.(.(.(.(.(.(.(.(.(.(.(.(.(.(.(.(.(.(.(.(.(.L.k &   = 7 t i t t w 7 = . 1 v.~.(.(.(.(.(.(.(.(.(.(.(.(.(.(.(.(.(.(.(.(.(.(.(.",
"(.(.(.(.(.(.(.(.(.(.(.(.(.(.(.(.(.(.(.(.(.(.Q.k   = D $.-.y.=. .^ W E E E L 7 + < n.(.(.(.(.(.(.(.(.(.(.(.(.(.(.(.(.(.(.(.(.(.(.",
"(.(.(.(.(.(.(.(.(.(.(.(.(.(.(.(.(.(.(.(.(.Y.< + X.o.-.g.w.[ G V B B B V V G G K 6   l (.(.(.(.(.(.(.(.(.(.(.(.(.(.(.(.(.(.(.(.(.",
"(.(.(.(.(.(.(.(.(.(.(.(.(.(.(.(.(.(.(.(.I.% w o.*.d.k.@.K V v e e 0 e S >.D D F G y o h !.(.(.(.(.(.(.(.(.(.(.(.(.(.(.(.(.(.(.(.",
"(.(.(.(.(.(.(.(.(.(.(.(.(.(.(.(.(.(.(.L.  t *.=.B.C.} B b q q q e e e e r S ;.J F D b . l.(.(.(.(.(.(.(.(.(.(.(.(.(.(.(.(.(.(.(.",
"(.(.(.(.(.(.(.(.(.(.(.(.(.(.(.(.(.(.Q.< 8 O.=.h.S.[ B r 0 e r x v v b n b c r S Y F B v   v.(.(.(.(.(.(.(.(.(.(.(.(.(.(.(.(.(.(.",
"(.(.(.(.(.(.(.(.(.(.(.(.(.(.(.(.(.(.f - %.=.p.G.} V e q r i b m n M M N M M m b Z >.F V 4 & (.(.(.(.(.(.(.(.(.(.(.(.(.(.(.(.(.(.",
"(.(.(.(.(.(.(.(.(.(.(.(.(.(.(.(.(.n.o ^ *.=.H.a.V r q r v n m M N B B B B B N N n n n V M * h (.(.(.(.(.(.(.(.(.(.(.(.(.(.(.(.(.",
"(.(.(.(.(.(.(.(.(.(.(.(.(.(.(.(./.3 w O.O.V.G.I n e r v n m N N B B B B B B B B N m n B B 0 o Q.(.(.(.(.(.(.(.(.(.(.(.(.(.(.(.(.",
"(.(.(.(.(.(.(.(.(.(.(.(.(.(.(.(.W.o / O.%.H.u.N 0 e c b m M M M N M N N M B B B B N M N V m @ l (.(.(.(.(.(.(.(.(.(.(.(.(.(.(.(.",
"(.(.(.(.(.(.(.(.(.(.(.(.(.(.(.(.h ; o.o.-.G.( n 0 z b n c r r r r z z z x c b V B N M V F B 9 o _.(.(.(.(.(.(.(.(.(.(.(.(.(.(.(.",
"(.(.(.(.(.(.(.(.(.(.(.(.(.(.(./.% K o.o.B.h.G u r v m M 0 0 q q q 0 0 0 0 e U G V B N D L F y   L.(.(.(.(.(.(.(.(.(.(.(.(.(.(.(.",
"(.(.(.(.(.(.(.(.(.(.(.(.(.(.(.U.  / ..X.G.7.M q x b M M 0 r x v v v c c c J r.K V B B m ! P m X v.(.(.(.(.(.(.(.(.(.(.(.(.(.(.(.",
"(.(.(.(.(.(.(.(.(.(.(.(.(.(.(.m.O _  .$.Z.( b e v m B M e x m m M m M M n ' f.K V V N M ) ~ M # l (.(.(.(.(.(.(.(.(.(.(.(.(.(.(.",
"(.(.(.(.(.(.(.(.(.(.(.(.(.(.(.c.+  . .#.j.U c r b M B M q v M B B B B N M 2.f.K G B B M } +.B > d (.(.(.(.(.(.(.(.(.(.(.(.(.(.(.",
"(.(.(.(.(.(.(.(.(.(.(.(.(.(.(.z.* _ _ #.g.P z r n N B M q c M B B B B B N 2.f.K G N B M | 0.B 6 1 (.(.(.(.(.(.(.(.(.(.(.(.(.(.(.",
"(.(.(.(.(.(.(.(.(.(.(.(.(.(.(.l.* / ^ #.t.K c r m B B M q c M B V B B B N } s.K G V B M 6.s.B 7 < (.(.(.(.(.(.(.(.(.(.(.(.(.(.(.",
"(.(.(.(.(.(.(.(.(.(.(.(.(.(.(.z.$ Q /  .q.K c c m B B B e x M B B B B B M ] f.K B B B M e.h.B 8 1 (.(.(.(.(.(.(.(.(.(.(.(.(.(.(.",
"(.(.(.(.(.(.(.(.(.(.(.(.(.(._.c.+ W W ^ q.L z z M V B M q c M N B B B B N ' s.K G B N M i.V.N , s (.(.(.(.(.(.(.(.(.(.(.(.(.(.(.",
"(.(.(.(.(.(.(.(.(.(.(.(.(.(.(.b.X L T W +.L n z m B B M q v m B N B B N N } s.K V B N m A.a.M * k (.(.(.(.(.(.(.(.(.(.(.(.(.(.(.",
"(.(.(.(.(.(.(.(.(.(.(.(.(.(.(.I.  B L L | R N e m B B N 0 x m N N N B M M ' s.K V B B M R.9.n X v.(.(.(.(.(.(.(.(.(.(.(.(.(.(.(.",
"(.(.(.(.(.(.(.(.(.(.(.(.(.(.(.!.  m L F E W V e n N B M q M L E T E E T T +.V.G V B B 3.!.P y   P.(.(.(.(.(.(.(.(.(.(.(.(.(.(.(.",
"(.(.(.(.(.(.(.(.(.(.(.(.(.(.(.(.g = V F G ! G n v N B B B L E E R T T T E T [ G B N D J.D.N 7 o !.(.(.(.(.(.(.(.(.(.(.(.(.(.(.(.",
"(.(.(.(.(.(.(.(.(.(.(.(.(.(.(.(.U.  b N N L K B r M B B V V V G F G G F F G V G B M :._.<.n $ j (.(.(.(.(.(.(.(.(.(.(.(.(.(.(.(.",
"(.(.(.(.(.(.(.(.(.(.(.(.(.(.(.(.!.< 6 m n B K V m n N B B V V V F F V V B V B B N H T.K.V 0 o Q.(.(.(.(.(.(.(.(.(.(.(.(.(.(.(.(.",
"(.(.(.(.(.(.(.(.(.(.(.(.(.(.(.(._.b.. c b n V V V b m M B B B B B N B B B B B N M N.R.G b * f (.(.(.(.(.(.(.(.(.(.(.(.(.(.(.(.(.",
"(.(.(.(.(.(.(.(.(.(.(.(.(.(.(.(.(.(.s * z z n N B V m M N N B B B B B B N N M N a.R.1.M 4 % W.(.(.(.(.(.(.(.(.(.(.(.(.(.(.(.(.(.",
"(.(.(.(.(.(.(.(.(.(.(.(.(.(.(.(.(.(.I.% 4 r r n M B V N M M N N N N N N M A P h.F.1.M w X z.(.(.(.(.(.(.(.(.(.(.(.(.(.(.(.(.(.(.",
"(.(.(.(.(.(.(.(.(.(.(.(.(.(.(.(.(.(.(.n.  7 r r A m B V V V B M M M M M G 0.C.h.K M w   h (.(.(.(.(.(.(.(.(.(.(.(.(.(.(.(.(.(.(.",
"(.(.(.(.(.(.(.(.(.(.(.(.(.(.(.(.(.(.(._.b.o 5 r r Z b m V V K L T E Q y.s.7.U B n w X d !.(.(.(.(.(.(.(.(.(.(.(.(.(.(.(.(.(.(.(.",
"(.(.(.(.(.(.(.(.(.(.(.(.(.(.(.(.(.(.(.(.(.b.% ; q r C b b n N F F K L K F B n c 5 X h (.(.(.(.(.(.(.(.(.(.(.(.(.(.(.(.(.(.(.(.(.",
"(.(.(.(.(.(.(.(.(.(.(.(.(.(.(.(.(.(.(.(.(.(.U.s   > 9 t C c c c n m n n c e 7 @ % c.(.(.(.(.(.(.(.(.(.(.(.(.(.(.(.(.(.(.(.(.(.(.",
"(.(.(.(.(.(.(.(.(.(.(.(.(.(.(.(.(.(.(.(.(.(.(.(.W.1     % > 7 p z y w 6 #   o g ~.(.(.(.(.(.(.(.(.(.(.(.(.(.(.(.(.(.(.(.(.(.(.(.",
"(.(.(.(.(.(.(.(.(.(.(.(.(.(.(.(.(.(.(.(.(.(.(.(.(.(.Y.P.x.g 3 & % % & 3 l.P.Q.(.(.(.(.(.(.(.(.(.(.(.(.(.(.(.(.(.(.(.(.(.(.(.(.(.",
"(.(.(.(.(.(.(.(.(.(.(.(.(.(.(.(.(.(.(.(.(.(.(.(.(.(.(.(.(.(.(.(.(.(.(.(.(.(.(.(.(.(.(.(.(.(.(.(.(.(.(.(.(.(.(.(.(.(.(.(.(.(.(.(.",
"(.(.(.(.(.(.(.(.(.(.(.(.(.(.(.(.(.(.(.(.(.(.(.(.(.(.(.(.(.(.(.(.(.(.(.(.(.(.(.(.(.(.(.(.(.(.(.(.(.(.(.(.(.(.(.(.(.(.(.(.(.(.(.(.",
"(.(.(.(.(.(.(.(.(.(.(.(.(.(.(.(.(.(.(.(.(.(.(.(.(.(.(.(.(.(.(.(.(.(.(.(.(.(.(.(.(.(.(.(.(.(.(.(.(.(.(.(.(.(.(.(.(.(.(.(.(.(.(.(.",
"(.(.(.(.(.(.(.(.(.(.(.(.(.(.(.(.(.(.(.(.(.(.(.(.(.(.(.(.(.(.(.(.(.(.(.(.(.(.(.(.(.(.(.(.(.(.(.(.(.(.(.(.(.(.(.(.(.(.(.(.(.(.(.(."
};
