/* XPM */
static char *b639f417d5aa4c429c60bd81e9ee1a0dpgT2DBXc7iq1yFjC[] = {
/* columns rows colors chars-per-pixel */
"64 64 202 2 ",
"   c #0C0F0A",
".  c #0E120C",
"X  c #10140E",
"o  c #141613",
"O  c #161915",
"+  c #1A1B17",
"@  c #1B1D1A",
"#  c #181615",
"$  c #221E1C",
"%  c #1E221D",
"&  c #22221F",
"*  c #28221F",
"=  c #1B1F22",
"-  c #1D2224",
";  c #1E262D",
":  c #222521",
">  c #2A2522",
",  c #252A24",
"<  c #2B2A26",
"1  c #2A2D29",
"2  c #21272D",
"3  c #312B27",
"4  c #342D2A",
"5  c #2C322B",
"6  c #2F392E",
"7  c #283027",
"8  c #34332D",
"9  c #39312E",
"0  c #31392F",
"q  c #212C35",
"w  c #222E38",
"e  c #24323E",
"r  c #323432",
"t  c #3D3532",
"y  c #333A32",
"u  c #383937",
"i  c #363D3A",
"p  c #393A39",
"a  c #403836",
"s  c #403734",
"d  c #364135",
"f  c #384437",
"g  c #3A433B",
"h  c #3D493B",
"j  c #37423C",
"k  c #414D3F",
"l  c #40433E",
"z  c #253644",
"x  c #263949",
"c  c #273B4C",
"v  c #333D45",
"b  c #293F51",
"n  c #273E52",
"m  c #3B4343",
"M  c #3E4A42",
"N  c #3E4A48",
"B  c #314040",
"V  c #2C4356",
"C  c #2B455C",
"Z  c #2E495D",
"A  c #334C5D",
"S  c #384955",
"D  c #3A505F",
"F  c #2E4B65",
"G  c #2F4E69",
"H  c #334E63",
"J  c #304F6A",
"K  c #365265",
"L  c #3B5563",
"P  c #31516C",
"I  c #3B596D",
"U  c #3C5768",
"Y  c #325573",
"T  c #345876",
"R  c #345B7B",
"E  c #385E7C",
"W  c #395C75",
"Q  c #2F526F",
"!  c #3E6175",
"~  c #3C627D",
"^  c #434443",
"/  c #434D46",
"(  c #424E4C",
")  c #4A4D4B",
"_  c #484D47",
"`  c #44524A",
"'  c #4B534D",
"]  c #4D5D4A",
"[  c #465544",
"{  c #50524F",
"}  c #445252",
"|  c #4D5452",
" . c #4A5B55",
".. c #4C5C59",
"X. c #44585A",
"o. c #545453",
"O. c #5C5C5C",
"+. c #565955",
"@. c #4E625B",
"#. c #50625D",
"$. c #5A6359",
"%. c #50624D",
"&. c #425C6A",
"*. c #445A62",
"=. c #4C6264",
"-. c #4D676B",
";. c #516260",
":. c #556B63",
">. c #586C64",
",. c #536C69",
"<. c #5B6E6A",
"1. c #5C736B",
"2. c #476677",
"3. c #5D7373",
"4. c #59747A",
"5. c #5B6E71",
"6. c #636363",
"7. c #676867",
"8. c #6C6C6C",
"9. c #60766E",
"0. c #627A6F",
"q. c #6B706A",
"w. c #637673",
"e. c #657C72",
"r. c #697B75",
"t. c #687D7B",
"y. c #737473",
"u. c #7B7B7B",
"i. c #698173",
"p. c #6B827B",
"a. c #70867E",
"s. c #71887E",
"d. c #365F81",
"f. c #376184",
"g. c #3A6384",
"h. c #37658A",
"j. c #39668B",
"k. c #3A698E",
"l. c #37688D",
"z. c #3B6C94",
"x. c #3B6F98",
"c. c #3F7097",
"v. c #3C729C",
"b. c #3D76A2",
"n. c #3E79A5",
"m. c #3E7BA9",
"M. c #476C81",
"N. c #527383",
"B. c #406E91",
"V. c #447495",
"C. c #41759C",
"Z. c #4A7B9C",
"A. c #4F778C",
"S. c #667E83",
"D. c #4277A0",
"F. c #4479A2",
"G. c #437EAA",
"H. c #487FA5",
"J. c #738780",
"K. c #748B83",
"L. c #798C86",
"P. c #7A928A",
"I. c #789087",
"U. c #6F8883",
"Y. c #4581AD",
"T. c #4983AD",
"R. c #4684B2",
"E. c #4A86B2",
"W. c #4A89B6",
"Q. c #4E8DBB",
"!. c #518DB8",
"~. c #5892B6",
"^. c #5492BC",
"/. c #5596C4",
"(. c #5799C7",
"). c #579AC8",
"_. c #5A9DCA",
"`. c #5999C5",
"'. c #5FA0CC",
"]. c #61A2CD",
"[. c #848484",
"{. c #8B8B8B",
"}. c #809690",
"|. c #829A92",
" X c #829992",
".X c #849C94",
"XX c #879E99",
"oX c #939393",
"OX c #9C9C9C",
"+X c #80988F",
"@X c #8CA29C",
"#X c #8BA39B",
"$X c #96AEA6",
"%X c #91A9A2",
"&X c #99B1A9",
"*X c #A3A3A3",
"=X c #AAAAAA",
"-X c #B4B4B4",
";X c #BCBCBC",
":X c #C9C9C9",
">X c #D5D5D5",
",X c gray88",
/* pixels */
"m N X.....;.;.;.;.;.=.=.;.;.;.;.;.;.;.;.;.*.;.;.;.;.;.O.;.*.H H H } ;.;.;.;.;.;.;.;.;.;.;.;.;.;.;.;.=.O.=.#.;.;.;.;.;.| ( p u r ",
"i N ;.9.w.r.w.w.w.w.w.w.w.w.w.w.w.w.w.w.r.w.w.w.5.5.H J P z.j.d.x.x.R P H 5.w.8.w.w.w.w.w.w.w.w.w.w.w.5.w.w.w.w.w.w.w.<.} v u r ",
"y / 9.L..X@X@X#XXXXXOX@X@X@XXXOX@X@X@X@XXXXXXXS.N.d.R d.D.G.x.j.G.n.b.z.R d.A.XXXX@X@X#X@X@X@X@X@X@X@X@X@X@X@X@XXXXX%XP.<.} m u ",
"r / r. X%X&X$X$X&X$X$X$X$X$X$X$X$X$X$X&X&X%XS.J C.n.n.D.G.Q.G.V./.W.G.G.b.D.v.d.4.$X$X$X$X$X$X$X$X$X$X$X$X$X&X&X&X$X$X X0. .h i ",
"0 ` a..X@X#XXX X X X X X X X X X X X XP.S.&.H x.G.W./.W.G.F.H.g.D.G.G.W./.W.G.b.T 2.t. X X X X X X X X X X X.XP..X.XP.K.:.' h j ",
"r ` J..XP.L.a.a.p.t.U.J.U.t.p.p.p.t.3.I E d.P R.W.D.C.D.B.d.k.P d.d.j.C.B.D.W.G.j.V.Y 2.p.J.p.U.J.S.p.U.p.J.U.p.s.s.U.e.#.` h d ",
"0 ' K. Xp.<.<.>.>.;.;.;.;.;.,.;.=.*.W d.b.G.B.C.z.k.k.d.d.R R Q J R d.d.h.j.B.C.V.!.b.z.R <.9.7.7.5.<.<.1.1.<.1.1.1.1.:.@.` m p ",
"0 ' K. Xw...#.................X.A R v.G.Y.R.H.Y d.d.d.Y R Y Y J J Y Y Y d.d.d.R z.T.W.m.m.h.H :.;.;.;.;.:.:.:.@.:.@.@.@. .' g f ",
"6 ' L.P.w...#.........O...@. .D R v.G.W.T.x.h.R J Y R Y Y G F V b F P Y Y Y J Y d.l.H.E.R.G.d.P :.#.#.:.>.>.>.#.@.=.#.@. .` h i ",
"0 ' L. X9.#.#.#.O.#.#...#.#.L R b.G.R.C.z.R R P J H J n b c ; : 2 z b b Z J J Y T R h.C.E.G.m.d.K >.>.,.1.>.>.>.;.@.#... ./ h i ",
"0 ' L. Xw.#.;.#.@...;.;.:.-.~ v.G.E.B.h.E T J x x x x + # + $ * * $ $ # q z x x C Y T d.j.!.G.G.h.1.1.1.1.:.:.#.:.@.=.@. .( j 0 ",
"6 ' J.P.0.;.;.=.;.;.;.:.=.K v.m.E.C.h.T Y H e $ $ & $ > > > 3 4 3 > > > $ $ $ $ 2 C Q R d.j.E.R.m.T 1.1.1.1.:.:.:.:.#.@. .` f y ",
"6 ` i.K.0.:.$.$.:.;.;.=.A k.Y.T.x.g.R P c 2 & 3 4 t 3 > 9 t t t s t 9 4 > 9 3 4 > 2 w K T E k.G.Y.C.K 1.1.1.1.1.1.:.:.@. .` g i ",
"0 N e.U.1.$.:.>.:.:.>.=.H J Z.k.g.E J c & > 3 4 4 s s > > # + + # # $ 4 4 s 9 4 4 3 $ q J Y h.d.v.Q F -.1.1.1.1.1.,.:.#. .` h f ",
"y / e.a.9.$.:.>.:.>.-.g.n.k.P h.d.P x $ 9 3 3 9 9 & $ + 7 6 h f 1 u r % @ & 4 9 3 > s > w K R j.Q ~ n.l.-.1.1.1.1.:.>.:...` g f ",
"0 ` r.J.9.>.:.>.>.1.K v.R.T.g.R R c & 3 9 > # # & l u r 7 & 6 7 $ : 5 h u h 5 & # $ s 3 $ q T R T F.R.G.~ 1.1.i.1.1.1.:...` h p ",
"r ` J.+Xe.>.>.>.>.*.z.v.W.H.R P z & > 9 4 # # r +.6.] @ O o o + o o O + i $.7.5 $ o $ s 4 $ ; H T l.W.G.v.2.e.i.0.0.0.>.@.` h j ",
"y ' L. Xt.1.1.1.<.L x.F.G.h.R G w > 9 4 # > h ' [.O.O O % = % % O % @ O + ^ u.y.h 0 # $ 9 4 = H Y h.C.W.n.! i.i.p.i.e.1.@./ h f ",
"u | L. Xp.1.1.p.-.K d.B.H.f.Y x # > 4 + , p u.u.7., + % % % - % @ - : % O = +.y.u._ 5 @ 3 4 @ w P ~ v.W.b.W 3.J.K.s.p.0.#.` g p ",
"u | L..XU.i.3./.C.J R B.H.d.Y x @ > > @ y _ y.6.5 % % , , : & % % & : : @ + 1 ^ y.+.u : $ > $ w P T C.W.z.Y z.!.I.K.s.1.#.` m f ",
"p | L.#XP.U.i.~ H.G.Y B.G.h.T x > 9 > 1 i _ o.& o o = % & % , % + % % % % O O # p +.i : + t 4 w P f.F.E.d.x.T.j.P.I.p.1.@.` h f ",
"u ' L.#XP.P.s.J x.G.T B.H.d.Y z : 9 : 6 0 , @ + u + @ & 7 , 7 % % , , % @ @ r , @ , u 0 @ t 4 w P R C.C.Y C.C.R K.K.p.w.@.` h p ",
"u | L.#X#X.XI.F d.R Y T g.Q G z $ 4 : y 5 @ @ 1 y.t O % , % & % % % , , % 1 O.O.X % d y : 9 3 w K J ~ R J R R T K.K.p.9.#.` m g ",
"p | L.#X#XP.I.4.J R h.j.l.l.d.x $ t < y 5 % + ) J.d X % % 7 , & % , % % # 1 y.7.1 % 7 [ : a 3 w G Q R f.l.l.h.M.K.K.p.9.#.` M v ",
"u | L.@X.XP.P.U.Y f.l.d.d.d.T x & 4 : f f % @ o.' : y.# X O & % % % X X ^ / p 6.r @ : [ : 8 > w G Y R R h.l.f.4.p.p.p.1.#.` M B ",
"u o.L.@XP.I.P.I.2.K J J G F F x $ > & h h @ O < 1 O.OX^ @ X X O X . @ y y.y.1 u # + : / : 3 & w H F F J G G -.i.p.p.p.1.#.' m m ",
"u o.L.@XP.P.I.I.I.U Y Y Y G G x @ > : p d @ m @ @ 6.OXOXy.o.u g % l 7.[.oXy.8 X 4 : , ] : 3 $ q J F Y Y R I K.K.K.s.p.0.;.} m m ",
"u | L..XP.I.I.I.P.&.R d.R G J x $ > > y 5 & [.O.& 6.[.;X;X-X-X{.o.*X;X-X{.7.r p J.u , ] - 3 * q P F Y f.l.! I.I.K.K.p.3.;.} M B ",
"u | L.XXL.U.K.I.I.&.h.h.l.Y J x $ > : i 6 % O.oX{ O.[.OX;X:X,XoXy.:X:XOX[.y.{ OX{.1 , ] : > > w Y G d.z.Y.M.I.K.p.p.p.9.;.} m v ",
"u | J. XJ.p.K.K.I.&.x.z.T.g.T c > t > g h % : y.oXoX[.{.=X:X>XoX8.;X=X{.[.{.oXoX^ + : [ - t 9 w T G h.x.Q.M.K.s.p.p.i.3.;.} M m ",
"u ) t.P.p.p.p.s.K.&.x.b.T.j.Y x $ 9 , h h % O , [.{.[.[.{.=X;X{.6.oX{.{.{.{.{.o.O @ 1 y : t > w T Q h.x.Q.2.p.i.p.p.i.w.;.} m v ",
"u ) r.K.p.p.t.p.K.&.x.n.E.g.K x $ 4 > h $.y % o ) [.oXoX[.{.oXu.O.{.[.{.oX{.y.: + : $.y , a > w J G x.n.Y.~ 0.e.p.e.p.9.;.} ^ v ",
"u ) r.U.U.i.p.p.p.L h.n.m.d.G x $ 9 , h q.^ + . a {.OXOXoXoXoX[.O.[.oXOXOXoX7.o o , u.y % t 3 w J G b.m.n.! 1.i.3.i.i.3.@.} m B ",
"u } r.I.p.i.p.4.p.L h.v.b.R G z @ > : h $.7.% % O.{.OX=X:X:X=XS.O.*X:X:X-X{.6.l @ 7.O.0 @ 4 $ w J J z.x.b.! i.1.1.i.i.1.:.} M m ",
"u ) e.U.p.i.i.p.p.L h.v.v.R G x $ 4 > h ] _ O % >.O.8.8.8.=X;X[.7.-XOXu.7.6.O.^ . ^ / 0 % 4 4 w Q G z.v.Y.! 0.0.i.i.i.1.;.} m v ",
"p ) e.U.p.p.t.i.p.L h.b.v.Q G z $ t : h h u $ ' u.^ > # # 9 8.8.+.o.% o : l u.6.1 ^ @ d : s < w P G l.n.v.I i.i.i.i.i.1.;.} M m ",
"u ) w.J.t.3.i.p.t.U f.T.H.Y Y c $ $ $ h f % % O.[.OX4 .     O.O.^ >   . : y.oX7.u & + ] : $ $ q R J l.m.m.W i.i.e.e.i.w.*.} M v ",
"p ( r.K.p.e.i.i.e.U h.R.G.Y R c > t , u 1 & O $.[.OXoXp t 8.u.6.) 8.^ p u.-XoX8.y - + ] : s 9 w R Q h.n.b.2.i.0.e.e.e.9.#.| ^ v ",
"p ) r.K.p.e.e.e.e.U f.R.T.Y R x & 9 , f y - : p 8.[.[.[.u.8.=Xu.6.u.u.[.OXoXy.o., , + ] : s 3 w R J l.m.b.! 0.i.i.e.r.9.;.} M v ",
"p ) r.K.p.i.3.e.1.L f.m.v.P Q x & 4 : h f : 1 @ O.8.y.8.8.{.-XO.6.oXy.7.y.8.6.^ % 1 O ] : 4 < w Y J l.G.n.E i.i.i.i.t.9.;.} M m ",
"u ) r.J.t.e.e.3.1.K j.c.f.J J x * 4 > h g & 7 O % l O.O.8.oX) p : y.u.6.+.) : @ % 7 O f : t < w Q G T z.b.! 0.i.i.i.i.1.#.} M B ",
"u ( e.K.e.1.1.1.1.K k.k.R J P x & 9 > i y - 7 & & O p u 8.oX) u 2 y.u.{ 1 , @ < , , O y : a 3 q Q G T f.v.2.0.i.i.0.i.1.#.' m g ",
"r ( w.U.3.1.1.1.,.A f.R R G G x & 4 * 8 7 & , % 1 X X 1 8.u.y.o.^ y.y.) . X , , , , O y : 9 3 q P F Y ~ f.I 1.0.1.i.0.1.@.} M i ",
"6 / r.J.0.1.>.>.*.F Y Y Q F P c * 3 - 1 7 & 7 7 5 : o $.q.y.u.$.) y.8.6.y % 7 5 7 1 O f & 3 3 z U P P P Y U &.3.1.1.1.1...} m g ",
"0 / e.K.1.>.:.>.*.k.C.C.C.k.C.Y $ < & 5 5 % , , , 5 . ' 7.7.y.6.) 8.8.^ p : , 1 , : O [ : 3 > V C.C.C.C.D.C.j.1.1.1.1.:.=.} M p ",
"0 / 9.p.9.$.>.>...C.W.!.Q.T.E.E @ > & d f % - , , 1 + o ^ y.8.O.^ y.o.+ @ , , , , : O [ : 3 $ A T.T.E.E.E.T.V.>.1.>.>.:...` M f ",
"6 M 1.i.1.:.>.-.2.T R g.d.R R n $ & & 6 6 % & 7 5 7 7 O u {.u.$.^ [.{ # , 5 1 7 , , o d : > $ e P T ~ T R Y Q :.>.:.>.$...` g p ",
"y M >.i.1.1.1.2.T.z.z.j.k.z.z.H $ 3 & 0 7 % % % & 1 , - 6.+.7.O.^ O.6.> , , , % % % O y : 4 > b k.l.c.k.z.z.V.N.>.#.:.#. .` h j ",
"6 M <.w.1.:.Y.Y.T.~.W.Q.Q.^.Q.h.& 9 < g i @ % % % % % % o., y h , , ' , & % % % % % O g : s 3 K W.^.^.Q.Q.Q.Q.T.V.<.:.@.%.N h f ",
"6 M <.e.1.:.Y.k.T ~ z.n.n.v.v.Q $ 9 > h f @ @ , % % & - + o f f 7 % + % , % % & % % + ] : s 3 c g.v.m.b.b.x.h.R G.,.:.#.@.N M f ",
"0 M >.e.1.:.~.v.T l.x.x.z.h.h.Z : 9 > h f % 6 [ 6 , 7 & % O d f 7 % % , , , f h & % + ] : s 3 z R l.z.l.l.l.~ R T.:.#.@. .` h j ",
"0 M >.e.:.:.~.v.Y h.l.l.f.R Y V $ > : y 6 0 h 0 % % % % % O d f 5 % % % % % , f h h @ ' : 4 $ z Q R ~ l.l.h.R R T.$.#.@. .` j d ",
"0 M >.i.,.#.~.v.F F F G F F F x + > $ 5 k k y - % % % 6 6 % f f 7 , , f % % % , d d d 0 = 4 $ w F F F F F F Z R A.=.;.@. .N h y ",
"6 M :.1.,.#.~.).R.R.R.R.R.R.R.R $ * & 1 y y 1 X % & , % d ] h f 1 [ h O @ , % @ 6 y y y @ 4 $ Z Y.R.R.R.R.R.T.T.;.;.@... .N j 6 ",
"6 M @.1.:.:.~ W.W.W.W.W.W.W.Y.T + * % 7 5 y d 5 f f f f 6 6 f d , 6 d f f 0 d f d y 0 5 @ * $ C G.W.W.W.W.Y.G.Y.V.-.X.X.D N j 6 ",
"r m @.,.:.#.A x.m.m.m.m.v.z.l.Z $ $ @ 7 5 5 6 5 d 6 6 6 5 7 y d - 5 5 6 0 5 0 0 0 5 7 5 @ $ $ x h.k.v.n.m.n.v.k..... . .` N i 6 ",
"6 m @.>.:.#.X.j.v.b.b.v.l.h.~ C @ = = = = @ = = = = = - = = = - % = = = - : - = = @ = = = = = x R h.l.x.x.b.x.j.......X.( M u r ",
"0 h @.>.:.#.#.l.l.h.f.h.h.R T F n F G Q F F F C F F F G F F F F F F F F G F F F F F F F F F F C Y R d.d.d.g.j.g.@...X.} / v i 0 ",
"6 B @.>.@.@...P G G F F F G F F G d.x.x.f.d.d.F Y ~ f.x.f.f.f.f.f.f.f.g.f.f.R P J d.d.d.d.Y Y F J F J J J J J *...X.} N M v y 0 ",
"r i ' .. . .| Y Y R h.f.f.f.f.f.f.c.n.n.b.b.b.Q d.v.n.m.F.b.n.n.b.n.n.n.n.b.l.f.d.l.m.F.z.j.d.d.Y d.d.d.d.d.d.W } ( ( N m i y y ",
"r r v ^ g m m R k.Y.Y.Y.Y.m.m.Y.Y.R.R.R.R.G.b.R x.m././.(././.R.Q././.(./.Q.G.h.d.x.R.R.E.G.G.C.z.z.z.z.z.z.z.l.S v v i p u u u ",
"1 r u t u u v l.T.(.).(._./.Q.(._.).).).).Q.m.d.m.R._._._.).).)._._.'.].].]./.H.l.R.(.).(.]._._.^.^.!.W.W.R.F.x.K v u i u u u r ",
"1 1 5 r y y V v.W.)._._.'.]._._._._._.)._.(.m.h.n.R.W.W.W.(.).)._._._.].].'._.Q.x.R.W.E./.'.].'.].].]._.).(./.Q.M.Z y r r r r r ",
"2 1 6 y 0 6 Y c.v.F.F.F.C.F.F.C.F.D.F.D.D.D.x.l.z.x.z.x.x.C.F.D.F.F.F.F.C.F.F.c.z.z.x.z.C.F.F.F.C.F.D.F.D.D.D.F.l.d.B 0 r r r 1 "
};
