/* XPM */
static char *_2234b20968a4db8a151035e60b09bdfWA4DtMQCOFlkhAZs[] = {
/* columns rows colors chars-per-pixel */
"64 64 224 2 ",
"   c #0E120C",
".  c #10140E",
"X  c #141613",
"o  c #161915",
"O  c #1A1B17",
"+  c #1B1D1A",
"@  c #181615",
"#  c #0C0F0A",
"$  c #221E1C",
"%  c #1E221D",
"&  c #22221F",
"*  c #28231F",
"=  c #1B1F22",
"-  c #1D2326",
";  c #1F2931",
":  c #222521",
">  c #2B2623",
",  c #252A24",
"<  c #2B2A26",
"1  c #2A2E29",
"2  c #20272D",
"3  c #312B27",
"4  c #342D2A",
"5  c #2C322B",
"6  c #2E372D",
"7  c #34332D",
"8  c #39312E",
"9  c #31392F",
"0  c #212C36",
"q  c #222D38",
"w  c #343533",
"e  c #3D3532",
"r  c #343C32",
"t  c #3B3D3B",
"y  c #383937",
"u  c #24323E",
"i  c #403836",
"p  c #403734",
"a  c #364135",
"s  c #384437",
"d  c #3C453A",
"f  c #3D493B",
"g  c #404C3E",
"h  c #26394A",
"j  c #253746",
"k  c #283F51",
"l  c #393D41",
"z  c #2B455C",
"x  c #2B4559",
"c  c #364B5E",
"v  c #3F484F",
"b  c #2E4B65",
"n  c #2F4E69",
"m  c #334D64",
"M  c #304F6A",
"N  c #384E63",
"B  c #3B5164",
"V  c #31516D",
"C  c #3B546B",
"Z  c #325573",
"A  c #345876",
"S  c #345B7B",
"D  c #3A5D7A",
"F  c #2F526F",
"G  c #434443",
"H  c #4B4C4B",
"J  c #45494A",
"K  c #4D5D4A",
"L  c #495348",
"P  c #484D52",
"I  c #4D545B",
"U  c #4C5155",
"Y  c #535453",
"T  c #55595D",
"R  c #5C5C5C",
"E  c #545758",
"W  c #50514E",
"Q  c #5B625A",
"!  c #50624D",
"~  c #6D665D",
"^  c #445A6D",
"/  c #475867",
"(  c #555C63",
")  c #595D63",
"_  c #445D73",
"`  c #5D6265",
"'  c #5C646A",
"]  c #57646E",
"[  c #43627C",
"{  c #4B6478",
"}  c #5B6875",
"|  c #636364",
" . c #62666B",
".. c #646A6E",
"X. c #6C6C6C",
"o. c #696865",
"O. c #6B706A",
"+. c #79746D",
"@. c #646C73",
"#. c #6A6E72",
"$. c #656E79",
"%. c #6C7175",
"&. c #65727C",
"*. c #6C747B",
"=. c #737374",
"-. c #74767A",
";. c #74797E",
":. c #7B7B7C",
">. c #7A7675",
",. c #716D6A",
"<. c #605E5B",
"1. c #827C78",
"2. c #827569",
"3. c #87817D",
"4. c #365F80",
"5. c #376184",
"6. c #37658A",
"7. c #39668B",
"8. c #3A698E",
"9. c #3B6383",
"0. c #3A6C93",
"q. c #3B6F98",
"w. c #3C729C",
"e. c #3F7097",
"r. c #3D76A2",
"t. c #3E79A5",
"y. c #3E7BA9",
"u. c #496A85",
"i. c #406E91",
"p. c #41759D",
"a. c #437499",
"s. c #54728A",
"d. c #6D7984",
"f. c #697785",
"g. c #747B83",
"h. c #7A7E83",
"j. c #747E89",
"k. c #4479A2",
"l. c #437EAA",
"z. c #467BA3",
"x. c #817E82",
"c. c #7C8185",
"v. c #76818B",
"b. c #7B838B",
"n. c #778087",
"m. c #7B8692",
"M. c #7A8996",
"N. c #6D8091",
"B. c #4581AD",
"V. c #4983AD",
"C. c #4C80A7",
"Z. c #4684B2",
"A. c #4A86B2",
"S. c #4B89B6",
"D. c #4E8DBB",
"F. c #528CB6",
"G. c #5892BB",
"H. c #5F88A8",
"J. c #688BA4",
"K. c #5596C4",
"L. c #5799C7",
"P. c #579AC8",
"I. c #5A9DCA",
"U. c #5998C4",
"Y. c #61A2CD",
"T. c #5FA0CC",
"R. c #848384",
"E. c #82868C",
"W. c #84888D",
"Q. c #8B8B8B",
"!. c #8B8784",
"~. c #848B94",
"^. c #8A8E93",
"/. c #848E99",
"(. c #858B94",
"). c #8C9196",
"_. c #8C949B",
"`. c #86919C",
"'. c #939393",
"]. c #91949B",
"[. c #94999E",
"{. c #9C9B9C",
"}. c #989695",
"|. c #958E89",
" X c #A29A95",
".X c #8E99A3",
"XX c #8C97A3",
"oX c #939BA4",
"OX c #999DA4",
"+X c #949EA9",
"@X c #959BA4",
"#X c #819EB4",
"$X c #96A1AB",
"%X c #9BA3AD",
"&X c #9DA1A6",
"*X c #9CA7B3",
"=X c #A3A4A5",
"-X c #A2A6AC",
";X c #A8A9AC",
":X c #A3ABB3",
">X c #AAADB3",
",X c #A3AEBB",
"<X c #ACB1B6",
"1X c #ACB3BC",
"2X c #A7B1BB",
"3X c #B4B4B4",
"4X c #BCBCBC",
"5X c #B2B6BC",
"6X c #AEB8C3",
"7X c #B4BDC5",
"8X c #B8BEC6",
"9X c #BCC3CB",
"0X c #BFC8D0",
"qX c #C6C7CA",
"wX c #C7CDD4",
"eX c #D5D9DC",
"rX c #CBD2D9",
"tX c #D6DCE1",
"yX c #E8E9E9",
"uX c #EDEFF1",
"iX c #EEF0F2",
"pX c #FFFFFF",
"aX c #F2F3F5",
"sX c #DEE1E3",
/* pixels */
"4XtXqX>XwXwX5X>X9XrXtXsXeX9X&X<X).{.}.}.}.'.c.&X<X).C C [ e.8.S w.q.[ [ { XX&XeXtXtXtXtXqX;X<XOX-X{. X X}.-X>X8X=X;X=X2X9X8X>X5X",
"E.<X1Xn.>X:X~.).c...[._.v.n.b.' O.+.,.}.9X{.n.&.{ u.S 7.w.t.q.6.B.t.r.8.A D [ &.I #.(.-.^.g.x.+.1.1.'.-X+X).:.@XE.:X@.X.x.x.).wX",
"%.%._...' g.-.b.;.%.c...%.c.h.Y c.{.E.7X5X:X} n 0.t.t.t.S.D.C.i.D.D.S.t.t.r.r.5./ (.h.h.^.W.#.].=X=X2X5XOX@X-.^.-.h.-.E.b.-.x.^.",
"W.n.I I E R {._.*.' c.O.c.).`.J %X:X%X:XM.{ n q.l.S.D.D.V.p.V.7.p.z.B.D.D.S.B.r.A ^ / )._.XX ._.@X;X-X5X-Xx.g.(.(.OXOX<X).x.@X:X",
"[.b.P ( %.[.9X5Xc.&.~.).>X`.n.I $.m.d._ D 4.Z Z.S.p.p.p.8.7.7.V S 9.7.p.w.p.S.A.7.a.V u.f.(.%.-.W.(.h.(.j.#.R.^.h.8X,XwX%X_.wXtX",
"E.d.#.2X0X7XrXeX.Xv.,X9X_.n.@. .v.j.u.5.r.l.i.a.e.0.8.5.S A A Z Z A S 5.7.8.0.e.a.F.k.0.S ] ( `.1X@X^.@Xg.=.6X7Xg.h.g.) ) $.+X6X",
"=.Y ( ~.n.P v P T g.$...O.:.{.` _ A w.l.l.A.z.A S 5.S A A Z A V M A A Z S 5.S A 0.A.S.y.t.4.m f.+X=X2X:Xh.6X%X1Xx.1.].).| x.].E.",
";.' .._.~.*.%.-.%.$X.X*.d.$X.X{ S w.l.A.V.q.6.S M F A Z Z M z x x b V Z Z Z V Z 4.8.l.S.Z.y.6.C j.@XOX].h.)..Xg.x.^.,XOX .+X8X/.",
"%.*.;.&Xg.*.' '  .O.=.` } /.{ A r.l.Z.p.0.S S Z V m V k k k ; : - j k k z M M Z Z S 7.p.V.Z.l.6.m d.-.g.x.].XX@.g.E.].)...:X8X#.",
":.' @.).:.I ~ +.R.*._.E.| ' D w.l.A.q.9.S A M j h h j + @ @ $ * * @ + @ 0 j j j z Z Z 6.7.S.l.y.4.} :.E.:.^.@X#.h.:X:X-.1.E.@X%.",
".Xv.$X1X%X...X9X2X+X,X$X$.C w.B.A.p.6.A Z m u + $ $ + * > > 3 3 3 > > > * $ $ & 2 b Z Z 4.7.V.Z.l.A f.E.|.tX7XW.(.8XOX-.2X6X%X_.",
"b.] 6X2XXX` ;.;.v.n.;.( B 7.B.B.e.4.S Z h 0 & 3 4 e 3 3 8 e p 8 e e 8 3 > 8 3 3 > - q b S S 8.l.l.p.M ] @X`.OXP E.>X).W.rX8X5X+X",
":.' ~.b.h.| ' %.;.n.m.] b M p.8.4.4.V h $ > 4 7 4 p p > , @ + O @ + & 3 3 p 8 4 3 3 * 2 M A 6.9.w.Z M ] ^.Q.>X%.(.8X6X) #.*.T ).",
"g.O.OXn.O.:.=.:.c.oX/ 9.t.7.C 7.4.Z h $ 8 4 > 8 8 : $ O 1 9 f s 1 r 9 & + $ 7 8 3 > p > 0 M S 7.F S r.0.s.d.qXm._.OXOXE.-X-X-.h.",
"*._.&X..oX[.:X&X$X2Xm w.Z.V.9.S S h $ > 8 > @ @ & d r 7 , , 6 1 & & 5 f a g < & @ $ e 3 $ 2 A S A k.Z.y.S ( E.].).j.j.*.#.@X>X>X",
";.+X;.P I ' T =.%./ 0.w.S.z.S F j $ 3 8 4 @ @ r Y | ! + X . o o . X X O r Q o.7 $ @ + e 4 $ - n A 0.S.l.r.C $..X!.x.1.!.(.(.g.) ",
"c.Y R R Q ,.+.'.*X^ q.l.z.8.S n q > 8 4 @ , d W R.R @ O % % % % % % % o O G :.#.f 6 + $ 8 4 = b Z 6.k.A.r.D #.j.(.OX}.<X>XOXj.R.",
"Q.OXb.n.W.h./.#Xj.B 5.p.l.9.Z h O > 4 O > t -.:...: O % % % , % o : % % @ : Y =.:.H 5 + 3 4 @ q n 4.p.A.k.D f.M.M.XX*X1X@X].:.Q.",
"c.n.;.$.*.T &.U.p.C A i.z.D Z h + * > + r H =.| 5 % % , , & & % % % & % + O 1 G =.Y r : * > $ 0 F S p.A.0.Z 0.F.J.N.m.x.-.g.=.(.",
"O. .| +.<.o.-.D z.l.V 8.z.7.A h : e > 1 r L Y % X o % : - % & % % % - % % o @ + v Y r > @ e 8 q M 4.k.A.4.i.l.7.] -.g.h.!.=.1.!.",
"h.n.*.oX%.;.].n q.B.A i.l.S Z h : 8 : 5 9 , % + w + + % , , , : % , , % % + w : @ , r 9 + e 3 q M S a.z.Z a.w.S / g.m.h.'.b.oX+X",
"~.M..X1Xc.:X1Xb S S Z A 9.F n j $ 8 : r 5 + O < =.r O : , & : % o % : , + 1 R R . + a r : 8 3 q b F 4.4.M S 4.F ( m./. X-Xx.~.oX",
"^.$X[.n.T Q | / F S 6.7.7.8.5.h $ e < r 5 % O H c.y   o , , , & % , , % X 1 =.o.< % 5 L : i 3 0 M M S 4.8.8.7.u.@.$X`.>X&X) I I ",
"b.$._.*.*.].[.M.Z 5.7.5.S 4.A h $ 4 : s s % + Y W , O.% . o : % % % .   G G t | 6 % & L & 4 < 0 M F A S 6.7.4.u.g.XXd.v.#. .:.^.",
"[.$X.X@.I ' T ' C M V M M b b j + > : g f % X > < R {.G &   . X . . o w -.=.1 r O O - g : 4 & 0 b b n n M V M ) ......=.-.h.].E.",
"Q.L  .E E ` +.+.].^ F C Z n M j + > * t a % d + + ` {.{.+.K y d % f o.!.}.=.7 . 5 : & K & 1 & 0 M b F A S / x.j.+X>X{.'.@X:Xd.g.",
").{.).:.~.Q /.+X:X/ S 5.A n M h $ > : r 5 - 3.R : R Q.4X4X4X3XQ.Y =X4X3XQ.| w y R.r & K & 3 * 0 V b S 4.4.u.XXd.XX_.:X0X:X%XE.h.",
"&X$X_.n.~.T *./.g.B 6.7.7.Z F h $ > : r 6 % R '.W R 3.{.4XqXsX'.:.qXqX{.3.%.Y {.'., & K : < > 0 V n 4.8.l.s.$X#.%.d.E.(.E..Xj.x.",
").;.;.-.O.<.*.;.o.B q.q.l.9.A h > e : d f = - =.].'.R.Q.;XqXeXQ.O.3X3XQ.R.Q.'.).G O - L - e 8 q 4.V 4.w.A.9.%. .( #.-.h.@X(.,.-.",
"%X/.&._.c.-.E.$X$./ w.w.V.9.Z h $ 4 < f g & O , R.!.!.W.!.;X4XQ.| '.Q.!.Q.Q.Q.Y O % , a $ i > q Z M 7.w.K.u./.x.x.x.@X^.'.g.j.OX",
"<X+X~.6Xn.9X6X.Xj.{ w.t.S.9.V j $ 4 > f Q r % o H R.'.'.!.R.}.:.R !.R.Q.'.Q.=.& O : Q 7 2 p > q F n q.t.l.s.6X:X(.XX+X(.}.x.x.,X",
"<X:X$X_. .E T R E c 6.r.l.S V j $ e , f o.f +   d Q.{.{.}.).}.:.R Q.'.=X{.}.| . @ , h.w : p > q n n q.l.r.9.*X@Xd.(.~.h.-Xj.P J ",
"OXj.(.(.' ~.W.{.`._ 6.w.w.S n h + > > f Q o.% % R R.{.;XqXqX;X:.Q &XqXqX3XQ.| G + | E 9 % 3 $ 0 V n q.w.t.D j.b.-.R.W.).m.j.-.>.",
"%X_.$Xg.P ( ' %.x.B 5.w.w.A n h * 4 : f K J X % R R ,.X.,.;X4XR.o.3X}.x.O.| R J X G G 9 % 8 3 q M M 0.w.t.u.g...| *...*.@.(.-XOX",
"[.R Y R Y U ~ 2.Q.^ 6.t.w.F n h & 8 , f f y % H :.H 1 @ X 7 #.o.Y Y + X & G >.| 1 G % a & p 3 0 F n 0.r.t.u.m.' h.|. X:.) I I d.",
"R.!.{.W.h.R.g.oX%X^ 6.Z.l.F A k + $ & f s & O R R.{.5     # R R G , # # : =.'.o.r % o K : & $ 0 S n 7.t.t.u.*.*.XX@X<X-XQ.R.g.| ",
"].6X@X~.v.].$.f.g.B 6.l.C.F S h > e : r , % % | R.{.'.t w X.:.o.H X.G t -.3X}.o.r - O K : p 8 q S F 8.y.t.u.v.g.+X,X:X(.-.*.h.x.",
"`.*.' #.` ,.} #.| I 6.Z.C.Z A h $ e < s a % % s ..3.R.R.x.X.;X3.o.:.:.!.}.}.:.Y , , O K : i 3 q S V 7.t.t.D ] *...X.#.-.Q.}.E.@.",
"^.U =.=Xg.{.j.&.*./ 5.l.w.Z V h $ 4 : f f % , & R X.X.X.X.Q.3XT | '.=.o.=.#.` d % , + K : 4 3 0 Z n 7.y.t.[ ) v.$.h.1.Q.j.(.W.U ",
"5X] 7X7Xg.9X/ ' /._ 7.0.4.n V j $ 8 < d s & 5 X + G R R X.'.H t : =.:.| Y H : + % 1 @ s : e 3 0 n n A 0.t.D (.^.g.XX6X1Xd.~.g.1.",
"9X*.8X6Xj.*.G $.b.^ 0.0.S F V h & e > t r & , , % o s r #.'.H y : -.:.W , , % , , , X a : t 3 0 F b 4.7.p._ x.} ) $.j.*.| %.I x.",
"qXg.+X+X@.P =.=.I b 5.S Z n n j - 4 : 5 < - , % 5 .   1 X.x.,.H G -.=.H   X , , , , X a : 8 < 0 n b F 4.7.D _ x.-.R.OX) (.).U #.",
"%X-.).d.@. .| O.( n Z F V b F k $ 3 $ 1 1 % 5 , 5 : . Q ,.,.:.| H #.,.o.y % , 5 5 1 o a & 3 3 u F n F F F n b { h.*X6X} /.*Xj...",
"(./.*Xh.@.g./.j.} 8.w.p.k.8.p.Z $ 3 & w 6 % , 1 , 5 . W ..X.=.| H X.o.J f % , , , - o L & 3 > x p.k.p.p.p.p.7.P $.j.x.I d.j.I %.",
":XrX,X~.m.} m.`.v.p.A.D.S.V.V.S + > % a s % % & : 5 o X g =.#.Q H X.Y O O , , , & & o L % 1 & x l.l.l.F.l.l.a./ #.' ' ~ ,.+.W ) ",
"oX).} .. .T J ^ u.Z S 5.S S S x + * % 9 a o , , 5 5 5 X e Q.:.` J x.W o % 5 5 5 , , X a & < & u V A 4.4.4.A V / x.j.g.h.|.|.@Xl ",
">XM.| 1.+.3.=.u.V.q.i.8.0.0.q.m $ 3 & a , % % % : , : : | E o.T G R o.: , , , % % % % a & 8 > h 8.8.i.i.7.8.a.J.(.f.j.XXXX(.x.$.",
"5Xb.*.).:.;XH.C.F.S.F.D.D.D.D.9.$ 8 , s a % % % + : % % Y < 9 s > , H : % % % % % % . s : i < c l.K.l.K.K.F.K.l.l.p.g.g.$.%.g.d.",
").:X` _._.9XF.w.Z 7.0.y.r.r.r.F $ e > f d + % , % & & % % . a s , % % % & % & - + % O K : p 3 h i.r.t.r.w.q.6.4.y.y.j./.( J ( @.",
"4X{.] I I ` G.w.Z 8.w.w.0.6.6.x $ 8 , d s + 9 g 6 & , , % o a s 5 % % , , , f f : + + K : p 3 j 4.8.0.8.8.6.4.4.K.K./.x.>.x.|. X",
"1Xm.;.T @.).G.w.Z 6.6.6.5.S Z x $ 3 : r 9 9 f 9 % % % % % . a s , % % % % % : s g f + K : 4 $ j F 4.4.4.6.6.4.4.S.K.f.XXj.j.+X@X",
"/.' Q ` n.c.G.w.n b b b b b z j + > $ 5 v f a % % % % a 6 % a s 5 , 5 f % % & , a a r r = 3 $ q b b b n b b b 4.K.K.f.f.#.@.x.@.",
"].$.n._.b.` G.P.Z.Z.Z.Z.Z.Z.Z.S $ * $ 1 r r 1 . % % - % a K f s , f f % + : % O 9 r r r $ 3 $ z l.l.l.l.S.Z.Z.K.I.I.f.x.x.x.-.$.",
"_.*.%X2XW. .u.S.S.S.S.S.S.S.B.A + : + 1 5 r a 5 s f s s a 6 a a , a a a s 9 a s a r 6 5 = * $ x l.l.K.l.K.l.l.l.k.p.f._.j.j.j.$.",
"c.~.+X%X%.&.B 0.y.y.y.y.w.0.8.b + + % , 5 5 9 5 a 6 6 6 5 , r a - , 6 6 9 6 6 r 6 5 5 1 + $ $ h i.0.w.k.t.t.w.8.Z n } ] ) U P Y ",
"=Xn.c.n.m...m 6.w.r.y.w.8.6.S b + = = - = + = = % % - - % - - - % - % % - - - = = + - = = = = k 4.4.8.w.q.w.w.8.Z b ] >.|.x.` 1.",
"<X[.>X....' m 8.6.6.5.5.5.S A b h n V M b b b z b b b n b b b b b b b b b n b b b b b b b b b k F 4.4.4.5.4.6.8.Z n f.j.@XXXI /.",
"9X,X2X` n.m.^ F F b n b n b b b n 5.q.0.5.5.4.b Z 4.5.0.5.5.4.5.5.5.5.5.5.S S V M 4.4.4.4.A F b b n V V n n n Z b b /  .$. .I ,X",
"~.#.O.v ` ` c Z F S 5.5.5.5.5.5.5.w.t.t.r.r.w.Z S w.l.t.t.t.t.r.r.y.t.y.y.w.0.S 4.8.r.t.q.8.7.S Z 4.4.4.4.4.4.4.V z f.$.j.j.I T ",
"5X*.R.3.W.` m S 0.B.B.B.B.t.t.B.B.Z.Z.Z.B.l.t.A w.y.K.K.K.K.K.Z.D.K.K.K.K.S.B.8.4.w.l.Z.l.l.l.k.0.0.0.0.q.q.0.8.Z b h.g./.x.f.x.",
"5X*.n.~.*XT B 8.B.K.P.I.T.G.D.I.I.P.P.P.P.D.t.4.y.A.I.I.I.I.I.P.I.I.T.Y.Y.Y.K.B.0.l.I.P.I.T.I.I.K.F.K.l.l.S.l.q.Z b s.f.j.j.j.j.",
"*Xv.$X*X*XQ C w.S.I.I.I.T.Y.I.I.I.I.I.I.I.K.y.7.t.Z.S.S.S.K.I.I.I.I.I.Y.Y.Y.I.F.r.l.A.S.K.T.T.T.T.T.T.T.I.L.K.S.7.n j.f.$.) )  .",
"[.&.n.d.:.Q [ 0.w.p.a.p.C.p.B.w.p.k.p.k.k.k.q.7.0.q.q.q.q.p.p.k.k.k.k.p.p.p.w.p.8.0.0.0.p.p.p.p.k.p.k.k.p.k.k.k.8.4.j.XXx.x.x.j.",
"aXsXyXyXyXyXyXyXyXuXyXsXyXuXyXuXuXpXpXpXpXpXpXpXpXpXpXpXpXpXpXpXpXpXpXpXpXpXpXpXpXpXpXpXpXpXpXpXpXpXaXiXiXiXaXaXaXuXaXaXaXiXiXiX"
};
