/* XPM */
static char *b07e772c8b1f4f0f9cbb84d56f238405tSu3rzVufyl4Qe6E[] = {
/* columns rows colors chars-per-pixel */
"64 64 212 2 ",
"   c #0E120C",
".  c #11140F",
"X  c #151210",
"o  c #191614",
"O  c #161915",
"+  c #1A1916",
"@  c #1B1C1A",
"#  c #211E1C",
"$  c #1E211D",
"%  c #23211E",
"&  c #191E21",
"*  c #1E2329",
"=  c #242421",
"-  c #2B2522",
";  c #252A24",
":  c #2C2A25",
">  c #2C2C2B",
",  c #20272D",
"<  c #312A26",
"1  c #342D2A",
"2  c #2D322C",
"3  c #2E382D",
"4  c #33322E",
"5  c #38312E",
"6  c #313A2F",
"7  c #212C35",
"8  c #23323F",
"9  c #333433",
"0  c #3C3532",
"q  c #343C32",
"w  c #3B3C3B",
"e  c #443B38",
"r  c #423936",
"t  c #3A4539",
"y  c #414D3E",
"u  c #243443",
"i  c #26394A",
"p  c #263847",
"a  c #283F53",
"s  c #393D41",
"d  c #2B455C",
"f  c #294154",
"g  c #334A5E",
"h  c #3F4447",
"j  c #2E4B65",
"k  c #2F4E69",
"l  c #344C62",
"z  c #304F6A",
"x  c #384E61",
"c  c #31516D",
"v  c #3B556B",
"b  c #325572",
"n  c #345877",
"m  c #345B7B",
"M  c #3A5B76",
"N  c #3B607E",
"B  c #434443",
"V  c #4B4B4B",
"C  c #44494D",
"Z  c #474D52",
"A  c #4D555B",
"S  c #4C5155",
"D  c #545454",
"F  c #52575A",
"G  c #55595D",
"H  c #5A5B5B",
"J  c #575A56",
"K  c #4D554B",
"L  c #69645C",
"P  c #465969",
"I  c #555D62",
"U  c #5A5E63",
"Y  c #525B67",
"T  c #425D73",
"R  c #485F74",
"E  c #5C6265",
"W  c #5D646B",
"Q  c #59646E",
"!  c #43617B",
"~  c #4A6175",
"^  c #596877",
"/  c #636464",
"(  c #62666A",
")  c #64696E",
"_  c #6B6C6C",
"`  c #6B6864",
"'  c #726E6A",
"]  c #78736D",
"[  c #646C73",
"{  c #6A6E72",
"}  c #666E78",
"|  c #6B7176",
" . c #66727C",
".. c #6C737B",
"X. c #737474",
"o. c #74767A",
"O. c #74797E",
"+. c #7C7B7C",
"@. c #7A7675",
"#. c #6F706E",
"$. c #5F5F5D",
"%. c #827C78",
"&. c #827569",
"*. c #87817D",
"=. c #355E80",
"-. c #366184",
";. c #3A6384",
":. c #37658A",
">. c #38668B",
",. c #3A698E",
"<. c #3B6C94",
"1. c #3B6F99",
"2. c #3C729C",
"3. c #3E7096",
"4. c #3D76A2",
"5. c #3E79A6",
"6. c #3E7AA9",
"7. c #4A6982",
"8. c #417195",
"9. c #41759D",
"0. c #477A9F",
"q. c #55738B",
"w. c #6B7682",
"e. c #6B7884",
"r. c #747C83",
"t. c #797E83",
"y. c #737D88",
"u. c #4479A2",
"i. c #437EAA",
"p. c #467BA2",
"a. c #817E82",
"s. c #7C8185",
"d. c #76818B",
"f. c #7B838B",
"g. c #778087",
"h. c #7C8692",
"j. c #788795",
"k. c #6C8699",
"l. c #4581AD",
"z. c #4983AD",
"x. c #4D80A7",
"c. c #4684B2",
"v. c #4A86B3",
"b. c #4B89B6",
"n. c #4E8DBB",
"m. c #5291BE",
"M. c #528DB7",
"N. c #5596C4",
"B. c #5698C6",
"V. c #579AC8",
"C. c #5A9CCA",
"Z. c #589AC7",
"A. c #5EA0CC",
"S. c #61A2CD",
"D. c #838384",
"F. c #82868B",
"G. c #84888D",
"H. c #8A8B8C",
"J. c #8B8783",
"K. c #98908C",
"L. c #848B93",
"P. c #8A8E93",
"I. c #838E99",
"U. c #858B94",
"Y. c #8C9196",
"T. c #87919B",
"R. c #8C939B",
"E. c #959394",
"W. c #92959A",
"Q. c #94999E",
"!. c #9C9B9B",
"~. c #989695",
"^. c #948D88",
"/. c #A29A94",
"(. c #8E9AA4",
"). c #8B97A3",
"_. c #939BA4",
"`. c #999EA4",
"'. c #949EA9",
"]. c #959BA4",
"[. c #96A1AB",
"{. c #9CA4AD",
"}. c #9DA1A5",
"|. c #9CA6B1",
" X c #9DA9B5",
".X c #A2A6AC",
"XX c #A4A7AA",
"oX c #A3ABB3",
"OX c #AAADB3",
"+X c #A3AEBA",
"@X c #ACB1B6",
"#X c #A6B1BC",
"$X c #ACB4BC",
"%X c #B2B5BC",
"&X c #B6B9BE",
"*X c #ADB8C3",
"=X c #B4BDC5",
"-X c #B8BEC6",
";X c #BCC3CB",
":X c #BFC8D0",
">X c #C2C6CA",
",X c #C6CDD4",
"<X c #CAD2D9",
"1X c #D5DADE",
"2X c #D6DBE1",
"3X c #EBEBEC",
"4X c #E6E7E7",
"5X c #EDEFF1",
"6X c #EEF0F2",
"7X c #FFFFFF",
"8X c #F2F3F5",
"9X c #DEE1E3",
/* pixels */
"&X2X,XOX,X,X%XOX;X<X9X9X1X=XXX@XY.}.~.~.~.E.D.}.&X}.}.[.v ! ! 3.-.-.2.1.7.M R {.>X2X2X2X>XOXOX!.XX!./.!.~.XXOX-XXXXX.X@X-X-XOX*X",
"F.@X@Xr.+X+XL.Y.s._ R.(.d.g.f.E ` X.' E.;XQ.f.G.g.e.! N n :.2.5.<.,.l.5.2.,.m N M Y f.o.P.o.F.] %.%.E..X'.P.+.].G.oX( _ t.a.E.,X",
"| | R.) W +.o.f.O.| f.) { s.s.K D.!.G.*X%X@XG.| ~ c 2.u.4.5.b.n.9.9.m.n.b.5.5.4.4.m P o.P.L.{ W.XXXX@X%X'.].o.U.o.+.o.U.f.o.a.P.",
"G.g.A F H J Q.R.| W s.` s.R.T.C |.oX.X$X$X_. .v j 2.i.n.n.n.l.p.p.;.0.u.l.n.n.b.i.4.b R ^ I.W R.]..X.X%X.Xa.r.L.P.].`.@XY.a.`.oX",
"Q.f.Z U | Q.;X$Xs...L.T.OXR.r.F { L.T.h.w.v M >.k v.v.2.9.9.,.:.-.c m ;.,.9.9.9.v.i.7.u.b M Q r.G.U.y.U.t.{ J.Y.t.;X+X,X|.R.,X2X",
"L...[ #X;X=X<X2X(.d.+X;XR.d.} ( U.+XL.w.;.=.4.i.,.9.3.,.>.-.N n m c b n m -.:.<.<.8.8.N.4.,.m e.T.].P.].r.o.$X=Xw.t.r.U U [ '.*X",
"X.S G I.f.Z h S G r.[ ) #.%.!.( ).j.T =.4.u.i.v.x.b N -.-.b n b n z c b b n m -.=.m 8.v.c.i.6.=.v h.#X.Xs.$X|.$XJ.%.W.Y./ a.W.F.",
"O.( ) W.P.| | O.| [.(...e.{.$Xh.w.R m 4.i.b.i.<.-.n z b b b b k d d d j b b b c z n =.>.i.b.i.i.=.T h.W.t.I.].r.t.P.oX'.( '.-XI.",
"|  .O.}.s. .E W E | X.E W T.h.g.x =.u.i.c.9.,.=.m b z j z a a p * = * p a a d z z b n m ,.8.v.i.5.=.x  .t.R.R.[ o.G.Y.W.) oX-X} ",
"s.E { P.@.G L ] D.o.R.G./ _ W Y =.5.i.c.8.=.=.n z p i p u @ o # % % % + o # 7 p p p j b m =.>.M.i.6.=.w.+.E.].{ t.oXoXX.%.G.].{ ",
"Q.d.[.$X|.[ _.;X#X(.#X[.r.a.| v u.i.v.8.=.n b j 7 # # # # - - - - 1 < : % - # # # # , j b b =.>.c.i.6.m | <X-XL.P.-X].o.OX*X{.R.",
"g.Q *X#X(.I O.r.g.g.O.W g.j.v ,.i.i.8.=.=.c p , % < < 0 < < 5 0 0 0 0 0 r < < 1 1 < % , u z m =.<.c.i.8.v e.`.Z G.OXY.U.<X-X%X'.",
"+.) h.f.r.E ( | O.g.h.{ I P k b p.>.=.=.z p # - 1 1 1 r 5 < # o o o X o # 1 1 r 5 1 1 < # 7 z n >.>.2.z k ^ {...P.;X*XU o.| I P.",
"r._ }.g.#.+.] O.s._.E O.Q :.5.:.n =.=.z p % 5 < < 5 5 o X X X X X X X X X X X o 1 5 1 - r - 7 v m ,.z =.4.:.j.y.Y.'.`.G..X{.t.t.",
"..R.}.[ Q.Q.OX[.[.#XF R.M 2.v.l.=.m m p # < 5 - o X X X X X X X X X X X X X X X X X o # r - # 7 b n m p.c.6.M y.P.y.a.w.{ ]..XOX",
"O.'...K A E I X.X.( h R ,.2.n.9.m z u # < 5 - X X X X X X X X X X X X X X X X X X X X X # r - # 7 z m 8.b.i.2.q.D.a.%.a.U.U.r.U ",
"s.J J U $.' ] E.oXY.F v 3.x.i.,.n j 7 ; 5 1 0 - X X X X X . X X X X X X X X X X X X X X # ; 5 1 * j b -.p.b.4.R f.'.W.OX@X'.t.D.",
"H.`.f.g.G.g.I.oX}.k.^ g -.u.x.-.b u @ < 1 : D > O X X X X X X X X X X X X X X X X . o 9 ' - < 1 @ u b =.9.b.4.M ^ k.|.*X].R.o.H.",
"s.d...} } E  .G.( m.3.k n 9.p.m c u @ % ; > F > $ O X X X . X X X X   X X X X X X o @ 2 _ 9 : ; # 8 c m p.b.:.n 8.M.k.h.X.r.@.U.",
"' E ` ] H ` @.X./ N v.5.c 3.p.:.n u ; 5 % w w = $ @ X X X X X X X X X X X X X X o @ $ + > B $ 0 < u b =.p.b.=.1.v.;.w.w.J.@.%.J.",
"s.g. .Q.[ r.R.Y.| c 3.z.n 8.i.m c u % 5 % : 9 > $ + X X X X X X X X X X X X X X o $ $ 9 O 2 $ 0 : u b m u.9.n 9.1.m e...W.f.].'.",
"L.j.(.$Xs.OX%Xf.r.k m m c m -.b z u % 1 + @ 9 ; * + X X X X X X X X X X X X X X o $ % V X > @ 0 - 8 k z =.M c m m n y.G.XXt.L.].",
"Y.[.Q.g.I G E E U P c m >.,.:.:.m p % 5 @ $ 9 ; @ + X X X X X X X X X X X X X X @ $ @ #.q q = e - 8 k c m -.:.,.:.q.I.[.}.I A A ",
"h.[ Q...| Q.Q.`.).j.n -.,.m =.N n u % < @ @ @ 9 X X X X X X X X X X X X X X X X X O t w B t ; 5 - u k b m m >.:.>.q.r.y.| ( +.P.",
"R.[._.[ A W F / _ I g j c z z j j 8 @ - @ @ . : O O X X X X X X X X X X X X X X X . > O $ 3 = < # 8 k j k k z z P Y _ | o.t.W.F.",
"H.K E J G E @.] Q.L.[ g c b b k z u @ - @ 2 w > > ; o X X X X X X X X X X X X X X = B 9 O 6 ; 1 # u c k b n n T ).oX!.E.].oXw.r.",
"P.!.Y.O.P.J R.[.oXs.o.g m N n k c u # - + B ` h > > = X X X X X X X X X X X X X # 9 H B w 6 ; 1 # u c k n =.>.T j.Y.+X>XoX{.L.t.",
"[.'.Q.f.I.G  .j.g.#.| g >.>.,.b c u # - + 9 D K > > = X X X X X X X X X X X X X = 9 V V E 3 ; : % 8 n c =.,.i.T  .r.h.U.f.].r.a.",
"P.O...X.#.L X.r.` _ | g 1.<.z.;.b u - 5 # @ w D > > = o X X X X X X X X X X X X : w H H V q = r < 8 =.z =.2.b.T Y } X.t.].U._ @.",
"|.Y. .I.+.O.h._.| g. .l 2.2.b.;.b u # 5 # % w D > > = X X X X X X X X X X X X o = w H D O > & e - u =.z ,.2.b.7.o.a.].Y.E.t.t.'.",
"$X(.I.;Xg.;X;XQ.g. X(.l 2.4.b.-.z u % 5 > S V D 9 > = o X X X X X X X X X X X # > B H D X ; = e % u z b 1.5.u.q.h.].'.P.K.D.f.oX",
"OXOX[.Y.W G A G F F Z g ,.5.i.m z u % 5 0 ` B D > > = X X X X X X X X X X X o % 9 D H F   ; % e - u z b 2.5.4.7. .U.L.y.|.t.Z C ",
"'.g.T.h.E G.G.!.R.T.[ g :.2.2.n z u @ - : B 9 D 9 > - o X X X X X X X X X X X # 9 H H D @ J $ 1 # 8 c b 1.2.2.R ..D.U.U.f.t.o.@.",
"{.R.[.r.S I W | s...A d :.2.2.n z u % 1 % > 9 J C > > X X X X X X X X X X X o # > 9 C D $ J $ 5 : 8 b c 1.2.4.m U | [ ..[ L.oX`.",
"W.H H H S S ` &.H.G.) g :.5.2.b z u = 5 @ X 9 w o X # X X X X X X X X X X X o # O + w J V J % e - 8 c k <.4.4.M r.^.K.%.U A A ..",
"D.J.!.D.t.J.r.'.[.R.o.l :.c.u.b m u @ # X X 2 9   @ o X X X X X X X X X X X X o #   w H D t ; % # u =.b <.u.4.M I.'.%XoXF.J.t.( ",
"Q.*X_.G.f.R.[ ..r.' _ g :.v.l.c n u : 5 o X 4 B > > % X X X X X X X X X X X X # > > V $.F y ; e 1 8 =.b <.6.4.T ).+X XU.o.| t.J.",
"R. .( | W ' ^ | L ` ` l :.b.l.c n u - 5 @ X w F B > 7 o X X X X X X X X X X X # > 9 D / 4 t ; e : 8 =.b ,.6.4.T W { { @.P.~.t.) ",
"P.A { XXr.Q.d. .| G.t.x :.6.2.b k u % < @ @ B D w > 1 o X X X X X X X X X X o # > B / H . t ; 4 - 8 b z <.5.4.M } t.%.H.h.U.L.S ",
"%XW =X=Xy.;XA W T.R.'.v ,.<.N k z u - 1 @ @ : B B > > X X X X X X X X X X X X - > 6 B $ O t % 0 - u z k n 1.2.7.w.T.*X*X..h.o.a.",
"-X .;X*Xy...B } h.f.Z g <.:.m c c p - 5 @ O = = 9 > # X X X X X X X X X X X X o < < - & % 3 $ e * 8 n z m >.<.M U } y.w./ } F a.",
">Xt.'.].Q S | X.G F P g :.m n k k u % 1 o @ * o > > # X X X X X X X X X X X X o < s > = ; 2 $ 5 - u c j c =.=.v Q F.}.Y P.E.S [ ",
"{.o.Y.r.) W / ' _ E x j b b c l c i # < O @ ; O > > & X X X X X X X X X X X X o > B 9 - 2 3 $ 1 - i b k c c b k z y.*XU U.|.y.) ",
"U.T.|.t.[ y.T.y.P.O.~ <.2.2.2.3.u.k # : O $ %   o > @ X X X X X X X X X X X X X 9 w + , % t ; 1 - z u.u.9.9.u.p.;.R U.A e.r.Y | ",
"OX<X#Xh.h.[ j.T.#X(.! 0.b.b.b.z.v.v % % o @ $ O   = X X X X X X X X X X X X X X 9 w   * ; t ; < # z i.v.i.b.v.i.=.P W ` ' ] D U ",
"[.Y.^ ( ( G C E d.^ ! b m -.N m m i # % o O $ $ X , X X X X X X X X X X X X X X = 9 $ ; % 2 $ : # u z m m m M m c ^ y.y.^.K.].s ",
"XXh./ *.] *.' #...7.x.,.<.>.<.,.<.d % < + O $ $ X O X X X X X X X X X X X X X X @ = O = $ ; $ 4 % j 8.<.,.<.,.8.9.q.y.j.).U.a.} ",
"%Xh. .Y.+.XXXXP.x.p.n.n.n.n.m.n.m.n % 5 @ @ $ $ O X X X X X X X X X X X X X X X X o $ @ $ 3 $ e - v b.M.b.N.n.n.N.i.p.p.} | r.w.",
"Y.oXU Q.(.=X#X(.c.<.m ,.1.5.4.2.2.z % 5 @ o $ $ $ . O . X X X X X X X X   X X X . . ; $ $ t ; e - d ,.u.4.4.4.1.=.=.6.6.Y C I ) ",
"&X!.E A A I [ E A.<.m :.2.2.1.:.-.f - 1 + $ ; $ $ . . . X X X X X X X X X X X X . $ ; t 2 t ; r - a =.>.<.,.,.,.=.-.N.N.X.%.^./.",
"$Xh.g.A [ T...Q V.<.n :.:.:.m m b i # < + ; 3 $ $ X X o X X X X X X X X X X X X . O $ $ t K - 5 # i b m =.>.>.-.m =.N.N.y.h.'.'.",
"T.E U E r.f.W $.A.<.j j k j j k j u # - : K 2 $ $ X . . X X X X X X X X X X X X . @ $ $ t t @ 1 # u j j j j k j j -.N.N.) { t.[ ",
"R.| r.R.f.$.L J V.N.c.c.c.c.c.c.c.c @ % % q ; = o @ X X X X X X X X X X X X X X O $ $ % 2 q @ 1 # c c.c.c.c.b.c.i.N.C.C.t.+.X.{ ",
"Q. .|.#XL.` #.[ <.n.c.c.c.c.b.n.l.c # % $ ; @ @ @ o . X X X X X X X X X X X X X O $ $ $ t 6 @ ; # z i.b.b.b.b.i.i.i.9.8.y.h.y.} ",
"s.h.(.|.|  .g.r.d 2.6.6.6.6.2.<.,.d @ @ @ ; $ + X . X . X X X X X X X X X X X X X X . + 9 2 @ # # d >.<.2.6.6.4.9.,.c k I Z Z D ",
"XXt.s.g.j.) Q e.d ,.2.6.4.2.,.:.=.d O * @ $ & & & & @ @ & O & O o & o o & O & @ @ @ + @ & & & & @ f m -.:.2.1.4.2.,.c k ^.J./ +.",
"@XQ.$X[ ) W  .(.d ,.:.-.-.-.-.m n d f j c k j j j j j j k k j j j j j j j k j j z j d z j j k j d d b m =.=.=.=.=.,.b j (.).A I.",
";X+X#XW g.h.[.#Xd b c k k k k j j j k -.1.1.-.-.m j n =.=.<.=.=.=.=.=.=.=.=.=.=.=.z z =.=.=.=.n z j j k z k b z c c j d } ( Y  X",
"P.) #.t $.E E [ d b b m -.-.-.-.-.-.:.2.5.5.4.4.1.b =.4.6.i.6.6.i.5.5.5.5.i.i.2.:.=.=.,.u.4.<.,.:.=.b =.=.=.=.=.=.=.z j t.w.A G ",
"%Xe.s.*.H.Q E s.d m 1.i.l.l.l.6.5.l.l.l.c.c.c.6.4.=.2.6.N.N.B.N.N.i.N.N.N.N.N.b.i.>.=.<.c.c.i.i.i.9.<.<.1.1.1.1.1.>.b j P.a.w.I.",
"%X..g.L.[.I g. Xd ,.v.m.A.B.A.m.m.C.C.Z.B.B.B.n.4.=.6.b.C.C.C.C.C.B.B.C.C.S.S.S.N.u.<.v.C.B.B.A.B.C.N.M.N.i.N.i.u.1.b k y.y.y.y.",
"oXg.[. X+XJ j.R.d 2.n.A.A.B.A.A.C.C.A.C.C.C.C.N.5.,.5.b.b.b.b.N.C.C.C.B.C.S.S.S.C.v.2.v.b.v.N.A.S.C.S.S.A.V.N.N.N.b.=.b [ U Y ( ",
"Q. .g...O.$.X.#.N 1.2.x.u.2.u.u.u.u.9.u.u.u.4.9.<.,.<.1.<.<.<.9.u.u.u.u.9.9.u.u.u.1.<.<.<.<.9.u.p.9.p.p.u.9.u.u.2.9.>.=.U.a.a.y.",
"6X4X4X3X4X3X3X3X4X3X4X9X3X5X3X3X8X8X7X7X7X7X7X7X7X7X7X7X7X7X7X7X7X7X7X7X7X7X7X7X7X7X7X7X7X7X7X7X7X7X8X5X5X6X8X8X8X3X6X6X8X6X6X8X"
};
