/* XPM */
static char *d13b2353afb342efa8ed844194706134qPgc6L29eWejjI5h[] = {
/* columns rows colors chars-per-pixel */
"64 64 188 2 ",
"   c #0E120C",
".  c #11140F",
"X  c #151210",
"o  c #191614",
"O  c #161915",
"+  c #1A1916",
"@  c #1B1C1A",
"#  c #211E1C",
"$  c #1E211D",
"%  c #23211E",
"&  c #191E21",
"*  c #1E2227",
"=  c #1E252B",
"-  c #242421",
";  c #2B2522",
":  c #252A24",
">  c #2C2A25",
",  c #2C2C2B",
"<  c #20272D",
"1  c #312A26",
"2  c #342D2A",
"3  c #2D332C",
"4  c #2E382D",
"5  c #33322E",
"6  c #38312E",
"7  c #313A2F",
"8  c #212B34",
"9  c #222E39",
"0  c #23323F",
"q  c #333432",
"w  c #3C3532",
"e  c #323932",
"r  c #353D3B",
"t  c #393A3A",
"y  c #423936",
"u  c #443B38",
"i  c #403734",
"p  c #364134",
"a  c #384436",
"s  c #3A433B",
"d  c #3F4C3D",
"f  c #364038",
"g  c #414D3E",
"h  c #243443",
"j  c #26394A",
"k  c #263847",
"l  c #393F40",
"z  c #283F53",
"x  c #3A4443",
"c  c #3D4A43",
"v  c #3E4949",
"b  c #3C4748",
"n  c #294154",
"m  c #2B455C",
"M  c #354D5F",
"N  c #354950",
"B  c #3C525F",
"V  c #2E4B65",
"C  c #2F4E69",
"Z  c #344E62",
"A  c #304F6A",
"S  c #375163",
"D  c #3A5364",
"F  c #31526D",
"G  c #38586E",
"H  c #38556D",
"J  c #325572",
"K  c #345876",
"L  c #395B74",
"P  c #345B7B",
"I  c #385E7C",
"U  c #3F6074",
"Y  c #3B627E",
"T  c #434443",
"R  c #424E46",
"E  c #424E4B",
"W  c #494D4C",
"Q  c #4A5A47",
"!  c #44524A",
"~  c #49534D",
"^  c #50504F",
"/  c #445252",
"(  c #4D5452",
")  c #4B5C54",
"_  c #4C5C58",
"`  c #46595C",
"'  c #545554",
"]  c #575A56",
"[  c #5A5A5A",
"{  c #4E625B",
"}  c #50625C",
"|  c #435A61",
" . c #425E6D",
".. c #4C6163",
"X. c #4A656A",
"o. c #4D696C",
"O. c #4F6964",
"+. c #516260",
"@. c #556B64",
"#. c #586C64",
"$. c #536D6B",
"%. c #5B6E6A",
"&. c #5C736B",
"*. c #426274",
"=. c #4A6D7F",
"-. c #486977",
";. c #526C77",
":. c #506B78",
">. c #5E7574",
",. c #5D767C",
"<. c #57767A",
"1. c #646564",
"2. c #6B6B6B",
"3. c #60766E",
"4. c #627A6F",
"5. c #6F706E",
"6. c #637673",
"7. c #657C72",
"8. c #697B75",
"9. c #6C7F7A",
"0. c #677E7A",
"q. c #698173",
"w. c #6B827B",
"e. c #70867E",
"r. c #71887E",
"t. c #355E80",
"y. c #366184",
"u. c #3A6384",
"i. c #37658A",
"p. c #38668B",
"a. c #3A698E",
"s. c #3B6C94",
"d. c #3B6F99",
"f. c #3C729C",
"g. c #3E7096",
"h. c #3D76A2",
"j. c #3E79A6",
"k. c #3E7AA9",
"l. c #426A83",
"z. c #4C7283",
"x. c #527586",
"c. c #5A7B86",
"v. c #427295",
"b. c #41759D",
"n. c #45799E",
"m. c #497C9D",
"M. c #667F81",
"N. c #447AA2",
"B. c #437EAA",
"V. c #4177A0",
"C. c #6E8984",
"Z. c #738780",
"A. c #748B83",
"S. c #798C85",
"D. c #738C8F",
"F. c #789086",
"G. c #7A918A",
"H. c #77908C",
"J. c #4581AD",
"K. c #4983AD",
"L. c #5289A9",
"P. c #4684B2",
"I. c #4A86B3",
"U. c #4B89B6",
"Y. c #4E8DBB",
"T. c #4E8DBB",
"R. c #528DB7",
"E. c #5291BE",
"W. c #5995BC",
"Q. c #5596C4",
"!. c #5698C6",
"~. c #579AC8",
"^. c #5A9CCA",
"/. c #589AC7",
"(. c #5EA0CC",
"). c #61A2CD",
"_. c #80988F",
"`. c #809690",
"'. c #829A92",
"]. c #829892",
"[. c #849B94",
"{. c #8BA29B",
"}. c #8CA29C",
"|. c #8BA39B",
" X c #96AEA6",
".X c #97AFA7",
"XX c #92AAA2",
"oX c #99B1A9",
/* pixels */
"x b ) +.+._ +.+.+.+.+.+.+.+.+.+.+.[ +...+.+.+.+.+.+.+.[ [ Z Z Z Z | +.+.[ | [ ..+...+.+.[ ....+.[ ....+.+.+.+.+.+.| [ ` T l q , ",
"r v +.%.6.6.6.6.6.6.6.8.6.6.6.6.6.6.6.6.6.6.6.6.6.6.V F J s.p.t.f.a.K F H >.6.6.6.6.6.6.6.6.6.6.6.6.6.6.6.6.6.6.6.6.6.#.) x t q ",
"e R 3.Z.[.}.}.}.}.[.XX[.}.}.}.}.}.}.}.}.[.}.}.].c.t.P t.f.B.s.l.B.h.d.s.P t.x.[.[.}.}.{.}.}.}.}.}.[.}.}.|.{.|.|.}.}.}.`.%./ x r ",
"q E 8.[.XXoX.X.X.X.X.X.X X X X X X.X.X.XoXoXD.J b.h.j.B.B.Q.N.n.Q.Q.B.k.V.V.b.t.0. X.X.XoX X X XoX.X.X.X.X.X.X X.X.X.X].&.) d r ",
"e ! e.[.{.{.[.].].].].].].].].].[.].].].D.z.C V.B.Q.Q.B.B.B.B.u.N.B.B.Y.Q.Y.B.f.K ;.M.].[.[.[.H.[.[.].].[.].].'.'.'.'.A.#.~ d f ",
"e ! S.[.G.S.Z.e.e.e.M.Z.M.M.M.9.M.M.9. .L t.A B.B.b.b.V.v.a.t.F t.t.a.b.d.V.U.B.u.N.J *.w.w.Z.Z.e.M.Z.w.C.w.C.w.r.w.r.7.} ~ d f ",
"7 ! S.].9.%.%.#.@.+.+.+.+.+.1.#.+...*.p.V.B.l.b.v.a.a.t.P P P A F K t.t.t.a.v.v.v.R.h.a.I %.3.2.2.%.%.%.&.@.&.&.&.&.&.@._ ! s r ",
"7 ~ S.G.6._ } _ _ _ _ _ _ ` _ _ Z t.V.B.B.B.B.J t.t.t.K J J J A A K J P t.t.t.P b.P.P.k.k.t.Z +.+.+.+.+.@.@.@.{ { O.} { ) E d s ",
"4 ~ S.`.5.} } } _ _ _ _ ] _ _ B t.f.B.U.B.v.t.t.A J J J J C V z z C F J J J A J t.p.B.U.B.B.t.H } @.} O.#.#.#.} @.{ } } ) ! s a ",
"7 ~ S.].3.} } } } ] } _ } @.D I B.B.B.V.a.t.K J F V F z z j = # = k z z V A A F P t.p.b.I.B.B.t.D #.#.O.&.#.#.#.+.{ } _ ) ! s t ",
"4 ~ S._.6.{ } } } _ +.+.@.@.Y j.B.U.v.t.t.J A h j j h o o # # ; # # o @ 8 h j j V J K t.s.T.U.B.Y &.&.&.&.#.@.} @.{ | _ ) ! a e ",
"e ! A.G.&.@.} } +.+.+.@.@.G f.J.B.d.i.J J V h # # # # ; ; ; 1 1 1 ; ; ; ; # # # < V J K t.s.B.B.k.L &.q.&.#.#.@.@.@.@._ ) ! a e ",
"7 R w.A.3.} } } } +.@.@.Z l.P.K.v.t.P A j < # 1 1 i 1 1 2 i i i i w i ; 1 6 2 1 ; = 0 Z P t.v.B.k.g.F &.q.&.$.@.@.@.O.{ ) ! s r ",
"q R 4.r.3.1.} 3.@.@.#.@.C F N.a.t.t.A j # 1 2 2 2 i 6 1 # X X X o X # 1 2 i 2 2 2 1 # 9 A J t.t.f.J V $.&.&.&.&.&.&.@.{ ) ! d a ",
"7 R 8.e.3.} } #.@.&.$.u.B.u.J i.t.A h # 6 1 1 6 6 o X X X X X X X X X X X o 2 6 1 1 i # h A P p.V Y j.i.O.&.&.&.&.$.#.@._ E s r ",
"7 ! 8.A.3.#.#.#.@.&.L f.P.B.y.K K j % 1 2 ; o X X X X X X X X X X X X X X X X X o # i 1 # 8 K P K J.P.k.Y &.&.q.&.&.&.@.] E d a ",
"7 ~ A.`.7.#.#.%.@.| s.f.Y.V.P F h # 1 6 ; X X X X X X X X X X X X X X X . X X X X X # w 1 # 8 V K g.U.k.f.*.q.q.q.&.&.&.{ ~ d p ",
"q ~ S.].8.&.&.&.&.Z d.B.B.p.K C 8 ; 6 2 q , X X X X X X X X X X X X X X X X X X X X # ; 6 1 = V J i.J.I.h.U q.q.q.q.q.&.{ R s r ",
"t ( S.].w.&.&.>.%.Z y.N.B.u.J h @ ; 2 > ' > o X X X X X X X X X X X X X X X X X o q 5.; 2 2 @ h F Y b.I.f.U >.C.F.r.w.4.} ! d f ",
"t ~ S.[.C.7.7.W.b.C K v.N.I F h @ ; ; > ' q @ O X X X X X X   X X X X X X X X O @ 5 2.q ; ; # 9 F P N.I.a.J g.R.F.A.w.&.} ! s s ",
"t ( S.|.G.r.w.Y K.B.F v.B.i.J h ; 6 ; s t * $ $ X X X X X X X X X X X X X X X @ $ O , T @ y 2 h J y.m.I.Y d.K.u.G.A.w.4.{ ! s a ",
"t ( S.|.'.F.r.F d.P.K v.V.t.F h - 5 % : q , $ O X X X X X X X X X X X X . X o % $ q O 3 @ i > 0 J P J.f.K f.f.Y F.S.w.&.{ ! d s ",
"t ( S.}.|.G.F.C P P J I y.F V h % 2 @ @ q : $ $ X X X X X X X X X X X X X X O $ % W X 3 $ w ; 0 V F y.P F K P J A.A.w.6.{ ! x t ",
"t ( S.|.|._.G.<.F P i.i.a.i.t.h ; 6 # @ 3 : $ @ X X X X X X X X X X X X X X O $ @ 5.r 7 - u : 0 C J K y.a.a.a.=.A.C.w.3.} ! x x ",
"t ( S.|.[.G.G.H.K y.i.y.I I K h % 1 + @ @ q X . X X X X X X X X X X X X X X X X s t W e : 6 ; 0 C J K P i.a.y.>.w.w.w.&.} ! b x ",
"q ' S.|.G.F.G.F.:.C C C A V V h # ; @ @ X > O O . X X X X X X X X X X X X X X X , O # 7 % 1 # 0 C C C C C F X.q.w.w.w.&.} ~ x s ",
"t ( S.|.G.G.F.F.F.D J J J A A h # ; @ 3 t , , < O X X X X X X X X X X X . X . % T q O e : 2 # 0 F C J J P *.A.A.A.r.w.7.../ b x ",
"t ( S.|.H.H.F.F.H.D P P K A A h # % @ T 2.x 2 , - X X X X X X X X X X X X o # 2 [ T s 7 : 2 % 0 C C P y.u.*.F.F.F.C.w.&.{ / x l ",
"q ' S.[.S.Z.A.F.F.H i.i.a.J F h % ; + q ' ^ , , - X X X X X X X X X X X X o - 2 W ( 1.4 : ; - 0 J F y.a.J.-.F.F.C.w.w.6.../ b s ",
"q ( Z.].Z.w.C.A.F.D d.s.K.u.K h ; 6 @ $ t ] , , - X X X X X X X X X X X X o - t [ ] W 3 : i 2 0 t.F i.f.I.=.A.r.w.w.q.&.+./ b l ",
"t W 9.G.e.w.w.C.A.D f.f.U.u.J h % 6 # % t ' 2 > - o X X X X X X X X X X X @ - T [ ' . , # u - h P F i.f.K.-.w.w.q.0.q.>.../ b t ",
"t W 8.A.w.w.q.w.C.D f.j.U.u.A h % 6 1 ^ W ' , , - o X X X X X X X X X X X & , T [ ' . , : u - h F F f.j.J.U q.7.7.0.w.6.+./ x x ",
"t W 7.S.C.,.w.q.w.F a.j.B.P A h % 6 w 1.T ' , , # X X X X X X X X X X X X % w ' [ ' . : % u ; 0 F F f.k.f.U q.&.q.q.q.>.{ / b s ",
"q W 8.A.w.q.q.w.0.S i.f.f.K A h # % , T q ' t , ; X X X X X X X X X X X X # q [ [ ' @ ] $ 2 # 0 J J s.f.f.U >.q.q.&.q.>.O.~ x x ",
"r W 7.A.w.w.q.w.w.S i.d.f.K A h - 2 - , q ' T , ; o X X X X X X X X X X X % , t T ' $ ] $ 6 ; 0 F J s.f.f.*.q.4.q.&.q.&.{ ! b x ",
"t W 0.C.w.q.,.w.q.S i.j.d.J C h % 6 @ X , T O o & o X X X X X X X X X X o * O o t ' W ' @ u > 0 F F s.j.f.G q.q.q.q.q.&.+.B x l ",
"t W 6.Z.w.>.q.w.0.S i.P.B.J K h @ # X X , t   o # X X X X X X X X X X X X o - . u [ ' d : % # 0 y.F s.j.h.L q.q.4.7.0.3.+./ b s ",
"t W 0.Z.w.>.q.q.0.S p.I.B.F K h ; w o X , T , , % X X X X X X X X X X X X @ , , W } ^ g : y 2 0 y.F s.j.h.U q.4.4.7.q.4.../ b l ",
"t W 7.A.w.q.7.7.6.S p.I.B.J P h ; q @ o y [ T , , o X X X X X X X X X X X % , t ' 1.5 d : u ; 0 y.F s.j.h.U q.q.q.q.0.&.../ b t ",
"q W 8.A.w.q.>.4.&.S a.k.f.F F h % 2 o @ T ' l , , X X X X X X X X X X X o % , l 1.[ . g : 6 ; 0 J F s.k.f.U 7.q.q.q.w.3.+./ x x ",
"t W 8.r.w.6.7.&.&.M a.s.t.C C h % 2 @ @ : T T , ; X X X X X X X X X X X X * 2 q T % o q * i > 0 J V K d.f.U q.q.4.q.q.&.} / x x ",
"e W 0.Z.7.&.>.&.&.Z s.i.P F F h ; 6 o @ - : q , # X X X X X X X X X X X X o , , , & - 5 @ u > 0 K F K i.g.U 4.q.4.q.q.&.} ~ x s ",
"q R 8.Z.>.&.&.&.@.V y.I P C C h % 2 o @ * O , , # X X X X X X X X X X X X o , t , : : 3 @ w ; 0 F C J P y.F &.>.4.4.4.%.{ / x s ",
"e E 7.e.&.&.#.#.| V K F F V F j - 1 o @ - O , 5 # X X X X X X X X X X X X o , T e : , e % 2 : j F C F F G C S >.4.&.4.&.{ / x f ",
"7 R 6.r.4.#.#.#.| s.b.V.n.s.b.A % 1 + @ $ . O 3 o X X X X X X X X X X X X o q l O : : p * 3 % S k.f.n.f.f.n.u.$.&.&.&.%.../ x s ",
"4 R 6.w.&.} } #.` N.U.U.U.K.K.G @ % + O % O . - X X X X X X X X X X X X X X q y . $ % p % 2 $ D J.K.I.U.I.K.a.O.&.#.@.#._ ! x a ",
"e c %.q.&.#.3.@.*.K I y.I K K z # % O @ * $ . - X X X X X X X X X X X X X X % t O : : 4 $ > % k F J Y P P P C ..#.#.#.} ) ~ d r ",
"4 c &.q.&.@.&.x.B.s.s.i.s.s.s.m # 1 O O $ $ . @ X X X X X X X X X X X X X X o % $ $ $ 3 $ 6 % m s.s.s.a.s.s.g.c.#.} } } ) ~ s t ",
"e c &.7.<.v.n.J.L.Y.U.T.T.T.E.Y % 6 # O $ $ $   X X X X X X X X X X X X X X X O $ $ $ 3 % u ; L U.E.E.T.Y.Y.T.K.v.z.o.O.{ ! d f ",
"4 v $.7.O.L.P.a.P a.s.k.k.f.f.V % 6 # + $ $ $ X X X X X X X X X X X X X X . X O $ % $ a : u ; m a.f.k.f.f.s.y.y.J.m.o.{ ) c d f ",
"e c %.>.$.L.~.s.P a.f.f.s.i.y.n % 6 $ % : $ $ . X X X X X X X X X X X X X X . O : a 3 a : u ; z y.i.s.a.a.a.P y.E.Q.o.{ ) ! s f ",
"e c #.7.O.K.(.a.K i.i.i.y.P K j % % + % 7 $ $ . X . X X X X X X X X X X X X . + $ $ g Q : 6 % j J K Y a.i.a.P y.Y.Q.-.{ ) ! s f ",
"e c &.q.@.L.(.s.C V V V V V V h # % > Q , * @ X X X X X X X X X X X X X X X X + $ * a a @ 2 # h V V C C V V C y.E.Q.l.{ ) ! a e ",
"4 d @.&.$.W.(.Q.P.P.P.P.P.P.P.J # % % 7 : - X & X X X X X X . X X X X X X X o @ $ : 3 p # 1 # F P.P.P.P.P.P.J.E.^.(.E.-.) v f e ",
"e s { &.$.g.a.U.U.U.U.U.U.U.J.F # % @ 3 @ O & X X X X X X . X X X X X X X X O % @ $ a 4 @ ; @ A k.I.U.I.P.J.J.J.b.v.U.X.B v f e ",
"e x { $.o.F M d.k.k.k.k.f.a.i.m @ # @ : $ O X X X X X X X X X X X X X X X . . X . O 4 3 @ # # V a.a.f.k.k.j.f.a.J C s.` ! b r 4 ",
"4 c { #.O.F V a.f.j.j.f.a.i.t.m & & & & & & & & & o & & & o & & o @ & @ & o & @ @ @ & & & & & z K i.a.f.d.h.d.p.F C u.` E x r 7 ",
"e c { #.O.C m i.i.y.y.y.y.P J V z C C C V V V m V V V C V V V C V V V V V V V m V V V V V V z V K P t.t.t.y.p.i.F C u.) v x e e ",
"3 x { #...V V C C C V C V C V V V t.d.d.t.t.t.V J t.t.s.t.t.t.t.t.t.t.t.t.t.t.A A t.p.t.t.J F V V V A A A A C J V V S v b x e e ",
"3 r ~ _ ` C m J J t.y.y.y.y.y.t.i.h.k.B.j.h.h.J t.h.j.B.V.B.j.k.V.N.B.k.B.f.a.t.t.a.h.h.s.i.i.P K t.y.t.t.t.y.t.C V M b x r e e ",
"q q x x b C V t.s.B.J.J.J.j.j.B.B.B.U.B.k.j.h.t.d.B.!.!.!.!.Q.B.Q.!.!.!.Q.U.B.p.t.d.P.P.K.B.B.n.s.d.d.s.s.s.s.p.F V K r t t t t ",
", q q t l C m i.I.~.~.~.(.Q.Y.(.^.^.^.~.!.Q.h.t.k.B.^.^.^.^.^.!.!.^.^.).).(.Q.V.s.P.~.~.~.(.!.^.E.R.R.U.U.P.h.d.J C u.r q e t q ",
", , e q e K m f.T.~.(.^.(.(.(.(.^.^.^.^.~.!.h.s.k.B.U.U.B.^.^.^.!.^.^.).).).^.B.h.P.U.U.!.).).).).).^.^.^.!.E.U.I F L e e q q q ",
": < 3 e f Y y.d.f.n.n.N.h.n.h.f.N.N.V.V.V.V.d.s.d.d.d.d.v.b.V.V.N.N.N.N.V.V.N.V.s.s.s.s.b.n.N.b.N.n.N.N.V.N.V.V.p.y.Y N e q q , "
};
