/* XPM */
static char *b1db25ea6f05456dcec5fba713af93d1ioi7rrlZ3hZlunIn[] = {
/* columns rows colors chars-per-pixel */
"64 64 12 1 ",
"  c #82B92A",
". c #83BA2B",
"X c #84BB2C",
"o c #85BC2D",
"O c #86BD2E",
"+ c #87BE2F",
"@ c #88BF30",
"# c #89C031",
"$ c #8AC132",
"% c #8BC233",
"& c #8CC334",
"* c #8DC435",
/* pixels */
"****************************************************************",
"****************************************************************",
"****************************************************************",
"****************************************************************",
"***********************************&*****%&*********************",
"*************************@*********+****+.**********************",
"************************%+&*******&+%**%.+**********************",
"**********************&%.+&*******&+.%%X.+**********************",
"******************%***&+X%*********%XX+X++%&********************",
"*****************&+@**+++%********&@+++X++**********************",
"**************%**%++@%+++&******%%%%++++++**********************",
"*************&+%&%@+@@+@%********@@@@@+++%**********************",
"**************%@@%@+%@%@%%%%*****&%%%@%%%%%%%&******************",
"************&*%%%@%%%@%%@%%%******%%%%%%%%%%&*******************",
"************%%%%%%%%%%%%%%%&******&&%&&&%&&&*****************@**",
"************&%%%%%%%%%%%%%&*************&*******************+@**",
"********&%%************************************************%.%&&",
"***+%&**%.@&*****************************************%&***%X+%**",
"***%.%*&X.%*****************************************&%+%*&+++***",
"***%XX%+..%**************************************&%*&%++%++++***",
"****+X+XXX%**************************************&@%&%++@+@@%***",
"***&+X++++%***************************************@@@@%@%@%@%%%&",
"*%%%@++++@%*************************************&*%%%%%@%@%@%%%&",
"*%@@%@%@@%&*&&**********************************%%%%%%%%%%%%%%&&",
"**%%%%%@%%@%%&**********************************&%%%%%%%%%%%%%**",
"**%%%%%%%%%%%********************************************&******",
"***&&&&&&&%%&***************************************************",
"****************************************************************",
"****************************************************************",
"****************************************************************",
"****************************************************************",
"****************************************@***********************",
"**********************************+%***@.&**********************",
"**********************************++**%..***********************",
"**********************************%.+%XX.&**********************",
"*************&%*******************%X+XX++***********************",
"************&+&*****************&&%++++X+&**********************",
"************%X&*****************%%%@++@+@***********************",
"***********%.+******************%@@@%@%@+&*%********************",
"******@%**%++%******************&%%@%@%%%%%%********************",
"******++%&+++%******************&&%%%%%%%%%&********************",
"**+%**+++++++%&%******************&&&&&&&&&*********************",
"**%@+%++@@@@+&*%************************************************",
"**%@%@@%@@%@%@%%************************************************",
"&%%%%@%%%%%@%%%&************************************&*****%*****",
"*%%%%%%%%%%%%%%***********************************&%%&***X+*****",
"******%&****%&**************************************.%&&@.@*****",
"****************************************************.+&%XX@*****",
"****************************************************+.+X+X@&****",
"****************************************************+++X++%*****",
"***************************&*********************%%&%+++++%*****",
"**************************@&*********************%@%@%@@+@%&****",
"*************************%.&**********************%%%%%%%%%%%&**",
"************************&.+***********************&%%%%%%%%%%&**",
"*******************@&***+.@************************&%&&&%%&&&***",
"*******************++%&+++%&************************&&***&******",
"***************%&**+++%+++%&************************************",
"**************&%+%&@@@@@@@*%************************************",
"**************&%@@%@%@%@%@%%%&**********************************",
"*************&&&%@%%%@%@%%%%&***********************************",
"*************&%%%%%%%%%%%%%%************************************",
"**************&&&&&&&&&&%%&%************************************",
"****************************************************************",
"****************************************************************"
};
