/* XPM */
static char *bbd38921289442bf84bc93506ee12362cFjdNPIlIEJlxz2m[] = {
/* columns rows colors chars-per-pixel */
"64 64 164 2 ",
"   c #2C261A",
".  c #2E281B",
"X  c #332C1E",
"o  c #382F1F",
"O  c #362E20",
"+  c #382F21",
"@  c #373021",
"#  c #3C3424",
"$  c #3F3827",
"%  c #3E3728",
"&  c #3F3828",
"*  c #403726",
"=  c #413827",
"-  c #443B2A",
";  c #443B29",
":  c #433C2B",
">  c #443C2A",
",  c #453C2A",
"<  c #443C2B",
"1  c #453C2B",
"2  c #443D2B",
"3  c #453D2B",
"4  c #463D2B",
"5  c #473D2B",
"6  c #463E2B",
"7  c #473E2B",
"8  c #443D2C",
"9  c #453D2C",
"0  c #463D2C",
"q  c #453E2D",
"w  c #463E2C",
"e  c #473E2C",
"r  c #463E2D",
"t  c #473E2D",
"y  c #463F2D",
"u  c #473F2D",
"i  c #473F2E",
"p  c #443B2A",
"a  c #493F2C",
"s  c #483F2D",
"d  c #493F2D",
"f  c #483F2E",
"g  c #483F2F",
"h  c #483F2D",
"j  c #47402F",
"k  c #48402D",
"l  c #4A402D",
"z  c #48402E",
"x  c #49402E",
"c  c #49412E",
"v  c #48402F",
"b  c #49402F",
"n  c #48412F",
"m  c #49412F",
"M  c #4A412E",
"N  c #4A412F",
"B  c #4B412F",
"V  c #4A422F",
"C  c #4B422F",
"Z  c #4C412F",
"A  c #4C442F",
"S  c #4A412E",
"D  c #494130",
"F  c #4A4130",
"G  c #494230",
"H  c #4A4230",
"J  c #4B4230",
"K  c #4B4330",
"L  c #4A4231",
"P  c #4B4231",
"I  c #4A4331",
"U  c #4B4331",
"Y  c #4B4332",
"T  c #4C4230",
"R  c #4C4330",
"E  c #4D4330",
"W  c #4C4331",
"Q  c #4E4330",
"!  c #4E4331",
"~  c #4C4332",
"^  c #4B4432",
"/  c #4C4430",
"(  c #4D4430",
")  c #4D4530",
"_  c #4C4431",
"`  c #4D4431",
"'  c #4D4531",
"]  c #4F4430",
"[  c #4E4431",
"{  c #4F4531",
"}  c #4E4631",
"|  c #4F4631",
" . c #4C4432",
".. c #4D4432",
"X. c #4C4532",
"o. c #4D4532",
"O. c #4D4533",
"+. c #4E4532",
"@. c #4E4533",
"#. c #4E4632",
"$. c #4F4632",
"%. c #4F4732",
"&. c #4F4633",
"*. c #4F4733",
"=. c #4F4634",
"-. c #4E4734",
";. c #4F4734",
":. c #4D4531",
">. c #504531",
",. c #504631",
"<. c #504532",
"1. c #504632",
"2. c #514632",
"3. c #504732",
"4. c #504633",
"5. c #504733",
"6. c #524733",
"7. c #504734",
"8. c #504735",
"9. c #524734",
"0. c #524735",
"q. c #514733",
"w. c #504833",
"e. c #514833",
"r. c #504834",
"t. c #514834",
"y. c #514934",
"u. c #514835",
"i. c #514935",
"p. c #524834",
"a. c #534834",
"s. c #524934",
"d. c #534934",
"f. c #524835",
"g. c #534835",
"h. c #524935",
"j. c #534935",
"k. c #524A35",
"l. c #534B35",
"z. c #514936",
"x. c #524936",
"c. c #524A36",
"v. c #534B36",
"b. c #534B37",
"n. c #544935",
"m. c #544A35",
"M. c #544A36",
"N. c #554A36",
"B. c #554B36",
"V. c #544B37",
"C. c #544C36",
"Z. c #554D36",
"A. c #544C37",
"S. c #554C37",
"D. c #554D37",
"F. c #524935",
"G. c #534A38",
"H. c #544B39",
"J. c #554D38",
"K. c #554C39",
"L. c #564E38",
"P. c #554D39",
"I. c #584E3A",
"U. c #58503B",
/* pixels */
"* = = = - = # = J ! %.[ %.%.[ %.%.[ V k = k V %.%.%.A b : g [ @.[ @.[ [ ^ b j = # @ # % ; = o . X o @ % ; * k A [ b [ b , , j b ",
", e e s = @ X O # e b b V V V V V ^ j % o o = j b b b b : q n e e e 8 8 ; & # # @ @ @ # % # o X . X o # # # = , , , = # @ # % = ",
", s s e = # X   . @ % & = % = = & & $ X .   X # = % = % # # # # % # # % % # X X X X # # * # o X . . X X # # % & = & # @ X @ % # ",
"b J J J b , % @ O @ # # $ $ # # # # # @ X   X @ # # # # @ O @ # & = 8 n J n & @ @ # % = * # # # @ # # # % ; j J ^ s , = # # j b ",
"e.y.y.y.8.y.8.! g s J J J J j j V ^ %.^ j ; ; b J J ^ b e 8 e J @.r.%.e.P.P.r.J s , b b J J J J M [ [ ^ [ y.A.P.K.8.[ M 5 5 M 8.",
"y.m.m.m.m.m.m.y.y.y.y.m.r.%.b e A l.A.A.X.[ %.A.A.A.y.r.J e J @.P.Z.Z.K.K.L.P.A.[ 2.e.e.y.y.y.y.y.y.y.y.y.K.P.P.m.K.m.m.2.A ! g.",
"m.m.m.m.g.m.m.2.8.g.y.m.e.%.j = k V e.%.b V %.A.A.Z.y.J = = = J [ %.y.Z.A.Z.A.y.2.2.y.y.m.y.@.@.[ @.^ [ J [ [ r.y.y.y.m.y.2.2.8.",
"2.2.2.[ ! ! ! ! ] 2.2.2.A , = # % , j k ; = k %.y.y.^ ; = = , e e j j b [ %.%.b s b ! [ J s 8 & = ; ; = = ; ; 8 s ! [ 2.y.e.2.2.",
"8 j e ; ; & ; ; , s j , = # @ % & ; ; ; & % * ; j j ; = , b J J J e # # = ; & % # # & = & # @ @ # 8 b b b s - = = - 8 e n n 8 e ",
"# % # # $ & & ; = = & # # # % = ; = ; j j ; * % # & ; j [ 8.y.y.@.J & & # # # @ @ # & & & = & 8 j [ y.A.K.y.M , = = % & : = & & ",
"n n j n ^ -.%.%.@.J e J ^ X.[ [ [ [ [ y.A.[ j ; ; , ! @.y.y.A.A.y.%.J j J j e , 8 e @.G.K.y.%.A [ %.y.A.Z.K.y.A b e = 8 X.X.@.X.",
"@.r.r.r.P.P.L.l.8.2.r.y.P.L.L.L.K.Z.K.Z.Z.e.^ b ^ [ G.y.m.y.y.Z.y.[ b V %.r.[ , & e @.P.K.A.e.%.r.[ %.e.y.e.A b J [ J n @.y.P.y.",
"= ; ^ y.Z.Z.l.} b M A A.A.A.L.L.Z.Z.Z.Z.l.A k b V [ %.e.[ [ [ [ b b , M e.m.[ , # # k V %.%.} } @.[ %.^ A b ; , b %.j = e @.y.y.",
"@ @ ; r.l.w.V ; * = k V %.r.e.A.n.n.e.e.V ; % # % = , k e , , , , = , A ! ! e = @ @ # $ ; k k A J b b k , ; = k [ V % # = [ [ 2.",
". X # e A k # # # # = ; , k b V M M k ; # o X X o o % % = # # # # # , , = # # X X O o o # # % ; ; = # # # # , b b = # o = k b , ",
". . X # # # # % k A b , ; # % # = = # o X X X # # ; , k = # X X X o # % # & # O o o O O o @ # $ % = # # # % , , = # o o # = % % ",
"o X @ # % , b [ G.G.y.@.@.e : % & = # @ O # = J [ y.y.y.J & O . . @ & J @.y.[ e ; # * # = , k M V V b b e e 8 e 8 = # # = = e e ",
", = = , b V ^ %.r.r.r.r.@.@.J J J J e & = e X.r.y.A.y.@.@.Y 8 & = j [ m.U.U.L.Z.A , ; , b [ e.e.A.A.A.A.G.y.@.@.~ ! J s ! @.r.y.",
"; = b [ A b , b J [ [ [ @.J J s ! [ J e e J @.y.y.y.[ g J @.y.@.y.y.Z.m.A.K.U.K.e.A ; = b A w.e.A.y.A.%.@.@.e.8.@.J J J %.y.P.A.",
"% = b A b , # = e ^ [ b e = % = , b e = : e ! 8.@.r.^ J J 2.y.y.y.y.y.y.y.y.y.e.e.b = # = , 5 >.%.A j = # = e b s J e s [ e.y.e.",
"# = e g , = # # = e j e = = # @ * - = % = g J X.J ~ @.J J ! ^ J ! J b b M M b 5 ; * # o # # * ; , % o .     X # = = = = ; j b k ",
"@ # # # # @ # # # & = = = * # # * s g ! @.r.G.@.e : e e = - : = % # # # # # # o @ @ o * * # # # # o . .     X @ # e e = # % # @ ",
"O O O O # @ # % & % & = e 8 8 e J 8.m.g.m.K.K.[ = % : : 8 8 e : ; # # # * # * # # o # = , , , 8 ; & # # o # = = s 8.[ ^ b 8 # X ",
"& % & e e , j b e g ^ ^ @.@.@.y.8.m.m.m.m.m.m.@.J g g J J ! [ [ J b j J A A l a = * = k [ 8.y.y.r.[ ^ V V A A M 2.m.m.y.y.y.b ; ",
"J J ^ @.r.@.@.[ [ ^ [ e.y.m.A.K.m.g.g.6.6.n.n.6.6.2.e.2.e.2.m.e.[ [ ] 2.n.n.>.5 * * 5 [ m.m.Z.Z.Z.n.n.n.e.%.b ! 2.y.y.y.m.m.y.8.",
"J J ^ ! [ [ ^ b j b V [ e.e.y.m.m.g.2.2.6.n.6.n.6.2.>.A >.2.n.2.A b >.n.2.A k ; - s 2.e.m.Z.e.e.e.n.e.Z.e.b b J y.y.y.r.y.y.m.y.",
"= , = - ; = ; = = # % = , b A %.6.6.2.] 2.6.] M l 5 ; * = , V [ j ; k A M 5 ; * = s 8.y.m.8.! s 5 k b b k = % e [ y.[ [ A %.8.2.",
"# @ @ @ # @ # # # # # # # # # = 5 M M 5 5 - * # # o o X X @ # = # # = , 5 ; ; = - , s J s e * # o o # # # X O O & e b = , k b b ",
", % = = e 8 e J V k j , % # o # # # # @ @ O X O o # & % @ @ @ O O X @ % ; ; ; ; = = # # @ @ # @ # # # = % O . . . O # o o = , = ",
"e.[ [ 8.y.G.K.U.Z.e.%.[ k # # # * # # O X X O # , M 8.@.^ b 8 & # @ @ # # # # # # # # @ @ # = s M A [ y.^ e = # O @ o X o % , b ",
"m.m.m.K.K.K.K.m.%.A e.e.A ; * * = - = % # # e J y.y.y.K.y.y.r.@.b , = ; ; = # # % e e e b M ! 8.y.m.y.K.P.P.G.@.J e k ; ; k } e.",
"m.m.m.m.m.m.2.b , b e.e.A b ; ; s b b - # * J 8.y.y.y.y.y.e.[ [ b , ; b %.2.k * - ~ z.y.G.y.[ 8.m.m.m.m.m.m.P.G.G.y.e.} V %.e.e.",
"%.e.y.e.e.e.V = # k } e.e.A b J J j % # + # 8 J A A A M b 5 5 - = # * s [ 8.b = = ! y.K.G.@.J [ e.y.y.y.y.y.y.@.@.@.@.J g [ @.r.",
"j b V ^ A A b % # ; b A b b , e = % O O X O # = = = # * * * # o @ # @ = e j s # # , ! @.@.J e s ! [ [ [ J g e : : : * % % = e J ",
"% % & & = ; & # # # # % # # # # % # # @ # = = = # # # @ # * # * % = = ; e e , = * # ; 5 , = # * = = = = # # @ @ O + O O O @ # # ",
"k b 8 & ; ; ; ; = * = % = = = , n J J ! @.G.y.8.^ b , , 5 5 5 k k b V A @.y.y.[ , ; ; - = = # * # # # # @ O @ # : : q : q q q & ",
"e.%.%.^ [ ^ b [ e.e.%.%.[ [ [ [ y.m.g.m.m.m.m.m.y.y.2.2.[ e.%.A M 2.2.y.K.K.K.2.M M M M b b , - , e e - = e b [ y.e.%.2.X.G.G.z.",
"A.%.e.[ e.%.A [ } l.Z.A.m.m.e.m.y.y.g.8.6.n.m.m.y.m.g.y.m.y.e.M 5 M 2.y.m.m.8.! 5 b e.e.e.2.[ 2.[ 8.y.[ [ @.y.y.y.y.e.2.@.@.y.P.",
"%.%.%.%.2.M , ; b A %.A.y.y.e.e.6.m.g.6.n.e.2.e.2.2.2.2.e.e.e.b a l e.m.6.m.2.5 - s e.y.e.e.y.y.y.y.m.y.y.y.e.e.2.2.2.A b b [ r.",
"%.%.%.[ M , * # # = , j A [ A [ 2.2.2.2.e.2.A A b b s b V [ [ J a l [ e.2.2.[ , * , [ [ 2.2.[ 2.2.2.2.e.[ [ [ b b j , , = ; , j ",
"^ V [ b , ; = # # # # * = ; ; , e s b b b 5 , * # @ # # & = e = * a l l e e : # O # e e e 8 e j j e e e , = % # @ # # @ @ @ # # ",
"k j , , b b b , , = = # * # * # * # ; = * o o X X O # # & & & & * = = = # # O O . O @ O @ @ # # # # # @ O @ X @ # # = # = = = = ",
", , b V e.K.L.e.%.[ b k ; , ; = * * * # # # @ # % 8 @.y.@.J J J J b e - : & & & # # # # # & = ; = ; = & # & = ; b ^ b , J [ r.@.",
"A [ %.y.Z.U.L.Z.e.e.%.%.w.>.A A b b s , ; , b [ @.P.U.L.P.y.r.z.y.@.[ [ X.[ [ [ X.J J J ^ r.[ ^ [ [ [ ^ [ b A A y.[ b b ^ y.y.y.",
"! 8.y.m.Z.y.y.[ [ e.e.e.y.y.e.e.%.r.8.2.2.[ y.A.Z.A.A.y.%.A.e.l.r.J b %.y.y.y.y.z.z.r.r.y.A.A.r.r.A.%.X.b b A e.e.[ M 5 b 2.y.y.",
", [ y.m.m.2.J , , k b %.%.%.%.%.e.y.y.e.2.e.y.y.y.e.e.e.e.l.e.e.%.b j [ %.y.e.%.[ ^ ^ X.^ [ %.%.r.%.[ j ; ; k V %.e.[ 5 b 2.2.m.",
"# , A e.%.b % @ # * , , j b b b b b b k j ^ ^ V A b V b [ %.e.e.[ e e b [ ^ b = & # # # = ; j ; k j ; # @ # ; , V [ A b b [ 2.2.",
"X @ = b , @ X X X # # = , , , , = = * @ @ # = = % # # # = j A A b ; , e , = # X O @ % % & & % $ % % @ X o # ; , b V M k 5 5 s , ",
"# O O # @ .     X # = j V A b k = = # @ @ % : : = # # @ @ % ; ; = # = = = % # @ % n @.[ ^ b b j k j ; & % = k b A M b 5 - = = # ",
"! = % % # O O O # = b [ e.e.%.[ [ b e = J @.y.K.G.@.J e = = = * * = , , k k k b [ y.A.m.y.y.y.y.e.e.A.y.[ b b b A b b , , , e s ",
"y.r.@.r.r.^ n 8 j ^ %.y.y.e.e.e.y.r.r.r.G.K.I.I.K.K.y.@.^ V b e , b A [ A e.e.e.y.y.y.y.y.y.y.y.y.A.A.A.K.Z.%.b , , , - b [ y.y.",
"y.y.A.G.H.H.P.P.y.y.y.y.e.%.e.[ [ ^ @.r.y.y.y.m.m.y.y.[ [ %.[ @.[ 2.%.%.e.e.l.e.y.y.y.y.y.y.y.y.r.y.y.r.Z.K.y.b , = = - s [ y.m.",
"y.[ [ A b ^ X.r.r.@.%.[ ^ k k ; % % & = & ; b [ A M e e e e n e k , , , ; j j b [ ^ [ ^ [ [ r.y.y.%.%.%.%.%.A k = = # @ # = 5 [ ",
"b j , % # @ @ # & = e = % % # # # @ @ @ @ o # = = # + # # % = & % # @ @ @ o # % & ; ; % & : j J %.[ [ A [ b b = # X X X X X # = ",
"= , = % # @ O O O # # # & & , , 8 g 8 n ; # X X X X O # 8 J J J J j % # # # # % & ; & % % # % = j b A A [ V j # O X X O @ O @ * ",
", , b b j e & ; = 8 j b ^ [ y.A.r.@.r.z.r.n % # # # = J @.y.@.y.P.K.r.[ b V b ^ %.%.V V J J = & = j A e.%.V ; # # = , s s e , , ",
"j ^ [ [ @.[ [ [ @.[ [ e.e.n.Z.A.e.e.e.e.l.e.[ V b b V %.e.y.y.y.y.K.K.A.%.%.r.r.l.%.%.e.e.A.y.J 5 s 5 b s e 8 s y.y.y.y.y.y.y.2.",
"^ @.%.%.%.%.%.%.%.8.2.e.2.e.e.e.w.w.>.>.2.e.%.%.} A V [ 2.2.[ 2.e.m.A.y.%.%.%.A.l.l.%.e.%.A.y.e.! 5 , - - e ! K.K.K.y.y.K.K.m.I.",
"b A [ %.%.%.%.%.%.e.[ e.e.2.e.[ w.>.A w.A [ A V k , ; j b [ ^ [ [ [ r.%.%.%.%.r.e.} } } [ A A b , , = - - s @.8.[ s e , s [ 8.y.",
"= ; , j b b ^ V ^ b b b k k b b k k 5 ; ; = ; = % # # % ; ; 8 8 , ; e e b b b V b b k k j , = % # # # # = - : % # # O O @ # = - ",
"= & & % # # & ; - - = * = # # # # # o X @ # # & = = ; ; 8 = & # # O O # # # # % # % # # # # # @ o @ # # = e : % # @ @ @ @ @ @ O ",
"r.@.j 8 ; # # % = = = = = = # # # # o # # = b ! A e.r.r.P.P.X.J e : % # # @ % % % % k , e e e e ; j j j J y.8.@.^ b e e e e g : ",
"K.Z.y.r.%.[ b j J J 2.2.6.A 5 , k k k j b V [ y.y.K.P.P.K.L.L.L.K.G.[ J b j V ^ ^ [ %.[ [ r.r.r.r.y.P.P.y.K.K.y.y.y.2.2.2.8.@.@.",
"m.m.y.y.l.e.e.e.[ 2.6.m.n.A 5 k A w.e.%.%.[ 2.y.y.y.y.y.Z.K.K.K.K.K.Z.A.e.l.%.l.e.y.%.A.y.y.y.e.[ y.y.y.K.m.m.Z.y.y.e.2.! 8.y.y."
};
