/* XPM */
static char *_161ffeadd2947c0c27aba122635a5b3ssj9oFfwf6iGYedb[] = {
/* columns rows colors chars-per-pixel */
"64 64 251 2 ",
"   c None",
".  c #010101",
"X  c #0C0302",
"o  c #00000C",
"O  c #090B09",
"+  c #140201",
"@  c #140B03",
"#  c #1C0B01",
"$  c #16090B",
"%  c #171207",
"&  c #010215",
"*  c #030A15",
"=  c #081317",
"-  c #131413",
";  c #1A1B1C",
":  c #15171A",
">  c #10100D",
",  c #250605",
"<  c #3C0303",
"1  c #330702",
"2  c #271203",
"3  c #361803",
"4  c #231B16",
"5  c #350212",
"6  c #342913",
"7  c #000127",
"8  c #010436",
"9  c #161332",
"0  c #391C30",
"q  c #262828",
"w  c #343031",
"e  c #1F2222",
"r  c #470802",
"t  c #570703",
"y  c #461B01",
"u  c #4A150D",
"i  c #670801",
"p  c #760A03",
"a  c #660018",
"s  c #7B031B",
"d  c #6D1301",
"f  c #4E2200",
"g  c #452609",
"h  c #532400",
"j  c #5B2600",
"k  c #582909",
"l  c #473218",
"z  c #50360B",
"x  c #6B2D01",
"c  c #632800",
"v  c #732E02",
"b  c #653607",
"n  c #7A3402",
"m  c #613D14",
"M  c #492F2F",
"N  c #6C0E3D",
"B  c #3D4038",
"V  c #724410",
"C  c #725129",
"Z  c #030548",
"A  c #000257",
"S  c #0E135E",
"D  c #020866",
"F  c #010679",
"G  c #051068",
"H  c #3E0476",
"J  c #201645",
"K  c #6D0652",
"L  c #4E0D68",
"P  c #5F2462",
"I  c #3F4750",
"U  c #4C545A",
"Y  c #5B5D6C",
"T  c #646D6C",
"R  c #677275",
"E  c #747576",
"W  c #7B6947",
"Q  c #880705",
"!  c #970500",
"~  c #82021A",
"^  c #920B15",
"/  c #A90702",
"(  c #B40501",
")  c #A30214",
"_  c #B80416",
"`  c #B21510",
"'  c #873904",
"]  c #943B03",
"[  c #87340A",
"{  c #AC3904",
"}  c #8A0733",
"|  c #A20522",
" . c #B10F31",
".. c #B23021",
"X. c #943E2B",
"o. c #CD0201",
"O. c #C50704",
"+. c #D40A07",
"@. c #C61302",
"#. c #D71703",
"$. c #C80713",
"%. c #C5131A",
"&. c #EA0B01",
"*. c #EC1302",
"=. c #E61706",
"-. c #FE1400",
";. c #FE1A00",
":. c #F41705",
">. c #EE100B",
",. c #FD2303",
"<. c #F82B13",
"1. c #FB3C24",
"2. c #974207",
"3. c #8A541A",
"4. c #965112",
"5. c #A84806",
"6. c #B34F09",
"7. c #AF5707",
"8. c #B26415",
"9. c #905928",
"0. c #996529",
"q. c #886536",
"w. c #A56928",
"e. c #AD7533",
"r. c #AB4526",
"t. c #C45903",
"y. c #CE5313",
"u. c #ED5114",
"i. c #D86604",
"p. c #CF7018",
"a. c #E56403",
"s. c #ED7516",
"d. c #FC452D",
"f. c #F74C37",
"g. c #CA7824",
"h. c #E9722A",
"j. c #880D4C",
"k. c #AB2249",
"l. c #8A744B",
"z. c #896B64",
"x. c #A85356",
"c. c #F25F4E",
"v. c #EA6557",
"b. c #F08619",
"n. c #E7BA08",
"m. c #D58226",
"M. c #C98434",
"N. c #CF872B",
"B. c #FD9628",
"V. c #EE9332",
"C. c #FDA437",
"Z. c #FFB63D",
"A. c #D69A1E",
"S. c #FCCF00",
"D. c yellow",
"F. c #FFE800",
"G. c #DAD42A",
"H. c #DFEA25",
"J. c #A88854",
"K. c #B9B64C",
"L. c #9B8E6C",
"P. c #A69B60",
"I. c #D29347",
"U. c #EF9B46",
"Y. c #DBA556",
"T. c #FFB94B",
"R. c #EEAE58",
"E. c #FDB957",
"W. c #F8A74B",
"Q. c #F9B26D",
"!. c #E29F7A",
"~. c #B8CC4D",
"^. c #FFC66A",
"/. c #F8C377",
"(. c #FFD16E",
"). c #010A8A",
"_. c #010888",
"`. c #010898",
"'. c #191A98",
"]. c #0E0B97",
"[. c #270F8C",
"{. c #282698",
"}. c #2F328E",
"|. c #040CA7",
" X c #0412AC",
".X c #0914A9",
"XX c #050AB6",
"oX c #0413B3",
"OX c #0414BB",
"+X c #0519BC",
"@X c #111DAA",
"#X c #332BA9",
"$X c #311FBF",
"%X c #55358D",
"&X c #3E4485",
"*X c #4A46A8",
"=X c #7378AF",
"-X c #5C609B",
";X c #0516C3",
":X c #0718C7",
">X c #081CD8",
",X c #2913CA",
"<X c #1124DC",
"1X c #051BE7",
"2X c #001CFC",
"3X c #000BFF",
"4X c #0B22E7",
"5X c #1228EE",
"6X c #0928FC",
"7X c #132AF2",
"8X c #102CFF",
"9X c #1D35FD",
"0X c #1932FC",
"qX c #2239FF",
"wX c #2338FA",
"eX c #3D5AC5",
"rX c #3749E9",
"tX c #2E53DE",
"yX c #5161CA",
"uX c #877C8B",
"iX c #798688",
"pX c #888E91",
"aX c #91A3A3",
"sX c #A8B1B5",
"dX c #B2B4B4",
"fX c #ED998E",
"gX c #D2BB90",
"hX c #E9A197",
"jX c #C8B8A4",
"kX c #E4B6AE",
"lX c #F6CF84",
"zX c #FFE288",
"xX c #FFE499",
"cX c #FFE9A8",
"vX c #FFEEB4",
"bX c #FFF3B1",
"nX c #A2A9C6",
"mX c #B6CDCC",
"MX c #C5CBC6",
"NX c #D6DCD9",
"BX c #C9D9DA",
"VX c #F1D3CD",
"CX c #FCEAC8",
"ZX c #FFFBD8",
"AX c #EEE7D5",
"SX c #D7E3E3",
"DX c #E4EAEC",
"FX c #EAFCFB",
"GX c #FEFFFE",
"HX c #F5FBFB",
"JX c #F6F4EC",
/* pixels */
"                                                                                                                                ",
"                                                                                                                                ",
"                                                                                                                                ",
"                                                                                                                                ",
"                                                          @ # + # + +                                                           ",
"                                                        $ p / ` / / Q 1                                                         ",
"                                                  : < r p +.<.c.c.d.:.Q r r 4                                                   ",
"                                                = < ( =.*.,.v.AXDXfX<.*.=.+.t O                                                 ",
"                                              = r / ;.;.<.!.AXHXHXJXfXd.,.;.@.i >                                               ",
"                                            : , / :.=.>.1.hXVXVXVXVXkXf.>.=.:.( r *                                             ",
"                                            , s #.#._ _ >.1.f.d.d.f.d.<.+._ +.+.^ 5 O                                           ",
"                                          o < _ $._ $.>.;.-.-.-.-.-.-.;.:.$._ $.$.t .                                           ",
"                                          $ i +.$.) / O.@.:.-.-.-.-.;.#.@./ ) _ +.Q $                                           ",
"                                        & u ^ o.+.Q r 1 t ( &.&.&.&.O.i 1 1 p O.o.) a $                                         ",
"                                        + a _ ( ! p j z h t ! u.u.` t f z j d ! ( _ ~ ,                                         ",
"                                        + a _ ( p ' i.C.I.M C C.C.w.M e.C.s.2.d ( $.~ ,                                         ",
"                                        X a | ) ..t.b.(.ZXMXgX^.T.gXMXAXxXB.a.{ ) | s , .                                       ",
"                                        + a ~ ~ p.C.^.jXdXdXgX^.^.lXdXdXjX/.T.h.^ ~ s ,                                         ",
"                                        X a ~ n M.xXJXL.: : q.^.^.J.; : Y AXbXI.3.p s $                                         ",
"                                        . 5 [ t.V.vXHXE . . V W.T.4.. . I DXZXW.p.] t . o                                       ",
"                                      w l k ] a.C.vXHXiX. . b C.Z.0.. . U DXZXE.s.{ x l 6                                       ",
"                                    O C I.w.] 6.V.cXJX-X. O C ^.(.e.X . U VXCXW.y.] 4.I.l.>                                     ",
"                                    . W lXe.[ g.V.U.Q.I.9.l.jXvXbX!.J.C e.Q.R.V.M.4.3.Q.P.$                                     ",
"                                    o W Q.e.w.R.g.{ t.b.E.xXZXJXbXbXcX(.V.t.{ p.R.e.0./.J.O                                     ",
"                                    . C V.b.V.Q.w.r 3 0.(.bXbXCXbXbXbX(.M.g 1 3.R.U.s.C.0.O                                     ",
"                                      6 4.i.B.U.C . . l I.(.zXzXxXzX(.Y.C O . l I.C.a.4.z -                                     ",
"                                        @ x i.V.3.% . @ b 8.I.Y.Y.Y.N.V # . @ m V.s.' 2 =                                       ",
"                                        = $ v s.m.3.@ . @ 3 l l 6 l 3 # . . V m.s.2.2 *                                         ",
"                                          = % [ p.g.3.V g . . . . . . 3 b 3.p.p.2.3 *                                           ",
"                                            : $ h 7.m.b.t.3 @ # @ @ 2 5.b.m.8.c , =                                             ",
"                                              = $ 3 b 7.a.6.8.w.e.8.7.a.t.V f # =                                               ",
"                                                * o 7 0 X.u.s.h.h.s.u.r.M 7 & o                                                 ",
"                                                # 7 ).OX[.} ` ` ` ` | L +X|.Z X q                                               ",
"                                              O i N >X2XXX} $.o.o.+._ [.3X1XL i ,                                               ",
"                                            : r (  .%XeX%Xj. . . . .j.%XeX*Xk.o.t -                                             ",
"                                          = u @.$...N.G.~.*X,X,X,X,X#XP.H.A...$.#.d O                                           ",
"                                        = y ( :.j.P S.D.H.eX2X6X6X6X9X~.D.S.W K =.#.i -                                         ",
"                                      - r @.,.+.L }.n.D.G.yX8X9X9X6XtXY.D.S.Y [. .;.#.i $                                       ",
"                                    * r @.,.-.) [.}.A.F.G.yX8XqX9X8XrXK.F.n.Y ].s >.,.#.d >                                     ",
"                                  $ < / ,.;.%.L ].{.E L.uXrX0X9X9X0XqXuXL.z.}.XXH  .,.,.o.t $                                   ",
"                                  + ~ =.-.*.} '.oXOX>X0XwXwX9XqX9X9XrX9XwX<X;XoX XK +.-.-.` 1                                   ",
"                                . > z.v.*.o.K .XOXOX1X6X0XqXqXqXqXqX9X0X8X2X;XoXoXL ( &.c.z.q .                                 ",
"                                w T mXkXv.x.P oXXXOX<X7X0XqXqXqX9XrXqX9X7X4X;XXXoX%Xx.f.hXmXiXw                                 ",
"                              . T NXFXJXVXMX=X@X|.OX>X4X5X0XqXqX9X9X9X7X4X>X;X|. X*XsXBXJXHXDXpX-                               ",
"                              . pXGXGXGXFXFXnX].`.XXOX>X4X7X7X7X7X7X7X5X>X:XoX`.`.=XFXHXGXGXGXsX-                               ",
"                              . E GXGXHXHXGXdXS F  X X;X>X>X1X4X6X4X>X>X:X XXX_.D iXGXHXHXGXGXsX-                               ",
"                              . R DXGXDXBXSXaX: D oXoX XoXoX;X<X4X:XOXoXoX X+XF 7 T NXBXSXGXHXaX                                ",
"                                w E MXSXsXiXw o A +XoX X.X`.F G G D ).|.oXoX+XF & w T aXBXNXpXB                                 ",
"                                  ; R aXT e . . G OXoX X`.D 7 . . & Z _.|.oX+X).& . - U aXiXw                                   ",
"                                  ; e e ; ; % . G OXoX`.A 7 .       & A _..X+X).& O : : ; ;                                     ",
"                                            6 . D oX X).Z o         . 8 F  XOXF o %                                             ",
"                                            : 8 _.:X;X`.Z &         . 8 _.OX>X`.Z :                                             ",
"                                          > Z .X>X4X>X|.Z o         . 8 _.>X1X1X+XS .                                           ",
"                                          . 8 '.{.{.{..X).7         o F .X'.{.{.{.S .                                           ",
"                                          O , k k k u {..X8         & `.@XM k k k 3 O                                           ",
"                                        > 2 h n v k h 0 9 *         o 9 0 f k x n c 2 @                                         ",
"                                        + x 2.n j f y c h @         X y j h f j v 2.n 2                                         ",
"                                        @ 2.6.n c h h v c #         X j v h h j b 6.5.3                                         ",
"                                        ; g [ 6.6.2.n h 3             3 f x 2.5.6.[ k 4                                         ",
"                                          * 3 4.5.' x 3                 # j 2.2.5.k O                                           ",
"                                            ; 2 2 # #                     @ # 2 2 4                                             ",
"                                                                                                                                ",
"                                                                                                                                ",
"                                                                                                                                "
};
