/* XPM */
static char *_c59e2feb92d4644fb4c0675acb82f4bDZg4AgFIFDqfnCTt[] = {
/* columns rows colors chars-per-pixel */
"64 64 256 2 ",
"   c #020202",
".  c #080708",
"X  c #140A01",
"o  c #1A0B02",
"O  c #160604",
"+  c #1C1209",
"@  c #1E1106",
"#  c #030315",
"$  c #1F0612",
"%  c #191919",
"&  c #0D1717",
"*  c #220D01",
"=  c #280703",
"-  c #3A0707",
";  c #2B1201",
":  c #271606",
">  c #351400",
",  c #3D1A00",
"<  c #381804",
"1  c #221313",
"2  c #251B16",
"3  c #371918",
"4  c #2F0912",
"5  c #020223",
"6  c #01022C",
"7  c #191B27",
"8  c #010138",
"9  c #131B2E",
"0  c #2B1731",
"q  c #15282D",
"w  c #252525",
"e  c #2B2C2B",
"r  c #2A2728",
"t  c #342B29",
"y  c #37332D",
"u  c #2C3737",
"i  c #393A3A",
"p  c #2C2B32",
"a  c #362610",
"s  c #4A0605",
"d  c #59090A",
"f  c #441C00",
"g  c #471A05",
"h  c #551B04",
"j  c #4B0415",
"k  c #6A0602",
"l  c #7B0316",
"z  c #4C2201",
"x  c #452609",
"c  c #542500",
"v  c #5D2900",
"b  c #5C2803",
"n  c #593716",
"m  c #4A2A17",
"M  c #662B02",
"N  c #743201",
"B  c #7C3504",
"V  c #6F350B",
"C  c #720137",
"Z  c #483132",
"A  c #6C2A3B",
"S  c #53442F",
"D  c #745027",
"F  c #7A5826",
"G  c #010449",
"H  c #000054",
"J  c #010A59",
"K  c #0D1252",
"L  c #383847",
"P  c #000265",
"I  c #00006B",
"U  c #030B67",
"Y  c #040678",
"T  c #14116D",
"R  c #28047D",
"E  c #3B0A77",
"W  c #3C066E",
"Q  c #232C6A",
"!  c #70074B",
"~  c #510772",
"^  c #752D67",
"/  c #3D4448",
"(  c #294D54",
")  c #434443",
"_  c #4C4C4B",
"`  c #474846",
"'  c #4A5257",
"]  c #5A595A",
"[  c #555656",
"{  c #544B49",
"}  c #5D605D",
"|  c #60625B",
" . c #4D596A",
".. c #5C6366",
"X. c #466775",
"o. c #676868",
"O. c #767777",
"+. c #6C7275",
"@. c #6A4A7E",
"#. c #8A0B01",
"$. c #9A0702",
"%. c #870215",
"&. c #970216",
"*. c #8F170B",
"=. c #A70409",
"-. c #B40304",
";. c #A41403",
":. c #B71401",
">. c #A60217",
",. c #BA0613",
"<. c #853901",
"1. c #853704",
"2. c #8D3104",
"3. c #B42619",
"4. c #A52800",
"5. c #8A0829",
"6. c #8C062D",
"7. c #AA0325",
"8. c #8A243A",
"9. c #C80405",
"0. c #D60A04",
"q. c #DA1502",
"w. c #CE110D",
"e. c #E40D00",
"r. c #FC0D00",
"t. c #E91604",
"y. c #FE1D02",
"u. c #F81602",
"i. c #E11412",
"p. c #D3330B",
"a. c #FF2205",
"s. c #FF2803",
"d. c #FA2E14",
"f. c #CE2730",
"g. c #9B4205",
"h. c #8D5019",
"j. c #BA5308",
"k. c #AB520E",
"l. c #B66415",
"z. c #A45B20",
"x. c #986733",
"c. c #B3732B",
"v. c #DE4103",
"b. c #ED6F14",
"n. c #F5412B",
"m. c #EF7529",
"M. c #D56E1A",
"N. c #931F53",
"B. c #8B7D7A",
"V. c #985D54",
"C. c #F75947",
"Z. c #DF6252",
"A. c #BDA13F",
"S. c #F7831C",
"D. c #D08630",
"F. c #F39333",
"G. c #F5AA3E",
"H. c #BAC73D",
"J. c #B78E50",
"K. c #8F817E",
"L. c #AC9465",
"P. c #D89849",
"I. c #C9964F",
"U. c #D5A450",
"Y. c #F9A848",
"T. c #F8B155",
"R. c #F38579",
"E. c #D4AC70",
"W. c #F5BA6B",
"Q. c #C9C946",
"!. c #FFC255",
"~. c #FFC369",
"^. c #FFCD73",
"/. c #FFD67A",
"(. c #020887",
"). c #020B98",
"_. c #140E8F",
"`. c #330484",
"'. c #2F2C94",
"]. c #0512A3",
"[. c #0615B7",
"{. c #1010A9",
"}. c #2935B2",
"|. c #2A1BA6",
" X c #471699",
".X c #73718B",
"XX c #5A6889",
"oX c #0717C3",
"OX c #091CD3",
"+X c #061DDC",
"@X c #1626D5",
"#X c #2621CC",
"$X c #051EE3",
"%X c #031DF9",
"&X c #0B21E5",
"*X c #0B23EA",
"=X c #0422E7",
"-X c #172BE9",
";X c #0924F8",
":X c #122CFA",
">X c #1A33FB",
",X c #243AFC",
"<X c #241ED0",
"1X c #3449EA",
"2X c #7A8585",
"3X c #749193",
"4X c #5C8188",
"5X c #868686",
"6X c #939393",
"7X c #989A9C",
"8X c #8B9291",
"9X c #9A9EA1",
"0X c #97A9A8",
"qX c #A3A3A4",
"wX c #ABACAC",
"eX c #A5A9A6",
"rX c #ABAFB0",
"tX c #A8B2B2",
"yX c #B3B3B4",
"uX c #BEBEBE",
"iX c #B4B8B9",
"pX c #B1ACAB",
"aX c #A7A79F",
"sX c #C2AE84",
"dX c #E5A793",
"fX c #FED98A",
"gX c #F9DA96",
"hX c #E9C892",
"jX c #FFE48F",
"kX c #FFE698",
"lX c #FFEBAC",
"zX c #FFE8A4",
"xX c #FFF1BB",
"cX c #EBCC9F",
"vX c #BBC4C4",
"bX c #C3C3C3",
"nX c #CBCBCC",
"mX c #C7C8C8",
"MX c #CDD3D3",
"NX c #D3D4D4",
"BX c #DBDBDC",
"VX c #D7D9D9",
"CX c #D6D6CE",
"ZX c #E5C9C5",
"AX c #FFFFDC",
"SX c #FEF4C7",
"DX c #DDF4F2",
"FX c #E4E5E6",
"GX c #EDEDED",
"HX c #E6E7E8",
"JX c #FBFCE6",
"KX c #EEF6F6",
"LX c #F3F4F4",
"PX c #FFFFFF",
"IX c #F9F8F7",
"UX c #F6E5E2",
/* pixels */
"PXPXPXPXPXPXPXPXPXPXPXPXPXPXPXPXPXPXPXPXPXPXPXPXPXPXPXPXPXPXPXPXPXPXPXPXPXPXPXPXPXPXPXPXPXPXPXPXPXPXPXPXPXPXPXPXPXPXPXPXPXPXPXPX",
"PXPXPXPXPXPXPXPXPXPXPXPXPXPXPXPXPXPXPXPXPXPXPXPXPXPXPXPXPXPXPXPXPXPXPXPXPXPXPXPXPXPXPXPXPXPXPXPXPXPXPXPXPXPXPXPXPXPXPXPXPXPXPXPX",
"PXPXPXPXPXPXPXPXPXPXPXPXPXPXPXPXPXPXPXPXPXPXPXPXPXPXPXPXPXPXPXPXPXPXPXPXPXPXPXPXPXPXPXPXPXPXPXPXPXPXPXPXPXPXPXPXPXPXPXPXPXPXPXPX",
"PXPXPXPXPXPXPXPXPXPXPXPXPXPXPXPXPXPXPXPXPXPXPXPXPXPXPXPXPXPXPXPXPXPXPXPXPXPXPXPXPXPXPXPXPXPXPXPXPXPXPXPXPXPXPXPXPXPXPXPXPXPXPXPX",
"PXPXPXPXPXPXPXPXPXPXPXPXPXPXPXPXPXPXPXPXPXPXPXPXPXVXwXqXqXqXqXqXmXIXPXPXPXPXPXPXPXPXPXPXPXPXPXPXPXPXPXPXPXPXPXPXPXPXPXPXPXPXPXPX",
"PXPXPXPXPXPXPXPXPXPXPXPXPXPXPXPXPXPXPXPXPXPXPXPXMXB.t 1 1 1 1 2 } yXFXLXPXPXPXPXPXPXPXPXPXPXPXPXPXPXPXPXPXPXPXPXPXPXPXPXPXPXPXPX",
"PXPXPXPXPXPXPXPXPXPXPXPXPXPXPXPXPXPXPXPXPXPXIXVX+.2 k ;.;.;.;.#.3 i [ 8XBXPXPXPXPXPXPXPXPXPXPXPXPXPXPXPXPXPXPXPXPXPXPXPXPXPXPXPX",
"PXPXPXPXPXPXPXPXPXPXPXPXPXPXPXPXPXPXPXPXPXPXHX5X( m w.y.y.a.a.t.#.s - t 2XNXPXPXPXPXPXPXPXPXPXPXPXPXPXPXPXPXPXPXPXPXPXPXPXPXPXPX",
"PXPXPXPXPXPXPXPXPXPXPXPXPXPXPXPXPXPXPXPXPXPXbXy ( B.n.y.y.a.a.a.t.q.-.s w 2XVXPXPXPXPXPXPXPXPXPXPXPXPXPXPXPXPXPXPXPXPXPXPXPXPXPX",
"PXPXPXPXPXPXPXPXPXPXPXPXPXPXPXPXPXPXPXPXPXLX6X% .XZXC.y.y.a.a.a.s.a.u.:.k e 2XVXPXPXPXPXPXPXPXPXPXPXPXPXPXPXPXPXPXPXPXPXPXPXPXPX",
"PXPXPXPXPXPXPXPXPXPXPXPXPXPXPXPXPXPXPXPXLXtX` & 3XUXC.r.y.a.a.a.a.a.y.y.0.s e 2XMXPXPXPXPXPXPXPXPXPXPXPXPXPXPXPXPXPXPXPXPXPXPXPX",
"PXPXPXPXPXPXPXPXPXPXPXPXPXPXPXPXPXPXPXIXyX' . : 6XZXC.r.y.a.a.a.a.a.a.a.u.-.s r 2XVXPXPXPXPXPXPXPXPXPXPXPXPXPXPXPXPXPXPXPXPXPXPX",
"PXPXPXPXPXPXPXPXPXPXPXPXPXPXPXPXPXPXGXtX' 4 k ;.Z.Z.f.w.r.y.a.a.a.a.a.a.a.u.=.4 q ..5XiXKXPXPXPXPXPXPXPXPXPXPXPXPXPXPXPXPXPXPXPX",
"PXPXPXPXPXPXPXPXPXPXPXPXPXPXPXPXPXIXyX_ = #.e.y.a.0.%.l $.e.y.a.a.a.a.a.a.a.i.&.s = = [ tXGXPXPXPXPXPXPXPXPXPXPXPXPXPXPXPXPXPXPX",
"PXPXPXPXPXPXPXPXPXPXPXPXPXPXPXPXPXGXo.< ;.t.a.s.y.0.s O = $.u.a.a.a.a.a.a.a.y.i.w.:.$.< / tXLXPXPXPXPXPXPXPXPXPXPXPXPXPXPXPXPXPX",
"PXPXPXPXPXPXPXPXPXPXPXPXPXPXPXPXPXLX6XA #.;.;.w.d.p.s = h k $.e.u.a.a.a.a.a.a.a.s.a.u.$.3 { bXPXPXPXPXPXPXPXPXPXPXPXPXPXPXPXPXPX",
"PXPXPXPXPXPXPXPXPXPXPXPXPXPXPXPXPXPXIXpXy % 4 l p.b.h.z.M.1.k -.0.t.u.y.a.a.a.a.a.a.a.u.$.= 6XPXPXPXPXPXPXPXPXPXPXPXPXPXPXPXPXPX",
"PXPXPXPXPXPXPXPXPXPXPXPXPXPXPXPXPXPXPXLXiX5X/ $ <.G.cXlXW.M.4.&.>.,.0.t.t.a.a.a.y.a.s.a.:.O 6XPXPXPXPXPXPXPXPXPXPXPXPXPXPXPXPXPX",
"PXPXPXPXPXPXPXPXPXPXPXPXPXPXPXPXPXPXPXPXPXPX9X7 F Y.uXMXxX~.m.3.l l =.9.e.t.u.y.a.a.a.a.;.* 6XPXPXPXPXPXPXPXPXPXPXPXPXPXPXPXPXPX",
"PXPXPXPXPXPXPXPXPXPXPXPXPXPXPXPXPXPXPXIXIXLXyXw x.P.S +.LXSXW.b.1.j %.=.-.9.0.i.y.a.y.u.;.$ 6XPXPXPXPXPXPXPXPXPXPXPXPXPXPXPXPXPX",
"PXPXPXPXPXPXPXPXPXPXPXPXPXPXPXPXPXPXGXeXo.o.] m c.I.<  .LXJXjXY.h.; j d k &.>.,.w.0.e.w.%.O 8XPXPXPXPXPXPXPXPXPXPXPXPXPXPXPXPXPX",
"PXPXPXPXPXPXPXPXPXPXPXPXPXPXPXPXPXFX7X{ y ) S x.Y.I.:  .LXJXfXU.h.< , n V %.%.%.=.9.,.%.j r qXPXPXPXPXPXPXPXPXPXPXPXPXPXPXPXPXPX",
"PXPXPXPXPXPXPXPXPXPXPXPXPXPXPXPXHX9Xy S sXCXBXgX/.I.a ..IXAXW.l.N z N D.P.z.b d %.7.&.- w O.NXPXPXPXPXPXPXPXPXPXPXPXPXPXPXPXPXPX",
"PXPXPXPXPXPXPXPXPXPXPXPXPXPXPXPXuX_ S L.lXAXAXSXzXhXL.sXxXxXE.N g N j.b.Y.E.F f j d j p +.CXIXPXPXPXPXPXPXPXPXPXPXPXPXPXPXPXPXPX",
"PXPXPXPXPXPXPXPXPXPXPXPXPXPXPXPX7X+ c./.kXlXlXlXkXgXhXE.T.jXE.D h <.b.S.Y.fXL.f > *   o.NXPXPXPXPXPXPXPXPXPXPXPXPXPXPXPXPXPXPXPX",
"PXPXPXPXPXPXPXPXPXPXPXPXPXPXPXPX7Xo c.!./.jXlXlX/.P.D n z.hXzXU.h.g.S.!.fXfXJ.f > * & 7XPXPXPXPXPXPXPXPXPXPXPXPXPXPXPXPXPXPXPXPX",
"PXPXPXPXPXPXPXPXPXPXPXPXPXPXPXPXuX` n c.Y./.jXjXG.k.O   x I.jX^.P.D.Y.^.^.Y.h., * 2 _ nXPXPXPXPXPXPXPXPXPXPXPXPXPXPXPXPXPXPXPXPX",
"PXPXPXPXPXPXPXPXPXPXPXPXPXPXPXPXHX0Xi c D.U.U.D.l.M     o J.^.^.!.W.W.Y.M.j.B >   i wXGXPXPXPXPXPXPXPXPXPXPXPXPXPXPXPXPXPXPXPXPX",
"PXPXPXPXPXPXPXPXPXPXPXPXPXPXPXPXPXFX7X` x m m x > O     : I.^.~.T.G.S.l.B M M z . } GXPXPXPXPXPXPXPXPXPXPXPXPXPXPXPXPXPXPXPXPXPX",
"PXPXPXPXPXPXPXPXPXPXPXPXPXPXPXPXPXPXHXqX| / %     * f M k.G.!.Y.S.M.v.*.< , v v < S qXBXPXPXPXPXPXPXPXPXPXPXPXPXPXPXPXPXPXPXPXPX",
"PXPXPXPXPXPXPXPXPXPXPXPXPXPXPXPXPXPXPXIXLXnXO.7 O , <.M.D.F.F.b.3.6.5.d ; < f c c < r yXPXPXPXPXPXPXPXPXPXPXPXPXPXPXPXPXPXPXPXPX",
"PXPXPXPXPXPXPXPXPXPXPXPXPXPXPXPXPXPXPXPXPXPXBX5Xy X , Z XXN.p.3.! `.R 0 X X o o * : ] nXPXPXPXPXPXPXPXPXPXPXPXPXPXPXPXPXPXPXPXPX",
"PXPXPXPXPXPXPXPXPXPXPXPXPXPXPXPXPXPXPXPXLXmXpX2XZ $ 6 U `.C -.=.`.=X+X(.8 #     7 +.NXPXPXPXPXPXPXPXPXPXPXPXPXPXPXPXPXPXPXPXPXPX",
"PXPXPXPXPXPXPXPXPXPXPXPXPXPXPXPXPXPXPXGXeX_ 2 % d C _.`.C -.9.,. X;X%X+XY #   . ] yXLXIXPXPXPXPXPXPXPXPXPXPXPXPXPXPXPXPXPXPXPXPX",
"PXPXPXPXPXPXPXPXPXPXPXPXPXPXPXPXPXPXHXqX) 9 9 j #.! {.`.=.e.,. X#X#XN.N.! l k j i ..B.yXGXPXPXPXPXPXPXPXPXPXPXPXPXPXPXPXPXPXPXPX",
"PXPXPXPXPXPXPXPXPXPXPXPXPXPXPXPXPXLXrX/ & (  .A &.6.E `.6.q.V.-X;X|.w.u.u.0.w.&.d - = Z 5XbXVXIXPXPXPXPXPXPXPXPXPXPXPXPXPXPXPXPX",
"PXPXPXPXPXPXPXPXPXPXPXPXPXPXPXPXPXGXo.& ( 4X3XX.A &.6.W Q D.I.1X%X|.,.u.y.y.y.t.t.q.;.d % e +.mXIXPXPXPXPXPXPXPXPXPXPXPXPXPXPXPX",
"PXPXPXPXPXPXPXPXPXPXPXPXPXPXPXPXPXGX5Xq u 4X0X3X^ =.>.~ }.H.Q.1X;X#X~ 7.t.a.s.a.r.n.Z.6X+.' y ] uXIXPXPXPXPXPXPXPXPXPXPXPXPXPXPX",
"PXPXPXPXPXPXPXPXPXPXPXPXPXPXPXPXPXIXNX+.w / 3X3XV.5.%.E }.Q.Q.1X:X:X[.W 5.i.a.y.d.dXIXKXFXvX..p +.nXPXPXPXPXPXPXPXPXPXPXPXPXPXPX",
"PXPXPXPXPXPXPXPXPXPXPXPXPXPXPXPXPXPXPXnXO.u u X.XXL 4 Y }.A.P.1X>X>X=X[.~ &.0.d.R.UXPXPXPXKXNX2Xe 6XPXPXPXPXPXPXPXPXPXPXPXPXPXPX",
"PXPXPXPXPXPXPXPXPXPXPXPXPXPXPXPXPXPXPXPXNX+.w q ( q . U @X.X.X,X>X>X*X=X[.W C 8.pXDXPXPXPXPXPXMXr +.PXPXPXPXPXPXPXPXPXPXPXPXPXPX",
"PXPXPXPXPXPXPXPXPXPXPXPXPXPXPXPXPXPXPXPXPXnXO.e % %   J @X>X,X,X>X>X*X*X+X[.(.T XXtXnXKXPXPXLXrXr 5XPXPXPXPXPXPXPXPXPXPXPXPXPXPX",
"PXPXPXPXPXPXPXPXPXPXPXPXPXPXPXPXPXPXPXPXPXPXBXyXrX6Xw G oX%X:X,X>X-X&X&X*X$XoX)._.L ' 0XKXKX6X) ] uXPXPXPXPXPXPXPXPXPXPXPXPXPXPX",
"PXPXPXPXPXPXPXPXPXPXPXPXPXPXPXPXPXPXPXPXPXPXPXPXPXGXo.9 Y OX;X:X*X+X&X&X&X*X+X[.Y 6   S 8X8X` ) eXGXPXPXPXPXPXPXPXPXPXPXPXPXPXPX",
"PXPXPXPXPXPXPXPXPXPXPXPXPXPXPXPXPXPXPXPXPXPXPXPXPXIXyX{ 5 ].;X*X&X&X&X&X&X*XOX].Y 8   . w w [ wXLXPXPXPXPXPXPXPXPXPXPXPXPXPXPXPX",
"PXPXPXPXPXPXPXPXPXPXPXPXPXPXPXPXPXPXPXPXPXPXPXPXPXPXLXO.. (.$X*X&X&X&X&X*X-XoX(.Y 8   i O.9XuXLXPXPXPXPXPXPXPXPXPXPXPXPXPXPXPXPX",
"PXPXPXPXPXPXPXPXPXPXPXPXPXPXPXPXPXPXPXPXPXPXPXPXPXPXPXrXp K ].OX+X&X&X*X&XOX).I P G 5 _ aXLXPXPXPXPXPXPXPXPXPXPXPXPXPXPXPXPXPXPX",
"PXPXPXPXPXPXPXPXPXPXPXPXPXPXPXPXPXPXPXPXPXPXPXPXPXPXPXBX2Xr G ].&X&X*X*XOX(.I P P P H 9 S eXGXPXPXPXPXPXPXPXPXPXPXPXPXPXPXPXPXPX",
"PXPXPXPXPXPXPXPXPXPXPXPXPXPXPXPXPXPXPXPXPXPXPXPXPXPXPXPXaXt 5 [.*X*X*X*X].G 5 6 H Y I G 5 y o.5XmXIXPXPXPXPXPXPXPXPXPXPXPXPXPXPX",
"PXPXPXPXPXPXPXPXPXPXPXPXPXPXPXPXPXPXPXPXPXPXPXPXPXGXNXyX+.q J OX*X*X*X[.U # # # H I I I H 6 # % o.uXIXPXPXPXPXPXPXPXPXPXPXPXPXPX",
"PXPXPXPXPXPXPXPXPXPXPXPXPXPXPXPXPXPXPXPXPXPXPXPXHXqX_ e 7 T [.&X*X;X$X(.#   5 H I I I I (.(.0 : + o.vXLXPXPXPXPXPXPXPXPXPXPXPXPX",
"PXPXPXPXPXPXPXPXPXPXPXPXPXPXPXPXPXPXPXPXPXPXPXFX7Xi @ ; 2 {.;X*X*X*X+XJ . y L G P (.).)._.T 0 , o 2 o.BXPXPXPXPXPXPXPXPXPXPXPXPX",
"PXPXPXPXPXPXPXPXPXPXPXPXPXPXPXPXPXPXPXPXPXPXGX7Xi X z M m '.-X:X;X$X].K Z 8X| . 8 T ).{.T 3 f f f * r bXPXPXPXPXPXPXPXPXPXPXPXPX",
"PXPXPXPXPXPXPXPXPXPXPXPXPXPXPXPXPXPXPXPXPXPXnX` : f N B M Z '.>X:X[.G ) 6XpX}   1 0 0 0 3 , f z c ; % uXPXPXPXPXPXPXPXPXPXPXPXPX",
"PXPXPXPXPXPXPXPXPXPXPXPXPXPXPXPXPXPXPXPXPXPXuX% z g.1.M h h t '.'.T X Z +.| t * , g f f f z c z , 2 [ NXPXPXPXPXPXPXPXPXPXPXPXPX",
"PXPXPXPXPXPXPXPXPXPXPXPXPXPXPXPXPXPXPXPXPXPXmXe V k.<.M b b h < 3 f , @ . & : > f f f f z c c , o _ wXLXPXPXPXPXPXPXPXPXPXPXPXPX",
"PXPXPXPXPXPXPXPXPXPXPXPXPXPXPXPXPXPXPXPXPXPXFXO.Z M g.k.<.v c z f z f o   ) y o < z c v f * * @ _ eXGXPXPXPXPXPXPXPXPXPXPXPXPXPX",
"PXPXPXPXPXPXPXPXPXPXPXPXPXPXPXPXPXPXPXPXPXPXIXMX..t B g.M N <.B v , : + _ rX8Xr * > f z : w L o.tXLXPXPXPXPXPXPXPXPXPXPXPXPXPXPX",
"PXPXPXPXPXPXPXPXPXPXPXPXPXPXPXPXPXPXPXPXPXPXPXIXMXO.t : * B g.<.M < X ` rXLXBXB.r X & X t 5XnXFXIXPXPXPXPXPXPXPXPXPXPXPXPXPXPXPX",
"PXPXPXPXPXPXPXPXPXPXPXPXPXPXPXPXPXPXPXPXPXPXPXPXPXNXqX.X_ , c g > @ ` qXGXPXPXVXqX6X6X6XeXBXPXPXPXPXPXPXPXPXPXPXPXPXPXPXPXPXPXPX",
"PXPXPXPXPXPXPXPXPXPXPXPXPXPXPXPXPXPXPXPXPXPXPXPXPXPXPXLXyX] i i i [ wXGXPXPXPXPXPXPXPXPXPXPXPXPXPXPXPXPXPXPXPXPXPXPXPXPXPXPXPXPX",
"PXPXPXPXPXPXPXPXPXPXPXPXPXPXPXPXPXPXPXPXPXPXPXPXPXPXPXPXLXBXNXNXNXBXLXPXPXPXPXPXPXPXPXPXPXPXPXPXPXPXPXPXPXPXPXPXPXPXPXPXPXPXPXPX",
"PXPXPXPXPXPXPXPXPXPXPXPXPXPXPXPXPXPXPXPXPXPXPXPXPXPXPXPXPXPXPXPXPXPXPXPXPXPXPXPXPXPXPXPXPXPXPXPXPXPXPXPXPXPXPXPXPXPXPXPXPXPXPXPX",
"PXPXPXPXPXPXPXPXPXPXPXPXPXPXPXPXPXPXPXPXPXPXPXPXPXPXPXPXPXPXPXPXPXPXPXPXPXPXPXPXPXPXPXPXPXPXPXPXPXPXPXPXPXPXPXPXPXPXPXPXPXPXPXPX"
};
