/* XPM */
static char *_b5418aaacbc448df6a537b7538917bfIMWw1BIzCnqD4fLg[] = {
/* columns rows colors chars-per-pixel */
"64 64 253 2 ",
"   c #010101",
".  c #0B0300",
"X  c #0C0B09",
"o  c #1B0B00",
"O  c #160C08",
"+  c #1A120B",
"@  c #010218",
"#  c #1B1B1B",
"$  c #171515",
"%  c #0D1415",
"&  c #250A00",
"*  c #360A05",
"=  c #251202",
"-  c #2D1301",
";  c #26180A",
":  c #341501",
">  c #3D1B01",
",  c #391602",
"<  c #271918",
"1  c #371711",
"2  c #220D1D",
"3  c #2B2218",
"4  c #362417",
"5  c #3B210F",
"6  c #040427",
"7  c #010235",
"8  c #070436",
"9  c #14182E",
"0  c #291423",
"q  c #200D33",
"w  c #182A2E",
"e  c #262727",
"r  c #2B2E35",
"t  c #333433",
"y  c #393838",
"u  c #372C2E",
"i  c #1E2217",
"p  c #450704",
"a  c #560B03",
"s  c #5A060A",
"d  c #431C00",
"f  c #491E02",
"g  c #421405",
"h  c #5C1705",
"j  c #560214",
"k  c #4A0B1B",
"l  c #670304",
"z  c #770502",
"x  c #690514",
"c  c #70160D",
"v  c #4C2201",
"b  c #4E2409",
"n  c #542501",
"m  c #5C2800",
"M  c #503011",
"N  c #622C00",
"B  c #6C2C01",
"V  c #652908",
"C  c #763303",
"Z  c #6E3807",
"A  c #730C35",
"S  c #453A38",
"D  c #482E35",
"F  c #72302F",
"G  c #4D0025",
"H  c #774716",
"J  c #444237",
"K  c #67583D",
"L  c #010149",
"P  c #02035B",
"I  c #100A58",
"U  c #2E004B",
"Y  c #373A43",
"T  c #020163",
"R  c #00006C",
"E  c #040966",
"W  c #000076",
"Q  c #030978",
"!  c #0C166B",
"~  c #1E2F57",
"^  c #57004F",
"/  c #670855",
"(  c #53314D",
")  c #4E0369",
"_  c #6A1469",
"`  c #3D4444",
"'  c #2A4E51",
"]  c #275A66",
"[  c #306E7C",
"{  c #4C4C4C",
"}  c #444546",
"|  c #56564A",
" . c #4C4A54",
".. c #5B5B5B",
"X. c #565757",
"o. c #4E5358",
"O. c #626158",
"+. c #576364",
"@. c #6A6A6A",
"#. c #636666",
"$. c #697374",
"%. c #797977",
"&. c #73726F",
"*. c #545B63",
"=. c #860801",
"-. c #940800",
";. c #8A021B",
":. c #990216",
">. c #961202",
",. c #BB0305",
"<. c #B91303",
"1. c #A8061A",
"2. c #B90814",
"3. c #AA080C",
"4. c #883A02",
"5. c #8A3107",
"6. c #A91524",
"7. c #C80606",
"8. c #D60B02",
"9. c #D81405",
"0. c #CD120B",
"q. c #E91702",
"w. c #FF1300",
"e. c #FC1C02",
"r. c #F31A04",
"t. c #E61711",
"y. c #EE0B05",
"u. c #D72A10",
"i. c #FF2204",
"p. c #F33219",
"a. c #D72B29",
"s. c #FB3628",
"d. c #9A4303",
"f. c #8B5017",
"g. c #A64A06",
"h. c #AD560F",
"j. c #AC6319",
"k. c #93692E",
"l. c #916D32",
"z. c #A67836",
"x. c #AD6C2F",
"c. c #8B5520",
"v. c #C7480A",
"b. c #D55217",
"n. c #EF4D11",
"m. c #D1731B",
"M. c #F16B0C",
"N. c #FC442C",
"B. c #CC7427",
"V. c #971852",
"C. c #8D7144",
"Z. c #8D634E",
"A. c #CF6F6E",
"S. c #B1823F",
"D. c #FC821C",
"F. c #F59435",
"G. c #EE8D30",
"H. c #F7A93B",
"J. c #AE8D5C",
"K. c #88826F",
"L. c #A3876A",
"P. c #CD954F",
"I. c #D2A15B",
"U. c #E7A34D",
"Y. c #FCA544",
"T. c #F8B45A",
"R. c #F5AE54",
"E. c #F0B76B",
"W. c #D79670",
"Q. c #FFC258",
"!. c #FFC969",
"~. c #FFCE76",
"^. c #FFD979",
"/. c #EBC07B",
"(. c #030C89",
"). c #0F0F96",
"_. c #0516BB",
"`. c #0A11AE",
"'. c #3016A9",
"]. c #2C31B3",
"[. c #201986",
"{. c #481483",
"}. c #1F49B4",
"|. c #6F7386",
" X c #0617C7",
".X c #061CD6",
"XX c #1721D9",
"oX c #091FE5",
"OX c #061FF1",
"+X c #0B21E5",
"@X c #0B22EB",
"#X c #0823EB",
"$X c #1329EC",
"%X c #0824F5",
"&X c #152DF6",
"*X c #1D34FC",
"=X c #1934FB",
"-X c #0F34FE",
";X c #2239FF",
":X c #2137FE",
">X c #263BE0",
",X c #2D1DC6",
"<X c #768686",
"1X c #6D8A8C",
"2X c #5E8986",
"3X c #898989",
"4X c #868D92",
"5X c #8C9595",
"6X c #939393",
"7X c #9C9D9D",
"8X c #969897",
"9X c #A69C8F",
"0X c #9B9EA1",
"qX c #9AA3A4",
"wX c #9AB5B4",
"eX c #ACADAC",
"rX c #A6A9A8",
"tX c #B3B3B3",
"yX c #BBBBBC",
"uX c #B4B9BB",
"iX c #ACB1B4",
"pX c #E89991",
"aX c #BBC0BD",
"sX c #DAC389",
"dX c #FFDA8A",
"fX c #FCDA92",
"gX c #ECC881",
"hX c #FFE397",
"jX c #FFE18F",
"kX c #FFEAA9",
"lX c #FFF1B9",
"zX c #BBC2C2",
"xX c #C3C3C4",
"cX c #CACACB",
"vX c #C6C9C9",
"bX c #DBDBDB",
"nX c #D4D4D4",
"mX c #C9D1D1",
"MX c #F3D6CA",
"NX c #FFFAC8",
"BX c #FBF7D7",
"VX c #DDDFE1",
"CX c #DFE7E7",
"ZX c #C7E1E3",
"AX c #E3E3E3",
"SX c #ECECEC",
"DX c #E6E8E9",
"FX c #F9EBEA",
"GX c #FFFDE6",
"HX c #ECF2F2",
"JX c #F4F4F4",
"KX c #FFFFFF",
"LX c #F8F8F7",
/* pixels */
"KXKXKXKXKXKXKXKXKXKXKXKXKXKXKXKXKXKXKXKXKXKXKXKXKXKXKXKXKXKXKXKXKXKXKXKXKXKXKXKXKXKXKXKXKXKXKXKXKXKXKXKXKXKXKXKXKXKXKXKXKXKXKXKX",
"KXKXKXKXKXKXKXKXKXKXKXKXKXKXKXKXKXKXKXKXKXKXKXKXKXKXKXKXKXKXKXKXKXKXKXKXKXKXKXKXKXKXKXKXKXKXKXKXKXKXKXKXKXKXKXKXKXKXKXKXKXKXKXKX",
"KXKXKXKXKXKXKXKXKXKXKXKXKXKXKXKXKXKXKXKXKXKXKXKXKXKXKXKXKXKXKXKXKXKXKXKXKXKXKXKXKXKXKXKXKXKXKXKXKXKXKXKXKXKXKXKXKXKXKXKXKXKXKXKX",
"KXKXKXKXKXKXKXKXKXKXKXKXKXKXKXKXKXKXKXKXKXKXKXKXKXKXKXKXKXKXKXKXJXAXAXAXAXAXAXJXKXKXKXKXKXKXKXKXKXKXKXKXKXKXKXKXKXKXKXKXKXKXKXKX",
"KXKXKXKXKXKXKXKXKXKXKXKXKXKXKXKXKXKXKXKXKXKXKXKXKXKXKXKXKXKXKXSXqXX.{ { { { ..rXAXKXKXKXKXKXKXKXKXKXKXKXKXKXKXKXKXKXKXKXKXKXKXKX",
"KXKXKXKXKXKXKXKXKXKXKXKXKXKXKXKXKXKXKXKXKXKXKXKXKXKXKXKXLXmXrX<XS g a h a a p D 5XCXKXKXKXKXKXKXKXKXKXKXKXKXKXKXKXKXKXKXKXKXKXKX",
"KXKXKXKXKXKXKXKXKXKXKXKXKXKXKXKXKXKXKXKXKXKXKXKXKXKXKXLXzX@.< + p <.q.r.q.q.<.* t 7XDXKXKXKXKXKXKXKXKXKXKXKXKXKXKXKXKXKXKXKXKXKX",
"KXKXKXKXKXKXKXKXKXKXKXKXKXKXKXKXKXKXKXKXKXKXKXKXKXKXLXzX+.< l -.<.e.i.i.i.w.t.Z.' } vXKXKXKXKXKXKXKXKXKXKXKXKXKXKXKXKXKXKXKXKXKX",
"KXKXKXKXKXKXKXKXKXKXKXKXKXKXKXKXKXKXKXKXKXKXKXKXKXLXzX+.1 l 8.e.i.i.i.i.e.w.s.pX2X% 4XLXKXKXKXKXKXKXKXKXKXKXKXKXKXKXKXKXKXKXKXKX",
"KXKXKXKXKXKXKXKXKXKXKXKXKXKXKXKXKXKXKXKXKXKXKXKXLXxX*.; =.t.e.i.i.i.i.i.e.w.N.MXwX% ..cXLXKXKXKXKXKXKXKXKXKXKXKXKXKXKXKXKXKXKXKX",
"KXKXKXKXKXKXKXKXKXKXKXKXKXKXKXKXKXKXKXKXKXKXKXKXzX+.< l 8.i.i.i.i.i.i.i.e.w.N.MXwX# # $.vXKXKXKXKXKXKXKXKXKXKXKXKXKXKXKXKXKXKXKX",
"KXKXKXKXKXKXKXKXKXKXKXKXKXKXKXKXKXKXKXKXKXDXmXrX+.$ l 8.e.i.i.i.i.i.i.i.r.y.a.pX9XV * < $.vXLXKXKXKXKXKXKXKXKXKXKXKXKXKXKXKXKXKX",
"KXKXKXKXKXKXKXKXKXKXKXKXKXKXKXKXKXKXKXKXCX6X` e $ k 2.r.i.i.i.e.i.e.i.e.8.,.1.a.p.q.,.l < $.cXLXKXKXKXKXKXKXKXKXKXKXKXKXKXKXKXKX",
"KXKXKXKXKXKXKXKXKXKXKXKXKXKXKXKXKXKXKXbX<Xt a z =.2.t.i.i.i.i.i.i.i.e.7.l * s ,.w.i.e.9.=.1 @.AXKXKXKXKXKXKXKXKXKXKXKXKXKXKXKXKX",
"KXKXKXKXKXKXKXKXKXKXKXKXKXKXKXKXKXKXAX6Xt a 0.r.e.i.i.i.i.i.i.e.i.r.8.=.* o & <.i.r.t.9.<.j ..bXKXKXKXKXKXKXKXKXKXKXKXKXKXKXKXKX",
"KXKXKXKXKXKXKXKXKXKXKXKXKXKXKXKXKXKXaXy a 7.e.i.i.i.i.i.i.i.i.e.q.8.=.c 4.5.h v.n.2.l g p Z.vXJXKXKXKXKXKXKXKXKXKXKXKXKXKXKXKXKX",
"KXKXKXKXKXKXKXKXKXKXKXKXKXKXKXKXKXKXeX$ >.e.i.i.i.i.i.i.i.r.q.8.2.3.=.g.G.E.J.G.b.j 0 ` #.vXKXKXKXKXKXKXKXKXKXKXKXKXKXKXKXKXKXKX",
"KXKXKXKXKXKXKXKXKXKXKXKXKXKXKXKXKXKXeX# >.e.i.i.i.e.i.e.q.8.,.1.;.;.u.F.dXBXMXE.f.O *.vXJXKXKXKXKXKXKXKXKXKXKXKXKXKXKXKXKXKXKXKX",
"KXKXKXKXKXKXKXKXKXKXKXKXKXKXKXKXKXKXtX< -.e.i.i.i.e.y.8.8.7.:.x c v.G.fXBXiXK.I.z.i 7XKXKXKXKXKXKXKXKXKXKXKXKXKXKXKXKXKXKXKXKXKX",
"KXKXKXKXKXKXKXKXKXKXKXKXKXKXKXKXKXKXeX$ z 9.r.r.t.8.,.3.-.=.x * Z G.~.BXKX|.+ S.P.5 %.tXtXvXJXKXKXKXKXKXKXKXKXKXKXKXKXKXKXKXKXKX",
"KXKXKXKXKXKXKXKXKXKXKXKXKXKXKXKXKXKXiX< j 1.7.7.7.1.;.;.c b d * H U.dXNXLX|.+ S.U.f.1 e ; O.aXJXKXKXKXKXKXKXKXKXKXKXKXKXKXKXKXKX",
"KXKXKXKXKXKXKXKXKXKXKXKXKXKXKXKXKXKXnX#.0 j :.2.1.x l 5.k.l.m g Z B./.NXKX|.+ z.Q.I.9X8XK.J { iXJXKXKXKXKXKXKXKXKXKXKXKXKXKXKXKX",
"KXKXKXKXKXKXKXKXKXKXKXKXKXKXKXKXKXKXJXzXX.< j ;.x f Z x.Y.G.g.B n d.P.lXGX9X| I.jXlXGXLXlXK.4 O.xXKXKXKXKXKXKXKXKXKXKXKXKXKXKXKX",
"KXKXKXKXKXKXKXKXKXKXKXKXKXKXKXKXKXKXKXLXuX+.2 * g f O./.T.M.M.4.f N J.hXfXgXsXfXhXlXlXlXlXgXS.3 3XKXKXKXKXKXKXKXKXKXKXKXKXKXKXKX",
"KXKXKXKXKXKXKXKXKXKXKXKXKXKXKXKXKXKXKXKXLX7X$ O : , C.fX~.Y.M.d.B k.sXfXP.k.L.E.dXkXkXhXdX^.U.= &.KXKXKXKXKXKXKXKXKXKXKXKXKXKXKX",
"KXKXKXKXKXKXKXKXKXKXKXKXKXKXKXKXKXKXKXKXKXcXy ; - : c.T.dXdXY.B.x.T.kXE.f.& o j.T.jXkXjX!.H.j.3 3XKXKXKXKXKXKXKXKXKXKXKXKXKXKXKX",
"KXKXKXKXKXKXKXKXKXKXKXKXKXKXKXKXKXKXKXKXKXSX6Xy . - C m.H.Q.!.R.R.!.dXI.M     B m.T.~.!.H.f.4 +.vXKXKXKXKXKXKXKXKXKXKXKXKXKXKXKX",
"KXKXKXKXKXKXKXKXKXKXKXKXKXKXKXKXKXKXKXKXKXKXSX@.  : B 4.g.B.H.Q.!.!.~.P.<     & N f.k.l.f.M o.aXJXKXKXKXKXKXKXKXKXKXKXKXKXKXKXKX",
"KXKXKXKXKXKXKXKXKXKXKXKXKXKXKXKXKXKXKXKXKXLXAX&.o v N n > C M.D.H.Q.!.U.H : o . . . X $ < #.yXLXKXKXKXKXKXKXKXKXKXKXKXKXKXKXKXKX",
"KXKXKXKXKXKXKXKXKXKXKXKXKXKXKXKXKXKXKXKXKXnX@.D v m m d - h <.6.b.D.H.H.G.j.4.d .   r %.eXmXLXKXKXKXKXKXKXKXKXKXKXKXKXKXKXKXKXKX",
"KXKXKXKXKXKXKXKXKXKXKXKXKXKXKXKXKXKXKXKXKXcX} ; > > 1 2 a x ^ ^ / u.n.m.x.h.C > < ..7XDXKXKXKXKXKXKXKXKXKXKXKXKXKXKXKXKXKXKXKXKX",
"KXKXKXKXKXKXKXKXKXKXKXKXKXKXKXKXKXKXKXKXKXSXrX{ X . 6 I A ^ ). X[.;.6.;.: + + $ @.AXKXKXKXKXKXKXKXKXKXKXKXKXKXKXKXKXKXKXKXKXKXKX",
"KXKXKXKXKXKXKXKXKXKXKXKXKXKXKXKXKXKXKXKXKXKXJXuXX.$ 7 (.'.'..X.X X)./ l . 0 $.qXVXKXKXKXKXKXKXKXKXKXKXKXKXKXKXKXKXKXKXKXKXKXKXKX",
"KXKXKXKXKXKXKXKXKXKXKXKXKXKXKXKXKXKXKXKXKXKXLXaX+.9 E _.OX%X$X].{.) / :.p u 1XuXxXyXyXxXDXKXKXKXKXKXKXKXKXKXKXKXKXKXKXKXKXKXKXKX",
"KXKXKXKXKXKXKXKXKXKXKXKXKXKXKXKXKXKXKXKXLXSXuX| 9 Q  XoXOX%XXXV.t.a.t.0.:.k 0 e e < 0 } 8XAXKXKXKXKXKXKXKXKXKXKXKXKXKXKXKXKXKXKX",
"KXKXKXKXKXKXKXKXKXKXKXKXKXKXKXKXKXKXKXbX6X@.` * G '.%X&X%XOX,XV.i.i.e.e.t.<.=.z F %.6X..y 3XAXKXKXKXKXKXKXKXKXKXKXKXKXKXKXKXKXKX",
"KXKXKXKXKXKXKXKXKXKXKXKXKXKXKXKXKXLXnX%.w $ O s / ,X-X*X&X%XXX_ 0.e.i.i.i.w.e.s.W.FXLXcX} } 7XSXKXKXKXKXKXKXKXKXKXKXKXKXKXKXKXKX",
"KXKXKXKXKXKXKXKXKXKXKXKXKXKXKXKXLXbX%.e w Y A ^ '.$X*X*X;X&X+X`._ 9.e.i.i.w.s.pXFXKXKXLXuX{ | bXKXKXKXKXKXKXKXKXKXKXKXKXKXKXKXKX",
"KXKXKXKXKXKXKXKXKXKXKXKXKXKXKXKXJX3X} ` [  .;.) .X-X;X;X;X*X#X X)._ 6.8.e.s.pXFXKXKXLXKXDX+.e nXKXKXKXKXKXKXKXKXKXKXKXKXKXKXKXKX",
"KXKXKXKXKXKXKXKXKXKXKXKXKXKXKXKXSXX.y 1X1X..A {.&X*X;X;X;X*X+X X_.`.) :.2.A.DXLXKXKXHXZXqX` { bXKXKXKXKXKXKXKXKXKXKXKXKXKXKXKXKX",
"KXKXKXKXKXKXKXKXKXKXKXKXKXKXKXKXSX{ t 5XwX$.o.].*X:X:X;X:X;X*X+X X_.Q U U |.ZXKXKXHXmX<Xt ` 8XSXKXKXKXKXKXKXKXKXKXKXKXKXKXKXKXKX",
"KXKXKXKXKXKXKXKXKXKXKXKXKXKXKXKXHXK.y o.2X2X[ }.;X:X;X:X;X;X;X&XoX X`.W P ~ |.cXcX4X#.Y r 3XVXKXKXKXKXKXKXKXKXKXKXKXKXKXKXKXKXKX",
"KXKXKXKXKXKXKXKXKXKXKXKXKXKXKXKXLXcX@.# w ] ] }.;X;X;X;X;X;X*X$X#X#X X(.6 X e $.+.# i Y 6XbXKXKXKXKXKXKXKXKXKXKXKXKXKXKXKXKXKXKX",
"KXKXKXKXKXKXKXKXKXKXKXKXKXKXKXKXKXLXxX#.w % % [.$X:X;X;X;X*X$X+X+X#X+X(.@ t | e e | 5XuXAXKXKXKXKXKXKXKXKXKXKXKXKXKXKXKXKXKXKXKX",
"KXKXKXKXKXKXKXKXKXKXKXKXKXKXKXKXKXKXKXcX%.e X E +X=X=X*X=X&X#X+X+X.X XW @ | 7X#.@.vXKXKXKXKXKXKXKXKXKXKXKXKXKXKXKXKXKXKXKXKXKXKX",
"KXKXKXKXKXKXKXKXKXKXKXKXKXKXKXKXKXKXKXLXzXO.% ! +X#X+X+X+X@X+X#X.X_.(.P @ S rXbXHXLXKXKXKXKXKXKXKXKXKXKXKXKXKXKXKXKXKXKXKXKXKXKX",
"KXKXKXKXKXKXKXKXKXKXKXKXKXKXKXKXKXKXKXKXqXY E `.+X#X+X#X@X+X.X.X X(.R P 7 9 ..AXKXKXKXKXKXKXKXKXKXKXKXKXKXKXKXKXKXKXKXKXKXKXKXKX",
"KXKXKXKXKXKXKXKXKXKXKXKXKXKXKXKXKXKXKXSXO.6 ).+X+X+X@X#X X).Q (.Q T T W W 7 # rXKXKXKXKXKXKXKXKXKXKXKXKXKXKXKXKXKXKXKXKXKXKXKXKX",
"KXKXKXKXKXKXKXKXKXKXKXKXKXKXKXKXKXKXSXeXy 6 _.&X+X+X%X.XE @ @ @ 7 P R R R 7 $ %.nXKXKXKXKXKXKXKXKXKXKXKXKXKXKXKXKXKXKXKXKXKXKXKX",
"KXKXKXKXKXKXKXKXKXKXKXKXKXKXKXKXKXJXeX{ 9 Q .X%X@X@X_.! t K J $ @ P W R R P 8 r ..|.tXSXKXKXKXKXKXKXKXKXKXKXKXKXKXKXKXKXKXKXKXKX",
"KXKXKXKXKXKXKXKXKXKXKXKXKXKXKXKXHXeX| $ Q .X@X+X#X+XQ # %.xXeX| $ L T R R W T @ . O { eXSXKXKXKXKXKXKXKXKXKXKXKXKXKXKXKXKXKXKXKX",
"KXKXKXKXKXKXKXKXKXKXKXKXKXKXKXSXiX{ + > [.%X%X+XoX.XE # rXKXJXtX..6 L T R W T 2 > - + } eXSXKXKXKXKXKXKXKXKXKXKXKXKXKXKXKXKXKXKX",
"KXKXKXKXKXKXKXKXKXKXKXKXKXKXKXvXo.+ : n ( ].&X&X%X[.8 $ 0XLXKXDXK.% 7 W W I q 1 f > = O { yXKXKXKXKXKXKXKXKXKXKXKXKXKXKXKXKXKXKX",
"KXKXKXKXKXKXKXKXKXKXKXKXKXKXKX7XO f B m f ( ].>X].u = O ..cXLXcXO.$ 6 T P q , d d f v - . 6XKXKXKXKXKXKXKXKXKXKXKXKXKXKXKXKXKXKX",
"KXKXKXKXKXKXKXKXKXKXKXKXKXKXKX8X. C d.m d n D ( F V g - < 3XAX3X< - 1 0 0 1 d > v n m > . 3XKXKXKXKXKXKXKXKXKXKXKXKXKXKXKXKXKXKX",
"KXKXKXKXKXKXKXKXKXKXKXKXKXKXKXtXy n 4.d.d.4.N V Z h M N o ..bX6X< & d f f f v v f > > 5 X.yXKXKXKXKXKXKXKXKXKXKXKXKXKXKXKXKXKXKX",
"KXKXKXKXKXKXKXKXKXKXKXKXKXKXKXAX5Xt f h.b.g.C V N n B B - #.SXnX@.# = > > d v n : O O X.nXLXKXKXKXKXKXKXKXKXKXKXKXKXKXKXKXKXKXKX",
"KXKXKXKXKXKXKXKXKXKXKXKXKXKXKXKXVX4XS b V C g.h.g.d.B : S 7XJXKXvX@.< o o o = = < ..4XvXKXKXKXKXKXKXKXKXKXKXKXKXKXKXKXKXKXKXKXKX",
"KXKXKXKXKXKXKXKXKXKXKXKXKXKXKXKXKXAX8X{ y 4 5.g.4.4.v t 4XVXKXKXKXvX%.} } { } { $.xXKXKXKXKXKXKXKXKXKXKXKXKXKXKXKXKXKXKXKXKXKXKX",
"KXKXKXKXKXKXKXKXKXKXKXKXKXKXKXKXKXKXHXVXuX@.3 ; + = S 6XVXKXKXKXKXLXDXAXAXVXVXVXAXLXKXKXKXKXKXKXKXKXKXKXKXKXKXKXKXKXKXKXKXKXKXKX",
"KXKXKXKXKXKXKXKXKXKXKXKXKXKXKXKXKXKXKXKXKXcX8X3X3X3XeXAXKXKXKXKXKXKXKXKXKXKXKXKXKXKXKXKXKXKXKXKXKXKXKXKXKXKXKXKXKXKXKXKXKXKXKXKX",
"KXKXKXKXKXKXKXKXKXKXKXKXKXKXKXKXKXKXKXKXKXKXKXKXKXKXKXKXKXKXKXKXKXKXKXKXKXKXKXKXKXKXKXKXKXKXKXKXKXKXKXKXKXKXKXKXKXKXKXKXKXKXKXKX",
"KXKXKXKXKXKXKXKXKXKXKXKXKXKXKXKXKXKXKXKXKXKXKXKXKXKXKXKXKXKXKXKXKXKXKXKXKXKXKXKXKXKXKXKXKXKXKXKXKXKXKXKXKXKXKXKXKXKXKXKXKXKXKXKX",
"KXKXKXKXKXKXKXKXKXKXKXKXKXKXKXKXKXKXKXKXKXKXKXKXKXKXKXKXKXKXKXKXKXKXKXKXKXKXKXKXKXKXKXKXKXKXKXKXKXKXKXKXKXKXKXKXKXKXKXKXKXKXKXKX"
};
