/* XPM */
static char *_910d7eb170c4a92f025176cf6ada583ICVnxXaZmxjTY0IT[] = {
/* columns rows colors chars-per-pixel */
"64 64 247 2 ",
"   c None",
".  c #010101",
"X  c #0B0301",
"o  c #0D0A03",
"O  c #020309",
"+  c #0B0C0B",
"@  c #030C08",
"#  c #140601",
"$  c #140B03",
"%  c #1C0C01",
"&  c #120D0B",
"*  c #1B0408",
"=  c #171409",
"-  c #010115",
";  c #050717",
":  c #061417",
">  c #131314",
",  c #1B1C1C",
"<  c #191715",
"1  c #120C10",
"2  c #210E01",
"3  c #260406",
"4  c #370706",
"5  c #2C1300",
"6  c #251204",
"7  c #331501",
"8  c #3C1A01",
"9  c #351703",
"0  c #2A0112",
"q  c #390110",
"w  c #241415",
"e  c #341316",
"r  c #2D2417",
"t  c #02042A",
"y  c #171E22",
"u  c #01043C",
"i  c #050533",
"p  c #0A1D20",
"a  c #31172B",
"s  c #1A2728",
"d  c #242725",
"f  c #252B35",
"g  c #363939",
"h  c #323220",
"j  c #430401",
"k  c #4A0402",
"l  c #4A0902",
"z  c #560A03",
"x  c #431B01",
"c  c #4A1E00",
"v  c #461400",
"b  c #53130B",
"n  c #670A05",
"m  c #770906",
"M  c #7A0315",
"N  c #6E0118",
"B  c #4D2201",
"V  c #472206",
"C  c #522301",
"Z  c #5B2601",
"A  c #5C2A00",
"S  c #552907",
"D  c #583A17",
"F  c #51330E",
"G  c #642B00",
"H  c #662802",
"J  c #772F00",
"K  c #793303",
"L  c #68380B",
"P  c #6C0132",
"I  c #552827",
"U  c #6D2D30",
"Y  c #5F4118",
"T  c #794919",
"R  c #704B23",
"E  c #58492D",
"W  c #030547",
"Q  c #120748",
"!  c #00015B",
"~  c #010657",
"^  c #12174E",
"/  c #370248",
"(  c #1D3C46",
")  c #000064",
"_  c #01016B",
"`  c #000173",
"'  c #02097C",
"]  c #170061",
"[  c #3C0A73",
"{  c #392C7A",
"}  c #3A3D76",
"|  c #580358",
" . c #43006F",
".. c #5E2458",
"X. c #2B4F54",
"o. c #2D5866",
"O. c #4B5555",
"+. c #6F6550",
"@. c #5B6863",
"#. c #4B797B",
"$. c #687474",
"%. c #5D525A",
"&. c #870501",
"*. c #990603",
"=. c #850418",
"-. c #98031C",
";. c #921306",
":. c #AA0305",
">. c #B60706",
",. c #B60213",
"<. c #AD0F14",
"1. c #863702",
"2. c #902E07",
"3. c #960830",
"4. c #B1182E",
"5. c #B42E27",
"6. c #BA2110",
"7. c #CA0508",
"8. c #D60801",
"9. c #DA1604",
"0. c #D01213",
"q. c #E21302",
"w. c #EE1601",
"e. c #EB1B06",
"r. c #F31402",
"t. c #FE1501",
"y. c #FE1C02",
"u. c #F71A07",
"i. c #E60F08",
"p. c #D32618",
"a. c #FF2204",
"s. c #FC2406",
"d. c #E9280C",
"f. c #D3332D",
"g. c #CB1F2F",
"h. c #954203",
"j. c #9D4706",
"k. c #8F4B12",
"l. c #AF510B",
"z. c #AF641C",
"x. c #B56213",
"c. c #855522",
"v. c #8D5229",
"b. c #90662D",
"n. c #B07734",
"m. c #CD5A10",
"M. c #EE4D09",
"N. c #D2741E",
"B. c #D46813",
"V. c #E5631C",
"C. c #F57312",
"Z. c #C3722B",
"A. c #921042",
"S. c #907348",
"D. c #8F5A44",
"F. c #F36358",
"G. c #ED6455",
"H. c #D18531",
"J. c #FF9A2E",
"K. c #E68F32",
"L. c #F28F2D",
"P. c #F8A93B",
"I. c #B0915D",
"U. c #BF9D7D",
"Y. c #BBA06B",
"T. c #D0934C",
"R. c #FEA84A",
"E. c #ECAA56",
"W. c #FCB45A",
"Q. c #FDB64D",
"!. c #C79E6C",
"~. c #DAAF6B",
"^. c #F9B763",
"/. c #EEBB6D",
"(. c #E1A150",
"). c #FFC65A",
"_. c #FFC463",
"`. c #FEC56C",
"'. c #FDCC77",
"]. c #FFD278",
"[. c #010B96",
"{. c #06149A",
"}. c #110E8C",
"|. c #050DA4",
" X c #0515A9",
".X c #0214B8",
"XX c #130EAC",
"oX c #3115AE",
"OX c #1622BF",
"+X c #30128F",
"@X c #4C188F",
"#X c #4D21A6",
"$X c #225589",
"%X c #0618C9",
"&X c #091BD3",
"*X c #0A1EDB",
"=X c #021ADB",
"-X c #1E1DC8",
";X c #1522C8",
":X c #1D32D9",
">X c #081EE3",
",X c #021FF7",
"<X c #0B21E6",
"1X c #0B22EA",
"2X c #0320EC",
"3X c #0322F3",
"4X c #0B23F2",
"5X c #0B2CFA",
"6X c #152CF4",
"7X c #1C34FD",
"8X c #1C34F9",
"9X c #1328ED",
"0X c #2239FF",
"qX c #2136FF",
"wX c #2939E1",
"eX c #2132D7",
"rX c #2042E5",
"tX c #6F8586",
"yX c #7B9FA1",
"uX c #848889",
"iX c #909892",
"pX c #9CAEB7",
"aX c #A4AEAD",
"sX c #FD9182",
"dX c #D0B091",
"fX c #E0B7B4",
"gX c #DFC086",
"hX c #FFDB85",
"jX c #FADA98",
"kX c #EECB8E",
"lX c #FFE59C",
"zX c #FFE8A4",
"xX c #FFF4BB",
"cX c #FFEAB4",
"vX c #F6C6BE",
"bX c #B4C5C5",
"nX c #C7CDD6",
"mX c #D5D8D8",
"MX c #F0D4C9",
"NX c #DEE3D9",
"BX c #FAF2D2",
"VX c #DAE6E5",
"CX c #FFFDE7",
"ZX c #EBFFFD",
"AX c #FEFFFE",
"SX c #FCFBF7",
"DX c #E2E7E7",
/* pixels */
"                                                                                                                                ",
"                                                                                                                                ",
"                                                                                                                                ",
"                                                                                                                                ",
"                                                                                                                                ",
"                                                                          . . .                                                 ",
"                                                                      7 z z z z z 4                                             ",
"                                                                & X $ &.q.e.d.e.q.m &                                           ",
"                                                              + j &.*.9.y.s.s.a.y.5.O.f                                         ",
"                                                            > l :.r.a.s.a.a.a.y.y.G.aXX.                                        ",
"                                                          @ j >.w.a.s.a.a.a.a.t.t.sXmXO..                                       ",
"                                                        + 4 :.y.a.a.s.a.y.a.a.t.t./.VX@.. @                                     ",
"                                                      : 0 :.w.a.s.a.a.a.a.a.y.r.i.G.dXD.k 3 1                                   ",
"                                                  . O 0 =.i.y.a.a.a.a.a.a.a.q.7.-.4.f.d.8.*.4 :                                 ",
"                                              : 4 n m ;.0.u.s.a.a.a.s.s.a.w.*.k k &.i.y.a.y.>.z w                               ",
"                                              3 &.w.y.a.a.a.a.a.a.a.a.y.w.>.n * X m u.y.e.9.9.;.#                               ",
"                                            4 ;.q.a.a.a.a.a.a.a.a.y.r.q.:.n 1.2.S 1.M.p.=.l k j                                 ",
"                                            j 9.a.a.a.a.a.a.a.t.w.q.7.,.&.1.N.R.!.T.C.2.0                                       ",
"                                            j q.a.a.a.s.a.a.u.q.7.,.-.=.6.V.W.cXDXjXK.V O                                       ",
"                                          . 4 9.a.s.s.y.w.9.8.8.,.M N 2.V.W.xXNXiXS.(.D                                         ",
"                                          . 4 >.u.r.w.i.7.,.:.&.M k x x.Q.lXSXnXf Y E.R                                         ",
"                                            3 =.,.7.7.,.-.-.M b c 4 x n.`.zXSXnXf I E.Z.S     >                                 ",
"                                            < q M ,.,.=.n m v.n.T c C k.(.hXSXnXf V ^./.Y.iXI.+.                                ",
"                                              + q N =.b V R H.R.N.1.H H z.kXCXMX@.S.'.lXBXZXCXdXE w                             ",
"                                                1 3 9 4 F Y./.L.C.m.H v c.kXzXkXgXkXlXzXxXxXxXlX~.R                             ",
"                                                O . 5 4 D ~.lX^.J.m.J T I.jX/.Z.S.!.].zXcXzXlX].).c..                           ",
"                                                  o 5 5 S T.hXhXW.H.x.H.hXjXI.C X S K.].zXlX].Q.H.L                             ",
"                                                  , o # C j.K.Q.).W.E.W.].'.b.# . 9 l.L._.].).H.F =                             ",
"                                                    . # B J h.x.K.Q.)._.'.`.b.. . X c 1.b.b.b.L &                               ",
"                                                    X 7 A A x C l.C.L.R._._.n.V 2 # X . X o o &                                 ",
"                                                  X 9 Z A B 5 8 ;.6.6.V.J.R.P.N.j.A 2 . . ;                                     ",
"                                                  = 9 x 9 e e n P | | 5.M.V.Z.z.h.Z 5 .                                         ",
"                                                    o X + W | P [ .X|.| -.-.b % $ o .                                           ",
"                                                      X O _ }.oX-X=X%X|. .P 4 O ;                                               ",
"                                                      : u [.=X3X3X;X@X@X| 3.m 0 :                                               ",
"                                                    $ W {.*X2X3X3X#Xg.p.p.9.,.N 3 X X X                                         ",
"                                                @ 2 k [ *X5X6X2X4X#Xy.s.s.a.e.0.*.&.m +.uXuXg                                   ",
"                                            , : & q N @X6X7X8X9X4XoX4.e.a.a.s.y.t.u.F.fXAXAXuXd                                 ",
"                                          1 p ( I P [ -X7X0X0X8X1X&X+X3.t.a.s.y.t.F.MXSXAXAXDXtX,                               ",
"                                        w g X.o.U A.XX3X0X0X0X0X6X=X.X[ A.0.r.s.F.vXAXAXAXAXAXaX,                               ",
"                                        + @.iX#.R | oX5XrX0X0X0X6X*X.X.X}.P ,.5.fXZXAXAXAXVXbX$.<                               ",
"                                        O @.pXyX$.} wX7X0X0X0X0XqX9X*X%X[.] / ..pXZXAXAXDXaX@.y                                 ",
"                                        > g $.tX$X$XrX0X0X0X7X0X0X8X1X&X.X[.! W O.aXmXaX$.O.y                                   ",
"                                          1 p X.o.o.rX7X0X0X0X0X0X8X1X<X<X.X~ O O O.tXg + O                                     ",
"                                            : : p ^ ;X7X0X0X0X0X8X<X<X1X1X%X~ . @ y d <                                         ",
"                                              & . ;  X5X8X8X8X8X9X<X1X<X&X{.u . h   .                                           ",
"                                                $ i  X5X<X<X1X1X<X<X<X%X|.` i O d                                               ",
"                                              > i ' &X1X<X*X<X5X*X&X%X|.` ) ! i 1                                               ",
"                                              . ) %X1X<X<X4X*X X[.}.' _ ) ) ` ! - X                                             ",
"                                              + ' <X9X<X1X1X{.t - - - W _ _ ` ! - o                                             ",
"                                            ; W  X1X4X4X*X{.u = = o . u ` ` _ ) W t >                                           ",
"                                          $ i  X2X<X<X4X%Xi $     r O i ! ) _ _ ` u X X &                                       ",
"                                        + 9 a %X3X1X1X<X Xt .       d > t ! ` ` ` i 9 8 % +                                     ",
"                                      > 6 C I { :X5X5X;X^ - O         = - ! ' _ Q a v c 7 % >                                   ",
"                                    . 6 A G Z S { :XrX} 9 # +         = ; W ` Q e x x x B 8 % .                                 ",
"                                    . 8 j.K C S I ..U U C 9 % +     o % 5 e a e 8 8 x B A Z % .                                 ",
"                                      9 K h.j.2.J A H H C A x .     + % 7 x c B B C B 8 8 8 %                                   ",
"                                        < K m.m.h.G G Z Z J C X       > $ 7 8 x B Z B % X .                                     ",
"                                          8 L S 1.l.l.j.1.C 6 y         < $ % % % 6 6 <                                         ",
"                                            O O S l.j.1.K 6 :             . . . . . .                                           ",
"                                                w % % % %                                                                       ",
"                                                                                                                                ",
"                                                                                                                                ",
"                                                                                                                                "
};
