/* XPM */
static char *_0ea21e587e742bba93fba5f3f06a5a7TE3Vc5AgtaTBQgij[] = {
/* columns rows colors chars-per-pixel */
"64 64 243 2 ",
"   c None",
".  c #010101",
"X  c #0B0402",
"o  c #04050B",
"O  c #050909",
"+  c #0D0B0B",
"@  c #0B0804",
"#  c #120200",
"$  c #1C0102",
"%  c #140A03",
"&  c #1C0C02",
"*  c #1B090B",
"=  c #15110C",
"-  c #191709",
";  c #010214",
":  c #060816",
">  c #071717",
",  c #141414",
"<  c #1A1A19",
"1  c #191816",
"2  c #110A0F",
"3  c #230404",
"4  c #230E01",
"5  c #290705",
"6  c #370803",
"7  c #2C1301",
"8  c #251402",
"9  c #331400",
"0  c #3C1A00",
"q  c #3B190A",
"w  c #2A0512",
"e  c #281918",
"r  c #212116",
"t  c #362612",
"y  c #010222",
"u  c #01052C",
"i  c #160828",
"p  c #020337",
"a  c #171526",
"s  c #311731",
"d  c #172424",
"f  c #112C34",
"g  c #292A28",
"h  c #30312D",
"j  c #430303",
"k  c #560802",
"l  c #431B00",
"z  c #491E00",
"x  c #441201",
"c  c #541804",
"v  c #590413",
"b  c #440F11",
"n  c #630400",
"m  c #660806",
"M  c #7A0304",
"N  c #690114",
"B  c #7A0518",
"V  c #621A00",
"C  c #4D2200",
"Z  c #482608",
"A  c #532400",
"S  c #5C2400",
"D  c #5D2900",
"F  c #572906",
"G  c #513317",
"H  c #6B2D00",
"J  c #632700",
"K  c #6B3104",
"L  c #793401",
"P  c #7C3212",
"I  c #760333",
"U  c #4F3A26",
"Y  c #5D401B",
"T  c #6D491D",
"R  c #4C473A",
"E  c #72502A",
"W  c #010443",
"Q  c #00025B",
"!  c #030557",
"~  c #1E195B",
"^  c #2B0F56",
"/  c #123A43",
"(  c #000064",
")  c #000069",
"_  c #030677",
"`  c #12116A",
"'  c #302F6C",
"]  c #3A1462",
"[  c #550455",
"{  c #690449",
"}  c #79064C",
"|  c #4B3353",
" . c #4A066D",
".. c #384243",
"X. c #3B555B",
"o. c #3C626E",
"O. c #444647",
"+. c #6F4C55",
"@. c #524C68",
"#. c #536B72",
"$. c #686B6B",
"%. c #647373",
"&. c #757977",
"*. c #646A75",
"=. c #870403",
"-. c #940902",
";. c #99001B",
":. c #960119",
">. c #8E1011",
",. c #A20F01",
"<. c #BE0301",
"1. c #B80207",
"2. c #A41503",
"3. c #BC1405",
"4. c #A60118",
"5. c #B90617",
"6. c #B21A16",
"7. c #853A05",
"8. c #912F02",
"9. c #B5360F",
"0. c #870A29",
"q. c #8F0E30",
"w. c #B33629",
"e. c #C80706",
"r. c #DD0E01",
"t. c #D60705",
"y. c #C81100",
"u. c #D61402",
"i. c #C60D13",
"p. c #E50A03",
"a. c #E81602",
"s. c #FE1400",
"d. c #FD1C03",
"f. c #F31A05",
"g. c #FC0F00",
"h. c #CC3110",
"j. c #FF2205",
"k. c #FF250B",
"l. c #F52C0E",
"z. c #994306",
"x. c #8A4D13",
"c. c #B84E08",
"v. c #B15107",
"b. c #8E6D3C",
"n. c #AD7233",
"m. c #A25F23",
"M. c #CF5013",
"N. c #E9550D",
"B. c #D16E18",
"V. c #EA7016",
"C. c #CC7A2C",
"Z. c #8C1055",
"A. c #8A2457",
"S. c #8C6165",
"D. c #F85643",
"F. c #CB695C",
"G. c #EA5A52",
"H. c #64837D",
"J. c #CA8437",
"K. c #DC9439",
"L. c #D08B26",
"P. c #E6953B",
"I. c #F99437",
"U. c #F68B29",
"Y. c #FBA33B",
"T. c #E99B1D",
"R. c #E2DF1D",
"E. c #DEE325",
"W. c #A9844D",
"Q. c #AC9970",
"!. c #D0964C",
"~. c #FF9943",
"^. c #DEA54F",
"/. c #FCB755",
"(. c #F0AD55",
"). c #D5B57B",
"_. c #FABC62",
"`. c #EBB86E",
"'. c #CF847D",
"]. c #FEC767",
"[. c #FDCA78",
"{. c #FFD478",
"}. c #05098A",
"|. c #08138D",
" X c #010999",
".X c #0F1096",
"XX c #2B0686",
"oX c #2B1198",
"OX c #1F208F",
"+X c #0513A4",
"@X c #0616B9",
"#X c #100DAE",
"$X c #3222A8",
"%X c #592AA1",
"&X c #7A768B",
"*X c #5F66A1",
"=X c #0719C9",
"-X c #0A1EDB",
";X c #041AD3",
":X c #171DCD",
">X c #0E23DE",
",X c #2330D0",
"<X c #071DE7",
"1X c #0B21E5",
"2X c #0B22EB",
"3X c #0521E7",
"4X c #1228EC",
"5X c #0B24F3",
"6X c #0627FC",
"7X c #152CF8",
"8X c #1B35FF",
"9X c #1531FF",
"0X c #2339FB",
"qX c #5554C2",
"wX c #886F82",
"eX c #718A8D",
"rX c #7EAFAE",
"tX c #86929A",
"yX c #8BA2A2",
"uX c #ACB5B8",
"iX c #A4ACB9",
"pX c #F29E94",
"aX c #F6B8AF",
"sX c #B6C4BF",
"dX c #FCDA98",
"fX c #F1CD87",
"gX c #FFE48B",
"hX c #FFE494",
"jX c #E7D1B0",
"kX c #FFE7A8",
"lX c #FFF1B2",
"zX c #DBCE9B",
"xX c #B3BBC1",
"cX c #C4C9C7",
"vX c #C9DBD9",
"bX c #DADAD4",
"nX c #FFCAC2",
"mX c #FFFBCB",
"MX c #E7EBD7",
"NX c #D7E1E1",
"BX c #FEFFFE",
"VX c #F8FEF8",
"CX c #EDF1EA",
/* pixels */
"                                                                                                                                ",
"                                                                                                                                ",
"                                                                                                                                ",
"                                                                                                                                ",
"                                        # # # # # =                                                                             ",
"                                    O j -.2.2.2.,.m +                                                                           ",
"                                  d a P f.d.j.j.d.y.k 6 5 ,                                                                     ",
"                                  d %.F.k.d.j.j.j.d.a.y.=.3 >                                                                   ",
"                                . h uXpXk.d.j.j.j.j.j.d.r.=.6 >                                                                 ",
"                                . ..vXaXk.s.j.j.j.j.j.j.j.f.=.* >                                                               ",
"                              O X R xXpXl.g.d.d.j.j.j.j.j.d.p.=.3 >                                                             ",
"                            * j M w.F.G.i.p.d.j.k.d.j.j.j.j.d.u.N 2 >                                                           ",
"                          * k e.f.d.f.5.B =.<.d.j.j.j.j.j.j.j.f.5.N 5 3 3                                                       ",
"                        % m u.d.j.d.g.-.$ $ n e.d.j.j.j.j.j.j.j.l.u.3.3.m +                                                     ",
"                          m -.2.i.l.k.8.$ l J =.e.f.d.j.j.j.j.j.j.j.j.d.y.m 8                                                   ",
"                            # X b 6.N.m.x.B.c.V =.e.r.f.d.j.j.j.j.j.j.j.d.u.k .                                                 ",
"                                : c B.`.jXdXP.c.4.;.5.i.t.a.d.j.j.j.j.j.j.j.m .                                                 ",
"                                ; 7 J.[.cXMXdX~.M.>.B >.1.r.p.f.f.j.j.j.j.f.k .                                                 ",
"                                  t !.b.O.uXVXdXI.c.c N ;.1.<.e.r.f.j.j.d.u.k .                                                 ",
"                                $ x.(.E < iXBXlX].J.Z 6 k n =.;.5.e.r.r.r.5.j .                                                 ",
"                          t R O.E J.(.T < iXBXlX_.C.F 9 G Y P B B :.1.e.4.N w                                                   ",
"                        - $.jXNXnXfX].T g uXBXkX!.x.F c x.!.C.P c v ;.;.N $ ,                                                   ",
"                      t b.zXmXmXmXlXdX).Q.jXmXdXn.c S z.V.U.(.n.G b v v w ,                                                     ",
"                      Y /.gXkXkXlXlXdXfXzX^.[.fXn.F D M.V.U.[.fXE 6 9 @ O                                                       ",
"                      G Y.].gXhXlXhX_.n.U P !.dXfXn.7.c.Y.[.gX`.T 9 9 @ .                                                       ",
"                      t x.K.].gXgX_.L.F . $ b.[.gX(.J.P.].{.].C.K 4 & =                                                         ",
"                        = x.K.^.!.C.8.0 . . Y `.{.].]._./.P.B.z.S & .                                                           ",
"                          r G G F Z 4 X . X E _.{././.Y.V.x.H H S 8 .                                                           ",
"                            X . . . X 9 A x.C././.Y.V.N.3.z 9 A D C 8                                                           ",
"                                + . & D z.C.~.I.U.M.q.0.B x 7 0 C D l &                                                         ",
"                                  < % 8 F @.S.w.h.q. .XX^ * # % & 8 4 1                                                         ",
"                                  < 5 i p _  .;.1.I @X<X@XQ ; . . . +                                                           ",
"                              . . 5 B  .}.[ ;.1.e.Z.:X6X-X+XW X . +                                                             ",
"                            > f s M 4.XX#X{ t.t.Z.$X>X%XA.Z.I m v w :                                                           ",
"                          > / o.+.0.;.[ XX[ y.M.%X6X2XZ.g.g.a.t.5.B 6 6 3                                                       ",
"                        o f o.eX%.| 0.;.{ XX+.L.*X6X<X} p.s.j.d.f.a.u.u.=.# . O                                                 ",
"                        , > X.yXrX*.q.1.q.#X&XE.tX7X5XoX0.i.s.j.k.d.k.G.'.%.$...,                                               ",
"                          o g %.rX&.A.=.{ #XeXR.tX7X8X1X.X{ i.f.j.k.D.nXBXCXNXtXh <                                             ",
"                            e d X.#.@.t i #XeXT.wX9X8X5X;X.X{ e.p.D.aXVXBXBXBXCXuXO.                                            ",
"                              @ > / / > y @XqXwXqX8X0X7X<X;X.X[ 0.S.vXVXBXBXBXBXBX&..                                           ",
"                                > O O . ; +X9X0X0X0X0X7X1X1X;X X_ ' eXcXNXBXBXBXCX$.                                            ",
"                                        ; |.<X6X9X0X4X1X1X1X3X;X#X|.' ..&.vXBXcX$.g                                             ",
"                                        > ! +X<X9X7X1X1X1X1X1X1X=X XQ o < %.yX$.                                                ",
"                                          O Q -X5X1X1X1X1X1X2X1X@X XQ ; . = < <                                                 ",
"                                          X W =X5X1X1X1X1X1X5X-X X_ Q ; . @                                                     ",
"                                            u _ @X>X1X1X1X1X>X@X}.) Q u : r                                                     ",
"                                            < : _ =X1X2X2X1X@X_ ( ( ) ( p o r                                                   ",
"                                              . _ <X1X1X1X-X_ y y W ) _ ) p : %                                                 ",
"                                            , u +X5X2X2X>X+Xp . ; p ) ) ) ( W y @ <                                             ",
"                                        . . p }.;X1X2X5X@Xp o o p ( ) ) ) _ }.` e & +                                           ",
"                                      , 8 7 ~ 2X6X3X2X2X+Xo X , p ! _ }. X X|.^ b 7 % ,                                         ",
"                                    @ 7 J J | ,X7X5X2X=X_ : - h @ y ! |.+X|.s l l C 0 @                                         ",
"                                  2 7 J 7.K G ] ,X9X6X}.; <   h . % e s s s q 0 l A C X                                         ",
"                                  4 7.z.H F C C ' $XOXa % e d , & 7 l x 0 l Z A C l 7 =                                         ",
"                                  7 z.v.K J D A C q q 0 7 X . X 4 l l l l l C F A 7 +                                           ",
"                                  e Z 7.v.z.K S C l l z 9 X O , & 7 l A D A 9 4 & =                                             ",
"                                    o Z z.L H L L H z 0 4 +     : = 7 0 C 0 - O .                                               ",
"                                      < * & C z.z.L A 4 @         < X X X . <                                                   ",
"                                            e A A 9 7 ,                                                                         ",
"                                              . . . .                                                                           ",
"                                                                                                                                ",
"                                                                                                                                ",
"                                                                                                                                ",
"                                                                                                                                "
};
