/* XPM */
static char *_7ee657941a9469ead75f6064b6e496cDGI5ecJE89EY3eaf[] = {
/* columns rows colors chars-per-pixel */
"64 64 256 2 ",
"   c #010001",
".  c #080709",
"X  c #170A02",
"o  c #010119",
"O  c #1A0D13",
"+  c #181818",
"@  c #13130C",
"#  c #250B06",
"$  c #360308",
"%  c #281606",
"&  c #381606",
"*  c #301918",
"=  c #282217",
"-  c #35211B",
";  c #3F270A",
":  c #020227",
">  c #020436",
",  c #16192C",
"<  c #23182A",
"1  c #1D2121",
"2  c #182330",
"3  c #2B2C2C",
"4  c #262425",
"5  c #333435",
"6  c #38383A",
"7  c #312E2E",
"8  c #4A0703",
"9  c #5A0503",
"0  c #481E03",
"q  c #4A0315",
"w  c #4F0814",
"e  c #6A0304",
"r  c #7C0804",
"t  c #79041A",
"y  c #6D1507",
"u  c #482307",
"i  c #542502",
"p  c #5B2500",
"a  c #572A05",
"s  c #472C18",
"d  c #463218",
"f  c #58330C",
"g  c #642A03",
"h  c #762B02",
"j  c #763405",
"k  c #63360B",
"l  c #48392E",
"z  c #703332",
"x  c #774511",
"c  c #504634",
"v  c #624C31",
"b  c #020547",
"n  c #000559",
"m  c #111141",
"M  c #2E1D45",
"N  c #3B3E42",
"B  c #010569",
"V  c #010677",
"C  c #111672",
"Z  c #330D70",
"A  c #2A2C57",
"S  c #5D0959",
"D  c #6B0853",
"F  c #6E215C",
"G  c #5D1C71",
"H  c #3F4545",
"J  c #434444",
"K  c #4C4D4D",
"L  c #464B4A",
"P  c #4A5555",
"I  c #53595A",
"U  c #595857",
"Y  c #504C4B",
"T  c #6B655C",
"R  c #5D6A6A",
"E  c #5E6E70",
"W  c #6A6A6A",
"Q  c #646F72",
"!  c #6B7477",
"~  c #777878",
"^  c #5F555E",
"/  c #850300",
"(  c #990803",
")  c #99001C",
"_  c #8A0B09",
"`  c #A60603",
"'  c #BA0504",
"]  c #A71501",
"[  c #A90119",
"{  c #BA0815",
"}  c #B61416",
"|  c #AB1318",
" . c #863902",
".. c #97370D",
"X. c #A83E01",
"o. c #A9200D",
"O. c #8A0020",
"+. c #910530",
"@. c #AD0A31",
"#. c #C80507",
"$. c #D50707",
"%. c #DA1406",
"&. c #CA0C0F",
"*. c #E80B01",
"=. c #E81603",
"-. c #FD1300",
";. c #FE1A01",
":. c #F41805",
">. c #FF0F00",
",. c #FF2506",
"<. c #EC2B0B",
"1. c #F43722",
"2. c #CB1C17",
"3. c #984305",
"4. c #925211",
"5. c #A94A05",
"6. c #B64A04",
"7. c #B3540B",
"8. c #B15011",
"9. c #B2691B",
"0. c #B35222",
"q. c #8F6734",
"w. c #A76822",
"e. c #B5752C",
"r. c #915B21",
"t. c #C65A03",
"y. c #CF5307",
"u. c #D36C11",
"i. c #E47A1A",
"p. c #EC6D0A",
"a. c #FD4932",
"s. c #FF462E",
"d. c #C37726",
"f. c #E9762B",
"g. c #EE5917",
"h. c #8B2256",
"j. c #88764D",
"k. c #977C67",
"l. c #FE5846",
"z. c #F86653",
"x. c #EB7266",
"c. c #CA5D59",
"v. c #B78D36",
"b. c #F7851C",
"n. c #E98515",
"m. c #DC8E32",
"M. c #EE8F2F",
"N. c #FFA938",
"B. c #FFBD3F",
"V. c #D0A720",
"C. c #FDD504",
"Z. c yellow",
"A. c #FFF201",
"S. c #FFE300",
"D. c #D3D12D",
"F. c #968972",
"G. c #A69865",
"H. c #C48A46",
"J. c #D1964C",
"K. c #E5974D",
"L. c #DDA556",
"P. c #FFB548",
"I. c #F2AC52",
"U. c #D6AD6D",
"Y. c #FBBB63",
"T. c #F3B06B",
"R. c #E98679",
"E. c #FEC569",
"W. c #FFD776",
"Q. c #FCC87A",
"!. c #FFC54E",
"~. c #01038A",
"^. c #030C9A",
"/. c #131299",
"(. c #290F8B",
"). c #292494",
"_. c #2F369D",
"`. c #010BA8",
"'. c #0512AD",
"]. c #0B14A9",
"[. c #161BA5",
"{. c #010EB3",
"}. c #0312B3",
"|. c #0514BA",
" X c #2C28AC",
".X c #261CAC",
"XX c #5C2185",
"oX c #3C4FB4",
"OX c #535085",
"+X c #717385",
"@X c #5A60AC",
"#X c #0619C9",
"$X c #071BD5",
"%X c #2714C9",
"&X c #081EE5",
"*X c #000EF7",
"=X c #0B22E8",
"-X c #152BEC",
";X c #0526FC",
":X c #132CF8",
">X c #1C35FF",
",X c #1A33FC",
"<X c #2239FE",
"1X c #2037FD",
"2X c #3E51C3",
"3X c #4E57CE",
"4X c #7A8484",
"5X c #6B83A5",
"6X c #868686",
"7X c #899495",
"8X c #929292",
"9X c #9C9C9C",
"0X c #92959A",
"qX c #8D8F90",
"wX c #96A7AD",
"eX c #A3A3A3",
"rX c #A9ABAB",
"tX c #ACB4B5",
"yX c #A7B4B5",
"uX c #B3B5B5",
"iX c #B9BBBB",
"pX c #ABAEB5",
"aX c #8C94B6",
"sX c #C7BCA6",
"dX c #E7AF98",
"fX c #FDD68C",
"gX c #EDC583",
"hX c #FFE38C",
"jX c #FFE894",
"kX c #E5CBB8",
"lX c #FFECB5",
"zX c #FFF2B7",
"xX c #FFEBAE",
"cX c #C1C2B3",
"vX c #B9BFC3",
"bX c #BAC8D0",
"nX c gray77",
"mX c #C4CACB",
"MX c #CBCBCA",
"NX c #CED5D5",
"BX c #D3D4D4",
"VX c #DADBDC",
"CX c #D2D0CA",
"ZX c #EED1CA",
"AX c #FFF4C7",
"SX c #F4EFDC",
"DX c #D7E6E9",
"FX c #E4E4E4",
"GX c #EAEAEA",
"HX c #E7EAE8",
"JX c #FFFFEB",
"KX c #ECFAFA",
"LX c #F3F3F4",
"PX c #FFFFFF",
"IX c #F4FBFB",
"UX c #D0DFE0",
/* pixels */
"PXPXPXPXPXPXPXPXPXPXPXPXPXPXPXPXPXPXPXPXPXPXPXPXPXPXPXPXPXPXPXPXPXPXPXPXPXPXPXPXPXPXPXPXPXPXPXPXPXPXPXPXPXPXPXPXPXPXPXPXPXPXPXPX",
"PXPXPXPXPXPXPXPXPXPXPXPXPXPXPXPXPXPXPXPXPXPXPXPXPXPXPXPXPXPXPXPXPXPXPXPXPXPXPXPXPXPXPXPXPXPXPXPXPXPXPXPXPXPXPXPXPXPXPXPXPXPXPXPX",
"PXPXPXPXPXPXPXPXPXPXPXPXPXPXPXPXPXPXPXPXPXPXPXPXPXPXPXPXPXPXPXPXPXPXPXPXPXPXPXPXPXPXPXPXPXPXPXPXPXPXPXPXPXPXPXPXPXPXPXPXPXPXPXPX",
"PXPXPXPXPXPXPXPXPXPXPXPXPXPXPXPXPXPXPXPXPXPXPXPXPXPXPXPXLXiX9XeX9X9X9XtXFXPXPXPXPXPXPXPXPXPXPXPXPXPXPXPXPXPXPXPXPXPXPXPXPXPXPXPX",
"PXPXPXPXPXPXPXPXPXPXPXPXPXPXPXPXPXPXPXPXPXPXPXPXPXPXGXVXeXK % O # % % 6 qXNXLXIXPXPXPXPXPXPXPXPXPXPXPXPXPXPXPXPXPXPXPXPXPXPXPXPX",
"PXPXPXPXPXPXPXPXPXPXPXPXPXPXPXPXPXPXPXPXPXPXPXPXPXMX4XK 5 w ( ` ` ` ` 9 4 L Q iXLXPXPXPXPXPXPXPXPXPXPXPXPXPXPXPXPXPXPXPXPXPXPXPX",
"PXPXPXPXPXPXPXPXPXPXPXPXPXPXPXPXPXPXPXPXPXPXPXIXbXQ - 8 8 ` ;.a.z.l.,.#.9 8 $ I yXLXPXPXPXPXPXPXPXPXPXPXPXPXPXPXPXPXPXPXPXPXPXPX",
"PXPXPXPXPXPXPXPXPXPXPXPXPXPXPXPXPXPXPXPXPXPXIXMXQ * r %.=.=.a.dXHXZXz.:.=.=.( % P iXLXPXPXPXPXPXPXPXPXPXPXPXPXPXPXPXPXPXPXPXPXPX",
"PXPXPXPXPXPXPXPXPXPXPXPXPXPXPXPXPXPXPXPXPXLXMXQ - r %.;.;.l.kXIXKXIXZXx.,.-.=.( * P uXLXPXPXPXPXPXPXPXPXPXPXPXPXPXPXPXPXPXPXPXPX",
"PXPXPXPXPXPXPXPXPXPXPXPXPXPXPXPXPXPXPXPXPXVX! < 9 %.:.*.:.z.kXZXZXZXZXR.1.*.:.=./ O I nXPXPXPXPXPXPXPXPXPXPXPXPXPXPXPXPXPXPXPXPX",
"PXPXPXPXPXPXPXPXPXPXPXPXPXPXPXPXPXPXPXPXPXrX4 q [ *.&.{ %.1.a.a.s.s.a.1.=.{ { *.&.w O 6XPXPXPXPXPXPXPXPXPXPXPXPXPXPXPXPXPXPXPXPX",
"PXPXPXPXPXPXPXPXPXPXPXPXPXPXPXPXPXPXPXPXGX~   r &.{ { &.-.-.-.-.>.-.-.-.;.%.{ { $.( # P VXIXPXPXPXPXPXPXPXPXPXPXPXPXPXPXPXPXPXPX",
"PXPXPXPXPXPXPXPXPXPXPXPXPXPXPXPXPXPXPXLXrXJ # ( %.[ [ ' #.=.,.-.-.-.-.=.#.#.` [ &.#.8 5 qXFXPXPXPXPXPXPXPXPXPXPXPXPXPXPXPXPXPXPX",
"PXPXPXPXPXPXPXPXPXPXPXPXPXPXPXPXPXPXPXFX^ * t ' $.' e $ # r $.=.*.=.*.` $ # 8 ` $.#.O.q 6 nXPXPXPXPXPXPXPXPXPXPXPXPXPXPXPXPXPXPX",
"PXPXPXPXPXPXPXPXPXPXPXPXPXPXPXPXPXPXPXVXN $ ) #.' / p a a 8 e 2.g.y./ 8 a k g y ` #.[ w + iXPXPXPXPXPXPXPXPXPXPXPXPXPXPXPXPXPXPX",
"PXPXPXPXPXPXPXPXPXPXPXPXPXPXPXPXPXPXPXVXJ $ ) { ( g 5.b.N.q.l v.N.M.v v K.b.t.j / { [ q 1 iXPXPXPXPXPXPXPXPXPXPXPXPXPXPXPXPXPXPX",
"PXPXPXPXPXPXPXPXPXPXPXPXPXPXPXPXPXPXPXVXJ $ O.[ | y.p.I.lXZXcXT.P.Y.sXCXAXY.p.t.o.[ ) q = uXPXPXPXPXPXPXPXPXPXPXPXPXPXPXPXPXPXPX",
"PXPXPXPXPXPXPXPXPXPXPXPXPXPXPXPXPXPXPXFXL q O.t ..M.P.gXtXtXcXgXE.Q.sXuXpXgXE.N.0.t O.9 4 nXPXPXPXPXPXPXPXPXPXPXPXPXPXPXPXPXPXPX",
"PXPXPXPXPXPXPXPXPXPXPXPXPXPXPXPXPXPXPXVXJ $ t y 4.T.AXnX6 + 7 J.W.I.v + 2 rXSXQ.w.y O.q 4 uXPXPXPXPXPXPXPXPXPXPXPXPXPXPXPXPXPXPX",
"PXPXPXPXPXPXPXPXPXPXPXPXPXPXPXPXPXPXLXpX3 X y X.i.Q.JXbX1   X d.!.m.;     wXPXhXm.6.y # + qXHXPXPXPXPXPXPXPXPXPXPXPXPXPXPXPXPXPX",
"PXPXPXPXPXPXPXPXPXPXPXPXPXPXPXPXPXPXnXW l s g 6.f.E.JXmX2   X v.B.m.d   o wXPXfXb.y. .a 7 U uXIXPXPXPXPXPXPXPXPXPXPXPXPXPXPXPXPX",
"PXPXPXPXPXPXPXPXPXPXPXPXPXPXPXPXPXPX8X7 v.H. .X.i.Y.JXnX3 . % H.W.I.d   o eXJXQ.M.6. .e.H.c W JXPXPXPXPXPXPXPXPXPXPXPXPXPXPXPXPX",
"PXPXPXPXPXPXPXPXPXPXPXPXPXPXPXPXPXPX~ = dXU.4.r.f.m.T.I.w.q.F.kXzXfXG.j.r.K.T.m.M.e.j H.gXc U LXPXPXPXPXPXPXPXPXPXPXPXPXPXPXPXPX",
"PXPXPXPXPXPXPXPXPXPXPXPXPXPXPXPXPXPX6X= U.L.4.J.I.6.X.u.N.W.AXJXSXxXzXhXP.p.6.5.K.L.r.H.T.c U LXPXPXPXPXPXPXPXPXPXPXPXPXPXPXPXPX",
"PXPXPXPXPXPXPXPXPXPXPXPXPXPXPXPXPXPX6X% v.M.i.P.L.j # k I.jXzXzXzXlXzXjXE.x # p H.Y.i.b.K.d ^ LXPXPXPXPXPXPXPXPXPXPXPXPXPXPXPXPX",
"PXPXPXPXPXPXPXPXPXPXPXPXPXPXPXPXPXPXpXc f 7.p.P.e.%   @ q.I.W.hXhXjXW.Y.v.=   . q.P.b.t.x l qXIXPXPXPXPXPXPXPXPXPXPXPXPXPXPXPXPX",
"PXPXPXPXPXPXPXPXPXPXPXPXPXPXPXPXPXPXFX7X5 & 5.b.d.u .   & 4.m.L.U.L.m.9.u     % w.b.t.i = ~ BXPXPXPXPXPXPXPXPXPXPXPXPXPXPXPXPXPX",
"PXPXPXPXPXPXPXPXPXPXPXPXPXPXPXPXPXPXPXFX7X5 & 8.b.d.d     X u d d d ; %     % w.f.u.i 4 ! NXIXPXPXPXPXPXPXPXPXPXPXPXPXPXPXPXPXPX",
"PXPXPXPXPXPXPXPXPXPXPXPXPXPXPXPXPXPXPXPXFX7X5 0 8.i.9.x k X             a x r.n.9.g - ! BXPXPXPXPXPXPXPXPXPXPXPXPXPXPXPXPXPXPXPX",
"PXPXPXPXPXPXPXPXPXPXPXPXPXPXPXPXPXPXPXPXPXFX0X6 & j 9.n.p. .X X X X X p p.n.d.3.0 3 +XBXPXPXPXPXPXPXPXPXPXPXPXPXPXPXPXPXPXPXPXPX",
"PXPXPXPXPXPXPXPXPXPXPXPXPXPXPXPXPXPXPXPXPXPXVX7XJ % a 4.u.y.7.9.e.9.9.y.p.3.f % 7 +XNXPXPXPXPXPXPXPXPXPXPXPXPXPXPXPXPXPXPXPXPXPX",
"PXPXPXPXPXPXPXPXPXPXPXPXPXPXPXPXPXPXPXPXPXPXPXFX! . o > z 8.g.f.f.f.g.y.z < :   P MXPXPXPXPXPXPXPXPXPXPXPXPXPXPXPXPXPXPXPXPXPXPX",
"PXPXPXPXPXPXPXPXPXPXPXPXPXPXPXPXPXPXPXPXPXPXPXmXT O n {.].D | | | | } D /.{.V o Y uXLXPXPXPXPXPXPXPXPXPXPXPXPXPXPXPXPXPXPXPXPXPX",
"PXPXPXPXPXPXPXPXPXPXPXPXPXPXPXPXPXPXPXPXPXPXmXQ s _ (.*X*XZ ' %.$.#.#.D $X*X.Xt s I uXLXPXPXPXPXPXPXPXPXPXPXPXPXPXPXPXPXPXPXPXPX",
"PXPXPXPXPXPXPXPXPXPXPXPXPXPXPXPXPXPXPXPXIXnXE - / &.h.3X2XG +.@.@.@.@.h.oX3XXX%.( & P yXLXPXPXPXPXPXPXPXPXPXPXPXPXPXPXPXPXPXPXPX",
"PXPXPXPXPXPXPXPXPXPXPXPXPXPXPXPXPXPXPXPXMXE = ( &.{ 0.D.D.F.%X%X X%X%X@XD.D.d.} &.] * P uXLXPXPXPXPXPXPXPXPXPXPXPXPXPXPXPXPXPXPX",
"PXPXPXPXPXPXPXPXPXPXPXPXPXPXPXPXPXPXIXMXR - _ =.2.S e.A.Z.G.;X;X;X;X;X5XA.Z.V.S @.>.] w P yXLXPXPXPXPXPXPXPXPXPXPXPXPXPXPXPXPXPX",
"PXPXPXPXPXPXPXPXPXPXPXPXPXPXPXPXPXIXmXQ - y ,.;.+..Xj.A.Z.8X<X:X<X>X>X5XA.Z.v.).S >.;.] % I tXLXPXPXPXPXPXPXPXPXPXPXPXPXPXPXPXPX",
"PXPXPXPXPXPXPXPXPXPXPXPXPXPXPXPXIXnXR * _ =.;.$.S /.T C.A.F.<X:X<X>X:X@XC.S.v._.Z #.;.:.] & P tXGXPXPXPXPXPXPXPXPXPXPXPXPXPXPXPX",
"PXPXPXPXPXPXPXPXPXPXPXPXPXPXPXPXGX~ * e =.,.:.+.(.].OXF.F.@X>X>X<X>X:X3XF.F.R ]./.D %.,.-._ 8 U BXPXPXPXPXPXPXPXPXPXPXPXPXPXPXPX",
"PXPXPXPXPXPXPXPXPXPXPXPXPXPXPXPXnX7 8 } :.-.&.Z {.}.#X-X<X<X<X<X<X>X<X<X<X-X$X}.}.(.} >.;.2.y O 9XPXPXPXPXPXPXPXPXPXPXPXPXPXPXPX",
"PXPXPXPXPXPXPXPXPXPXPXPXPXIXPXGXqX+ H c.1.*.[ Z |.}.$X*X:X,X<X<X<X<X<X<X:X;X$X|.|./.+.$.,.c.^   W VXPXPXPXPXPXPXPXPXPXPXPXPXPXPX",
"PXPXPXPXPXPXPXPXPXPXPXPXPXPXPXrXY L wXNXx.c.h._.{.{.#X-X,X,X<X<X<X<X<X<X,X-X$X}.'.[.F c.x.CXyXP L 0XLXPXPXPXPXPXPXPXPXPXPXPXPXPX",
"PXPXPXPXPXPXPXPXPXPXPXPXPXPXPX~ 7 rXLXIXGXCXpXoX`.{.#X&X=X-X<X<X<X>X>X,X=X=X$X}.`. XaXnXFXIXKXmXL U FXPXPXPXPXPXPXPXPXPXPXPXPXPX",
"PXPXPXPXPXPXPXPXPXPXPXPXPXPXPX~ 5 NXPXPXPXIXDX@X~.`.|.#X&X:X-X-X-X-X-X-X=X#X|.'.~._.bXIXIXPXPXLXU J FXPXPXPXPXPXPXPXPXPXPXPXPXPX",
"PXPXPXPXPXPXPXPXPXPXPXPXPXPXPXW 7 BXPXPXLXIXKXOXn ^.{.}.#X$X$X=X;X=X=X$X$X|.'.`.V A BXPXLXPXIXLXU J FXPXPXPXPXPXPXPXPXPXPXPXPXPX",
"PXPXPXPXPXPXPXPXPXPXPXPXPXPXIX~ 3 tXIXIXUXUXmXK : ^.|.'.|.'.|.$X=X$X|.}.}.}.}.'.b 7 uXDXNXKXIXNXK K FXPXPXPXPXPXPXPXPXPXPXPXPXPX",
"PXPXPXPXPXPXPXPXPXPXPXPXPXPXPXrXL K rXDXbX7XI = : ^.|.}.}.^.~.V B C V ^.].}.|.].b @ L 4XbXUXiXR J 6XLXPXPXPXPXPXPXPXPXPXPXPXPXPX",
"PXPXPXPXPXPXPXPXPXPXPXPXPXPXPXFX8X7 J 7X4XP + @ > ^.|.}.^.V b 3 6 5 m B ^.'.|.'.b . + N 4X0XI 4 ~ BXIXPXPXPXPXPXPXPXPXPXPXPXPXPX",
"PXPXPXPXPXPXPXPXPXPXPXPXPXPXPXPXVX8XJ 1 1 H W 7 : ^.|.].~.> 3 eXCXvXN > B `.|.'.b 1 T Y + 4 6 ~ MXIXPXPXPXPXPXPXPXPXPXPXPXPXPXPX",
"PXPXPXPXPXPXPXPXPXPXPXPXPXPXPXPXPXFX9X~ ~ 9XeX6 : ^.|.`.V : 3 BXPXPXU o n ^.{.`.> 4 8XeX~ ~ qXBXPXPXPXPXPXPXPXPXPXPXPXPXPXPXPXPX",
"PXPXPXPXPXPXPXPXPXPXPXPXPXPXPXPXPXPXPXPXPXVX6X3 n '.$X'.V : 3 nXPXGXK o n `.#X#XV 2 Q MXPXPXPXPXPXPXPXPXPXPXPXPXPXPXPXPXPXPXPXPX",
"PXPXPXPXPXPXPXPXPXPXPXPXPXPXPXPXPXPXPXPXPXbX6 C #X=X=X#XV : 3 nXPXFXY o B }.=X&X$X/.2 9XPXPXPXPXPXPXPXPXPXPXPXPXPXPXPXPXPXPXPXPX",
"PXPXPXPXPXPXPXPXPXPXPXPXPXPXPXPXPXPXPXPXGX4X. C _.).).[.'.n 3 nXPXGXK b ^.[.).). XC o R FXPXPXPXPXPXPXPXPXPXPXPXPXPXPXPXPXPXPXPX",
"PXPXPXPXPXPXPXPXPXPXPXPXPXPXPXPXPXPXPXLXuXU X & f a u M [.V 3 nXPXGXK n |.Z u a f 0 X 5 eXGXPXPXPXPXPXPXPXPXPXPXPXPXPXPXPXPXPXPX",
"PXPXPXPXPXPXPXPXPXPXPXPXPXPXPXPXPXPXPXFXW = & h h g p u M , 3 nXPXGXY : M s i p h h 0 = L nXPXPXPXPXPXPXPXPXPXPXPXPXPXPXPXPXPXPX",
"PXPXPXPXPXPXPXPXPXPXPXPXPXPXPXPXPXPXPXVX5 & .. .g i u i g & + nXPXFXJ # p p u i g  .3.i + uXPXPXPXPXPXPXPXPXPXPXPXPXPXPXPXPXPXPX",
"PXPXPXPXPXPXPXPXPXPXPXPXPXPXPXPXPXPXPXVXJ p 8.3.g p i p h 0 5 nXPXGXU & h g u p a  .7.j 4 iXPXPXPXPXPXPXPXPXPXPXPXPXPXPXPXPXPXPX",
"PXPXPXPXPXPXPXPXPXPXPXPXPXPXPXPXPXPXPXGX6Xl k 3.7.5. .h 0 v rXFXPXLXuXT & g  .3.8.5.j d W VXPXPXPXPXPXPXPXPXPXPXPXPXPXPXPXPXPXPX",
"PXPXPXPXPXPXPXPXPXPXPXPXPXPXPXPXPXPXPXIXVX! 4 j 5.3.j i 6 eXPXPXPXPXPXnXL a j  .8. .- I nXLXPXPXPXPXPXPXPXPXPXPXPXPXPXPXPXPXPXPX",
"PXPXPXPXPXPXPXPXPXPXPXPXPXPXPXPXPXPXPXPXIXBX+X7 # # X l uXGXPXPXPXPXPXIXCXU X # # - W vXIXPXPXPXPXPXPXPXPXPXPXPXPXPXPXPXPXPXPXPX",
"PXPXPXPXPXPXPXPXPXPXPXPXPXPXPXPXPXPXPXPXPXPXVX9X6X6X6XeXPXPXPXPXPXPXPXPXPXiXF.6X6XqXnXIXPXPXPXPXPXPXPXPXPXPXPXPXPXPXPXPXPXPXPXPX",
"PXPXPXPXPXPXPXPXPXPXPXPXPXPXPXPXPXPXPXPXPXPXPXPXPXPXPXPXPXPXPXPXPXPXPXPXPXPXPXPXPXPXPXPXPXPXPXPXPXPXPXPXPXPXPXPXPXPXPXPXPXPXPXPX",
"PXPXPXPXPXPXPXPXPXPXPXPXPXPXPXPXPXPXPXPXPXPXPXPXPXPXPXPXPXPXPXPXPXPXPXPXPXPXPXPXPXPXPXPXPXPXPXPXPXPXPXPXPXPXPXPXPXPXPXPXPXPXPXPX"
};
