/* XPM */
static char *_86c1ea127054153f03201ca5fc0edfd1Nzs2UBaM7vMolPL[] = {
/* columns rows colors chars-per-pixel */
"64 64 225 2 ",
"   c #1A020E",
".  c #17010C",
"X  c #1F0311",
"o  c #2D0B0D",
"O  c #26060E",
"+  c #320C0D",
"@  c #3E0F0B",
"#  c #38120E",
"$  c #240512",
"%  c #2D0C11",
"&  c #270A16",
"*  c #330515",
"=  c #3C0C15",
"-  c #34031A",
";  c #39061A",
":  c #360819",
">  c #3B0A1A",
",  c #360915",
"<  c #2B1118",
"1  c #3B1B14",
"2  c #391717",
"3  c #3F221B",
"4  c #1C003E",
"5  c #3C0C23",
"6  c #330727",
"7  c #2C1422",
"8  c #391629",
"9  c #2B023D",
"0  c #360C39",
"q  c #3C2333",
"w  c #3D2320",
"e  c #43140D",
"r  c #45180F",
"t  c #420D16",
"y  c #430D1A",
"u  c #490F18",
"i  c #491C12",
"p  c #43121C",
"a  c #4B141B",
"s  c #491916",
"d  c #531B1B",
"f  c #581B1A",
"g  c #631E17",
"h  c #4D2215",
"j  c #40231D",
"k  c #4E2619",
"l  c #4F281C",
"z  c #522B1D",
"x  c #5A231C",
"c  c #62241A",
"v  c #6B2518",
"b  c #6C2B1A",
"n  c #6A2618",
"m  c #752B17",
"M  c #792E17",
"N  c #762E18",
"B  c #782E18",
"V  c #702716",
"C  c #7C3017",
"Z  c #7B3319",
"A  c #7E391C",
"S  c #72341D",
"D  c #6F311C",
"F  c #421324",
"G  c #4C1C23",
"H  c #45182A",
"J  c #4A1D32",
"K  c #471B3A",
"L  c #531E29",
"P  c #472525",
"I  c #542E20",
"U  c #582726",
"Y  c #563325",
"T  c #59352F",
"R  c #472938",
"E  c #542838",
"W  c #593836",
"Q  c #4A363F",
"!  c #652C24",
"~  c #6C3422",
"^  c #6A3927",
"/  c #773B24",
"(  c #683A37",
")  c #703734",
"_  c #5B463F",
"`  c #7B4224",
"'  c #7B472B",
"]  c #68473B",
"[  c #774A33",
"{  c #73533C",
"}  c #1D0040",
"|  c #26014A",
" . c #2A034A",
".. c #2A0647",
"X. c #3A1144",
"o. c #320D51",
"O. c #381558",
"+. c #2F084B",
"@. c #3A3E53",
"#. c #3F3D4A",
"$. c #411E5E",
"%. c #421B4C",
"&. c #46255F",
"*. c #513546",
"=. c #4E3068",
"-. c #603D6A",
";. c #673F51",
":. c #3C4451",
">. c #304E6E",
",. c #594C51",
"<. c #784C42",
"1. c #6C4F56",
"2. c #5B496D",
"3. c #685A66",
"4. c #775968",
"5. c #63477B",
"6. c #75656C",
"7. c #796775",
"8. c #6A6672",
"9. c #823D1C",
"0. c #843616",
"q. c #85421F",
"w. c #88461F",
"e. c #844522",
"r. c #8B4C23",
"t. c #854A26",
"y. c #8E5126",
"u. c #8C542C",
"i. c #89542C",
"p. c #915629",
"a. c #935C2D",
"s. c #935728",
"d. c #875531",
"f. c #935E31",
"g. c #844F31",
"h. c #97602F",
"j. c #966232",
"k. c #996534",
"l. c #9B6936",
"z. c #9E6D3B",
"x. c #A06E39",
"c. c #A2723B",
"v. c #865949",
"b. c #946853",
"n. c #957153",
"m. c #AE7556",
"M. c #876B78",
"N. c #8A7378",
"B. c #B2855E",
"V. c #C6855F",
"C. c #D59967",
"Z. c #D6B078",
"A. c #E7AB72",
"S. c #ECB779",
"D. c #E8B277",
"F. c #5E5785",
"G. c #765E89",
"H. c #4F6F8B",
"J. c #79668A",
"K. c #7A6691",
"L. c #6F7A8B",
"P. c #8A7983",
"I. c #89769A",
"U. c #937B86",
"Y. c #5A819B",
"T. c #7B8E9D",
"R. c #7294AA",
"E. c #93858D",
"W. c #988992",
"Q. c #9E9399",
"!. c #88909E",
"~. c #A28B95",
"^. c #A4929B",
"/. c #9888A7",
"(. c #979BA8",
"). c #9297AA",
"_. c #A79BA5",
"`. c #AA99B0",
"'. c #9AA8B5",
"]. c #8DA9B7",
"[. c #ADA4B8",
"{. c #B8ACB6",
"}. c #B5ACB2",
"|. c #EEBE80",
" X c #C4B7BE",
".X c #F4C481",
"XX c #F8CA86",
"oX c #FCD48D",
"OX c #FAD087",
"+X c #FDDA94",
"@X c #FCDC95",
"#X c #FCE097",
"$X c #9BBAC9",
"%X c #BBB8C7",
"&X c #ABB8C6",
"*X c #C4BBC8",
"=X c #C7BBD0",
"-X c #9CC7D2",
";X c #B8C4CC",
":X c #B6CBD5",
">X c #B0CCD5",
",X c #B3DFEA",
"<X c #B9E2EC",
"1X c #C9C2C7",
"2X c #D3CACE",
"3X c #CAC2D1",
"4X c #DBD5D7",
"5X c #CED2D7",
"6X c #E1DCDE",
"7X c #DCDBE3",
"8X c #E3DFE0",
"9X c #C9E7EE",
"0X c #D3E8ED",
"qX c #CBEBF2",
"wX c #D6EDF2",
"eX c #DBF1F6",
"rX c #EAE6EA",
"tX c #EDEAED",
"yX c #E4E5E8",
"uX c #EAF4F7",
"iX c #EBF6F8",
"pX c #E7F4F8",
"aX c #F4F3F4",
"sX c #FFFFFF",
"dX c #F4F8FA",
/* pixels */
"sXsXsXsXsXsXsXsXsXsXsXsXsXsXsXsXsXsXsXsXsXsXsXsXsXsXsXsXsXsXsXsXsXsXsXsXsXsXsXsXsXsXsXsXsXsXsXsXsXsXsXsXsXsXsXsXsXsXsXsXsXsXsXsX",
"sXsXsXsXsXsXsXsXsXsXsXsXsXsXsXsXsXsXsXsXsXsXsXsXsXsXsXsXsXsXsXsXsXsXsXsXsXsXsXsXsXsXsXsXsXsXsXsXsXsXsXsXsXsXsXsXsXsXsXsXsXsXsXsX",
"sXsXsXsXsXsXsXsXsXsXsXsXsXsXsXsXsXsXsXsXsXsXsXsXsXsXsXsXsXsXsXsXsXsXsXsXsXsXsXsXsXsXsXsXsXsXsXsXsXsXsXsXsXsXsXsXsXsXsXsXsXsXsXsX",
"sXsXsXsXsXsXsXsXsXsXsXsXsXsXsXsXsXsXsXsXsXsXsXsXsXsXsXsXsXsXsXsXsXsXsXsXsXsXsXsXsXsXsXsXsXsXsXsXsXsXsXsXsXsXsXsXsXsXsXsXsXsXsXsX",
"sXsXsXsXsXsXsXsXsXsXsXsXsXsXsXsXsXsXsXsXsXsXsXsXsXsXsXsXsXsXsXsXsXsXsXsXsXsXsXsXsXsXsXsXsXsXsXsXsXsXsXsXsXsXsXsXsXsXsXsXsXsXsXsX",
"sXsXsXsXsXsXsXsXsXsXsXsXsXsXsXsXsXsXsXsXsXsXsXsXsXsXsXsXsXsXsXsXsXsXsXsXsXsXsXsXsXsXsXsXsXsXsXsXsXsXsXsXsXsXsXsXsXsXsXsXsXsXsXsX",
"sXsXsXsXsXsXsXsXsXsXsXsXsXsXsXsXsXsXsXsXsXsXsXsXsXsXsXsXsXsXsXsXsXsXsXsXsXsXsXsXsXsXsXsXsXsXsXsXsXsXsXsXsXsXsXsXsXsXsXsXsXsXsXsX",
"sXsXsXsXsXsXsXsXsXsXsXsXsXsXsXsXsXsXsXsXsXsXsXsXsXsXsXsXsXsXsXsXsXsXsXsXsXsXsXsXsXsXsXsXsXsXsXsXsXsXsXsXsXsXsXsXsXsXsXsXsXsXsXsX",
"sXsXsXsXsXsXsXsXsXsXsXsXsXsXsXsXsXsXsXsXsXsXsXsXsXsXsXsXsXsXsXsXsXsXsXsXsXsXsXsXsXsXsXsXsXsXsXsXsXsXsXsXsXsXsXsXsXsXsXsXsXsXsXsX",
"sXsXsXsXsXsXsXsXsXsXsXsXsXsXsXsXsXsXsXsXsXsXsXsXsXsXsXsXsXsXsXsXsXsXsXsXsXsXsXsXsXsXsXsXsXsXsXsXsXsXsXsXsXsXsXsXsXsXsXsXsXsXsXsX",
"sXsXsXsXsXsXsXsXsXsXsXsXsXsXsXsXsXsXsXsXsXsXsXsXsXsXsXsXsXsXsXsXsXsXsXsXsXsXsXsXsXsXsXsXsXsXsXsXsXsXsXsXsXsXsXsXsXsXsXsXsXsXsXsX",
"sXsXsXsXsXsXsXsXsXsXsXsXsXsXsXsXsXsXsXsXsXsXsXsXsXsXsXsXsXsXsXsXsXsXsXsXsXsXsXsXsXsXsXsXsXsXsXsXsXsXsXsXsXsXsXsXsXsXsXsXsXsXsXsX",
"sXsXsXsXsXsXsXsXsXsXsXsXsXsXsXsXsXsXsXsXsXsXsXsXsXsXsXsXsXsXsXsXsXsXsXsXsXsXsXsXsXsXsXsXsXsXsXsXsXsXsXsXsXsXsXsXsXsXsXsXsXsXsXsX",
"sXsXsXsXsXsXsXsXsXsXsXsXsXsXsXsXsXsXsXsXsXsXsXsXsXsXsXsXsXsXsXsXsXsXsXsXsXsXsXsXsXsXsXsXsXsXsXsXsXsXsXsXsXsXsXsXsXsXsXsXsXsXsXsX",
"sXsXsXsXsXsXsXsXsXsXsXsXsXsXsXsXsXsXsXsXsXsXsXsXsXsXsXsXsXsXsXsXsXsXsXsXsXsXsXsXsXsXsXsXsXsXsXsXsXsXsXsXsXsXsXsXsXsXsXsXsXsXsXsX",
"sXsXsXsXsXsXsXsXsXsXsXsXsXsXsXsXsXsXsXsXsXsXsXsXsXsXsXsXsXsXsXsXsXsXsXsXsXsXsXsXsXsXsXsXsXsXsXsXsXsXsXsXsXsXsXsXsXsXsXsXsXsXsXsX",
"sXsXsXsXsXsXsXsXsXsXsXsXsXsXsXsXsXsXsXsXsXsXsXsXsXsXsXsXsXsXsXsXsXsXsXsXsXsXsXsXsXsXsXsXsXsXsXsXsXsXsXsXsXsXsXsXsXsXsXsXsXsXsXsX",
"sXsXsXsXsXsXsXsXsXsXsXsXsXsXsXsXsXsXsXsXsXsXsXsXsXsXsXsXsXsXsXsXsXsXsXsXsXsXsXsXsXsXsXsXsXsXsXsXsXsXsXsXsXsXsXsXsXsXsXsXsXsXsXsX",
"sXsXsXsXsXsXsXsXsXsXsXsXsXsXsXsXsXsXsXsXsXsXsXsXsXsXsXsXsXsXsXsXsXsXsXsXsXsXsXsXsXsXsXsXsXsXsXsXsXsXsXsXsXsXsXsXsXsXsXsXsXsXsXsX",
"sXsXsXsXsXsXsXsXsXsXsXsXsXsXsXsXsXsXsXsXsXsXsXsXsXsXsXsXsXsXsXsXsXsXsXsXsXsXsXsXsXsXsXsXsXsXsXsXsXsXsXsXsXsXsXsXsXsXsXsXsXsXsXsX",
"sXsXsXsXsXsXsXsXsXsXsXsXsXsXsXsXsXsXsXsXsXsXsXsXsXsXsXsXsXsXsXsXsXsXsXsXsXsXsXsXsXsXsXsXsXsXsXsXsXsXsXsXsXsXsXsXsXsXsXsXsXsXsXsX",
"sXsXsXsXsXsXsXsXsXsXsXsXsXsXsXsXsXsXsXsXsXsXsXsXsXsXsXsXsXsXsXsXsXsXsXsXsXsXsXsXsXsXsXsXsXsXsXsXsXsXsXsXsXsXsXsXsXsXsXsXsXsXsXsX",
"sXsXsXsXsXsXsXsXsXsXsXsXsXsXsXsXsXsXsXsXsXsXsXsXsXrX{.M.J : - - - : - J U.=XdXtX[.I.G.I.[.rXsXsXsXsXsXsXsXsXsXsXsXsXsXsXsXsXsXsX",
"sXsXsXsXsXsXsXsXsXsXsXsXsXsXsXsXsXaX[.K.G./.4XsX~.E 5 ; a x b D S D c y - F -.&.+. .|  . .&.{.sXsXsXsXsXsXsXsXsXsXsXsXsXsXsXsXsX",
"sXsXsXsXsXsXsXsXsXsXsXsXsXsXsXsX%X=. . .|  .O.-.- t c / r.r.r.r.r.w.r.9.L .. . . . . .|  . .+.=XsXsXsXsXsXsXsXsXsXsXsXsXsXsXsXsX",
"sXsXsXsXsXsXsXsXsXsXsXsXsXsXsX`.o. . . .|  . . ...~ r.r.r.r.y.r.y.r.e.K  . .| | ..9 &.$. .|  .5.sXsXsXsXsXsXsXsXsXsXsXsXsXsXsXsX",
"sXsXsXsXsXsXsXsXsXsXsXsXsXsX=XO.o.$.5.G.%.9 .. .|  .) s./ t.f./ y.g.X. .+.K ! / f > J }.*XG.o.+.%XsXsXsXsXsXsXsXsXsXsXsXsXsXsXsX",
"sXsXsXsXsXsXsXsXsXsXsXsXsXdX-.O.`.tXaX^.; t A ` J  .+.g.! f.f.c ' +. .E y.y.r.9.9.v ; J 4XdX3X$.K.dXsXsXsXsXsXsXsXsXsXsXsXsXsXsX",
"sXsXsXsXsXsXsXsXsXsXsXsXsX/.5.7XsXdX Xy y 9./ x d 5 9 X.G f.g.G X.0 H k d ~ r.r.q.9.v ; J 4XsX=X=.aXdXsXsXsXsXsXsXsXsXsXsXsXsXsX",
"sXsXsXsXsXsXsXsXsXsXsXsXtXI.aXsXsXaX*.- N 9.: 7.&X).8 0 6 ~ ! 6 E F (.&X).q x r.r.e.9.c - 1.sXsX*XtXsXsXsXsXsXsXsXsXsXsXsXsXsXsX",
"sXsXsXsXsXsXsXsXsXsXsXsXsXaXsXsXaXM.- c / ; W.iXdXeX'.> T p y [ = _.iXdXeX:X*.x y.e.9.A a - ~.aXsXsXsXsXsXsXsXsXsXsXsXsXsXsXsXsX",
"sXsXsXsXsXsXsXsXsXsXsXsXsXsXsXsX2XF a e.d 4.iXsXsXpXwX3.~ x.x.g.*.sXsXsXdXwX-X5 y.y.e.9.0.y ; 4XsXsXsXsXsXsXsXsXsXsXsXsXsXsXsXsX",
"sXsXsXsXsXsXsXsXsXsXsXsXsXsXsXsXM.- D A R yXdXsXdX`.&X(.U c.z.~ W.%X!.yXdXpX9X2.~ y.r.q.Z c - M.sXsXsXsXsXsXsXsXsXsXsXsXsXsXsXsX",
"sXsXsXsXsXsXsXsXsXsXsXsXsXsXsX6X> p q.d 4.dXdXsX=X} O.:XG c.z.G _.$.} I.dXuXqX!.p p.y.e.Z M y H rXsXsXsXsXsXsXsXsXsXsXsXsXsXsXsX",
"sXsXsXsXsXsXsXsXsXsXsXsXsXsXsXU.- b q.= (.dXsXdX`.| o.$XJ z.x.F [. . .2.aXiXqX$X: u.y.r.q.C n : N.dXsXsXsXsXsXsXsXsXsXsXsXsXsXsX",
"sXsXsXsXsXsXsXsXsXsXsXsXsXsXtXE t 9.e.* {.dXsXdX`.} o.$XP z.z.p %X . .=.aXuXwX'.: a.y.r.w.Z C = H rXsXsXsXsXsXsXsXsXsXsXsXsXsXsX",
"sXsXsXsXsXsXsXsXsXsXsXsXsXsX2X5 d 9.e.; '.uXdXdX%X+.F.$XG c.z.a ;XK.+.K.dXeX9X].> a.p.y.w.A M d 5  XsXsXsXsXsXsXsXsXsXsXsXsXsXsX",
"sXsXsXsXsXsXsXsXsXsXsXsXsXsX~.- b e.r.s L.wXuXuXpXqX,X8.Y z.z.P !.pX0XuXpXwX9XL.k h.s.y.w.A C n - M.sXsXsXsXsXsXsXsXsXsXsXsXsXsX",
"sXsXsXsXsXsXsXsXsXsXsXsXsXtX*.y A r.y.e.8 ).<XqX<X,XR.> d.z.z.[ R :XqX0X9X<X-XR ' j.a.y.y.q.Z Z y F 6XdXsXsXsXsXsXsXsXsXsXsXsXsX",
"sXsXsXsXsXsXsXsXsXsXsXsXsX^.- f e.r.r.s./ % ,.8.L.2.> [ l.k.z.k.U R T.-X$XR.*.U k.h.a.y.r.q.Z Z v ; 4.sXsXsXsXsXsXsXsXsXsXsXsXsX",
"sXsXsXsXsXsXsXsXsXsXsXsXaX;.; Z e.r.y.p.a.u.` Y U ^ a.k.l.k.k.k.k.' U G H G ^ f.j.j.a.p.y.q.A Z M u J yXsXsXsXsXsXsXsXsXsXsXsXsX",
"sXsXsXsXsXsXsXsXsXsXsXsX6XH a A ` ] [ p.a.h.j.l.l.k.k.k.k.k.k.k.k.l.z.k.j.z.k.j.<.{ a.y.r.w.A A M f > *XsXsXsXsXsXsXsXsXsXsXsXsX",
"sXsXsXsXsXsXsXsXsXsXsXsX{.; c 0.W >.>.,.a.h.a.j.j.j.j.k.k.k.k.k.k.k.k.k.k.j.f.,.>.>.d.y.w.q.A Z M v - ^.sXsXsXsXsXsXsXsXsXsXsXsX",
"sXsXsXsXsXsXsXsXsXsXsXsX~.: n 9.*.].-X>.{ a.a.j.j.h.h.j.h.k.j.k.j.k.j.j.j.f.:.H.wXH.{ r.w.q.Z Z M v * U.dXsXsXsXsXsXsXsXsXsXsXsX",
"sXsXsXsXsXsXsXsXsXsXsXsX~.> B 0.@.;XuXR.:.a.a.a.u.i.g.' ` ^ ^ ^ ` ' i.i.a.,.H.uXeXY.] w.q.9.Z Z M v - U.dXsXsXsXsXsXsXsXsXsXsXsX",
"sXsXsXsXsXsXsXsXsXsXsXsXW.> m 0.@.;XrX;X@.U d d t ; , = > > - > , * * ; p 7 7. X5XY.] q.A C Z N M c - }.sXsXsXsXsXsXsXsXsXsXsXsX",
"sXsXsXsXsXsXsXsXsXsXsXsX^.- v M T ( ) ~ S / e.e.e.e.e.e.e.e.e.e.` ` e./ ~ c x d P q T Z Z C Z Z M u 5 2XsXsXsXsXsXsXsXsXsXsXsXsX",
"sXsXsXsXsXsXsXsXsXsXsXsX*X5 f B M 9.9.9.q.q.9.q.q.q.q.q.` q.9.e.q.q.e.w.e.q.e.q.e.A m S C M M M v - 1.aXsXsXsXsXsXsXsXsXsXsXsXsX",
"sXsXsXsXsXsXsXsXsXsXsXsXrXE y m M M C Z Z Z Z 0.A A Z A Z Z Z Z Z Z A Z Z Z C C M M M M M m m v ; F 4XdXsXsXsXsXsXsXsXsXsXsXsXsX",
"sXsXsXsXsXsXsXsXsXsXsXsXsX_.5 y v M C C Z Z M B C N B B M C C C Z M M M C B N B M M M M m m g t y `.sXsXsXsXsXsXsXsXsXsXsXsXsXsX",
"sXsXsXsXsXsXsXsXsXsXsXsXsXsXW.; - u c n V M M 0.M C B V v V V V v V M M C C M C M M V g g y - H  XdXsXsXsXsXsXsXsXsXsXsXsXsXsXsX",
"sXsXsXsXsXsXsXsXsXsXsXsXsXsXaX X4.5 * * > t t t t t = * * - * : * * = t t p t p = = ; - 5 J 4.4XsXsXsXsXsXsXsXsXsXsXsXsXsXsXsXsX",
"sXsXsXsXsXsXsXsXsXsXsXsXsXsXsXsX4X*.  $ $ $ F ! ( <.v.v.b.b.b.b.v.v.<.( U G U ! ) E M._.rXdXsXsXsXsXsXsXsXsXsXsXsXsXsXsXsXsXsXsX",
"sXsXsXsXsXsXsXsXsXsXsXsXsXsXaXM.< . X < < 2 <..XOX+X#X#X@X@X@X@X#X#X@XZ.b.T 8 < 2 < Q 4.E.*XaXsXsXsXsXsXsXsXsXsXsXsXsXsXsXsXsXsX",
"sXsXsXsXsXsXsXsXsXsXsXsXsXsXQ.. O 1 j 3 j P v..XOXoX+X+X+X+X+X+X@XoXB.& .   $ % % % O   X X *.4XsXsXsXsXsXsXsXsXsXsXsXsXsXsXsXsX",
"sXsXsXsXsXsXsXsXsXsXsXsXsXyX7 X # 3 j P j P v..XXXoXoXoXoX+X+X+XoXB.X O 1 k z Y z z k h @ o X q 1XsXsXsXsXsXsXsXsXsXsXsXsXsXsXsX",
"sXsXsXsXsXsXsXsXsXsXsXsXsXE.. % 1 3 3 3 3 j ( S..XOXoXoX+XoXoXoXZ.. O l I Y Y Y Y Y I l i e + $ q tXsXsXsXsXsXsXsXsXsXsXsXsXsXsX",
"sXsXsXsXsXsXsXsXsXsXsXsXsX3.  # 1 3 3 3 3 3 T B.S..XXXOXoXoXOXOX<.. i z Y Y _ Y Y Y Y z h e e o & 1XsXsXsXsXsXsXsXsXsXsXsXsXsXsX",
"sXsXsXsXsXsXsXsXsXsXsXsXdX8.  % 1 1 3 3 3 3 j T C.A..X.X.X.X|.S.w X k z I Y z I Y Y I l h r e + $ }.sXsXsXsXsXsXsXsXsXsXsXsXsXsX",
"sXsXsXsXsXsXsXsXsXsXsXsXsX X&   o # # 1 1 1 1 j ] m.C.A.A.A.A.C.7 & h k z I I z I z z h i r e + & {.sXsXsXsXsXsXsXsXsXsXsXsXsXsX",
"sXsXsXsXsXsXsXsXsXsXsXsXsXsXE.&   X o o o + o o # P ] v.n.V.V.V.P $ # h k k k k l l h i e e @ O 7 4XsXsXsXsXsXsXsXsXsXsXsXsXsXsX",
"sXsXsXsXsXsXsXsXsXsXsXsXsXsXaX1X3.< .   . . . . .   < 4.N.N.M.M.7.7 $ o # i i i r r e e @ + $ $ E.sXsXsXsXsXsXsXsXsXsXsXsXsXsXsX",
"sXsXsXsXsXsXsXsXsXsXsXsXsXsXsXsXsXrX1XP.3.1.,.3.6._.4XsXsXsXsXdXsX4X,.< X O O O & % O O $ $ 8 Q.sXsXsXsXsXsXsXsXsXsXsXsXsXsXsXsX",
"sXsXsXsXsXsXsXsXsXsXsXsXsXsXsXsXsXsXdXsXsXsXsXsXsXsXsXsXsXsXsXsXsXsXaX5XQ.6.R < & & < R 7.}.yXdXsXsXsXsXsXsXsXsXsXsXsXsXsXsXsXsX"
};
