/* XPM */
static char *_b116db28b4e4b9dc49eed247eede66bWBzHJahPWwKaSMIN[] = {
/* columns rows colors chars-per-pixel */
"64 64 207 2 ",
"   c None",
".  c #16000C",
"X  c #1D000E",
"o  c #1C0111",
"O  c #23040E",
"+  c #260A0E",
"@  c #2D0A0D",
"#  c #2B060E",
"$  c #370E0D",
"%  c #33110C",
"&  c #3D120D",
"*  c #230411",
"=  c #2C0715",
"-  c #330117",
";  c #340218",
":  c #390619",
">  c #3C0A1B",
",  c #3C1511",
"<  c #3C1C14",
"1  c #391819",
"2  c #2F120F",
"3  c #3F221B",
"4  c #3A0D24",
"5  c #360725",
"6  c #3D142A",
"7  c #3A1428",
"8  c #34083C",
"9  c #3A2D3E",
"0  c #42130D",
"q  c #430C18",
"w  c #470D17",
"e  c #491D13",
"r  c #4B141A",
"t  c #4C191E",
"y  c #461518",
"u  c #531D1D",
"i  c #5C1D18",
"p  c #571817",
"a  c #631E16",
"s  c #4C2115",
"d  c #40241E",
"f  c #4D2519",
"g  c #472017",
"h  c #5B211B",
"j  c #522B1D",
"k  c #58281C",
"l  c #662117",
"z  c #6B2416",
"x  c #61241B",
"c  c #6A2C1C",
"v  c #66291D",
"b  c #762B17",
"n  c #782E17",
"m  c #792F18",
"M  c #702716",
"N  c #7B3319",
"B  c #7E391C",
"V  c #75321B",
"C  c #6C311D",
"Z  c #461422",
"A  c #481D29",
"S  c #431C32",
"D  c #4E1E3B",
"F  c #461938",
"G  c #501E21",
"H  c #4C2A2B",
"J  c #482627",
"K  c #542221",
"L  c #542F21",
"P  c #592726",
"I  c #563224",
"U  c #50312C",
"Y  c #4C243B",
"T  c #48253A",
"R  c #552C38",
"E  c #563035",
"W  c #5F3033",
"Q  c #632C21",
"!  c #622B2C",
"~  c #663224",
"^  c #6C3729",
"/  c #7A3C22",
"(  c #713E2A",
")  c #733823",
"_  c #673B3A",
"`  c #7D4223",
"'  c #75432C",
"]  c #7C4529",
"[  c #7D492A",
"{  c #6C413B",
"}  c #6B4C3D",
"|  c #785439",
" . c #71453F",
".. c #2A0346",
"X. c #280149",
"o. c #270149",
"O. c #300B50",
"+. c #3E1B5C",
"@. c #310745",
"#. c #38374A",
"$. c #233D5D",
"%. c #2B3D57",
"&. c #393F50",
"*. c #1F3D61",
"=. c #203E61",
"-. c #441940",
";. c #4D2E42",
":. c #4B3546",
">. c #54374A",
",. c #563971",
"<. c #28405D",
"1. c #374154",
"2. c #28486A",
"3. c #355879",
"4. c #5A4449",
"5. c #43444D",
"6. c #6F4D47",
"7. c #5A4D71",
"8. c #6A5667",
"9. c #69697B",
"0. c #7C6473",
"q. c #813C1C",
"w. c #85421E",
"e. c #854521",
"r. c #884721",
"t. c #8A4B23",
"y. c #854B28",
"u. c #8E5226",
"i. c #8D532B",
"p. c #905427",
"a. c #915629",
"s. c #945C2D",
"d. c #835432",
"f. c #895933",
"g. c #915F33",
"h. c #804F30",
"j. c #966231",
"k. c #996534",
"l. c #9A6836",
"z. c #9C6B39",
"x. c #96602F",
"c. c #895E4C",
"v. c #966A52",
"b. c #967355",
"n. c #B27857",
"m. c #BC815B",
"M. c #C2875E",
"N. c #D79565",
"B. c #CD8D61",
"V. c #CDA471",
"C. c #E6AD74",
"Z. c #E8AF75",
"A. c #EDB87A",
"S. c #E9B076",
"D. c #F1C17F",
"F. c #4D708D",
"G. c #787383",
"H. c #757099",
"J. c #5F879F",
"K. c #7A8C9C",
"L. c #7598AD",
"P. c #7292A8",
"I. c #988894",
"U. c #899BAC",
"Y. c #9D8CAC",
"T. c #88A7B6",
"R. c #95A8BB",
"E. c #8CA1AF",
"W. c #AAAFBA",
"Q. c #EFBE80",
"!. c #F3C382",
"~. c #F9CE86",
"^. c #F7CD8A",
"/. c #FBD58D",
"(. c #FDD993",
"). c #FAD692",
"_. c #94BAC8",
"`. c #B8BAC6",
"'. c #ACB5C6",
"]. c #9ACEDC",
"[. c #ADC4CF",
"{. c #AECFD9",
"}. c #B7C9D2",
"|. c #A3D3DF",
" X c #B6D0DC",
".X c #A8D6E2",
"XX c #B3DCE6",
"oX c #BFE1EA",
"OX c #C9C8D7",
"+X c #D4D5DE",
"@X c #CFDBE4",
"#X c #C5E4EB",
"$X c #CAE6ED",
"%X c #CFE9EF",
"&X c #D1E9EF",
"*X c #D5EBF1",
"=X c #DCEEF3",
"-X c #DFF0F4",
";X c #EDECF1",
":X c #E3F1F5",
">X c #EAF5F7",
",X c #ECF6F8",
"<X c #F4F9FB",
"1X c #FDFEFE",
"2X c #FBFCFD",
"3X c #F0F7F9",
"4X c #E7E3EA",
/* pixels */
"                                                                                                                                ",
"                                                                                                                                ",
"                                                                                                                                ",
"                                                                                                                                ",
"                                                                                                                                ",
"                                                                                                                                ",
"                                                                                                                                ",
"                                                                                                                                ",
"                                                                                                                                ",
"                                                                                                                                ",
"                                                                                                                                ",
"                                                                                                                                ",
"                                                                                                                                ",
"                                                                                                                                ",
"                                                                                                                                ",
"                                                                                                                                ",
"                                                          - ; - - - -                                                           ",
"                                                    - - - ; : : : : ; ; - ;       X.X.X.X.X.                                    ",
"                                  X.X.X.        - - : r x / w.w.w.w.q.h w - 5 ..X.X.X.X.X.X.X.X.                                ",
"                              X.X.X.X.X.X.o...; : x e.r.r.t.r.r.r.r.r.r./ 8 o.X.X.X.X.X.X.X.X.X.X.                              ",
"                            X.X.X.X.X.X.X.X.X.../ t.t.t.t.p.p.t.u.u.t.^ X.o.X.X.X.o.o.o.X.X.X.X.X.o.                            ",
"                          X.X.X.X.X.X.o.X.X.X.X.X.] a.a.Q s.a.) a.a.Y X.o.o.@.! B p - -     X.X.X.X.                            ",
"                        X.X.X.      - - q ) D X.X.X.y.a.Q k.g.Q s.-.X.X.R y.t.r.w.q.x - ;       X.X.                            ",
"                        X.          - > B w.w.^ D X.@.( ! l.a.u _ X.-.^ ` u.p.t.w.q.q.x ; ;       X.X.                          ",
"                      o.          - : ) w.u : > : 4 @.F G f./ 4 @.4 : 4 4 : u t.u.w.w.q.l - ;       X.                          ",
"                                - - c w.r Y }.&X#X9.; -.: P w F P F }.*X$XR.Y r t.w.w.w.B r - -                                 ",
"                                - r w.h Y +X3X3X:X$X;.K ~ > Z f.5 W.<X<X>X*X{.S P p.t.w.q.N : -                                 ",
"                              - - B ) : W.3X1X2X,X*X[.: k.z.z.' R <X2X2X2X>X%XU.: t.p.t.w.N z - -                               ",
"                              - h w.p 8.>X1X1X1XOX'.$X6 d.z.z.P 0.4XY.:X1X,X=XXX;.~ p.t.e.B N q -                               ",
"                            - - N w.> W.<X1X1X;Xo.o. XF h.z.z.q I.,.X.-.2X<X-X$X9.t p.u.r.q.N b ; -                             ",
"                            - p w.C 6 :X2X1X1X+XX.X.H.;.' z.z.: '.X.X.X.2X2X:X$XU.> s.i.t.e.N m q -                             ",
"                          - ; B r.u >.:X2X2X1XOXX.X.H.;.( z.z.: OXX.X.o.;X1X:X$X_.: s.a.t.r.q.N M ; ;                           ",
"                          - : w.r.t 8.:X<X2X2XOXo.o.R.T ' z.z.; %XO.X.X.2X2X:X#XR.: x.a.u.t.w.N n : -                           ",
"                          - i w.t.h ;.%X,X<X2X;XO.,..XS | z.z.: {.`.X.+.3X>X:XXXK.: x.s.u.t.w.N N p ;                           ",
"                        - - B w.t.] 5 [.*X,X,X:X%XXX_.; g.z.l.Z G.*X:X:X>X:X%XXX8.J g.s.a.t.w.B N M ; ;                         ",
"                        - > w.w.t.u.r :.{.$X$XoX.X].S P z.z.l.' F {.$X*X%X#XXX_.4 ' x.s.a.u.w.w.N n q ;                         ",
"                      - - l w.w.t.i.i.r 6 9.K.K.G.6 A k.l.l.l.k.K S K..X.X.XL.T K j.j.s.a.u.r.B B m l - -                       ",
"                      - : N w.t.u.a.s.s.( f : > 1 ^ k.k.k.l.l.l.k.~ : : 7 5 : P g.j.s.s.a.u.t.w.B m n w -                       ",
"                      - r B t.y.u.p.s.s.j.j.j.l.k.k.j.k.k.l.k.l.l.l.l.f.' [ j.l.k.j.g.a.a.u.r.w.B N m i - ;                     ",
"                    - ; c B ] =.$.| i.s.j.j.j.j.j.j.k.k.k.k.k.k.l.l.l.l.l.l.k.j.| <.<.f.p.u.r.w.q.N m M - -                     ",
"                    ; ; N B :.2.F.2.d.s.s.x.j.j.j.j.k.k.k.k.k.k.k.k.j.k.j.j.j.6.=.P.3.4.a.t.r.w.N N m b ; ;                     ",
"                    ; q N q.%.P.$XF.%.s.s.x.x.s.g.j.s.x.x.s.k.j.g.j.j.j.j.j.f.*.R.%XJ.1.t.r.r.q.N N n b : ;                     ",
"                    : w m B $.W.<X#X2.} s.s.s.x.g.s.[ ] / ~ Q ~ [ [ s.s.s.g.$.U.3X*XL.1.r.r.w.B N N n n : ;                     ",
"                    - w m N $.'.1X>XL.9 u q : : ; ; - ; ; - - - - - - ; : : 7 I.>X=XL.1.w.q.N m N N n b ; -                     ",
"                    ; q m m #.4.6.! v C ) / ` ` / e.e.e.e.e./ / / ` / ) Q u r q $ S :.#.B N N N N m n p - -                     ",
"                    ; ; b m m N / B e.w.w.w.r.w.e.e.e.e.w.e.r.r.r.r.t.e.r.r.e.e.w.B V c V N m n m m n : -                       ",
"                      - r m m N m N N q.B q.q.q.q.q.q.q.N / q.q.B q.q.q.B B q.N N N N N N n n b b b r - :                       ",
"                      : : a m m N m N N N B N N N N m N m N N m m N N m N m m m N m N m m b b b b r ; -                         ",
"                        - ; i m b m m m N N N m n m n n n n m n m m b b m m m n m m n n b b b z w - -                           ",
"                          - ; : p a l M b b b n n M z l l l l l a l M b b b b b b n M l a i w ; - -                             ",
"                            ; - ; ; - - ; - - ; : ; ; ; - - - ; ; ; : : : - - - ; - - - - - - ; ;                               ",
"                              o X * # - - : Z Z A A P W _ {  ._ W P A Z q > 4 : > Z > : -                                       ",
"                            . . . . X + 1 c.!./.^.(.(.(.(.(.(.(.(.(.).).!.V.} 1 * * * *                                         ",
"                          . . + 3 3 3 3 H b.D.~./.).(.(.(.(.(.(.(.(.).b.= o o X o o X X X X X X                                 ",
"                        . . 2 < 3 d 3 d H v.D.~././.(.(.(.(.(.(.(.^.H o o @ g g f f s e e $ X O X                               ",
"                        . + < d d d d d H c.D.~.~.)././.(.(.(.(.).} o * g L I I I I I L f e 0 $ O o                             ",
"                      o . , 3 3 3 3 3 3 J } S.!.~././.)./.)././.V.o * s L I I I I I I I I f e 0 $ O o                           ",
"                      . . & < < 3 3 3 3 d E m.A.D.~.~.~././.^.^.} X , j L I I I I I U I j f s 0 & # X                           ",
"                      . . , , 3 3 3 3 3 3 J { N.Z.A.A.!.!.Q.Q.Q.2 * e j L I I I I I I L j s e 0 0 # X                           ",
"                      o . . % % % , , < , < J _ n.C.C.S.S.S.C.C.* * e j j L L I L L L j j s e 0 0 # X                           ",
"                        . . . + @ % % % % % % J W  .n.M.B.N.N.N.1 X , s f f f k f j f f e e 0 0 0 O X                           ",
"                          . . . . . . X X . X X X 7 H U E E E E A o O $ e e e s s e e e 0 0 0 & # X X                           ",
"                              o . . . . . . . . . X                 X X o @ & 0 0 0 0 & 0 $ # X X X                             ",
"                                                                      O X X X o X X X X O X X o                                 "
};
