/* XPM */
static char *_a7c3582484749f89ce76d724148b786tZaWkXdJmbFcNPnf[] = {
/* columns rows colors chars-per-pixel */
"64 64 211 2 ",
"   c None",
".  c #16000C",
"X  c #1D000E",
"o  c #1D0111",
"O  c #23030F",
"+  c #250B0E",
"@  c #2B0B0E",
"#  c #29060E",
"$  c #3B0E0C",
"%  c #330D0E",
"&  c #34120D",
"*  c #3D120E",
"=  c #230511",
"-  c #2C0116",
";  c #2B0B13",
":  c #250813",
">  c #340218",
",  c #390619",
"<  c #3D0A1B",
"1  c #360819",
"2  c #3C1C14",
"3  c #381814",
"4  c #3F221B",
"5  c #380A24",
"6  c #3B1026",
"7  c #3C1228",
"8  c #3B182B",
"9  c #2C0137",
"0  c #41130D",
"q  c #420D19",
"w  c #480E18",
"e  c #441A12",
"r  c #491C12",
"t  c #49131A",
"y  c #4D191D",
"u  c #451216",
"i  c #541B1B",
"p  c #581D19",
"a  c #551617",
"s  c #621E17",
"d  c #4C2115",
"f  c #40241E",
"g  c #4D2519",
"h  c #522A1C",
"j  c #57221F",
"k  c #662117",
"l  c #6B2416",
"z  c #642419",
"x  c #652B1E",
"c  c #6C2B1B",
"v  c #762B17",
"b  c #782E17",
"n  c #792F18",
"m  c #732B18",
"M  c #74321C",
"N  c #7B3319",
"B  c #7E3A1C",
"V  c #461422",
"C  c #491B27",
"Z  c #461B38",
"A  c #4E2B2D",
"S  c #462527",
"D  c #542F21",
"F  c #562526",
"G  c #563325",
"H  c #48263B",
"J  c #572B35",
"K  c #563035",
"L  c #5A3931",
"P  c #4E3A3D",
"I  c #622D23",
"U  c #662D27",
"Y  c #643126",
"T  c #693324",
"R  c #6C3729",
"E  c #723622",
"W  c #793D22",
"Q  c #743B25",
"!  c #653836",
"~  c #632D31",
"^  c #7D4123",
"/  c #7D4629",
"(  c #7F4C2D",
")  c #74432C",
"_  c #6E413D",
"`  c #664B3C",
"'  c #7D5537",
"]  c #2A0246",
"[  c #270149",
"{  c #280149",
"}  c #2E084E",
"|  c #350A44",
" . c #3A124B",
".. c #243D5E",
"X. c #293D59",
"o. c #363049",
"O. c #1E3D61",
"+. c #203E60",
"@. c #441841",
"#. c #512840",
"$. c #493B4A",
"%. c #5A3E51",
"&. c #533044",
"*. c #51326C",
"=. c #304159",
"-. c #234366",
";. c #305273",
":. c #3F607E",
">. c #4C4346",
",. c #594659",
"<. c #584843",
"1. c #754A40",
"2. c #6B5443",
"3. c #634856",
"4. c #6B414B",
"5. c #5F4277",
"6. c #686577",
"7. c #716B7B",
"8. c #813C1C",
"9. c #85431E",
"0. c #854521",
"q. c #8A4B23",
"w. c #864A26",
"e. c #8E5126",
"r. c #8B542C",
"t. c #84532F",
"y. c #905427",
"u. c #905529",
"i. c #945C2D",
"p. c #865532",
"a. c #8F5C30",
"s. c #966232",
"d. c #996534",
"f. c #9A6836",
"g. c #9C6B39",
"h. c #986738",
"j. c #95602F",
"k. c #906950",
"l. c #AD7757",
"z. c #826F7E",
"x. c #B0815E",
"c. c #AD8A61",
"v. c #C3855D",
"b. c #CA9869",
"n. c #D89565",
"m. c #CE8E61",
"M. c #E6AD74",
"N. c #E8AF74",
"B. c #ECB678",
"V. c #F0BE7E",
"C. c #E2A36C",
"Z. c #F2C17F",
"A. c #615686",
"S. c #4D728E",
"D. c #707687",
"F. c #7C7EA3",
"G. c #5B809A",
"H. c #778B9C",
"J. c #638199",
"K. c #7B9AAD",
"L. c #818C9B",
"P. c #9A8B97",
"I. c #A2929C",
"U. c #8798A6",
"Y. c #8894AD",
"T. c #A697B4",
"R. c #8AA9B8",
"E. c #99A7B4",
"W. c #ABA6B7",
"Q. c #EFBE80",
"!. c #F3C382",
"~. c #FACE86",
"^. c #F8CD88",
"/. c #FBD58D",
"(. c #F7D28F",
"). c #FDD993",
"_. c #FBD692",
"`. c #EEC989",
"'. c #99B6C7",
"]. c #8EB7C5",
"[. c #B4BCC9",
"{. c #B6A8C1",
"}. c #9FD3DF",
"|. c #A5CCD8",
" X c #BDC7D3",
".X c #B8D4DD",
"XX c #B1C9D4",
"oX c #ADD9E4",
"OX c #A8D7E2",
"+X c #BADEE8",
"@X c #BEE0E9",
"#X c #C0C5CD",
"$X c #C5D2D9",
"%X c #CCC8D8",
"&X c #C1DCE5",
"*X c #DEDCE6",
"=X c #E1DCE6",
"-X c #C6E4EC",
";X c #CAE6ED",
":X c #CEE8EF",
">X c #D3E7EC",
",X c #D4EBF1",
"<X c #DBEEF2",
"1X c #E2F1F5",
"2X c #E9F4F7",
"3X c #ECF6F8",
"4X c #F4FAFB",
"5X c #FDFEFE",
"6X c #FCFDFD",
"7X c #F2F4F7",
"8X c #E7EBF1",
/* pixels */
"                                                                                                                                ",
"                                                                                                                                ",
"                                                                                                                                ",
"                                                                                                                                ",
"                                                                                                                                ",
"                                                                                                                                ",
"                                                                                                                                ",
"                                                                                                                                ",
"                                                                                                                                ",
"                                                                                                                                ",
"                                                                                                                                ",
"                                                                                                                                ",
"                                                                                                                                ",
"                                                                                                                                ",
"                                                                                                                                ",
"                                                                                                                                ",
"                                                          > > > > > >                                                           ",
"                                    { { { { {       > > > > > , , 1 > > > >                                                     ",
"                                { { { { { { { { ] 5 > q p B 9.9.9.9.8.z t , > > >       { { [                                   ",
"                              { { { { { [ { { { { { | W 9.9.q.q.q.9.q.q.0.0.x < > 9 { { { { { { {                               ",
"                            [ { { { [ { { ] [ ] { { { { ~ q.e.q.e.e.u.e.q.q.q.^ ] { { { { { { { { {                             ",
"                            { { { {     > > w B ~ | { { { @.u.y.M u.i.j u.e.0.{ { { { { { { { { { { {                           ",
"                            { {       > > p B 8.0.q.w.J { { @.i.I i.h.I u.r.} { { Z E q > >       { { {                         ",
"                          { {       > > p B 9.q.q.u.u.0.R H { #.F w.g.Q Q | { Z T w.w.8.< > >         { {                       ",
"                          {       > > p B 8.9.q.e.i , 6 6 > 6 | V E u.F Z { 5 , 6 , y 0.B 1 >           {                       ",
"                                > > w N 9.9.q.e.i 8 E.-X,X$XH F Z q I > @., 6..X>X X&.t 0.M > >                                 ",
"                                > > M 8.9.q.e.Y 6 XX;X2X7X4X[.< p.C , U I H &X8X2X7X>X#.y 0.i > >                               ",
"                              > > s B 8.q.e.w.1 H.-X1X6X5X5X5X%.U g.g.g.> E.,X2X6X5X6X#X1 M 8.> >                               ",
"                              > q b 8.9.q.y.Q C +X,X3X5X8XT.%XP.C g.h.h.> .X[. X5X5X5X3Xz.q 9.k > >                             ",
"                            > > l n 8.9.e.u.j ,.+X1X7X5X5.] *.W.< g.g.s.> &X} { =X5X5X4X$X1 9.8., >                             ",
"                            > , n B 8.q.e.i., U.-X1X6X5X .{ [ #X, g.g.p.5 Y.{ { {.5X5X6X1XC x 9.p >                             ",
"                          > > l n 8.9.e.y.i., R.;X1X6X7X[ { {  X> g.h.w.5 F.{ { T.5X5X6X2X,.t 0.8.> >                           ",
"                          > > b n 9.q.e.u.j.> R.-X<X4X6X{ { } >X5 h.g.p.5 '.[ [ T.5X5X4X1X7.< q.8.t >                           ",
"                          > w b N 9.q.e.i.i.< D.+X<X2X4X*.{ W.$X> g.g.s.> }.A.} >X4X4X3X>X%.i q.9.z >                           ",
"                        > , m b B 9.q.y.i.i.G &.oX:X<X2X3X1X<XU.q g.g.g.> R.oX:X<X3X3X<X.X, ^ q.9.B > >                         ",
"                        > , b N 8.9.e.y.i.j.t., ].oX-X:X,X:X.XH Y g.g.g.Y 8 ].OX@X;X;XOX,.< e.q.q.8.q >                         ",
"                      > > s b N 8.q.e.y.i.i.d.F 8 K.}.OXOXU.H V h.f.f.f.f.F 6 6.H.H.7.Z q r.e.q.q.9.k > >                       ",
"                      > < b n B 9.9.e.u.i.i.s.s.U , 5 6 5 , G s.d.f.f.f.d.d.Q y < < y T i.i.u.q.q.9.B < >                       ",
"                      > a b n B 9.q.e.u.i.a.s.s.d.h.( ) p.d.d.h.d.d.f.d.d.d.h.h.d.s.s.s.i.i.e.e.w.w.B p >                       ",
"                    > > l N N 8.9.9.q.y.p.=...2.s.d.d.d.g.d.h.d.d.d.d.d.d.d.s.s.d.s.s.s.i.i.t...O.) B m > >                     ",
"                    > > v b N 8.9.9.q.e.` ;.K.-.2.j.s.s.d.d.d.d.d.d.d.d.s.h.s.s.s.j.s.i.i.r.O.S.:.>.8.N , >                     ",
"                    > > b b b B 8.9.q.q.<.S.-X[.O.' s.j.s.s.s.s.s.s.j.j.s.i.i.j.j.j.j.i.i.=.;.;XY.X.8.n w >                     ",
"                    > > b b b N B 9.9.q.>.G.:X3X'.O.i.i.i.i.w./ T I I Q / / i.i.j.i.i.i.' -.+X4XXXO.B n p >                     ",
"                    > > m b b N n N 8.9.>.G.:X3XI.8 , , > > > > > > > > > > > 1 1 , , i o.D.2X5X XO.N b a >                     ",
"                      > a b b n N N B 8.$.o.C , q t j I E W W 8.^ ^ 0./ 0.w.0.^ ^ ^ W W c I U 4.4.o.M b w >                     ",
"                      > , b b b b n n N c M W 0.8.0.0.0.0.w.w.0.9.9.9.9.0.9.0.0.0.0.9.9.0.8.8.8.N b b m > >                     ",
"                      > > w v v v b n n N N N B B B 8.8.8.8.8.8.8.8.B 8.B B B B 8.8.8.8.B N N N N b b p > >                     ",
"                        > > w v v v v n n n n v n n n n N n N n n N n n n N N N N N N B N N N N n v l 1 >                       ",
"                          > > , l m v v v b n n n n n n v v n v n n n n b v b b b N N N n b b b b s , >                         ",
"                            > > > w a s s v n v v v v v v m k l s k k k k l m v v v v v m l s a < > > >                         ",
"                                > > > > > > > > > > > > > > > , > > , > > > > > > > > > > > > > > >                             ",
"                                      > , , w < 5 < < q V C F K ! ! _ ! J F j S V V , > - - # X o                               ",
"                                        = = = = 3 ! b.`./._.).).).).).).).).)././.!.l.8 + + . . . .                             ",
"                                X o X X X o o = X X . : k.(.).).).).).).).)././.(.Z.x.A 4 4 4 2 + . .                           ",
"                              o O o ; e r g g h g r ; o . S `.).).).).).)./././.^.Z.x.A f f f 4 2 3 . .                         ",
"                            X O % 0 r g h D G G G G G d = o L /.).).).).).)./.~.~.Z.l.A f f 4 4 4 2 + . .                       ",
"                          X o $ 0 r d h D G G G G G G D g = o c.).)././.)././.~.!.B._ A 4 4 4 4 4 4 2 . .                       ",
"                          X O 0 0 r h h G G G G G G G D h e o L ^.(.^./.(.~.~.Z.B.b.L S 4 4 4 4 2 2 * X .                       ",
"                          X # $ 0 r d h h G G G G G G D h d O ; V.Q.Q.!.Z.V.B.N.n.1.D 2 4 2 4 4 2 2 3 . .                       ",
"                          X # 0 0 r d g h D G D G G h h h d = = M.M.N.N.N.M.C.v._ A 2 2 2 3 2 & & & X . o                       ",
"                          o O $ 0 0 r d g g g h h h g d d * o % n.n.n.m.v.l.1.K S & & & & & & & @ . . .                         ",
"                          X X O $ 0 0 0 r r d r d d r r $ O o 8 K K K K K A S + X . X X . . . . . . .                           ",
"                            X X X O $ 0 0 0 0 * 0 0 % X X o                 . . . . . . . . . . o                               ",
"                                X o X X X X X X X X X X X                                                                       "
};
