/* XPM */
static char *f0b6289a00fa4308961aca23b3df7d35LbJ5wNdAswCuAZT8[] = {
/* columns rows colors chars-per-pixel */
"64 64 222 2 ",
"   c #1A020D",
".  c #16020B",
"X  c #1D0311",
"o  c #1E0814",
"O  c #25060E",
"+  c #29050E",
"@  c #2B0C0D",
"#  c #330D0D",
"$  c #3C0E0C",
"%  c #36140E",
"&  c #230411",
"*  c #280B16",
"=  c #320416",
"-  c #34031A",
";  c #39051A",
":  c #3C0A1A",
">  c #370B15",
",  c #2D1211",
"<  c #3A1411",
"1  c #3C1C14",
"2  c #361619",
"3  c #3F221B",
"4  c #3C0C23",
"5  c #370A2F",
"6  c #391A28",
"7  c #2B023B",
"8  c #331533",
"9  c #3A202D",
"0  c #3B2837",
"q  c #42130D",
"w  c #420E16",
"e  c #430E1A",
"r  c #461A11",
"t  c #4C141A",
"y  c #4D1A1D",
"u  c #471817",
"i  c #521619",
"p  c #551C1B",
"a  c #591B18",
"s  c #581817",
"d  c #4D2316",
"f  c #41231D",
"g  c #4E2619",
"h  c #4F281A",
"j  c #522B1D",
"k  c #5D2A1E",
"l  c #58231B",
"z  c #692618",
"x  c #742A17",
"c  c #7A2E17",
"v  c #782F18",
"b  c #742B18",
"n  c #6D311E",
"m  c #7C3117",
"M  c #73321C",
"N  c #7B3319",
"B  c #7E3A1C",
"V  c #4D1D23",
"C  c #451828",
"Z  c #451939",
"A  c #511F28",
"S  c #492729",
"D  c #542E20",
"F  c #582626",
"G  c #563325",
"H  c #563A2F",
"J  c #4A2636",
"K  c #522638",
"L  c #543439",
"P  c #6C3523",
"I  c #6A3426",
"U  c #743C24",
"Y  c #773B26",
"T  c #683334",
"R  c #602C20",
"E  c #5F473E",
"W  c #7D4223",
"Q  c #7A472B",
"!  c #72423A",
"~  c #73533E",
"^  c #1E0040",
"/  c #26024A",
"(  c #29034A",
")  c #290446",
"_  c #340C47",
"`  c #3D1344",
"'  c #320D52",
"]  c #351554",
"[  c #16375E",
"{  c #273B56",
"}  c #282140",
"|  c #123760",
" . c #482B41",
".. c #562D40",
"X. c #593748",
"o. c #523B4B",
"O. c #633C4E",
"+. c #663D52",
"@. c #492A67",
"#. c #5B3B74",
"$. c #54366E",
"%. c #334256",
"&. c #304E6F",
"*. c #55424D",
"=. c #5B4856",
"-. c #5F5259",
";. c #7B5143",
":. c #684958",
">. c #69504B",
",. c #5D5669",
"<. c #5C4A7E",
"1. c #7A5867",
"2. c #6B5F72",
"3. c #69506A",
"4. c #6B6274",
"5. c #676B7D",
"6. c #796C77",
"7. c #7B6A72",
"8. c #823D1C",
"9. c #84421E",
"0. c #89471F",
"q. c #834522",
"w. c #8A4B23",
"e. c #844D2A",
"r. c #884721",
"t. c #8E5126",
"y. c #8B532B",
"u. c #89532C",
"i. c #915628",
"p. c #945C2D",
"a. c #945829",
"s. c #8D5B33",
"d. c #845734",
"f. c #935F32",
"g. c #97612F",
"h. c #966232",
"j. c #996534",
"k. c #9C6936",
"l. c #9C6B39",
"z. c #936338",
"x. c #875A4A",
"c. c #94624D",
"v. c #946954",
"b. c #8F6D4F",
"n. c #AB7556",
"m. c #876977",
"M. c #867375",
"N. c #BB8C62",
"B. c #BE9669",
"V. c #C1835E",
"C. c #C98860",
"Z. c #D9A06B",
"A. c #E7AB73",
"S. c #EEBA7C",
"D. c #E4A66F",
"F. c #F1C07F",
"G. c #3D6080",
"H. c #705786",
"J. c #4D708C",
"K. c #7E6591",
"L. c #6D7283",
"P. c #8C7A83",
"I. c #816D94",
"U. c #8A779C",
"Y. c #907E9F",
"T. c #907CA2",
"R. c #798A9A",
"E. c #95818C",
"W. c #9B8899",
"Q. c #928B94",
"!. c #A18A94",
"~. c #A5969D",
"^. c #8789AA",
"/. c #998AA9",
"(. c #A79CA2",
"). c #A799B3",
"_. c #93A8B7",
"`. c #A7A0B9",
"'. c #B4A9B8",
"]. c #BFB5BB",
"[. c #AFA6AD",
"{. c #C2B7BC",
"}. c #F5C783",
"|. c #FBD48D",
" X c #F4D18E",
".X c #FDDA94",
"XX c #FBDA94",
"oX c #EAC585",
"OX c #FCE097",
"+X c #AABBC6",
"@X c #93BCC9",
"#X c #C3BCC9",
"$X c #9BC0CC",
"%X c #A5D3DE",
"&X c #B7D3DC",
"*X c #ADC7D3",
"=X c #B7DFE9",
"-X c #BBE2EB",
";X c #CBC5C9",
":X c #CBC5D3",
">X c #D4CCD0",
",X c #DDDADE",
"<X c #D9D4D7",
"1X c #D3C8CD",
"2X c #E1DADD",
"3X c #CBD7E1",
"4X c #E1DEE3",
"5X c #C7E5EC",
"6X c #D6E4EA",
"7X c #D4EBF1",
"8X c #DDF2F5",
"9X c #CBEDF4",
"0X c #E7E4E5",
"qX c #EEECED",
"wX c #E6E6E9",
"eX c #E4F2F5",
"rX c #ECF6F9",
"tX c #E8F6F9",
"yX c #F4F2F4",
"uX c #FFFFFF",
"iX c #F3F9FA",
"pX c #F0EEF1",
/* pixels */
"uXuXuXuXuXuXuXuXuXuXuXuXuXuXuXuXuXuXuXuXuXuXuXuXuXuXuXuXuXuXuXuXuXuXuXuXuXuXuXuXuXuXuXuXuXuXuXuXuXuXuXuXuXuXuXuXuXuXuXuXuXuXuXuX",
"uXuXuXuXuXuXuXuXuXuXuXuXuXuXuXuXuXuXuXuXuXuXuXuXuXuXuXuXuXuXuXuXuXuXuXuXuXuXuXuXuXuXuXuXuXuXuXuXuXuXuXuXuXuXuXuXuXuXuXuXuXuXuXuX",
"uXuXuXuXuXuXuXuXuXuXuXuXuXuXuXuXuXuXuXuXuXuXuXuXuXuXuXuXuXuXuXuXuXuXuXuXuXuXuXuXuXuXuXuXuXuXuXuXuXuXuXuXuXuXuXuXuXuXuXuXuXuXuXuX",
"uXuXuXuXuXuXuXuXuXuXuXuXuXuXuXuXuXuXuXuXuXuXuXuXuXuXuXuXuXuXuXuXuXuXuXuXuXuXuXuXuXuXuXuXuXuXuXuXuXuXuXuXuXuXuXuXuXuXuXuXuXuXuXuX",
"uXuXuXuXuXuXuXuXuXuXuXuXuXuXuXuXuXuXuXuXuXuXuXuXuXuXuXuXuXuXuXuXuXuXuXuXuXuXuXuXuXuXuXuXuXuXuXuXuXuXuXuXuXuXuXuXuXuXuXuXuXuXuXuX",
"uXuXuXuXuXuXuXuXuXuXuXuXuXuXuXuXuXuXuXuXuXuXuXuXuXuXuXuXuXuXuXuXuXuXuXuXuXuXuXuXuXuXuXuXuXuXuXuXuXuXuXuXuXuXuXuXuXuXuXuXuXuXuXuX",
"uXuXuXuXuXuXuXuXuXuXuXuXuXuXuXuXuXuXuXuXuXuXuXuXuXuXuXuXuXuXuXuXuXuXuXuXuXuXuXuXuXuXuXuXuXuXuXuXuXuXuXuXuXuXuXuXuXuXuXuXuXuXuXuX",
"uXuXuXuXuXuXuXuXuXuXuXuXuXuXuXuXuXuXuXuXuXuXuXuXuXuXuXuXuXuXuXuXuXuXuXuXuXuXuXuXuXuXuXuXuXuXuXuXuXuXuXuXuXuXuXuXuXuXuXuXuXuXuXuX",
"uXuXuXuXuXuXuXuXuXuXuXuXuXuXuXuXuXuXuXuXuXuXuXuXuXuXuXuXuXuXuXuXuXuXuXuXuXuXuXuXuXuXuXuXuXuXuXuXuXuXuXuXuXuXuXuXuXuXuXuXuXuXuXuX",
"uXuXuXuXuXuXuXuXuXuXuXuXuXuXuXuXuXuXuXuXuXuXuXuXuXuXuXuXuXuXuXuXuXuXuXuXuXuXuXuXuXuXuXuXuXuXuXuXuXuXuXuXuXuXuXuXuXuXuXuXuXuXuXuX",
"uXuXuXuXuXuXuXuXuXuXuXuXuXuXuXuXuXuXuXuXuXuXuXuXuXuXuXuXuXuXuXuXuXuXuXuXuXuXuXuXuXuXuXuXuXuXuXuXuXuXuXuXuXuXuXuXuXuXuXuXuXuXuXuX",
"uXuXuXuXuXuXuXuXuXuXuXuXuXuXuXuXuXuXuXuXuXuXuXuXuXuXuXuXuXuXuXuXuXuXuXuXuXuXuXuXuXuXuXuXuXuXuXuXuXuXuXuXuXuXuXuXuXuXuXuXuXuXuXuX",
"uXuXuXuXuXuXuXuXuXuXuXuXuXuXuXuXuXuXuXuXuXuXuXuXuXuXuXuXuXuXuXuXuXuXuXuXuXuXuXuXuXuXuXuXuXuXuXuXuXuXuXuXuXuXuXuXuXuXuXuXuXuXuXuX",
"uXuXuXuXuXuXuXuXuXuXuXuXuXuXuXuXuXuXuXuXuXuXuXuXuXuXuXuXuXuXuXuXuXuXuXuXuXuXuXuXuXuXuXuXuXuXuXuXuXuXuXuXuXuXuXuXuXuXuXuXuXuXuXuX",
"uXuXuXuXuXuXuXuXuXuXuXuXuXuXuXuXuXuXuXuXuXuXuXuXuXuXuXuXuXuXuXuXuXuXuXuXuXuXuXuXuXuXuXuXuXuXuXuXuXuXuXuXuXuXuXuXuXuXuXuXuXuXuXuX",
"uXuXuXuXuXuXuXuXuXuXuXuXuXuXuXuXuXuXuXuXuXuXuXuXuXuXuXuXuXuXuXuXuXuXuXuXuXuXuXuXuXuXuXuXuXuXuXuXuXuXuXuXuXuXuXuXuXuXuXuXuXuXuXuX",
"uXuXuXuXuXuXuXuXuXuXuXuXuXuXuXuXuXuXuXuXuXuXuXuXuXuXuXuXuXuXuXuXuXuXuXuXuXuXuXuXuXuXuXuXuXuXuXuXuXuXuXuXuXuXuXuXuXuXuXuXuXuXuXuX",
"uXuXuXuXuXuXuXuXuXuXuXuXuXuXuXuXuXuXuXuXuXuXuXuXuXuXuXuXuXuXuXuXuXuXuXuXuXuXuXuXuXuXuXuXuXuXuXuXuXuXuXuXuXuXuXuXuXuXuXuXuXuXuXuX",
"uXuXuXuXuXuXuXuXuXuXuXuXuXuXuXuXuXuXuXuXuXuXuXuXuXuXuXuXuXuXuXuXuXuXuXuXuXuXuXuXuXuXuXuXuXuXuXuXuXuXuXuXuXuXuXuXuXuXuXuXuXuXuXuX",
"uXuXuXuXuXuXuXuXuXuXuXuXuXuXuXuXuXuXuXuXuXuXuXuXuXuXuXuXuXuXuXuXuXuXuXuXuXuXuXuXuXuXuXuXuXuXuXuXuXuXuXuXuXuXuXuXuXuXuXuXuXuXuXuX",
"uXuXuXuXuXuXuXuXuXuXuXuXuXuXuXuXuXuXuXuXuXuXuXuXuXuXuXuXuXuXuXuXuXuXuXuXuXuXuXuXuXuXuXuXuXuXuXuXuXuXuXuXuXuXuXuXuXuXuXuXuXuXuXuX",
"uXuXuXuXuXuXuXuXuXuXuXuXuXuXuXuXuXuXuXuXuXuXuXuXuXuXuXuXuXuXuXuXuXuXuXuXuXuXuXuXuXuXuXuXuXuXuXuXuXuXuXuXuXuXuXuXuXuXuXuXuXuXuXuX",
"uXuXuXuXuXuXuXuXuXuXuXuXuXuXuXuXuXuXuXiX#XW.K.K.).,XyX2X~.O.; - - - - - 4 :.~.4XuXuXuXuXuXuXuXuXuXuXuXuXuXuXuXuXuXuXuXuXuXuXuXuX",
"uXuXuXuXuXuXuXuXuXuXuXuXuXuXuXuXuXuX4X#.' ( ( ( ( ] #.Z - e a n M M n z i ; - C 1.,XyX'.I.H.T.4XuXuXuXuXuXuXuXuXuXuXuXuXuXuXuXuX",
"uXuXuXuXuXuXuXuXuXuXuXuXuXuXuXuXuXyX<.) ( ( ( ( ( ( ( ( Z U 9.r.r.w.r.r.w.9.n t 4 ` @.( ( ( ( ] T.pXuXuXuXuXuXuXuXuXuXuXuXuXuXuX",
"uXuXuXuXuXuXuXuXuXuXuXuXuXuXuXuXuX/.( ) ( ( @.) 7 ) / / / _ Y w.t.w.t.y.w.t.w.q.5 ) ( ) ( / ( ( ( H.uXuXuXuXuXuXuXuXuXuXuXuXuXuX",
"uXuXuXuXuXuXuXuXuXuXuXuXuXuXuXuX4X@.( #.).<X1.- t M I K ` / / T a.W u.f.P a.e.Z / / _ 7 7 3.H.@.' ( I.iXuXuXuXuXuXuXuXuXuXuXuXuX",
"uXuXuXuXuXuXuXuXuXuXuXuXuXuXuXuX#X' U.yXqXO.- i 8.9.r.r.y.Y ` / T U e.j.F e.` / ` T q.l - :.iXyX:X#.' #XuXuXuXuXuXuXuXuXuXuXuXuX",
"uXuXuXuXuXuXuXuXuXuXuXuXuXuXuXuX).T.yXuXm.- i 8.9.r.w.W k p t 5 _ K Y h.p A ( 5 d l M q.a ; m.yXuXyX/.H.uXuXuXuXuXuXuXuXuXuXuXuX",
"uXuXuXuXuXuXuXuXuXuXuXuXuXuXuXuX<XyXuX(.- t 8.8.r.w.n = 5.+X+X=.C Z i Y : _ = 2.$X/.- k 0.t : '.uXuXiX).+XuXuXuXuXuXuXuXuXuXuXuX",
"uXuXuXuXuXuXuXuXuXuXuXuXuXuXuXuXuXuX1XC e v 8.r.t.q.C _.7XtXiX6XJ Y A e F V 6.9XeXiX>XJ n M ; ..pXuXuXiXqXuXuXuXuXuXuXuXuXuXuXuX",
"uXuXuXuXuXuXuXuXuXuXuXuXuXuXuXuXuXuX1.- z N q.w.i.t L.7XeXuXuXuXP.y l.l.z.C =XeXiXuXiX'.+ W z - m.uXuXuXuXuXuXuXuXuXuXuXuXuXuXuX",
"uXuXuXuXuXuXuXuXuXuXuXuXuXuXuXuXuX#X4 t N 8.q.t.W 4 +X6XiXiX'.^.:X> j.l.Q o.3XT.qXuXuXeX:.l 9.e C <XuXuXuXuXuXuXuXuXuXuXuXuXuXuX",
"uXuXuXuXuXuXuXuXuXuXuXuXuXuXuXuXyX+.- x N 9.r.a.I  .=X8XuX,X] ( `.C h.l.R 4.H.^ U.uXuXuX:Xe 0.k - !.uXuXuXuXuXuXuXuXuXuXuXuXuXuX",
"uXuXuXuXuXuXuXuXuXuXuXuXuXuXuXuX1Xe t v N 0.w.a.k 5.5XeXiX'.) / ).X.d.l.F ,.@.^ $.uXuXiXtXJ W B : O.uXuXuXuXuXuXuXuXuXuXuXuXuXuX",
"uXuXuXuXuXuXuXuXuXuXuXuXuXuXuXuXE.- z m 8.w.t.p.l L.5XeXuX`.) / _.:.d.c.F 5.@.^ @.uXuXuXtX*.U 9.s - ;XuXuXuXuXuXuXuXuXuXuXuXuXuX",
"uXuXuXuXuXuXuXuXuXuXuXuXuXuXuXuX..e x m 9.w.a.g.D ,.=XeXiX:X] @.3XX.d.l.I ,.^.] I.uXuXrX8X .W 0.v ; m.uXuXuXuXuXuXuXuXuXuXuXuXuX",
"uXuXuXuXuXuXuXuXuXuXuXuXuXuXuX{.4 s N N 0.t.t.g.Y 6 %X7XeXtX6XtX&X6 s.l.d.9 %X-X8XtXtX8X&XC e.0.9.: K qXuXuXuXuXuXuXuXuXuXuXuXuX",
"uXuXuXuXuXuXuXuXuXuXuXuXuXuXyX+.; z m B r.t.a.p.y.- R.=X5X5X9X5X4.g k.l.l.F ,.%X-X9X9X*X .R t.w.9.a - {.uXuXuXuXuXuXuXuXuXuXuXuX",
"uXuXuXuXuXuXuXuXuXuXuXuXuXuX;X4 i v N 8.r.y.a.p.j.Q 6 R.@X$X_.=.e s.k.k.z.s.u  .5.L.,.6 F i.t.w.0.M ; 3.uXyXuXuXuXuXuXuXuXuXuXuX",
"uXuXuXuXuXuXuXuXuXuXuXuXuXuXP.- z m N 9.r.i.a.p.h.h.Q j C C S P f.j.l.j.j.j.h.Q D R I e.g.i.t.t.r.8.i 4 <XuXuXuXuXuXuXuXuXuXuXuX",
"uXuXuXuXuXuXuXuXuXuXuXuXuXiX..e v N 8.9.r.t.a.d.>.z.k.l.j.j.k.k.l.j.j.z.j.j.j.j.k.k.j.h.g.a.u.E Q 9.z - W.uXuXuXuXuXuXuXuXuXuXuX",
"uXuXuXuXuXuXuXuXuXuXuXuXuX2XC s v m 8.9.r.w.y.%.&.%.~ h.j.j.j.j.j.j.j.j.j.h.j.j.j.h.h.p.f.~ { G.{ B m : +.pXuXuXuXuXuXuXuXuXuXuX",
"uXuXuXuXuXuXuXuXuXuXuXuXuX{.; s v v N 8.0.r.e.[ *X_.&.x.g.g.j.g.j.h.j.h.h.g.g.j.g.p.h.p.f.=.J.*X[ U m t K 0XuXuXuXuXuXuXuXuXuXuX",
"uXuXuXuXuXuXuXuXuXuXuXuXuX1X- s N v N B 9.q.e.| &XrX_.{ d.y.u.Q Q U P P Q Q Q u.y.p.g.p.~ J.7XwX&.P M t K 0XuXuXuXuXuXuXuXuXuXuX",
"uXuXuXuXuXuXuXuXuXuXuXuXuXqXZ i N v v v N 8.Q | *X;X!.0 6 : > = - > ; ; > > > ; > t t F 8 R.,XwX&.I N i K 0XuXuXuXuXuXuXuXuXuXuX",
"uXuXuXuXuXuXuXuXuXuXuXuXuXuX:.: x v N v N N n } J i p z n U W W q.q.q.q.q.q.r.q.q.q.Y q.M n I ! L n v e J 0XuXuXuXuXuXuXuXuXuXuX",
"uXuXuXuXuXuXuXuXuXuXuXuXuXuX[.: t x v v m m M b 8.9.q.9.9.9.0.9.9.q.8.q.W 9.9.9.q.q.9.8.W 9.8.N N v b - 1.yXuXuXuXuXuXuXuXuXuXuX",
"uXuXuXuXuXuXuXuXuXuXuXuXuXuXyXO.; s c x c c c c c m m m N N N N N N m m N m m 8.m 8.c 8.N N m m v v t - {.uXuXuXuXuXuXuXuXuXuXuX",
"uXuXuXuXuXuXuXuXuXuXuXuXuXuXuX,XX.- s z x x x c c x v N m v N v v v m v v v v c c c c c m m v v x i - 1.iXuXuXuXuXuXuXuXuXuXuXuX",
"uXuXuXuXuXuXuXuXuXuXuXuXuXuXuXuX4X+.- : s z z x c c c c m m v x b z z x b x x c m c 8.x x x z i : - X.4XuXuXuXuXuXuXuXuXuXuXuXuX",
"uXuXuXuXuXuXuXuXuXuXuXuXuXuXuXuXuXyX!.K e - ; ; w w w w w w : > = ; = = = = > < w w w w : - = - O.!.qXuXuXuXuXuXuXuXuXuXuXuXuXuX",
"uXuXuXuXuXuXuXuXuXuXuXuXuXuXuXuXuXuXuXuXyX{.E.J T I F A A F ! x.x.v.v.v.v.x.x.;.! T V - & & & 6 (.uXuXuXuXuXuXuXuXuXuXuXuXuXuXuX",
"uXuXuXuXuXuXuXuXuXuXuXuXuXuXuXuXuXuXiX<X~.7.*.* 2 2 2 S ;.C. XXXOXXXOXOX.XOXOX.X|.}.n.9 , , *   X *.,XuXuXuXuXuXuXuXuXuXuXuXuXuX",
"uXuXuXuXuXuXuXuXuXuXuXuXuXuXuXuXuXuXP.&     O + * # O   o . ~  X.X.X.X.X.X.X.X|.|.}.B.S 3 f 3 1 @ . J eXuXuXuXuXuXuXuXuXuXuXuXuX",
"uXuXuXuXuXuXuXuXuXuXuXuXuXuXuXuXqX-.X + < r d j j F G j 9 ,   H oX.X.X.X.X.X|.|.}.}.N.S 3 f f 3 1 * o (.uXuXuXuXuXuXuXuXuXuXuXuX",
"uXuXuXuXuXuXuXuXuXuXuXuXuXuXuXuX~.X + q r h j G G G G G G j >   b..X|.|..X|.|.|.}.S.c.S 3 f 3 3 3 1 . *.uXuXuXuXuXuXuXuXuXuXuXuX",
"uXuXuXuXuXuXuXuXuXuXuXuXuXuXuXuX*.X $ q r j D G G G G G G D g O 2 oX|.|.|.|.}.}.S.Z.H S 3 3 3 3 3 % o 6 uXuXuXuXuXuXuXuXuXuXuXuX",
"uXuXuXuXuXuXuXuXuXuXuXuXuXuXuXuX6 & q q d d j D G G G G G j j <   N.oXS.}.F.S.S.D.c.S 3 1 1 1 1 % %   9 uXuXuXuXuXuXuXuXuXuXuXuX",
"uXuXuXuXuXuXuXuXuXuXuXuXuXuXuXuXJ & q q r d g j D G j j j j g < . n.A.A.A.A.D.V.x.S 1 % 1 1 % 1 % o   6.uXuXuXuXuXuXuXuXuXuXuXuX",
"uXuXuXuXuXuXuXuXuXuXuXuXuXuXuXuX7.  # q q r u d j g h g g d r O + n.V.V.n.c.;.K f # # # @ # @ O . o L wXuXuXuXuXuXuXuXuXuXuXuXuX",
"uXuXuXuXuXuXuXuXuXuXuXuXuXuXuXuX>X6   @ $ q r r r r r r < > O & >.M.M.M.M.m.9 O . .       . . o *.~.qXiXuXuXuXuXuXuXuXuXuXuXuXuX",
"uXuXuXuXuXuXuXuXuXuXuXuXuXuXuXuXuX;Xo.* O & O O + * + O   * 0 ~.iXuXuXiXuXuX0X].6.3.-.-.-.6.[.,XuXuXuXuXuXuXuXuXuXuXuXuXuXuXuXuX",
"uXuXuXuXuXuXuXuXuXuXuXuXuXuXuXuXuXuXyX;XP.*.6 * * * 9 =.E.{.0XuXuXuXuXuXuXuXuXuXuXuXuXuXuXuXuXuXuXuXuXuXuXuXuXuXuXuXuXuXuXuXuXuX"
};
