/* XPM */
static char *_af94d825add4d5d97ccedcea5e35555pboApUX7XL2EwuiT[] = {
/* columns rows colors chars-per-pixel */
"64 64 126 2 ",
"   c #2B2C2B",
".  c #2E342E",
"X  c #323432",
"o  c #323832",
"O  c #363D3A",
"+  c #383939",
"@  c #364038",
"#  c #3A433B",
"$  c #3C4241",
"%  c #3E4A42",
"&  c #3E4A48",
"*  c #404543",
"=  c #424E46",
"-  c #424E4C",
";  c #484E4C",
":  c #44524A",
">  c #49534D",
",  c #445151",
"<  c #4B5551",
"1  c #4A5B55",
"2  c #4B5B59",
"3  c #4E615C",
"4  c #51625C",
"5  c #526460",
"6  c #556A62",
"7  c #586C64",
"8  c #5B6D6A",
"9  c #5A7067",
"0  c #5E756D",
"q  c #5F756D",
"w  c #5E746C",
"e  c #5E766C",
"r  c #5F776D",
"t  c #5E766E",
"y  c #5F776F",
"u  c #5D746C",
"i  c #5B736B",
"p  c #60726A",
"a  c #60746C",
"s  c #60776F",
"d  c #60766E",
"f  c #60786E",
"g  c #60786F",
"h  c #61796F",
"j  c #637B6E",
"k  c #657D6F",
"l  c #61796F",
"z  c #607270",
"x  c #607470",
"c  c #607770",
"v  c #627472",
"b  c #647674",
"n  c #607670",
"m  c #607870",
"M  c #617970",
"N  c #627A70",
"B  c #657B73",
"V  c #667A72",
"C  c #647C70",
"Z  c #647C71",
"A  c #667E70",
"S  c #677F70",
"D  c #677F72",
"F  c #637B71",
"G  c #697D75",
"H  c #6B7F77",
"J  c #687A74",
"K  c #6A7E7A",
"L  c #6D7F79",
"P  c #688071",
"I  c #688072",
"U  c #698174",
"Y  c #6F837B",
"T  c #6C827C",
"R  c #6D827C",
"E  c #6D837D",
"W  c #6E837C",
"Q  c #6E847D",
"!  c #6E847E",
"~  c #6F847E",
"^  c #6E857E",
"/  c #6F857E",
"(  c #6E867E",
")  c #6F867E",
"_  c #6B837B",
"`  c #70857E",
"'  c #70867E",
"]  c #70867F",
"[  c #70867F",
"{  c #71897F",
"}  c #708780",
"|  c #718780",
" . c #748780",
".. c #738780",
"X. c #708880",
"o. c #748A82",
"O. c #778A82",
"+. c #768B85",
"@. c #778D86",
"#. c #748C84",
"$. c #788C84",
"%. c #7A8C86",
"&. c #789086",
"*. c #7C918B",
"=. c #7C938B",
"-. c #7E948E",
";. c #789088",
":. c #80988F",
">. c #809690",
",. c #809790",
"<. c #829892",
"1. c #829A92",
"2. c #839B93",
"3. c #849B93",
"4. c #849A94",
"5. c #859D95",
"6. c #869D96",
"7. c #869E96",
"8. c #849C94",
"9. c #8BA39B",
"0. c #8CA29C",
"q. c #8BA39B",
"w. c #92AAA2",
"e. c #96AEA6",
"r. c #97AFA7",
"t. c #99B1A9",
/* pixels */
"$ & 2 3 5 5 4 4 5 2 5 2 5 5 5 2 5 5 3 5 5 2 5 5 5 5 2 5 3 5 3 5 5 5 5 5 2 5 5 5 5 4 2 5 5 5 5 2 5 5 5 5 5 3 3 5 5 3 5 2 & O X X ",
"O & 5 8 v b b b b b b b b b b b b b v b b b b b v v b b b b b b v z b b b b v v b c b b b v b b b b v v b b b b b b b 8 , $ + X ",
"o = 8 %.4.0.0.q.0.0.0.0.0.0.0.0.0.0.0.0.0.0.0.0.0.0.0.0.0.0.0.9.0.0.0.0.0.0.0.0.0.0.0.0.0.0.0.0.0.0.0.0.9.9.9.9.0.0.0.-.z & $ O ",
"o = K 4.w.t.e.e.r.r.r.e.e.r.r.r.e.e.e.e.e.e.e.e.e.e.e.e.e.r.r.t.e.e.e.e.e.e.e.e.r.r.r.r.e.e.e.e.e.e.e.e.r.r.r.r.e.e.e.-.n 2 & O ",
"o : ` 6.q.q.4.4.4.-.4.4.<.4.4.<.<.<.<.4.1.1.1.1.4.-.4.4.4.>.4.-.<.<.<.<.<.4.-.4.1.1.1.1.1.1.1.4.<.<.<.<.4.4.-.-.2.2.-.#.6 , % @ ",
". : { 5.>.$.{ ` E E K ! K ! E K E E } K _ R R R } } `  ...' X.X...~ E E ! ! ! ! R ' ( ' ' ' ' R ! ! ! K ! ! } } _ ( { P 5 : # @ ",
"o > #.1.K 8 8 7 8 5 5 5 5 5 5 8 5 6 6 5 5 5 6 7 z z z z d y m y z 8 8 8 8 8 8 8 8 8 i i i p w w z 8 8 8 8 z 8 i i i i 6 3 : # # ",
". > $.:.a 4 4 2 2 2 2 2 2 2 2 2 2 2 2 2 2 2 1 4 5 5 5 5 7 9 9 9 7 7 5 5 5 5 4 5 4 5 5 5 7 7 6 6 5 5 5 5 5 6 5 6 3 6 3 3 1 > # @ ",
"o > $.>.z 4 4 4 2 2 2 4 2 4 4 2 3 1 1 2 2 4 4 4 5 6 5 6 7 9 i i 7 8 6 6 7 4 4 4 7 7 7 9 9 6 9 6 6 6 5 6 6 6 6 6 6 3 3 3 1 : # @ ",
"o > $.>.a 4 4 4 5 5 2 4 4 4 4 4 4 4 4 2 4 4 4 4 4 5 5 6 6 7 7 i 8 i i i 6 6 9 7 4 9 9 9 i i i i 6 9 6 6 9 9 7 6 5 3 3 3 1 : # @ ",
". > %.>.v 5 4 5 2 5 4 5 6 7 p p 7 7 6 5 4 4 4 4 5 5 5 5 5 6 6 6 8 i u i i 7 7 7 7 9 9 9 t t t t t u i 9 i 6 6 6 6 3 3 2 1 : # o ",
"o :  .*.l 5 4 7 5 5 5 5 8 d d l w 9 8 7 7 7 9 4 5 4 3 3 3 3 3 7 9 q y m t i i i i 9 i q t M y M m m P t u i 6 6 6 6 5 3 1 : @ o ",
". : P { a 4 7 4 5 6 5 7 i q m m y y q q q u 8 6 5 5 4 2 3 3 4 7 i t F I F r t t t t t t M M M y m m m m i i i 6 9 9 6 4 1 : # @ ",
"o = S { p 7 4 7 6 6 7 7 q c m m m m y y y y 9 8 5 5 4 4 3 3 7 i t F B U P P I r M M M M M y y M t t t t i i i i 9 9 6 4 3 = # @ ",
"o = V ' p 4 7 6 6 9 q q m m m m m m m y y y 8 7 8 5 4 4 5 6 9 t F P U U P P P I I I F F M y M t u i i i i i i i 9 9 9 4 4 : # @ ",
"o : U O.p 7 7 6 9 i q m m m m m m m m y y y p 8 7 5 5 5 6 9 u t P P U U U P P P P P P I F M y u 9 9 6 9 i i P i P i 9 6 4 > # @ ",
"o : { >.V 7 7 9 i i u u y y y m m m m m m m y u 6 6 6 3 6 i t I I U t } } t } U U U U y U t i i 6 6 6 6 i t P U P P t 9 3 & # # ",
"o > %.4.H i 9 9 i u u U U U m y U m m m m m t u 6 5 6 6 6 i t t u U U U I } t t } U } U t u i 6 6 6 6 9 i U U U U I I u 3 & # # ",
"o < %.3._ y y y u y m m X.X.} t } t y m y t u i 6 6 6 6 9 i u I t U I I I I } } t } U I U i 6 6 6 6 6 i i U ( #.X.X._ t 3 : # # ",
"+ < %.4.X.D B m y U U U X.#.} } m } m y y i i 6 6 6 6 6 9 i t y u I U U U I m U } m U U I u i 6 6 6 9 u P U X.;.#.#._ t 3 : # # ",
"+ < $.9.;.( U D m } U } #.;.#.X.U U y t u i 6 6 6 6 8 8 i i t y I U X.X.X.} t U m t } U I I i i 6 i 9 i P U #.;.&.#.( r 6 : # # ",
"+ < $.9.4.&.( _ m } U } #.#.#.X.U I U u i i 6 6 6 6 i i i u t y U X.X.X.X.X.X.} } } } U _ _ U I i i i u P I X.X.&.#.( r 3 % # # ",
"+ < $.9.q.-.&.( U U F } #.#.} U U I I u i 6 8 8 6 i u u u t u U X.#.;.#.#.#.#.X.X.X.U } X.#.X.X.U P P P P I _ ( #.#._ r 3 1 # # ",
"+ < $.9.q.-.=.&.} } _ } #.#.} U U y t i i i i i i u U U y U I X.X.;.;.;.;.;.;.;.X.X.} } #.;.;.#.( U U U I I U _ { X._ r 3 & % % ",
"+ < >.0.-.-.;.;.#.X._ _ #.#.} _ I t u i i i i t I U X.X._ _ X.#.;.;.;.;.;.;.;.;.;.;.#.#.#.;.#.#.#.#.#.X.} U U U _ _ _ t 3 : % $ ",
"+ < >.0.-.;.;.;.;.#._ _ #.#._ F t t i i i i t U U _ X.X.X.X.X.;.;.;.;.;.X.;.;.;.;.;.;.;.;.;.X.X.#.#.;.#.X.U X.X.( _ _ y 3 : $ $ ",
"+ ; L 0.-.;.;.;.;.#._ X.#.#.} B U y t t t I U } X.X.;.;.#.#.#.;.;.;.;.;.X.X.X.;.;.;.;.;.;.#.X.} X.X.#.;.X.X.X.#.#.X._ t 6 & & O ",
"+ ; >.0.=.#.&.;.;.;._ X.X.X._ U y y U _ U U } X.;.;.#.#.;.;.;.;.#.X.#.X.X.X.X.#.#.;.;.;.;.#.X.} U X.X.#.#.;.;.;.#.{ _ m 6 & $ $ ",
"+ ; O.6.>.L @.&.;.;.#.X.X._ _ U } U X.X.#.#.X.;.;.#.X.X.#.;.;.#.} } } } U U U X.X.#.;.;.#.X.} } U U } } #.#.;.;.} } } n 5 2 & $ ",
"+ < L >.` L X.@.#.;.;.#._ _ _ _ } X.X.;.X.;.;.;.;.#.X.X.X.#.X.X.I } t U I I I X.X.X.#.#.#.X.} X.U } } m X.X.X.X.m } b t 5 & & O ",
"+ ; L >.` H Y ( #.;.;.#._ _ X.#.X.#.;.;.X.X.X.;.;.;.#.X.X._ X._ } u U I I U i U U } X.X.#.;.X.X.} t u t U U U } } m K z 3 , & O ",
"+ ; J >.Y G G _ X.#.#.#.X.X.#.;.X.X.#.X.X.X.X.X.;.#.#.X._ _ _ _ } I U I u t t t U t U X.X.;.X.X.} } U t y u U m m } K z 5 , & $ ",
"O & b X.} } } t m } } } X.#.#.X.} } _ _ B _ _ X.#.#.} _ _ _ X.X.I I I i I t } i I y m } X.#.#.X._ m m m M M M M M U U y 5 , & $ ",
"O & } X.t } t } } } m } X.#.X.X.U U U U U _ U _ X.X._ _ U _ X.X.X.u I u i t t i m m y U X.#.X.X.U t m m M M M I M M U t 3 , & O ",
"O & } X.} I } U y } } m X.} U U m F I I U U U U _ _ _ B U U _ _ I I i i t t t } m m y m U U U U U m m m t r r P I I I i 6 & & O ",
"+ , m X.t } t } } m U U } y I y m m m I U U U U _ U U U U U U _ I I i I } t i i m m y I I I I I y m m m r P P P I I I i 5 & & $ ",
"+ ; b +.} u } t m } t } y t i i m m U P P P P I U I I I I U U U } i t t i t t } m m m m t I t I m y y m U U P P U m K n 5 2 & $ ",
"+ , J | } m u } U U } u P u i i m m I P P I P P M I I I I U U M i i } i i t i i m m m m y t t t t t t y I M P P y m K x 5 & & O ",
"+ ; J +.m m t } t U i u i i i i y P I I I r r I P P P P B M M M t t } i t t t t m m m m m y u 9 i 6 i u t M P P U U K t 2 , & O ",
"+ - b +.} } t t t u u i 9 i 6 u P y P P y t y r r P r P M m y t t t t t t t t t t y m m y u i 6 6 6 6 i t M I I I U K z 5 , & $ ",
"+ ; J O.U F m y i i i i 6 7 6 u i P P t u i i i V V a j m h i i t I i i i i i i i i t t i i 6 6 5 6 6 9 t t P P I I I u 3 & & & ",
"+ ; b X.B y y t i 7 i 7 7 7 9 u i i u u i 6 6 i p p p a q q i 9 i i 6 6 8 i 6 6 6 i i u i i 6 5 5 3 6 6 i t t P I I I i 3 & & $ ",
"o = V } y i i i i i 6 9 7 9 6 9 i i i u i 6 9 6 7 7 7 7 9 i 9 9 i 8 6 3 5 5 5 5 6 6 8 6 6 6 6 6 6 3 5 6 9 u t P u m I i 6 & & @ ",
"o = V ..y 9 6 8 6 9 9 9 9 9 i 9 6 i 6 9 i i 6 6 7 7 4 7 7 9 9 8 5 6 3 3 3 3 3 3 3 5 5 5 6 3 6 6 6 5 6 6 6 i u P u t i i 5 & $ @ ",
"o = V } q 6 7 7 6 9 4 9 7 9 i 7 9 7 7 7 6 i 6 6 7 4 7 5 7 6 9 6 5 3 3 3 2 2 2 2 3 3 5 5 6 6 6 6 6 6 6 6 6 i t t i 9 9 9 3 & & $ ",
". = c ( q 6 4 7 6 6 7 7 9 7 i 7 9 9 7 7 7 6 6 4 4 4 4 6 6 6 6 6 5 3 3 2 2 2 2 2 3 3 3 3 6 3 6 6 3 6 3 6 9 9 u u 9 9 9 6 3 & % $ ",
"o % 9 U q 6 8 7 6 4 6 6 7 i 9 9 9 9 4 9 4 9 6 7 7 7 7 4 7 4 6 6 5 3 2 2 2 , 2 2 3 3 3 6 3 6 6 3 6 6 6 i 9 9 i 9 9 6 6 4 3 & $ @ ",
". % 9 B q 9 9 9 6 5 6 6 6 6 9 9 e 4 p 4 9 4 7 4 4 7 4 7 4 7 6 5 5 3 2 2 2 2 2 2 3 3 3 6 6 3 3 6 3 6 6 6 9 7 9 9 7 4 6 6 3 & # @ ",
"o % 9 P u i 9 i 6 3 3 3 6 6 6 6 7 7 7 7 4 4 5 5 4 5 5 5 5 5 6 6 5 2 2 2 2 2 2 3 5 5 5 5 5 5 5 5 3 6 6 6 7 7 7 7 7 4 7 4 4 : # @ ",
". % 7 B u 6 6 6 6 3 3 3 3 5 6 6 4 7 7 4 7 4 4 5 2 5 2 2 4 4 4 4 3 2 2 2 2 2 3 3 5 5 5 5 5 5 2 2 3 3 3 6 4 4 4 7 7 7 4 4 1 : # @ ",
"o % 9 B 9 6 3 3 3 2 2 3 2 3 3 6 7 4 4 6 4 6 2 2 2 2 2 2 4 4 4 4 3 2 3 3 3 3 3 5 5 5 5 5 5 2 2 2 3 3 3 3 4 4 4 4 4 4 4 4 1 : # # ",
"o % 9 M 6 6 3 3 2 2 & 3 2 2 2 3 6 4 7 5 4 4 2 2 2 2 2 2 2 4 4 4 4 4 2 3 5 3 5 5 6 5 5 5 5 2 2 2 & & 3 3 4 4 4 4 4 4 7 4 1 > # @ ",
". % 9 y 6 6 3 1 2 2 , 2 2 2 2 2 5 5 5 5 4 2 2 2 2 2 2 2 2 5 4 2 2 4 4 5 5 5 5 5 5 5 5 5 2 2 2 , 3 3 2 2 3 3 4 4 5 3 6 5 1 : @ @ ",
". % 6 P 6 3 3 3 2 2 2 2 2 2 , 2 3 5 5 6 4 2 2 2 2 2 2 2 2 2 4 4 2 2 2 4 2 3 5 5 5 2 5 2 2 2 2 2 & 2 1 2 1 3 4 4 3 3 3 3 1 = @ . ",
"o % 3 9 6 3 3 3 2 , 2 2 2 , 2 2 3 5 5 4 2 2 2 < 2 2 2 2 2 4 2 4 2 2 2 2 2 2 2 2 2 2 2 2 2 , 2 2 6 3 3 1 4 4 2 4 3 2 2 & 1 % @ @ ",
". # 3 9 6 6 3 3 2 2 , 2 2 2 2 2 2 5 4 4 4 4 2 2 , , 2 , 2 4 4 2 2 2 2 2 , 2 2 2 , 2 2 2 2 2 , 2 3 3 3 3 4 4 4 2 3 2 1 3 & # @ . ",
"@ # 3 7 6 4 5 2 2 , 2 2 , 2 , 2 4 4 4 5 4 2 1 2 2 2 1 < 4 1 4 1 2 2 2 2 , 2 2 2 2 , 2 2 , 2 2 2 4 1 1 4 4 4 4 4 3 2 2 2 & & O . ",
". # 3 7 6 3 3 2 2 2 2 , 2 2 2 2 2 4 4 2 4 4 2 < 2 1 1 1 1 4 4 4 2 2 2 2 2 , , 2 2 2 , 2 2 2 2 2 4 4 4 4 4 4 1 4 3 2 2 , & $ O o ",
". # 3 7 3 3 3 2 2 2 , 2 2 , 2 2 4 4 4 4 4 4 4 4 1 2 4 4 4 4 4 1 2 2 2 , 2 2 2 2 < 2 2 < 2 2 3 2 4 4 4 4 4 2 2 2 1 2 , & & $ o . ",
"X @ > 4 1 1 2 & , , , , , , , , < > > > ; < > > < < < < > > > , - - - , , & , , , , , ; & , , 2 < ; < < < > , , , - - & $ @ o o ",
". X $ $ O $ $ $ $ O O $ & O & O * * # * # * * * $ $ $ * $ $ $ $ $ $ $ $ $ $ $ $ * # $ $ $ # * # * $ $ $ % $ $ O O $ $ O O O + + ",
"  X X + O O O O O O O O X O X O o o + o + o o o + o + o o O o O O X X O + X + + o o + o + + o o + + X + o o + + + + + o X X X + ",
"    o o O . O . X X O . O X X O o o o o X o o o o o X X o o o o X X o o X X X X o o o o X X o o o o X o o o o o o o o o o X X X ",
"    . o . . . O X X   O   X O   o . o . o o o . o . o o o o . o . o o . o X X X . o . o o o o o . o o X o . . o . o . o o X X X "
};
