/* XPM */
static char *wall_xpm[] = {
/* width height num_colors chars_per_pixel */
"    64    64      256            2",
/* colors */
"`` c #040204",
"`. c #844224",
"`# c #dc763c",
"`a c #b46234",
"`b c #4c2614",
"`c c #9c4e2c",
"`d c #fc9254",
"`e c #6c361c",
"`f c #ec8a54",
"`g c #944e2c",
"`h c #944a2c",
"`i c #dc824c",
"`j c #9c562c",
"`k c #241e14",
"`l c #8c4a24",
"`m c #d46e3c",
"`n c #4c3624",
"`o c #743e24",
"`p c #8c4624",
"`q c #e4763c",
"`r c #542e1c",
"`s c #fca264",
"`t c #ac5a34",
"`u c #140e0c",
"`v c #542a14",
"`w c #743a24",
"`x c #a4562c",
"`y c #844624",
"`z c #c46234",
"`A c #a4522c",
"`B c #fc9654",
"`C c #6c3a1c",
"`D c #f48a54",
"`E c #e47e44",
"`F c #3c2e1c",
"`G c #dc723c",
"`H c #e47a44",
"`I c #0c0a04",
"`J c #dc7644",
"`K c #bc6234",
"`L c #4c2a14",
"`M c #9c522c",
"`N c #94522c",
"`O c #9c5634",
"`P c #2c1e14",
"`Q c #8c4a2c",
"`R c #7c4224",
"`S c #8c462c",
"`T c #e47644",
"`U c #fca664",
"`V c #14120c",
"`W c #542a1c",
"`X c #a45634",
"`Y c #84462c",
"`Z c #fc965c",
"`0 c #6c3a24",
"`1 c #f48e54",
"`2 c #e4824c",
"`3 c #dc7244",
"`4 c #000000",
"`5 c #000000",
"`6 c #000000",
"`7 c #000000",
"`8 c #000000",
".` c #000000",
".. c #000000",
".# c #000000",
".a c #000000",
".b c #000000",
".c c #000000",
".d c #000000",
".e c #000000",
".f c #000000",
".g c #000000",
".h c #000000",
".i c #000000",
".j c #000000",
".k c #000000",
".l c #000000",
".m c #000000",
".n c #000000",
".o c #000000",
".p c #000000",
".q c #000000",
".r c #000000",
".s c #000000",
".t c #000000",
".u c #000000",
".v c #000000",
".w c #000000",
".x c #000000",
".y c #000000",
".z c #000000",
".A c #000000",
".B c #000000",
".C c #000000",
".D c #000000",
".E c #000000",
".F c #000000",
".G c #000000",
".H c #000000",
".I c #000000",
".J c #000000",
".K c #000000",
".L c #000000",
".M c #000000",
".N c #000000",
".O c #000000",
".P c #000000",
".Q c #000000",
".R c #000000",
".S c #000000",
".T c #000000",
".U c #000000",
".V c #000000",
".W c #000000",
".X c #000000",
".Y c #000000",
".Z c #000000",
".0 c #000000",
".1 c #000000",
".2 c #000000",
".3 c #000000",
".4 c #000000",
".5 c #000000",
".6 c #000000",
".7 c #000000",
".8 c #000000",
"#` c #000000",
"#. c #000000",
"## c #000000",
"#a c #000000",
"#b c #000000",
"#c c #000000",
"#d c #000000",
"#e c #000000",
"#f c #000000",
"#g c #000000",
"#h c #000000",
"#i c #000000",
"#j c #000000",
"#k c #000000",
"#l c #000000",
"#m c #000000",
"#n c #000000",
"#o c #000000",
"#p c #000000",
"#q c #000000",
"#r c #000000",
"#s c #000000",
"#t c #000000",
"#u c #000000",
"#v c #000000",
"#w c #000000",
"#x c #000000",
"#y c #000000",
"#z c #000000",
"#A c #000000",
"#B c #000000",
"#C c #000000",
"#D c #000000",
"#E c #000000",
"#F c #000000",
"#G c #000000",
"#H c #000000",
"#I c #000000",
"#J c #000000",
"#K c #000000",
"#L c #000000",
"#M c #000000",
"#N c #000000",
"#O c #000000",
"#P c #000000",
"#Q c #000000",
"#R c #000000",
"#S c #000000",
"#T c #000000",
"#U c #000000",
"#V c #000000",
"#W c #000000",
"#X c #000000",
"#Y c #000000",
"#Z c #000000",
"#0 c #000000",
"#1 c #000000",
"#2 c #000000",
"#3 c #000000",
"#4 c #000000",
"#5 c #000000",
"#6 c #000000",
"#7 c #000000",
"#8 c #000000",
"a` c #000000",
"a. c #000000",
"a# c #000000",
"aa c #000000",
"ab c #000000",
"ac c #000000",
"ad c #000000",
"ae c #000000",
"af c #000000",
"ag c #000000",
"ah c #000000",
"ai c #000000",
"aj c #000000",
"ak c #000000",
"al c #000000",
"am c #000000",
"an c #000000",
"ao c #000000",
"ap c #000000",
"aq c #000000",
"ar c #000000",
"as c #000000",
"at c #000000",
"au c #000000",
"av c #000000",
"aw c #000000",
"ax c #000000",
"ay c #000000",
"az c #000000",
"aA c #000000",
"aB c #000000",
"aC c #000000",
"aD c #000000",
"aE c #000000",
"aF c #000000",
"aG c #000000",
"aH c #000000",
"aI c #000000",
"aJ c #000000",
"aK c #000000",
"aL c #000000",
"aM c #000000",
"aN c #000000",
"aO c #000000",
"aP c #000000",
"aQ c #000000",
"aR c #000000",
"aS c #000000",
"aT c #000000",
"aU c #000000",
"aV c #000000",
"aW c #000000",
"aX c #000000",
"aY c #000000",
"aZ c #000000",
"a0 c #000000",
"a1 c #000000",
"a2 c #000000",
"a3 c #000000",
"a4 c #000000",
"a5 c #000000",
"a6 c #000000",
"a7 c #000000",
"a8 c #000000",
/* pixels */
"```D`d`d`d`d`d`d`d`d`d`d`d`d`d`d`d`d`d`B`d`B`d`B`d`B`d`d`B`s`````````2`B`d`B`d`B`d`B`B`d`B`d`B`B`d`B`B`B`B`Z`B`B`Z`B`B`B`Z`B`B``",
"`L`h`g`g`g`g`g`g`g`g`g`g`g`g`g`g`g`g`g`h`g`h`g`g`h`g`g`g`h`A`T`n`n`b`l`h`g`g`h`g`g`h`g`h`g`g`g`g`g`h`h`g`h`c`h`g`h`g`h`g`c`g`g`T",
"`v`l`g`g`h`h`g`h`g`g`h`h`h`g`h`g`h`h`g`h`g`g`h`g`g`g`h`g`h`j`q`k`k`v`.`g`g`g`g`g`h`g`g`g`g`g`h`h`g`g`g`g`g`g`h`g`g`g`g`h`g`h`g`q",
"`W`p`g`h`g`g`g`g`h`g`g`g`h`g`h`g`g`g`h`g`g`h`g`g`h`g`g`g`h`A`T`k`k`v`y`g`h`g`h`g`g`g`h`g`h`g`g`g`g`g`h`g`h`g`g`h`h`g`g`h`g`g`h`q",
"`L`S`g`g`h`g`g`g`h`g`g`h`g`g`h`g`h`g`g`g`h`g`g`h`g`g`h`g`g`M`q`P`k`v`.`Q`g`h`g`g`h`h`g`g`g`g`h`g`h`h`g`h`g`g`h`g`g`h`h`g`g`h`g`q",
"`v`l`h`g`g`h`g`g`h`g`h`g`g`h`g`h`g`h`g`g`h`g`h`g`g`h`g`g`h`M`q`k`P`L`y`g`h`g`h`g`g`g`h`h`g`h`g`g`g`h`g`g`h`g`g`g`g`g`h`g`g`g`h`q",
"`W`p`g`l`h`g`h`g`h`g`h`g`h`g`g`h`g`h`g`h`g`g`h`g`g`h`g`g`g`A`q`k`k`v`.`g`g`g`h`g`h`g`g`g`h`g`g`h`g`g`g`g`h`g`h`g`g`h`g`h`g`h`g`q",
"`L`S`g`h`g`g`g`h`g`h`g`h`g`h`g`l`g`h`g`g`h`g`h`g`h`g`g`g`g`M`q`P`k`v`.`g`g`h`g`h`g`h`g`h`g`h`g`h`g`h`h`g`g`g`g`h`g`g`g`h`g`g`g`q",
"`v`S`g`h`g`l`h`g`h`g`l`g`g`g`g`h`g`h`g`h`g`h`g`g`g`h`g`h`g`M`q`k`P`b`y`g`g`g`h`g`h`g`g`g`g`h`g`h`g`g`g`g`h`h`g`g`h`g`g`h`g`h`g`q",
"`L`p`g`g`h`g`g`g`g`g`g`g`h`h`g`g`g`h`g`h`g`h`g`g`g`h`g`l`g`A`q`k`P`v`y`g`h`g`h`g`g`h`g`g`g`g`g`g`h`g`g`h`g`g`h`g`g`g`g`g`g`h`g`q",
"`v`S`g`h`l`g`h`l`g`g`h`h`l`g`h`g`g`g`l`g`h`l`g`h`g`h`g`h`g`M`q`k`P`L`Y`h`g`h`g`g`h`g`l`h`g`h`g`g`g`h`g`g`h`g`h`g`h`h`g`h`g`g`h`#",
"`L`l`h`g`g`h`g`g`h`g`l`g`g`g`g`l`h`g`g`g`g`h`g`g`h`g`g`h`g`M`q`P`k`v`.`g`h`g`g`g`g`g`g`g`h`g`h`g`g`h`g`h`g`h`g`g`g`g`g`h`g`g`h`q",
"`W`l`g`g`g`g`h`g`g`g`g`g`h`h`g`g`h`g`h`g`g`g`h`l`g`h`g`l`g`M`q`k`P`L`y`h`g`h`g`h`h`h`h`g`g`l`g`h`g`h`g`h`g`h`g`h`g`h`g`h`g`g`h`q",
"`L`S`h`h`l`g`g`l`h`h`h`l`g`g`h`g`h`l`g`g`h`l`g`g`h`g`h`g`h`M`q`k`P`v`.`g`l`g`h`l`g`g`g`g`h`g`h`g`g`h`l`g`g`g`h`g`g`h`g`g`h`g`l`q",
"`v`S`g`g`g`h`g`g`g`l`g`g`h`g`l`g`g`g`h`g`g`h`g`h`g`l`g`g`h`c`q`k`k`v`.`g`h`g`g`g`h`g`h`l`g`g`h`g`l`g`g`g`h`g`l`g`g`g`h`g`h`g`h`q",
"`v`l`h`l`g`h`l`h`g`g`g`h`l`g`g`g`h`g`h`g`l`g`h`g`h`g`h`g`g`M`q`P`k`v`.`g`g`h`h`g`g`l`g`g`g`g`h`l`g`h`g`g`l`g`h`g`h`g`g`h`l`g`g`#",
"`L`S`g`g`h`g`g`h`g`h`h`g`g`g`h`g`l`g`h`g`h`g`g`h`l`g`h`g`g`M`q`k`P`b`y`h`g`g`l`g`g`h`g`h`h`g`g`g`g`g`g`h`g`h`g`g`h`g`h`g`g`g`h`q",
"`v`S`g`l`g`h`l`g`h`l`g`h`h`g`l`g`g`h`l`g`h`g`l`g`g`h`g`l`g`M`q`k`k`v`.`g`g`g`g`h`h`g`h`g`g`l`h`g`h`g`h`g`h`g`h`g`h`l`g`g`h`h`g`#",
"`b`e`0`o`C`o`w`C`o`o`C`o`C`o`w`C`w`C`o`C`w`C`o`w`w`C`w`w`w`o`j`P`k`b`e`e`C`w`C`w`C`w`C`C`w`o`C`w`w`C`C`o`C`w`C`w`C`o`C`w`C`o`C`p",
"```L`b`L`b`L`L`b`L`b`L`b`L`b`L`L`L`b`L`b`L`L`b`L`L`L`L`L`L`b`P`k`P`k`b`L`b`L`b`L`L`b`L`b`L`b`L`L`b`L`L`b`L`L`L`b`L`b`L`b`L`b`L``",
"```u`k`k`P`k`P`k`P`k`P`k`P`k`P`k`P`k`P`k`P`k`P`k`P`k`k`P`k`k`k`P`k`k`P`k`P`k`k`P`k`P`k`P`k`P`k`k`P`k`P`k`P`k`P`k`k`P`k`P`k`P`F``",
"```u`k`P`k`P`k`k`k`k`k`P`k`P`k`P`k`k`P`k`P`k`P`k`P`k`P`k`P`P`k`k`P`k`k`k`P`k`P`k`P`k`k`P`k`k`P`k`P`k`P`k`k`k`P`k`P`k`P`k`k`k`F``",
"```D`d`d`d`d`d`d`d`d`d`d`d`d`k`P`k`P`#`d`d`d`d`d`d`d`d`d`d`d`d`d`d`d`d`d`d`d`d`d`d`d`d`d`d`s`k`k`P`k`f`d`d`d`d`d`d`d`d`d`d`d`d``",
"`L`g`h`g`h`h`h`h`h`h`h`h`h`h`q`k`P`b`y`g`h`h`h`h`h`g`h`h`h`h`h`h`h`h`h`h`h`h`h`g`h`g`g`h`g`A`G`P`k`v`h`h`g`h`g`h`g`g`g`g`g`g`g`q",
"`L`p`g`h`g`g`h`g`h`g`g`g`g`h`q`k`P`v`.`h`g`g`g`g`h`g`h`g`g`g`g`h`g`g`g`h`g`g`g`h`g`h`h`g`h`x`G`P`k`v`p`h`g`h`g`g`h`h`h`h`g`g`h`G",
"`v`p`l`g`h`g`h`l`g`h`h`h`l`g`q`k`k`b`.`g`h`h`h`g`h`g`h`g`l`h`h`g`h`g`h`g`g`h`g`h`g`l`g`h`g`M`q`k`k`v`p`g`h`g`h`g`g`g`g`h`g`h`g`q",
"`L`S`g`g`l`g`g`h`g`g`l`g`g`h`q`k`P`b`.`g`g`l`g`l`g`l`g`h`g`h`g`h`g`h`g`h`l`g`h`l`g`g`g`g`h`A`#`P`k`v`p`g`h`g`h`g`h`l`g`h`l`g`h`G",
"`v`Q`g`h`g`h`l`g`h`g`h`g`l`g`q`k`k`v`R`h`h`g`h`g`h`g`h`l`g`g`l`g`l`h`l`g`g`h`g`g`g`h`l`g`h`x`G`k`P`b`p`g`h`l`g`g`g`h`g`g`g`h`g`#",
"`L`p`l`g`h`h`g`g`l`g`h`l`g`h`q`k`k`v`R`h`g`h`g`h`g`h`g`g`h`g`h`g`g`g`g`h`g`g`l`h`g`g`h`g`h`M`G`P`k`v`p`g`g`g`g`h`g`g`h`l`g`h`g`q",
"`v`Q`g`h`l`g`l`g`h`g`g`h`g`h`q`P`k`b`.`g`g`h`g`h`g`g`g`g`h`g`g`h`l`h`g`l`g`h`g`g`l`g`h`g`h`M`#`k`P`b`p`g`h`g`l`g`h`l`g`g`h`g`l`q",
"`L`S`h`g`g`h`g`h`g`h`l`g`h`g`#`k`P`v`R`h`h`l`g`g`l`h`l`h`g`l`g`g`g`g`h`g`h`g`h`g`h`g`g`l`g`x`q`k`k`v`p`g`h`g`h`g`g`g`g`h`g`h`g`G",
"`v`Q`l`h`l`g`h`l`g`h`h`l`g`h`q`P`k`b`.`g`g`g`h`g`g`g`h`g`h`g`h`h`l`g`h`g`l`h`l`g`h`g`h`g`h`A`G`P`k`v`p`h`l`g`h`g`h`h`g`l`g`g`h`#",
"`L`S`h`g`h`g`g`h`g`l`g`g`h`l`q`k`k`v`.`h`l`g`h`l`g`h`g`l`h`g`h`g`g`h`l`g`g`g`g`g`h`l`g`h`g`M`#`P`k`v`p`g`g`g`h`l`g`g`h`g`h`g`g`G",
"`v`p`g`l`g`h`l`g`h`g`h`l`g`g`q`k`P`b`.`g`g`h`g`g`l`g`g`h`g`l`g`l`g`g`g`h`h`h`h`l`g`g`g`h`l`x`G`P`k`v`p`g`h`l`g`g`h`g`h`g`h`g`h`#",
"`L`S`h`h`g`g`g`l`h`l`g`g`h`h`q`k`k`v`.`h`l`g`l`g`h`h`l`h`g`g`h`g`h`h`l`g`l`g`l`g`g`h`g`l`g`M`q`k`k`v`y`h`g`g`h`g`l`g`l`g`h`l`g`q",
"`W`l`Q`g`l`h`g`g`g`h`g`h`l`g`q`k`P`b`R`g`g`g`h`g`l`g`g`h`l`g`h`g`l`g`g`g`h`g`h`g`h`g`l`g`h`M`G`P`k`v`p`g`h`h`l`g`h`g`h`g`g`g`h`#",
"`L`p`g`h`g`l`g`h`l`g`h`l`g`h`q`k`k`v`.`h`h`g`l`g`h`g`h`l`g`h`l`g`g`g`h`h`g`g`h`l`g`h`g`h`g`A`G`P`k`v`S`l`g`g`g`h`g`g`h`l`g`h`g`G",
"`v`S`l`g`h`g`l`h`g`h`l`g`g`g`q`k`P`b`R`h`g`l`g`h`h`l`g`g`g`g`g`h`l`h`g`l`g`l`g`g`g`h`l`g`g`x`G`P`k`v`l`h`g`h`h`g`h`l`g`g`h`g`l`q",
"`v`Q`h`l`g`h`g`g`h`g`g`h`l`h`q`k`k`b`.`h`h`g`g`h`l`g`h`h`h`h`h`g`l`g`g`g`g`h`h`l`g`g`g`h`h`A`#`k`P`b`Q`h`l`g`g`l`g`g`h`g`l`g`g`#",
"`L`p`g`g`g`l`h`g`l`h`l`g`h`g`q`P`k`v`.`l`g`h`g`l`g`h`l`g`g`l`g`g`h`h`l`g`h`l`g`g`h`h`g`h`l`x`G`k`k`v`l`h`g`l`g`h`g`h`g`h`h`g`h`#",
"`b`R`R`R`R`.`R`R`.`R`R`R`.`R`a`k`P`b`e`.`R`R`R`.`R`.`.`R`R`.`R`R`R`.`R`R`.`R`R`.`R`R`R`.`R`l`K`P`P`b`R`R`R`.`R`R`.`R`R`R`.`R`.`z",
"```b`b`b`b`L`b`L`b`b`b`L`b`b`P`k`k`k`b`b`b`b`b`L`b`b`L`b`b`b`b`b`b`L`b`L`b`b`b`b`b`b`L`b`b`b`P`k`k`k`b`b`b`b`b`b`b`b`b`L`b`b`L``",
"```u`k`k`k`P`k`k`P`k`k`k`P`k`k`k`P`V`P`k`P`k`k`k`k`k`k`k`k`k`P`k`k`P`k`P`k`P`k`k`k`k`k`k`P`k`k`P`k`k`k`P`k`k`P`k`k`P`k`k`k`k`F``",
"```u`k`P`k`P`k`P`k`k`P`k`k`P`k`V`P`P`P`k`k`P`k`P`k`P`k`P`P`k`P`k`k`P`k`k`P`k`k`P`P`k`P`k`P`k`k`k`P`k`P`k`P`k`P`k`k`P`k`P`P`k`F``",
"```1`d`d`d`d`d`d`d`d`d`d`d`d`d`d`d`d`d`d`d`d`d`d`d`d`d`d`d`s`k`P`k`k`E`d`d`d`d`d`d`d`d`d`d`d`d`d`d`d`d`d`d`d`B`d`d`B`d`d`d`d`B``",
"`v`M`x`M`M`A`A`M`A`A`M`A`A`A`M`x`A`A`M`x`A`M`A`x`M`A`x`A`M`t`q`k`P`v`g`x`j`A`j`A`x`x`x`j`x`x`x`x`x`A`x`M`x`x`x`x`x`M`x`x`x`x`x`H",
"`W`p`h`g`h`g`l`h`g`h`h`l`h`g`h`g`h`l`g`h`g`g`l`h`g`h`l`g`g`M`#`P`k`v`.`h`g`h`g`l`g`g`h`g`l`g`h`l`g`h`g`h`Q`h`Q`g`h`h`l`g`l`g`h`#",
"`L`Q`Q`h`l`g`h`g`l`g`h`g`l`g`h`l`g`h`g`g`h`h`g`l`g`l`g`h`h`M`q`k`k`v`.`l`g`h`l`g`h`g`l`h`g`l`h`g`h`l`g`g`h`g`g`g`l`g`g`h`g`h`g`G",
"`v`p`g`h`g`l`g`l`g`h`l`g`g`h`l`g`h`l`g`l`g`l`g`h`h`g`g`h`l`M`q`k`k`v`.`h`l`g`h`g`l`h`g`h`g`h`h`l`g`g`h`l`g`l`h`h`g`h`l`g`h`l`h`#",
"`L`Q`l`g`h`h`g`h`l`h`g`h`l`g`h`h`l`g`h`h`g`h`l`g`g`l`h`g`g`M`q`k`P`b`.`g`h`h`g`l`g`h`l`h`g`l`g`h`g`l`h`g`h`g`h`l`g`g`h`g`h`g`g`G",
"`W`p`h`l`g`l`h`l`g`h`l`g`h`l`g`h`g`h`l`g`l`g`h`l`g`h`g`l`g`c`q`k`k`v`.`l`g`l`g`h`g`g`g`l`g`g`h`g`h`h`h`l`g`h`g`h`g`g`g`l`h`g`h`G",
"`b`l`g`h`g`l`h`g`g`g`h`l`g`h`g`l`g`h`g`h`h`l`g`g`h`l`h`g`h`M`G`P`k`b`.`g`h`g`l`h`h`l`g`g`g`h`l`g`l`g`g`g`g`l`g`l`g`l`h`g`l`g`h`#",
"`L`S`l`g`l`h`g`l`h`l`h`g`l`g`l`g`h`l`g`l`g`g`h`h`g`h`l`g`h`M`q`k`k`v`.`l`g`h`h`l`g`g`h`h`l`g`h`g`h`g`l`h`g`h`g`h`g`h`g`h`h`g`l`q",
"`W`l`h`h`g`l`g`h`g`h`l`g`h`g`h`g`l`g`h`h`g`l`g`l`g`h`h`l`g`M`G`P`k`b`.`g`h`l`g`g`h`g`g`l`g`h`l`h`g`h`g`h`l`h`l`g`g`h`l`g`l`g`h`#",
"`L`S`Q`g`l`h`h`l`g`h`h`l`h`l`g`l`h`h`l`g`h`g`g`l`h`l`g`h`g`M`q`k`P`v`.`h`l`g`h`l`g`h`l`g`h`l`g`g`l`h`g`h`g`g`g`g`l`g`h`g`h`g`l`3",
"`v`l`h`l`g`g`Q`g`h`l`g`g`g`l`h`g`g`l`g`h`l`h`l`h`g`g`g`l`h`M`G`k`k`b`.`g`h`g`h`g`h`h`h`h`g`g`l`h`g`h`l`h`l`g`l`h`g`h`l`g`l`h`g`#",
"`L`S`g`h`h`h`g`h`l`g`h`l`h`g`h`l`g`h`l`g`g`h`g`h`l`h`h`l`g`c`q`k`P`v`.`l`h`l`g`l`g`l`g`l`g`h`g`h`l`g`h`g`g`h`g`h`l`g`g`h`g`h`h`G",
"`b`Q`h`l`h`l`g`l`h`l`g`l`g`l`g`l`h`g`h`l`h`l`h`g`l`g`l`g`h`M`G`P`k`b`.`h`g`g`h`g`h`h`h`g`h`l`g`l`g`h`l`g`h`l`h`g`h`l`g`h`l`g`l`#",
"`v`p`h`l`g`l`h`g`g`h`h`h`Q`h`h`g`g`l`g`h`g`l`g`l`h`h`h`h`l`M`q`k`P`b`y`h`l`g`l`h`l`g`l`g`g`l`g`h`g`h`g`h`l`g`l`g`g`h`g`l`g`h`g`G",
"`L`Q`h`g`l`g`Q`h`l`g`l`g`g`l`g`l`h`g`l`h`l`h`h`g`h`l`g`l`g`A`G`k`P`L`.`g`h`h`l`g`g`h`g`l`h`g`h`l`g`l`h`l`g`g`g`l`g`h`l`g`h`g`h`#",
"`v`Y`g`l`g`h`h`g`h`l`g`h`h`g`h`h`l`h`g`h`g`h`l`g`h`g`l`g`h`M`q`k`k`v`.`l`g`h`g`h`l`g`h`g`h`l`g`h`g`g`g`h`h`l`h`g`l`g`h`h`l`h`g`G",
"`L`p`Q`h`h`l`l`g`g`h`l`g`l`g`l`g`g`l`h`l`g`h`g`l`g`h`h`h`h`M`G`P`k`b`.`h`l`g`l`g`h`l`h`l`g`h`g`l`h`l`g`l`g`g`h`h`h`h`l`g`g`h`l`#",
"`L`y`l`p`l`Q`p`y`p`l`p`l`p`p`l`p`l`p`l`l`p`p`p`l`p`y`l`l`l`c`m`I`I`v`R`S`l`p`p`l`p`l`p`l`p`y`l`p`l`p`l`p`p`p`y`l`p`l`p`p`l`p`h`m",
"```b`b`b`b`b`L`L`b`L`b`b`L`b`b`b`L`b`L`b`L`b`L`b`L`b`b`b`b`b`````````b`b`b`L`b`b`L`b`b`b`L`b`b`L`b`b`b`L`b`L`L`b`L`b`b`L`b`L`b``"
};
