/* XPM */
static char *ac07d85f710245e4ee589b3cc2ab3c09yoaamPTMpcuQIw9U[] = {
/* columns rows colors chars-per-pixel */
"64 64 217 2 ",
"   c None",
".  c #010101",
"X  c #080704",
"o  c #0B0905",
"O  c #0F0E09",
"+  c #120F07",
"@  c #130E08",
"#  c #151209",
"$  c #1A160A",
"%  c #1A1508",
"&  c #161510",
"*  c #231B0A",
"=  c #2C220B",
"-  c #36290D",
";  c #3B2D0E",
":  c #3B2E13",
">  c #322912",
",  c #3B3317",
"<  c #2E2414",
"1  c #3B3826",
"2  c #4C3A12",
"3  c #463A1A",
"4  c #453717",
"5  c #533F14",
"6  c #4B390F",
"7  c #433E33",
"8  c #5B4619",
"9  c #5A4617",
"0  c #4F471F",
"q  c #634B17",
"w  c #694F15",
"e  c #624D1B",
"r  c #6D5116",
"t  c #6A511A",
"y  c #735516",
"u  c #71561A",
"i  c #74591C",
"p  c #7C5C19",
"a  c #795916",
"s  c #7F601C",
"d  c #585536",
"f  c #564A30",
"g  c #614E20",
"h  c #6A5421",
"j  c #7C6528",
"k  c #615F48",
"l  c #6C6649",
"z  c #726E57",
"x  c #7C7B59",
"c  c #747244",
"v  c #7A7A64",
"b  c #805F1A",
"n  c #84631C",
"m  c #88661B",
"M  c #8D691C",
"N  c #926D1D",
"B  c #9D751D",
"V  c #A3791E",
"C  c #8E6C22",
"Z  c #866925",
"A  c #926E20",
"S  c #80702E",
"D  c #967121",
"F  c #9C7623",
"G  c #9E7926",
"H  c #9D7928",
"J  c #967632",
"K  c #A57C21",
"L  c #A97E21",
"P  c #A07620",
"I  c #96883A",
"U  c #AC8124",
"Y  c #AA832C",
"T  c #AA852A",
"R  c #B28525",
"E  c #B68825",
"W  c #BB8D27",
"Q  c #B48B2D",
"!  c #BB8E29",
"~  c #AB8633",
"^  c #AC8932",
"/  c #A18235",
"(  c #B28D35",
")  c #BD9332",
"_  c #B79639",
"`  c #AE9435",
"'  c #C3932B",
"]  c #CA972B",
"[  c #CB9A2D",
"{  c #C59429",
"}  c #D19D2C",
"|  c #CC9D32",
" . c #C69B37",
".. c #D19F31",
"X. c #C08F27",
"o. c #D5A12F",
"O. c #CEA238",
"+. c #D3A233",
"@. c #DBA935",
"#. c #D1A43D",
"$. c #D5AB3B",
"%. c #DCAB3A",
"&. c #D9A835",
"*. c #DCB23F",
"=. c #E4AD35",
"-. c #E1AE3A",
";. c #E6B23B",
":. c #EAB43B",
">. c #EDB93D",
",. c #E9B136",
"<. c #F1BD3E",
"1. c #F7C23F",
"2. c #BB9844",
"3. c #BA9946",
"4. c #BFA050",
"5. c #BAB559",
"6. c #AEA946",
"7. c #818068",
"8. c #95917A",
"9. c #A8A46A",
"0. c #C39D44",
"q. c #CDA442",
"w. c #C3A34F",
"e. c #CAA54B",
"r. c #CBA94F",
"t. c #D6AB42",
"y. c #DBAE43",
"u. c #D4A844",
"i. c #DCB143",
"p. c #DAB648",
"a. c #C6A552",
"s. c #DDB350",
"d. c #E3B443",
"f. c #E4B943",
"g. c #EDBA42",
"h. c #EDBC4A",
"j. c #F1BC42",
"k. c #F1BE4A",
"l. c #D2C856",
"z. c #ECC145",
"x. c #ECC64B",
"c. c #EECB4C",
"v. c #F4C245",
"b. c #F9C347",
"n. c #F5C54C",
"m. c #FBC64A",
"M. c #F6CB4C",
"N. c #FECC4C",
"B. c #F9C842",
"V. c #F4D14E",
"C. c #FFD14F",
"Z. c #FCD047",
"A. c #FBCD52",
"S. c #F7C954",
"D. c #F6D451",
"F. c #FFD452",
"G. c #FEDA55",
"H. c #FEDE58",
"J. c #FDD65D",
"K. c #FEE25B",
"L. c #FFE95E",
"P. c #FDE257",
"I. c #D4CE64",
"U. c #FDDE6C",
"Y. c #FBD966",
"T. c #FAD573",
"R. c #F7D777",
"E. c #F4D672",
"W. c #FEE363",
"Q. c #FFEC62",
"!. c #FDE56C",
"~. c #FFED6B",
"^. c #FFF265",
"/. c #FFF46C",
"(. c #FFF86C",
"). c #FCED78",
"_. c #FFF373",
"`. c #FFFD75",
"'. c #FFF57A",
"]. c #FFFA7A",
"[. c #E9E57B",
"{. c #AFAB99",
"}. c #C0BEAF",
"|. c #D4D490",
" X c #F8D785",
".X c #FAE788",
"XX c #FFF483",
"oX c #FFFD8D",
"OX c #FFF987",
"+X c #FEEF9C",
"@X c #FCE495",
"#X c #FEF494",
"$X c #FFFA93",
"%X c #FEFB9C",
"&X c #FFF49D",
"*X c #EAE682",
"=X c #C6C5AB",
"-X c #FDEDA3",
";X c #FBE4AA",
":X c #FFFDA4",
">X c #FFFEAD",
",X c #FFF3A5",
"<X c #FEFEB4",
"1X c #FFFEBD",
"2X c #FCF5BD",
"3X c #FBEEB4",
"4X c #E2DDC8",
"5X c #EBEAC4",
"6X c #FFFEC4",
"7X c #FFFECA",
"8X c #FFFFD2",
"9X c #FFFEDE",
"0X c #EBEAD0",
"qX c #FFFFED",
"wX c #FEFCE6",
"eX c #FFFFF2",
"rX c #EEEDE2",
/* pixels */
"                                                                                                                                ",
"                                                                                                                                ",
"                                                                                                                                ",
"                                                                                                                                ",
"                                                                                                                                ",
"                                                                                                                                ",
"                                                                                                                                ",
"                                                    . . . . . X X X . . . . .                                                   ",
"                                              . . X & 1 k v v 7.7.x x c d , O X . .                                             ",
"                                          . . O d 8.{.=X5X8X8X7X1X<X>X$X*Xl.6.I 0 o . .                                         ",
"                                      . . o l }.4XqX9X1X:XoXXX'.'.'.'.`.].`.`.~.x.` e O . .                                     ",
"                                  . . X d }.rXeX7X#X'.~.W.P.G.F.F.G.H.P.K.Q.Q./.(.P.z.) 0 X .                                   ",
"                                . X 7 {.qXwX<X/.K.D.x.d.#.0.0.2.2.0.0.q.$.f.x.F.P.L.L.G.1.T ; . .                               ",
"                              . X z 4XwX1XOXK.x.t. .3.4.a.w.e.e.e.r.r.a.a.a.0.q.p.c.P.P.F.1...6 X .                             ",
"                            . O z 9X9X:X~.D.#.F Z J 3.0.e.q.t.y.i.d.i.p.s.u.0.~ F E i.V.H.G.v.] 9 + .                           ",
"                          . o x 0X8XoXK.p.Y p t C Q q.d.h.n.S.A.A.F.F.S.S.n.h. .T m D ) z.G.G.>.{ 8 o .                         ",
"                        . o l 5X8X'.H.t.C r s Y | h.S.A.J.G.H.G.H.G.H.H.G.G.F.N.h. .P N U >.G.C.>.' 5 X .                       ",
"                      . X l 2X6X'.D.' y r H #.h.A.G.H.H.P.H.H.G.G.H.G.G.H.G.G.G.J.F.n. .F N $.F.C.;.[ 4 . .                     ",
"                      . 1 |.1XXXH. .y a Y t.n.F.G.P.H.G.G.H.G.H.G.G.G.G.G.F.G.F.F.F.F.A.$.U B ;.F.Z.@.R + .                     ",
"                    . . 9.1X$XW.$.y a T i.n.F.H.G.G.G.G.G.F.G.F.G.F.G.F.F.F.G.G.G.F.F.F.F.d.Y R z.C.v.} t X .                   ",
"                    . 3 :X:X~.z.N w Y y.S.F.G.G.F.F.F.C.N.F.F.F.F.C.C.C.C.C.F.C.F.F.F.F.F.F.d.L ' M.C.;.U - .                   ",
"                  . X 5.:X'.D.Q y F y.S.F.G.F.N.N.N.N.m.N.m.m.M.n.b.m.n.m.m.N.m.N.N.F.F.F.F.N.| U %.C.M.' p X .                 ",
"                  . 0 *X$XL.$.s b #.n.F.F.F.m.g.;.;.;.;.;.;.;.;.;.;.;.;.;.;.;.;.>.v.N.F.F.F.F.v.! W v.F.=.V ; .                 ",
"                . X 5.$X/.c.G y Q n.G.G.G.N.g.W H Y ^ ^ ^ ^ ^ ^ ^ ^ ^ Q ^ ^ ^ ~ Y >.G.G.F.F.F.N.f.E &.C.v.' a X .               ",
"                . : I.oXL.$.a C u.A.H.G.G.N.j.B Z 3.0.a.w.w.w.w.w.w.w.w.w.w.4.3.Y c.Q.P.G.F.F.N.b.+.' x.N.+.N = .               ",
"                . S ).].D.Q y ( h.F.H.G.F.C.j.B m _ u.u.y.i.p.u.t.y.t.t.u.t.u. .[ K.^.P.G.F.F.A.N.;.W >.C.:.U 2 .               ",
"                X ` `.^.x.N Z q.S.G.G.G.F.N.>.B N t.S.M.S.M.M.n.M.S.M.b.M.b.n.h.%.K.Q.K.H.G.F.F.F.k.[ @.F.j.! q X .             ",
"              . $ 6.`.Q.i.a P f.F.H.H.F.A.N.j.B A i.F.G.F.G.F.G.G.F.F.F.F.F.C.m.>.K.Q.K.G.F.F.F.C.m.%.[ G.v.[ a % .             ",
"              . , l.(.P.O.y Q n.G.G.G.F.F.N.>.V A i.G.G.G.G.G.F.G.G.F.F.F.F.F.N.,.K.^.P.G.G.F.C.N.N.:.[ G.M.+.N = .             ",
"              . t V.Q.P.E s  .A.H.G.G.G.F.N.j.B A i.F.G.G.F.G.G.G.F.G.F.F.F.F.m.;.K.Q.P.G.C.F.C.C.N.j.o.D.N.@.V - .             ",
"              . i V.^.P.U n #.F.G.G.G.G.F.N.<.B A d.F.F.G.G.G.G.F.F.F.G.F.F.C.N.>.K.Q.P.G.F.C.C.N.N.b.=.A.N.-.L ; .             ",
"              . s V.L.P.K C i.F.G.F.G.F.C.N.j.B A i.F.F.G.F.G.F.G.F.F.F.F.F.N.m.>.K.Q.H.G.F.C.C.N.N.b.=.M.C.-.V ; .             ",
"              . i Z.L.G.K D d.F.G.G.G.F.F.m.>.B N i.F.G.G.F.C.G.C.G.C.G.C.F.C.N.,.K.Q.H.G.F.C.N.C.N.m.,.V.C.%.V 4 .             ",
"              . u B.P.G.U D i.F.G.G.F.G.N.m.j.B N i.F.F.G.F.G.F.F.C.F.F.C.C.N.N.;.K.^.P.G.F.F.N.N.N.m.<.G.F.@.V ; .             ",
"              . q >.H.G.! A y.F.F.F.F.F.F.N.>.V A i.C.G.C.G.G.F.F.F.F.C.C.C.C.b.=.P.Q.H.F.F.N.C.N.N.N.j.P.N.+.B - .             ",
"              . 2 +.F.G.+.A $.F.F.F.G.F.N.N.g.B N d.F.F.C.C.C.F.C.C.C.C.C.C.N.n.;.K.Q.P.G.F.C.N.N.n.F.v.Q.n.| N * .             ",
"              . - Q M.G.i.N O.F.F.F.F.F.F.N.<.B A %.F.F.F.F.C.F.C.C.N.C.C.N.N.n.=.P.Q.P.F.F.C.N.N.b.H.N.Q.v.' a * .             ",
"              . + D 1.G.z.B ! M.F.G.F.F.N.N.g.B A y.N.F.C.C.C.C.C.C.C.C.C.N.N.m.=.P.L.G.G.C.N.N.N.n.H.P.H.>.U q + .             ",
"                . n =.V.M.! U g.F.C.F.F.C.N.j.B A $.A.N.C.A.A.N.N.N.m.N.N.n.N.k.@.H.Q.G.F.C.N.N.m.J.G.~.A.-.B 2 X               ",
"                . 5 { Z.G.$.B %.N.F.F.F.N.N.j.K ~ .X+X-X+X-X+X-X+X+X+X+X+X+X+X-XE.L.Q.G.F.N.N.m.b.J.Q.~.n.[ m ; .               ",
"                . % P ;.G.z.E ! v.F.F.C.C.C.N.;.E.<X<X<X<X<X<X<X<X<X<X>X>X>X>X>X1X%XQ.G.F.N.N.m.A.!._.Y.j.U t % .               ",
"                  . p [ m.C.$.U %.N.C.F.F.F.P._.oXoX$XoXoX$XoX$XoXoXoXoXoXoXoXoXoX].Q.G.A.N.N.m.U.'._.F.+.M 6 .                 ",
"                  . * R ;.C.c.) ! b.F.C.C.G.G.L.L.^.^.^.^.^.^.^.^.^.^.^.^.^.^.L.L.K.G.C.A.m.b.J.XX'.W.v.V a * .                 ",
"                  . . u } v.C.>.W +.n.A.C.F.F.G.G.G.G.G.K.K.P.H.P.P.P.P.P.G.G.G.G.F.C.N.N.b.n.#XOX).A.&.m 2 . .                 ",
"                    . # E &.m.F.$.E -.N.N.C.F.F.F.G.F.G.F.G.F.G.F.F.F.F.F.F.C.C.C.C.N.N.m.n..X$X].J.;.U i # .                   ",
"                    . . 9 { ;.N.N.| { ;.N.N.C.N.C.C.C.C.C.F.C.F.F.F.F.F.C.C.C.N.N.N.N.m.k.@X$X$XW.n.! M - . .                   ",
"                      . % p { >.N.M.+.{ ;.N.N.N.N.C.N.C.C.N.N.N.N.C.N.C.N.N.N.m.N.m.b.S.@X%X:X!.m.[ N q X .                     ",
"                        . * m ! :.F.F.;...=.j.m.N.N.N.N.C.N.Z.C.N.N.N.N.N.N.m.m.b.n.T.-X>X%X!.v.[ N w % .                       ",
"                        . . - M ! >.N.C.z.@.%.1.n.m.N.N.N.N.m.m.m.m.N.n.N.m.m.k.Y.@X<X:X#XY.b.[ N w * .                         ",
"                          . . - M W *.m.F.V.1.>.v.C.F.S.m.n.m.m.m.b.m.b.k.S. X@X-X<X:X.XJ.v.[ N r = . .                         ",
"                            . . = M E +.j.C.F.G.H.^._.'.XXR.T.T.T.T. X;X;X3X6X7X<X.X!.M.;.E N q * . .                           ",
"                              . . * y K ! %.B.F.H.Q.`.OXOXoX$X#X%X,X,X1X7X8X<XXX!.A.>.O.K m 8 + . .                             ",
"                                  . X : n B E %.g.b.N.G.K.'.'.oX$X$X#X).Y.G.N.j.:.' B p r > . .                                 ",
"                                    . . + 9 p P U [ &.;.j.j.b.n.m.m.n.k.g.d...! P n r 4 @ . .                                   ",
"                                      . . . $ 8 i D T Q ' | O.#.+.#...' Q L F b e 4 $ . . .                                     ",
"                                          . . . # , 8 h j / ( _ _ ( ~ J j e 0 ; # . . .                                         ",
"                                                . . . o % > 4 3 3 4 : < $ O . . .                                               ",
"                                                      . . . . . . . . . .                                                       ",
"                                                                                                                                ",
"                                                                                                                                ",
"                                                                                                                                ",
"                                                                                                                                ",
"                                                                                                                                ",
"                                                                                                                                "
};
