/* XPM */
static char *fd65732cf3794bf49fee8d7baaebfe5co3Ne3h2qYa0wdie6[] = {
/* columns rows colors chars-per-pixel */
"64 64 22 1 ",
"  c None",
". c #C8800D",
"X c #CA800C",
"o c #C8800E",
"O c #C9800E",
"+ c #C9810E",
"@ c #CB820E",
"# c #CE840E",
"$ c #D0860E",
"% c #D3870F",
"& c #D6890F",
"* c #D88B0F",
"= c #DB8C0F",
"- c #DE8E10",
"; c #E09010",
": c #E39110",
"> c #E59310",
", c #E89511",
"< c #EB9611",
"1 c #ED9811",
"2 c #F09A11",
"3 c #F39C12",
/* pixels */
"                                                                ",
"                                                                ",
"                                                                ",
"                                                                ",
"                                                                ",
"                                                                ",
"                                                                ",
"                                                                ",
"                                                                ",
"                                                                ",
"                                                                ",
"                                                                ",
"                                                                ",
"                                                                ",
"                                                                ",
"                                                                ",
"                                                                ",
"                                                                ",
"                             +..+..                             ",
"                          ++++++++++++                          ",
"                        .++$;>,,,,>-$+++                        ",
"                       ++%,3333333333,$++                       ",
"                      ++-33333333333333-++                      ",
"                     ++-3333333333333333-++                     ",
"                    .+-33333<=%%$%-,33333&+.                    ",
"                    +#13333&++++++++$<3333#+                    ",
"                   ++>3333$++++++++++$3333>++                   ",
"                   +$3333=++++%>>%+++.-3333$+                   ",
"                  .+;333,+++++,331@o+++<333;+.                  ",
"                  ++,333=+++++3333o@++.-333,++                  ",
"                  ++3333#+++++3333@ooo.#3333++                  ",
"                  ++3333++++++3333ooooo.3333++                  ",
"                  ++3333++++++3333@o@+++3333++                  ",
"                  ++3333#+++++3333o@+++@3333++                  ",
"                  .+,333%+++++3333oo+++&333,+.                  ",
"                  .+;333>+++++,331o@+++>333;+.                  ",
"                   +%3333$++++=31-++++$3333%+                   ",
"                   ++<333<#++++++++++@1333<++                   ",
"                    +%3333<=++++++++&13333$+                    ",
"                    ++=33333>%++++%:33333;++                    ",
"                     ++:3333333333333333>++                     ",
"                     +++=33333333333333*+++                     ",
"                       ++&<3333333333<&++                       ",
"                        +++&>133331>&+++                        ",
"                         +++++++@@+++++                         ",
"                            ++++++++                            ",
"                                                                ",
"                                                                ",
"                                                                ",
"                                                                ",
"                                                                ",
"                                                                ",
"                                                                ",
"                                                                ",
"                                                                ",
"                                                                ",
"                                                                ",
"                                                                ",
"                                                                ",
"                                                                ",
"                                                                ",
"                                                                ",
"                                                                ",
"                                                                "
};
