/* XPM */
static char *c87b035c52b24b4187bef904c2b65292cIOJsbcNvRtqLTEB[] = {
/* columns rows colors chars-per-pixel */
"64 64 32 1 ",
"  c None",
". c #C9810E",
"X c #CB820E",
"o c #CE840E",
"O c #D0860E",
"+ c #D3870F",
"@ c #D6890F",
"# c #D88B0F",
"$ c #DB8C0F",
"% c #E39110",
"& c #E59310",
"* c #EB9611",
"= c #ED9811",
"- c #F09A11",
"; c #F39C12",
": c #F39D17",
"> c #F3A121",
", c #F3A327",
"< c #F3A52C",
"1 c #F3A731",
"2 c #F3A936",
"3 c #F3AB3C",
"4 c #F3AE46",
"5 c #F3B04B",
"6 c #F3B251",
"7 c #F3B456",
"8 c #F3B65B",
"9 c #F2BA65",
"0 c #F3BA65",
"q c #F2B966",
"w c #F3B966",
"e c #F3BA66",
/* pixels */
"                                                                ",
"                                                                ",
"                                                                ",
"                                                                ",
"                                                                ",
"                                                                ",
"                                                                ",
"                                                                ",
"                                                                ",
"                                                                ",
"                                                                ",
"                                                                ",
"                                                                ",
"                                                                ",
"                                                                ",
"                                                                ",
"                                                                ",
"                                                                ",
"                             eeeeee                             ",
"                          eeeeeeeeeeee                          ",
"                        eee73<,,,,<37eee                        ",
"                       ee5<;;;;;;;;;;,6ee                       ",
"                      ee3;;;;;;;;;;;;;;3ee                      ",
"                     ee3;;;;;;;;;;;;;;;;3ee                     ",
"                    ee4;;;;;*$++++#*;;;;;4ee                    ",
"                    e8:;;;-@........+*;;;:8e                    ",
"                   ee<;;;;@..........+;;;;<ee                   ",
"                   e7;;;;$....+&&+....$;;;;7e                   ",
"                  ee2;;;*.....*;;*.....*;;;2ee                  ",
"                  ee,;;;@.....;;;;.....@;;;,ee                  ",
"                  ee;;;;o.....;;;;.....o;;;;ee                  ",
"                  ee;;;;......;;;;......;;;;ee                  ",
"                  ee;;;;......;;;;......;;;;ee                  ",
"                  ee;;;;o.....;;;;......;;;;ee                  ",
"                  9e,;;;@.....;;;;.....@;;;,ee                  ",
"                  ee2;;;&.....=;;=.....&;;;2ee                  ",
"                   e6;;;;o....$==$....+;;;;6e                   ",
"                   ee>;;;=o..........X=;;;>ee                   ",
"                    e6;;;;=@........@=;;;;6e                    ",
"                    ee3;;;;;%+....+%;;;;;3ee                    ",
"                     ee1;;;;;;;;;;;;;;;;1ee                     ",
"                     eee4;;;;;;;;;;;;;;4eee                     ",
"                       ee5>;;;;;;;;;;>5ee                       ",
"                        eee5<:;;;;:<5eee                        ",
"                         eeeeeee0000eee                         ",
"                            eeee0000                            ",
"                                                                ",
"                                                                ",
"                                                                ",
"                                                                ",
"                                                                ",
"                                                                ",
"                                                                ",
"                                                                ",
"                                                                ",
"                                                                ",
"                                                                ",
"                                                                ",
"                                                                ",
"                                                                ",
"                                                                ",
"                                                                ",
"                                                                ",
"                                                                "
};
