/* XPM */
static char *efcb5dec11e94b5583f51b406662366fX5NtIpQsxeGTxWHv[] = {
/* columns rows colors chars-per-pixel */
"64 64 56 1 ",
"  c None",
". c gray30",
"X c #545351",
"o c #5B5A56",
"O c #61564C",
"+ c #63605B",
"@ c #6A6760",
"# c #726E65",
"$ c #79746A",
"% c #9F744B",
"& c #A1754C",
"* c #AA7B4F",
"= c #A17850",
"- c #A37950",
"; c #AB7E53",
": c #817B6F",
"> c #AD8258",
", c #AE865D",
"< c #888274",
"1 c #8F8878",
"2 c #978F7D",
"3 c #AC8D69",
"4 c #B08A62",
"5 c #B59570",
"6 c #B79975",
"7 c #B69D7D",
"8 c #BAA07E",
"9 c #9E9582",
"0 c #A69C87",
"q c #ADA38C",
"w c #BBA483",
"e c #B4A68B",
"r c #B3A68C",
"t c #B4A78C",
"y c #B5A88C",
"u c #B6A98D",
"i c #B7AA8E",
"p c #B8AB8F",
"a c #BDAA8C",
"s c #BFAB8C",
"d c #B5A991",
"f c #B9AC90",
"g c #BAAD91",
"h c #BBAE92",
"j c #BCAF93",
"k c #BDB094",
"l c #BEB195",
"z c #BCB096",
"x c #BFB296",
"c c #C0AF91",
"v c #C0B397",
"b c #C2B396",
"n c #C1B498",
"m c #C2B599",
"M c #C3B69A",
"N c #C4B79B",
/* pixels */
"                                                                ",
"                                                                ",
"                                                                ",
"                                                                ",
"                           yrytttttty                           ",
"                       tryrryrrrttttryttt                       ",
"                    ytttyhhxxmxmvvvvxjptrttt                    ",
"                  yttyklMNMMNNMNNNNMMNNNxhtttt                  ",
"                tttylNNNNNNNNNNNNNNNNNNNNNMjyryy                ",
"               tttlNNNNNNNNNNNNNNNNNNNNNNNNNMxyrt               ",
"              ttkNNNNNNNNNNNNNNNNNNNMNNNNNNNNNMhtt              ",
"            ttyvNNNNNNNNNd91@@@+@@@#<0xNNNNNNNMNxttt            ",
"            tyNNNNNNNNz1+..............#2NNNNNNNMMer            ",
"           ryMNNNNNNN<...................o1NNNNNNNmtt           ",
"          eyxNNNNNN9X......................@qNNNNNMxrt          ",
"         rrxNNNNNz#..........................2NNNNNMxtr         ",
"        ttaNNNNNz+............................$NNNNNNayr        ",
"       yttNNNNNN1..............................:NNNNNmpty       ",
"       ttmNNNNN7O...............................3NNNNNmtt       ",
"      ttkNNNNNa-O...............................%7NNNNNjtt      ",
"      tymNNNNc-%O...............................%%wNNNNmyr      ",
"     erxNNNNN,&%O...............................%%;mNNNNxye     ",
"     teMNNNN8*&%O...............................%%*6NNNNMer     ",
"    ethNNNNN>*&%O...............................%%**vNNNNhye    ",
"    ttxNNNN8**&%O...............................%%**6NNNNxtt    ",
"    ttNNNNN,**&%O...............................%%**>NNNNNtt    ",
"    rpNNNNb***&%O...............................%%***sNNNNpt    ",
"   erxNNNN7***&%O...............................%%***6NNNNkte   ",
"   ttvNNNN5***&%O...............................%%***4MNNNxyy   ",
"   yrMNNNN4***&%O...............................%%***;MNNNMrt   ",
"   reNNNNN4***&%O...............................%%****NNNNNyy   ",
"   yyMNNNN>***&&O...............................%%***;NNNNMyr   ",
"   ttNNNNN****&%O...............................%%****NNNNNtt   ",
"   ttNNNNN****&%O...............................%%****NNNNNtt   ",
"   ttNNNNN****&%O...............................%%****NNNNNtt   ",
"   ttNNNNN****&%O...............................%%****NNNNNet   ",
"   ttNNNNN****&%O...............................%%****NNNNNtt   ",
"   ttNNNNN****&%O...............................%%****NNNNNtt   ",
"   ttNNNNN****&%O...............................%%****NNNNNtt   ",
"   ttNNNNN****&%O...............................%%****NNNNNtt   ",
"   ttNNNNN****&%O...............................%%****NNNNNtt   ",
"   ttNNNNN****&%O...............................%%****NNNNNtt   ",
"   ttNNNNN****&%O...............................%%****NNNNNtt   ",
"   ttNNNNN****&%O...............................%%****NNNNNtt   ",
"   ttNNNNN****&%O...............................%%****NNNNNtt   ",
"   ttNNNNN****&%O...............................%%****NNNNNtt   ",
"   ttNNNNN****&%O...............................%%****NNNNNtt   ",
"   ttNNNNN****&%O...............................%%****NNNNNtt   ",
"   ttNNNNN****&%O...............................%%****NNNNNtt   ",
"   ttNNNNN****&%O...............................%%****NNNNNtt   ",
"   ttNNNNN****&%O...............................%%****NNNNNtt   ",
"   ttNNNNN****&%O...............................%%****NNNNNtt   ",
"   ttNNNNN****&%O...............................%%****NNNNNtt   ",
"   ttNNNNN****&%O...............................%%****NNNNNtt   ",
"   ttNNNNN****&%O...............................%%****NNNNNtt   ",
"   ttNNNNN****&%O...............................%%****NNNNNtt   ",
"   ttNNNNN****&%O...............................%%****NNNNNtt   ",
"   ttNNNNN****&%O...............................%%****NNNNNtt   ",
"   ttNNNNN****&%O...............................%%****NNNNNtt   ",
"   ttNNNNN****&%O...............................%%****NNNNNtt   ",
"   ttNNNNN****&%O...............................%%****NNNNNtt   ",
"   ttNNNNN****&%O...............................%%****NNNNNtt   ",
"   ttNNNNN****&%O...............................%%****NNNNNtt   ",
"   ttNNNNN****&%O...............................%%****NNNNNtt   "
};
