/* XPM */
static char *_25026b0c24a4185db8ee25a5becf498RbG4OSi00OSpTb2n[] = {
/* columns rows colors chars-per-pixel */
"64 64 48 1 ",
"  c None",
". c #9F744B",
"X c #A0744B",
"o c #A1754B",
"O c #A1754C",
"+ c #A2764C",
"@ c #A3764C",
"# c #A4774D",
"$ c #A5774D",
"% c #A5784D",
"& c #A6784D",
"* c #A7794E",
"= c #A87A4E",
"- c #A97A4E",
"; c #AA7B4F",
": c #A17850",
"> c #A37C55",
", c #A5805A",
"< c #A8845F",
"1 c #AA8864",
"2 c #AC8D69",
"3 c #B19573",
"4 c #B39978",
"5 c #B69D7D",
"6 c #B8A282",
"7 c #BAA687",
"8 c #B4A68B",
"9 c #B3A68C",
"0 c #B4A78C",
"q c #B5A88C",
"w c #B6A98D",
"e c #B7AA8E",
"r c #B8AB8F",
"t c #BDAA8C",
"y c #B9AC90",
"u c #BAAD91",
"i c #BBAE92",
"p c #BFAE91",
"a c #BCAF93",
"s c #BDB094",
"d c #BEB195",
"f c #BFB296",
"g c #C1B296",
"h c #C0B397",
"j c #C1B498",
"k c #C2B599",
"l c #C3B69A",
"z c #C4B79B",
/* pixels */
"                                                                ",
"                                                                ",
"                                                                ",
"                                                                ",
"                           0000000000                           ",
"                       000000000000000000                       ",
"                    q9000yaahhhhhhhhfay98000                    ",
"                  q9qqifzzzzzzzzzzzllzzzfi0000                  ",
"                000qflzzzzzzzzzzzzzzzzzzzzzpq800                ",
"               09qfzzzzzzzzzzzzzzzzzzzzzzzzzlfq00               ",
"              00pzzzzzzzzzzzzzlzllzzzzzzzzzzzzzr00              ",
"            00qhzzzzzzzzzt63<<<1<<1137hzzzzzzzzzf000            ",
"            0qzzzzzzzzh4,...O.....X...X15zlzzzzzll89            ",
"           9qlzzzzzzz3.oO.O#%%%OX%==#OXO.>4lzzzzzzj0q           ",
"          8qfzzzzzz6O.Oo%==;;;;.X=;;=;=%OO.1tzzzzzzf98          ",
"         99fzzzzzh1..O%;;;;;;;;..=;;;;;;=%O..5zzzzzlf09         ",
"        90izzzzzh,..#;;;;;;;;;;.O;;;;;;;;;=%..2lzzzzzi98        ",
"       q0qlzzzzz4.O==;;;;;;;;;;.o;;;;;;;;;;;=O.3zzzzzlqqq       ",
"       00lzzzzz5..%;;;;;;;;;;;;..=;;;;;;;;;;;=OO5zzzzzj00       ",
"      00pzzzzz5..%;;;;;;;;;;;;;.O;;;;;;;;;;;;;%O.5zzzzzs00      ",
"      0qlzzzzt:O=;;;;;;;;;;;;;;..;;;;;;;;;;;;;;%.#tllzzlq9      ",
"     89fzzzzz<.%;;;;;;;;;;;;;;;..=;;;;;;;;;;;;;;#.1zzzzzfq8     ",
"     08lzzzz4.O;;;;;;;;;;;;;;;;.O;;;;;;;;;;;;;;;;O.4zzzzl89     ",
"    80izzzzz:.%;;;;;;;;;;;;;;;;..;;;;;;;;;;;;;;;;%.:zzzzziq8    ",
"    00fzzzz5.O;;;;;;;;;;;;;;;;;..=;;;;;;;;;;;;;;;;O.5zzzzf00    ",
"    00zzzzz,o%;;;;;;;;;;;;;;;;;.O;;;;;;;;;;;;;;;;;%.,zzzzz00    ",
"    9rzzzzp..;;;;;;;;;;;;;;;;;;..;;;;;;;;;;;;;;;;;;O.pzzzzr0    ",
"   89fzzzz5.%;;;;;;;;;;;;;;;;;;..=;;;;;;;;;;;;;;;;;O.5zzzzs08   ",
"   00hzzzz2.%;;;;;;;;;;;;;;;;;;.O;;;;;;;;;;;;;;;;;;%.1zzzzfqq   ",
"   q9lzzzz<.%;;;;;;;;;;;;;;;;;;..;;;;;;;;;;;;;;;;;;=.1zzzzl90   ",
"   98zzzzz..;;;;;;;;;;;;;;;;;;;..=;;;;;;;;;;;;;;;;;;..zzzzzqq   ",
"   qqlzzzz..;;;;;;;;;;;;;;;;;;;.O;;;;;;;;;;;;;;;;;;;..zzzzlq9   ",
"   00zzzzz..;;;;;;;;;;;;;;;;;;;..=;;;;;;;;;;;;;;;;;;..zzzzz00   ",
"   00zzzzz..;;;;;;;;;;;;;;;;;;;.O;;;;;;;;;;;;;;;;;;;..zzzzz00   ",
"   00zzzzz..;;;;;;;;;;;;;;;;;;;..;;;;;;;;;;;;;;;;;;;..zzzzz00   ",
"   00zzzzz..;;;;;;;;;;;;;;;;;;;..=;;;;;;;;;;;;;;;;;;..zzzzz00   ",
"   00zzzzz..;;;;;;;;;;;;;;;;;;;.O;;;;;;;;;;;;;;;;;;;O.zzzzz00   ",
"   00zzzzz..;;;;;;;;;;;;;;;;;;;..;;;;;;;;;;;;;;;;;;;..zzzzz00   ",
"   00zzzzz..;;;;;;;;;;;;;;;;;;;..=;;;;;;;;;;;;;;;;;;..lzzzz00   ",
"   00zzzzz..;;;;;;;;;;;;;;;;;;;.O;;;;;;;;;;;;;;;;;;;..zzzzz00   ",
"   00zzzzz..;;;;;;;;;;;;;;;;;;;..;;;;;;;;;;;;;;;;;;;..zzzzz00   ",
"   00zzzzz..;;;;;;;;;;;;;;;;;;;..=;;;;;;;;;;;;;;;;;;..zzzzz00   ",
"   00zzzzz..;;;;;;;;;;;;;;;;;;;.O;;;;;;;;;;;;;;;;;;;..zzzzz00   ",
"   00zzzzz..;;;;;;;;;;;;;;;;;;;..;;;;;;;;;;;;;;;;;;;..zzzzz00   ",
"   00zzzzz..;;;;;;;;;;;;;;;;;;;..=;;;;;;;;;;;;;;;;;;..zzzzz00   ",
"   00zzzzz..;;;;;;;;;;;;;;;;;;;.O;;;;;;;;;;;;;;;;;;;..zzzzz00   ",
"   00zzzzz..;;;;;;;;;;;;;;;;;;;..;;;;;;;;;;;;;;;;;;;..zzzzz00   ",
"   00zzzzz..;;;;;;;;;;;;;;;;;;;..=;;;;;;;;;;;;;;;;;;..zzzzz00   ",
"   00zzzzz..;;;;;;;;;;;;;;;;;;;..;;;;;;;;;;;;;;;;;;;..zzzzz00   ",
"   00zzzzz..;;;;;;;;;;;;;;;;;;;..;;;;;;;;;;;;;;;;;;;..zzzzz00   ",
"   00zzzzz..;;;;;;;;;;;;;;;;;;;..;;;;;;;;;;;;;;;;;;;..zzzzz00   ",
"   00zzzzz..;;;;;;;;;;;;;;;;;;;..;;;;;;;;;;;;;;;;;;;..zzzzz00   ",
"   00zzzzz..;;;;;;;;;;;;;;;;;;;..;;;;;;;;;;;;;;;;;;;..zzzzz00   ",
"   00zzzzz..;;;;;;;;;;;;;;;;;;;..;;;;;;;;;;;;;;;;;;;..zzzzz00   ",
"   00zzzzz..;;;;;;;;;;;;;;;;;;;..;;;;;;;;;;;;;;;;;;;..zzzzz00   ",
"   00zzzzz..;;;;;;;;;;;;;;;;;;;..;;;;;;;;;;;;;;;;;;;..zzzzz00   ",
"   00zzzzz..;;;;;;;;;;;;;;;;;;;..;;;;;;;;;;;;;;;;;;;..zzzzz00   ",
"   00zzzzz..;;;;;;;;;;;;;;;;;;;..;;;;;;;;;;;;;;;;;;;..zzzzz00   ",
"   00zzzzz..;;;;;;;;;;;;;;;;;;;..;;;;;;;;;;;;;;;;;;;..zzzzz00   ",
"   00zzzzz..;;;;;;;;;;;;;;;;;;;..;;;;;;;;;;;;;;;;;;;..zzzzz00   ",
"   00zzzzz..;;;;;;;;;;;;;;;;;;;..;;;;;;;;;;;;;;;;;;;..zzzzz00   ",
"   00zzzzz..;;;;;;;;;;;;;;;;;;;..;;;;;;;;;;;;;;;;;;;..zzzzz00   ",
"   00zzzzz............................................zzzzz00   ",
"   00zzzzz............................................zzzzz00   "
};
