/* XPM */
static char *_7b04cf2dad24516ac89d5919e93a7cd3AGzYSAAMyM9dDpp[] = {
/* columns rows colors chars-per-pixel */
"64 64 53 1 ",
"  c None",
". c #6C9725",
"X c #6B9825",
"o c #6D9B25",
"O c #6D9A26",
"+ c #6D9A27",
"@ c #6D9B27",
"# c #6E9A26",
"$ c #6E9B26",
"% c #6E9A27",
"& c #6E9B27",
"* c #6E9C26",
"= c #6E9C27",
"- c #6F9C27",
"; c #6F9D27",
": c #709E27",
"> c #719F28",
", c #71A028",
"< c #72A028",
"1 c #72A128",
"2 c #73A228",
"3 c #73A328",
"4 c #73A229",
"5 c #74A428",
"6 c #75A528",
"7 c #74A429",
"8 c #75A529",
"9 c #76A629",
"0 c #77A729",
"q c #76A62A",
"w c #76A72A",
"e c #77A82A",
"r c #78A929",
"t c #78A92B",
"y c #79AA2A",
"u c #79AA2B",
"i c #7AAB2A",
"p c #7AAB2B",
"a c #7AAC2A",
"s c #7BAD2B",
"d c #7BAD2C",
"f c #7BAE2C",
"g c #7CAE2C",
"h c #7CAF2C",
"j c #7DB02B",
"k c #7DB02C",
"l c #7EB12C",
"z c #7EB22C",
"x c #7FB22C",
"c c #7FB32C",
"v c #80B32C",
"b c #80B42C",
"n c #81B52D",
/* pixels */
"                                                                ",
"                                                                ",
"                                                                ",
"                                                                ",
"                                                                ",
"                              :@@:                              ",
"                             &&>4@@                             ",
"                             &4ds:@                             ",
"                           &&&qdpq@@@                           ",
"                         @&-47pddp<>:@@                         ",
"                        @@4ddddddddds>:                         ",
"                        @@ddddddddddp0@@                        ",
"                        @@ppdddddddddu@@                        ",
"                    @&&&:>dddddddddddu-@:@@@                    ",
"                   &:>qq0pddddddddddddduq<4@@                   ",
"                   &&pdddddddddlvdddddddpdq-:                   ",
"                   :<dddddddddlnnvddddddddp:@                   ",
"                   @>dddddddllnnnnllddddddd>@                   ",
"                   @>ddddddvnnnnnnnnvdddddd:@                   ",
"                  @:<ddddddnnnnnnnnnbdddddd:@:                  ",
"                 @&-dddddllnnnbbnnnnnldddddp&&                  ",
"                 &&qddddbnbnnbblnnnnnnbbddddq&@                 ",
"                 @>ddddvnnnnnnv<lnnnnnbbvdddw&&                 ",
"               &@@<ddddbnnnnnnnnnnnnnnnbvdddd>&--               ",
"              @&>0dddddvbbnnbbbnnnnnnnnnvdddddq-@@              ",
"             @@0ddddddlbbbnnhjbnnnnnnnnnnddddddd>:@             ",
"            @&4ddddd4:bnbbnp4qnnnnnnnnnnnvddddddh:@             ",
"            &&0ddddd>>vnnbbqq<vnnnnnnnnnnbllddddp0@             ",
"            @@0ddddvvlbnnnnvqpnnnnnnnnnnnnnbdddddp&>            ",
"            @@0ddddbbbbdbnbbbbnnnnnnnnnnnnnnvdddd0&>            ",
"            @@0ddddnbnv4qbbvlbbnnnnnnnnnnnbbbddddq&             ",
"            @:0ddddnnnvqpbd<<ubbnnnnnnnnnnnbbddddq&@            ",
"           @&4ddshdvnnnnnbh<<0nnnnnnnnnnnnnnnddddd4&:           ",
"           &4dddpu<6snnnnbvdhvnnnnnnnnnnnnnnnlddddd-@           ",
"           &<dddd>6>6hnnnnnnbbnnnnnnnnnnnnnnnnkdddd,@           ",
"           &4dddp::66hnn6hnnnbnnnnnnnnnnnnnnnnkdddd-@           ",
"           @&<dddq<<ubbnvvbbnnnnnnnnnnnnnnnnnndddd4@@           ",
"            &&qdddhlbbbnvvnnnnnnnnnnnnnnnnnnclddd4&@            ",
"             &<dddhbvq0udbnnnnnnnnnnnnnnnnnnndddd4&             ",
"            &:0dddbbh<<<<vnnnnnnnnnnnnnnnnnnnlddd7&&            ",
"           @@qddddnn0q6<<hbnnnnnnnnnnnnnnnnnnbdduh<@4           ",
"           @@hddbnnn<<<6<dbbnnnnnnnnnnnnnnnnnnnvdhu@:           ",
"           :@usvnnnnu<<6<bnnnnnnnnnnnnnnnnnnnnnnvdu@:           ",
"        :@@@:hpbnnnnbu6qvnnnnnnnnnnnnnnnnnnnnnnnvdu-@@:@        ",
"       @@:>qhdlnnnnnbnnnnnnnnnnnnnnnnnnnnnnnnnnnvddpq4:@        ",
"       ::uddhdbnnnnnbbnnnnnnnnnnnnnnnnnnnnnnnnnnbvddddu@@       ",
"       @@dddudnnnnnnnnnnnnnnnnnnnnnnnnnnnnnnnnnnbbldddp::       ",
"       @>ddddvnnnnnnnnnnnnnnnnnnnnnnnnnnnnnnnnnnbbldddd@@       ",
"      @:<ddddvbbnnnnnnnnnnnnnnnnnnnnnnnnnnnnnnnnnnldddd--&      ",
"     :@>udddbbnbnnnnnnnnnnnnnnnnnnnnnnnnnnnnnnnnnnnldddp-&@     ",
"    @@:dddddnnnnnnnnnnnnnnnnnnnnnnnnnnnnnnnnnnnnnnnnddddd--     ",
"    @@qddddlnnnnnnnnnnnnnnnnnnnnnnnnnnnnnnnnnnnnnnnnldddd7-+    ",
"    @@uddddvnnnnnnnnnnnnnnnnnnnnnnnnnnnnnnnnnnnnnnnnldddhq@@    ",
"     @<dddddbbnnnnnnnnnnnnnnnnnnnnnnnnnnnnnnnnnnnnnlddddu:@     ",
"    @@:dddddbnnnnnnnnnnnnnnnnnnnnnnnnnnnnnnnnnnnnnnlddddd:&@    ",
"  .::@0dddddbnnnnnnnnnnnnnnnnnnnnnnnnnnnnnnnnnnnnnnbdddddq&&&   ",
"  &-qdddddddvnnnnnnnnnnnnnnnnnnnnnnnnnnnnnnnnnnnnnbbdddddduq@:  ",
" X&qdddddddlnnnnnnnnnnnnnnnnnnnnnnnnnnnnnnnnnnnnnnnndddddddd<@  ",
" &&qdddddddnnnnnnnnnnnnnnnnnnnnnnnnnnnnnnnnnnnnnnnnnbdddddddq@  ",
" @&qdddddddnnnnnnnnnnnnnnnnnnnnnnnnnnnnnnnnnnnnnnnnnbddddddd<@  ",
"  @-pddddddnnnnnnnnnnnnnnnnnnnnnnnnnnnnnnnnnnnnnnnnnbldddddq@:  ",
"   @4ddddddbnnnnnnnnnnnnnnnnnnnnnnnnnnnnnnnnnnnnnnnnbdddddd:@   ",
"   @4ddddddlnnnnnnnnnnnnnnnnnnnnnnnnnnnnnnnnnnnnnnnnddddddu:@   ",
"  @@qdddddddnnnnnnnnnnnnnnnnnnnnnnnnnnnnnnnnnnnnnnnbddddddhq@   "
};
