/* XPM */
static char *exit_xpm[] = {
/* width height num_colors chars_per_pixel */
"    64    64      256            2",
/* colors */
"`` c #240204",
"`. c #446f64",
"`# c #8c0204",
"`a c #2c3a32",
"`b c #540204",
"`c c #ec6e1c",
"`d c #1c1e1c",
"`e c #943e0c",
"`f c #3c5654",
"`g c #541b0c",
"`h c #7c9288",
"`i c #340304",
"`j c #8c2404",
"`k c #a4aca4",
"`l c #3c3a34",
"`m c #6c7a74",
"`n c #740204",
"`o c #cc4804",
"`p c #5c665e",
"`q c #34120c",
"`r c #242e29",
"`s c #3c635c",
"`t c #fca634",
"`u c #b40304",
"`v c #741e04",
"`w c #540e04",
"`x c #440204",
"`y c #3c4a45",
"`z c #5c6e64",
"`A c #8ca29c",
"`B c #ec640c",
"`C c #141614",
"`D c #344a41",
"`E c #6c867a",
"`F c #1c2724",
"`G c #bc3a04",
"`H c #bcc5bc",
"`I c #a40504",
"`J c #b43404",
"`K c #4c5651",
"`L c #342e2c",
"`M c #4c6258",
"`N c #742a04",
"`O c #640204",
"`P c #4c4e4c",
"`Q c #5c7a6d",
"`R c #24423c",
"`S c #8c968c",
"`T c #440a07",
"`U c #ec8a24",
"`V c #340a0b",
"`W c #a43404",
"`X c #740e0c",
"`Y c #7c8a80",
"`Z c #240a0b",
"`0 c #641b04",
"`1 c #e45254",
"`2 c #fcc15f",
"`3 c #641214",
"`4 c #3c5248",
"`5 c #24362c",
"`6 c #d40a0c",
"`7 c #9c0204",
"`8 c #441614",
".` c #b40f0e",
".. c #842204",
".# c #2c2927",
".a c #b44a08",
".b c #4c5e54",
".c c #942e04",
".d c #a4b6ac",
".e c #840204",
".f c #cc4e04",
".g c #742204",
".h c #541606",
".i c #e45e5c",
".j c #c4cec4",
".k c #546a61",
".l c #343c36",
".m c #e48224",
".n c #2c2224",
".o c #a44309",
".p c #3c443f",
".q c #4c0204",
".r c #444c44",
".s c #5c766a",
".t c #748e7d",
".u c #6c0a0c",
".v c #3c0d0c",
".w c #64220c",
".x c #540a04",
".y c #242020",
".z c #849a8c",
".A c #2c2f2c",
".B c #446a61",
".C c #c40204",
".D c #94aa9c",
".E c #241a1c",
".F c #a40a0b",
".G c #54645c",
".H c #6c0204",
".I c #648274",
".J c #8c9e95",
".K c #fccb69",
".L c #bc520c",
".M c #2c0304",
".N c #546e63",
".O c #940a04",
".P c #5c0205",
".Q c #3c5e54",
".R c #84958b",
".S c #6c8278",
".T c #b40a0b",
".U c #741c19",
".V c #1c191b",
".W c #74877a",
".X c #242824",
".Y c #842604",
".Z c #647b6f",
".0 c #34423b",
".1 c #4c0c04",
".2 c #2c0c0a",
".3 c #441a0c",
".4 c #b4bcb4",
".5 c #f48224",
".6 c #940204",
".7 c #44574e",
".8 c #3c0304",
"#` c #8c2a04",
"#. c #f49a44",
"## c #d43634",
"#a c #f4ba64",
"#b c #b44604",
"#c c #7c2624",
"#d c #ec6664",
"#e c #fc8a24",
"#f c #6c6a64",
"#g c #fc6a0c",
"#h c #fc6e0c",
"#i c #f4a654",
"#j c #c44e04",
"#k c #dc4804",
"#l c #9ca59c",
"#m c #dc5104",
"#n c #c44204",
"#o c #ec8634",
"#p c #fca234",
"#q c #842624",
"#r c #740a0c",
"#s c #5c6a64",
"#t c #bccac4",
"#u c #ccd6cc",
"#v c #5c220c",
"#w c #34524c",
"#x c #741617",
"#y c #9c3604",
"#z c #7c221c",
"#A c #ec8e3c",
"#B c #545a5c",
"#C c #4c130a",
"#D c #ec8030",
"#E c #fcb858",
"#F c #a4b2ac",
"#G c #343634",
"#H c #fcc664",
"#I c #9c0a0b",
"#J c #b41614",
"#K c #840a08",
"#L c #3c120b",
"#M c #2c362f",
"#N c #545e5b",
"#O c #9c3b07",
"#P c #64625c",
"#Q c #44645d",
"#R c #5c1106",
"#S c #647169",
"#T c #949a94",
"#U c #848d84",
"#V c #6c0e10",
"#W c #bc4c08",
"#X c #acb7af",
"#Y c #ec5b5a",
"#Z c #ccd1ca",
"#0 c #ac4408",
"#1 c #444644",
"#2 c #6c2507",
"#3 c #9caea4",
"#4 c #7c1c1c",
"#5 c #fc861c",
"#6 c #2c3c3c",
"#7 c #5c1e0c",
"#8 c #942604",
"a` c #7c0304",
"a. c #d44604",
"a# c #bc0204",
"aa c #94a59c",
"ab c #f4660c",
"ac c #344e4c",
"ad c #c4c6bc",
"ae c #ac0604",
"af c #bc3604",
"ag c #7c2b04",
"ah c #ac3504",
"ai c #6c1d04",
"aj c #ec5354",
"ak c #9c3004",
"al c #444d4c",
"am c #2c3234",
"an c #546664",
"ao c #c4560c",
"ap c #54706c",
"aq c #748a84",
"ar c #242a2c",
"as c #344644",
"at c #bcbeb4",
"au c #44524b",
"av c #5c1608",
"aw c #64766c",
"ax c #ac0a0c",
"ay c #949e94",
"az c #74827c",
"aA c #bc0a0c",
"aB c #2c423c",
"aC c #4c5e5c",
"aD c #d44e04",
"aE c #7c2204",
"aF c #4c1a0c",
"aG c #942a04",
"aH c #7c0a0c",
"aI c #c4cac4",
"aJ c #3c1214",
"aK c #2c363c",
"aL c #240606",
"aM c #8c0608",
"aN c #54060b",
"aO c #1c221f",
"aP c #7c968c",
"aQ c #3c3e3a",
"aR c #6c7e75",
"aS c #24322c",
"aT c #541208",
"aU c #440605",
"aV c #3c4e44",
"aW c #5c7269",
"aX c #141a1c",
"aY c #344e44",
"aZ c #4c5a53",
"a0 c #343230",
"a1 c #4c665c",
"a2 c #640608",
"a3 c #4c5252",
"a4 c #8c9a91",
"a5 c #440e05",
"a6 c #340e0b",
"a7 c #741214",
"a8 c #7c8e84",
/* pixels */
".p`4auaZaZ.b.G.G.k#sapaW.N`z.k#s.GaZ`yalaW.NaWap`z`p.k`zapaW.NaW`y`zapaW.N`z#s.G`zapaW.Naw.7`K.G#s.k`zapaW.N#s.k.G.G.baZaZ.7aV.p",
".paVau.b.G.b#s.k`z.k`z.N`zan.G`p.bal`y.r`Q`zap#s.G.G.GaW.Nap#saW.r`Q.N`zap.G.G.k`zap`z.kaWaual.b.G.G`p.Nap`z.k`z.k#s.G.b.bauaV.p",
".p.7.7#N.G.G#s`p.s#saW.s`QaW#san.Ga3`y.G.ZaW`Q`QaW`p.k.s.s.saW.saZ.ZaW`QawaW#s.G.s.s.saW.Z.7au.G#s.kaW.Z.saW#s.s`pan.G.G#N.7au.p",
"aO.A.lau.7.b.G`M`M.b.b.G#BaZaZau`y.p`a.p#NaZ`K`K#BaZ.b`z`z`z#S#s.p#NaZaZ`KaZaZ.b#saW`z`zaW.l.p.p.7`K#NaZ#N.b.b`M.G.G.G.7aV.p`r.y",
".y.EaX`d.V.y.X.y.E.y.E.y.X.y.X.y.y.X.E.Xam.X.y.n.y.#.A.#.A.A.#.A`F.A`r.y.n.#.#.#.A.#.A.A.A.y.y.y.X.X.y.X.y.y.E.E.y.X.y.V`d.V`d.y",
"#M.l.l.A.#.X.#.#.A.A#M#M#G`a.l.lam.l.l.l.l.l#M.l.l.A.l#M#M.l.0.A.l.l.l#M.l#G.A`a#M#M.l.p.A.l.lam.l#G#M.l#M#Mam.A.X.#.y.#am.l.l.A",
"aQ.p.p.p.l.A`a`Dau.7.bal`y`y`yauaZ.b#NaC#BaZ#N#B.b.Ga1.G.k.G#s`aaZ#N#B#NaZ#N`M.k.G.G.G`z.l.7#N.bau`y`y`yal.b.7au`y`a#M.l.p.p.p.0",
".0.p.raQ.0#M.l.r.7aZ.7.baZ.b.G#N.k.s.s#s.k#s#s.k#s#s`zapaW.N.G.l.G`z.k`p.k#s#s.NaW.s.N#s.l.k.s.G.G`M.baZ.b.7`K.7aV.0.A.0.p.r.paQ",
"aQ.p`y.p.l.#.0.r.7.7.7.baZaZ.b.G.G.NaW.k`p.G.k`p.G.k.G`zap`z.G`a.k`p.k`p.k.G`p.G.Nap.k.G`a.GaW.G.GaZ.baZaZ.7aZ.7.r.l.A.l.p.paQ.0",
".0.p.r.r.p.A.pau.b.baZ`M#N.G#N#s`paWaW#s#s#s#s#s#s`p#saWaW`z`p#G`p#s#s#s#s#s`p#s#SaW`z#S#G.k.s`p#s#N.G#N`MaZaZ.7.7.p.A.p.r.r`yaQ",
".A.A#G#Gam.X.A.l.l.p.0.r`D`DaY#w#w.B.B`.`..B#Q#Q#Q`s.Q.b.B.B`s`R.B`..B#Q#Q#Q`s.Q.Q#Q#Q`s`R#Q.B#w`faY`D`D#1as.p.l#G.A.Xam#G#G.A.A",
".X.X.X.X.X.X.X.y.y`r.A`d#R#r.ua7#V#x#z#c#z#z.U.U.U.U#x#xai.U.U#4#c#z#z`v.U.U#x#x#x.U.U#4#z#z#x#V#V.u.u`3`F.A.A.y.X.y.#.X.X.X.X.y",
".p.l.p.l.p.0aQ.0.l.l.laS#r`ua#.C.C.C.C.C.C.C.C.C.C.C.C.C.C.C.C`I`I.C.C.C.C.C.C.C.C.C.C.C.C.C.C.C.C.Caea7aBaQ.0.0.p.0.0.l.l.l.l.#",
".p`y.p.ras#1.p.p.p.paQ`r.8.P#Jajajajaj`1#Y`1#Y`1#Y#Y.i.i#d##.e.P.P.e###d#Y.i#Y#Y.iaj`1#Y`1`1ajajaj.`.PaJau.p#1.p.p.p.r.p.p.0.l.y",
"au#N`M`KaV.b.G`M.b.b.p`5.v`b.6.T`u.T`u.`.T.T.TaA.T.T.T`uaAae`n.P`O`nae.T.T.T.T.T.T.T.T.T.`aA`uax.T.O`x`8.b.b`Ma3`4.G`M`M.baZaQ`r",
"#M.l#1.paQ`KauaQ.paQa0`ra5.q.6`I`7`ua#a#.Ca#a#a#a#a#.Ca#`I`Ia`.P.Pa``I`I`ua#a#.Ca#a#.Ca#a#a#.C`7.6.6.qa5`a.p.p.p.paZ.raQ.p`l.A.#",
"`d.X#G.paV.raQ.la0.#.A.X.8.q.6.e`Oae.C`6`6`6`6`6`6`6.C.6`nae`n`O.P`naea``7.C`6`6`6`6`6`6`6.C`u`Oa``7.q.8`F.#.l.p.r.r.l.l.A.#.A.y",
".AaQ.7.7#NaWaZaZ.7auaQ#M.8.q.O.e.8`naA.T.T.T.T.T.T.T`7`Oa`ae`n.P.P`nae`n`O`7.T.T.T.T.T.T.T.``n.8a`.6.q.v#M.paZau.k#s`K`KaZ`y.0.#",
".laZ.GauaW.SaR.s.G`Mau.A.v.q.6.e.8`O`I.F`I.F`I`I.F.F`#`O.Hae`n.P.P`nae`n.P`#.F`I`I#I`I.F`I`I.H.8a`.O.q.v`D#N.b`K.Z`E.ZaW`M.b.r.n",
".l.k.ka3aW.ta4.Z.k#S`M.l.8.q.6a`.8.H`Iaxax.T.Tax`Iax`#`O.Hae`n.P.Pa`ae`n`O`#ax.F.T.T.Taeax`I.H.8a`.6.q`VaVaWaC`K`Qa4a8.s#saW.7.#",
".l.k.kau.N`h.J.I.G.Z#N.l.8.q.6.e.8`O`Iae.Oa2`O.eaxax`#`O.Hae`n.P`O`nae`n`O`#axae.e.Pa2.Oae.F.H.8a`.6.q.v`4`z`M`K`Q.J`h.Z.Gaw`K.#",
"`L.G#sau.kaR.G`K.b.Z.b.l.8.q.6a`.8.Hae`#.h#O.o.w`Oae`#`O`nae.H.P.P`nae`n.P`#ae.H#2#0`e.ha`ae`O.8a``#.q`i.p#s.G.7aW.Z`KaZ.G.sa3.#",
".V#GaV.#.p`Mal#Mal.Z#N.l.8.q.6.e.8.H.OaT#W`2#paD.h#K`#`O`nae`n.P.P`nae`n`O.6.e`0.m.K#hak.1`7.H`ia``#.q`i`d.p.p.X.r.G.p#M.Gaw.7.#",
".X.l.#.#.l.k.ZaW.Gaw`M.l.8.q.6a`.8.HaM.h#m#E.5#k.wa2.6`O.H`I`n.P`O`nae.H`O.6.uag#5#i`Bah#L.e`n`i`n.6.q`V#M#G.#.#`y.s.Zan.kawaZ.#",
"#Gau.k`z`z.taw.Z.k.Z.G.l.8.q.6a`.8.H`#.v..afaf`j#LaH.6.P.H`7`n.P.P`nae.H.P.6#raFahafaG#R.2.e.H.8`n`#.q`V.laZ`z`z.Zaq.s.Z`zaWaZ.#",
".pal.k.Z.S`k#l`Y.s.ZaZ.l.8.q`#a`.8.H.6aNa6`w`wa6.v.O`#.P.H`I.H.P.P`n`I`n.P`#.O.8a5`w.1.2aU`#.H`i`n.e.q#LaV`K.s.Za8#FayaR.saw.7.#",
".l`M.Z.S.S.4#ta8aW.ZaZam`i.q.6a``i.H`7`#aU.2.2aU`n`7`#.P`n`I.H.P`b`n`I.H`O.e`7a`aU.2.M.1.e`7.H.8.H`#.q`V`y.N.Z.Z#U#Z#XaR.s.sal.n",
".l.G.zaqaz`H`Ha8.G.kaZ#G.8.q`#a``i.H`7#I.6a`a`.e`7.F.e.P.H`I.H`b`b.H`I.H.P`#.F`7.6.e.e.e`7.F`O.8`n`#.qa6`yaWaa.Z.R.j.daR.G.kau.#",
".l`M.J.taR.4aI.R.G`K.p.A.8.q`#a`.8.H`7.F.F.Tae`I.F.F`#.P`n`I.H.P.P.Hae`n`O.e.F#Iae.Tae`7`7.F`O.8.H`#.qa6`yaWaa.Z`SaI.4azaZ.7`l.y",
".l`M.Jaqaz#X.4`S`MaC.p.X.v.q`#`n`i.H#I`IaMa2.PaH`I`7`#.P.H`I.H`b`b.H`I.H.P`#.F`Ia`.Pa2.O.F`7`O.8.H`#.qa6.p.saa.Z.R.4#XazaCaZ#G.n",
".l`M.J.taz#Xada4#Nal.r`r`i.q`#a`.8`O`I.e.h#O.o#2`O`I.e.P.H`7`n`b.P.H`I`n.P.eae.H#2.o`e#C.e.F`O.8.H`#.qa6`yaWaa.Z`S.4`HazaZ.r.paO",
".l`M.Jaqaz#Xad`kaZan`Kam.8.q`#a`.8.H.6aT#b#E#paD.h.e`#.P`O`7.H`b`b.H`I.H.P`#a``0.m#H#gak#C.6`O.8`n`#`x.v`Dawaa.Z`S.4.j#U`Kan.r.X",
".l`M.Jaqaz#FaI.4.GaW.b#M`i.q`#`n.8`O.eaFa.#..5#k#v.P.6.P.H`7`n`b.P.H`I.H.P.6`Oag#e#a#mah#L.e.H`i.H.e.q.vasaWaa.Z`S#X#Zay.b.sau.X",
".p`Ma4.Wazat.4.R.7aW.G.l`i.q`#`n.8`O`#.v.Y`J`G`j`q.H`#.P.H`7`n`b`b.H`7.H`b.6.HaFah`J#`av.2a``O.8.H`#.q#LaV.say.Z.Rad#X.Z`M`zaZ.X",
"`l.7.Z`E`z.J.W.k.G.k.G#6`i`x`#a``i`O.6.q`ZaT#Ra6.v.e.e.P.H`7.H`b.P.H`I.H.P.e.e`ia5#R.1`Z.8a``O.8.H.e.q.v.p`M.W`Q`m`Aaw.k.G.k.bar",
".V.y.X.l.paV.r`y`Lam.#`F`V.q`#`n.8`O.6`n.8`ZaL`i`n`7.e.P.H`7.H`b`b`n`7.H.P.e.6.H.2aL`Z.8`n`#`O.8`n`#.q.M`d.n`r.l`y.r.r.p.Aa0.#`d",
".y.l#GaQan.N#N.s.G.p.r.l`i.q`#`n.8`O.6`#a`.H.P`n.6`7.e.P`O.6`n`b`b.H`7`O.P.e`7.e`n.H.H.e`#`7`O.8.H.e.q`i.X.la0al`z.Ga1aWaZ.0au.#",
".y.p.p`4`z.S.GapaZ.r`K.l`i.q`#`n.8`O`7.6.6`#.e`#`7.6.e.P`O.6.H.P`b.H`7`O.P.e`7.6.6`#`#.6`7.6`O.8.H.e.q`i.A.p`y.7.Zaw.k#sa3.ra3ar",
"#G.r.k.saq`S.k`E.Z.GaZ#6`i.q`#.H.8`O.6`7`7`Iae`7.6`7.e.P`O.6.H`b.P.H.6`O.P.e`7.6`I`I`I`7`7.6`O.8.H`#.qa6.0`K.N.sa4azaW.I.s`M.7.#",
".p.raW.Z`Y.R.G.W.Z.N.7#M`i.q`#`n.8`O.6`7.e.q.q.H`7`7a`.P.H.6.H.P`b.H.6.H.Pa``7`7.H.q`b`n`7.6`O.8.H.e.qaJ`y`K.Z.Z.RaR#S.S.Zan.r.X",
".0.raW.Z.t`S`z.W.Z.N`K#M`i.q.e`n`i`O`7`n#7.aao#2`b`7.e.P`O`7`O`b`b.H`7`O.P.e`7.Pagao#b#C.H.6`O.8.H.e`x#L.paZ.saRa4.W#S`E`Qan.r.X",
".#.yam`M`z`M.r.k`Mal`l`5a6.q`#`n`i.H.e.1#j`2`t#m.h.H.e.P.H`7.H`b.P.H`7.H`b`#`n`0`U.K#haha5.e.H.8.H.e.q`V.X.yaQa1aWau.b.kaZ`y.l`r",
"`d.#`l.p.r.r#P.G.l#G.y`F#L.q.e`n.8`Oa`.3#n#D`c`o#vaN.e`b.H`7`O`b`b.H`7`O`b`#.P#2`B#Aa.aG`q`n`O`i`n`#.q`i.X.#.p.pau`P#fau.l`L.V.X",
".E.p.raZ.N`E#3.Sal.7a0.X#L.q`#.H.8`O.ea6ai#8aGaE`Va2.e.P`O.6.H`b.P.H`7.H`b.e.H#C`jaGaEaTaL`n`O.8.H`#`x`i.X.ral`MaWaPaa`z.rau.#.A",
"am.r`Ma3aw.J`zaw.b`M.raSa6.q.e`n`i`O.6.qaLa5.1`V`V.e.e`b`O.6`O`b`b.H.6`O.P.e.e`i.2.1`T`Z`x.e`O`i`n`#.8.v#6`K#Naua8a8`zaWaZ`M.l.X",
".p.b#sauaz.j#l.W.bawaZ#Ma6.q.e`n.8`O`#.e.q`ZaL.8a`.6a``b`O.6`O`b.P.H.6`O`b.e`#`naUaL`Z.8`n.6.P`i`n.e`x.v`4.G.Gauaaad`S.Z`M.Z.r.A",
".laZ.G.7az#u`kazaZaW#N`aa6.q`#.H.8`O`#`#.e.H.Ha``#.6.e.P`O`#.H`b`b`O`7`O`ba`.6`#.e`n.Ha`.e.6`O.8`n.e`x.vaV.b.GaZay#u#TawaZawalaS",
".l.b.G.7aRaI.4az.b.sauaS.v.q.e.H.8`O`#.6.6`#.6.6.6.6a``b`O.6`O`b`b.H.6`O.Pa`.6`#`7`7.6`#`#`#`O.8.H.e`x.vaV`M.G.7.R#u#l.ZaZ`QaQ`r",
"`d.l.l.#.r`p`m.Z.l`L.yaO`q.q.e.H.8`O`#.6a`.q`x`O.6`#.e`b`O.6`O`b`b.H.6`O`b.e`#.6`O`x.qa`.6.6`O`i`n.e`x`i`F.p`L`LaZ#faR.k`La0aX.X",
".X#G.l`laua1.p.Aa0.0#G`r.v`x.e`n`i`O.6.H`g#b.L#2`b.6a``b.H.6`O`b`b`O.6`O`ba``7`b`N.L#0#C.H.6`O`i`n.e`x`V`r.l#G.p.7`M.l.A#G.p.A.X",
".#.l.paZaC.GaZ.ral.r.p`5a6.q.e.H`i`O.e`w#j`2`t#m.h`O.e`b`O.6`O`b.P`O.6`O`b`#.H`0`U.K#h`Wa5.e`O`i`n.e`x.8am.lalaZ`M.Gaual.raV.l.A",
"amauau.b`z.Z.G.7au`M`K.0`V.qa`.H.8.Ha`.3#n#D`ca.`g`b`#`b`O.e`O`b`b`O`#`O`b.e.P#2ab#oa..c.2.H`O`i`n.e`x`Vas.r.7.Gaw.s`Mau`K`Mau#M",
".l.baZ.baW`Y.Za1aZ.Z.b.0`V.q.e`O.8`Oa`.2ai#8.Y`va6a2.e`b`O.e`O.P`b`O`#`O`b.ea2a5`j#8.g.1`Z.H.P`i`n.e`x.vaV.G`K`M.Z`Y.saZa1aw.7#M",
".l.G#NaZaW.Raw.GaZ.Z.GaBa6.q.e`n.8`Oa`.8aLa5`T.2.M.ea``b`O`#`O`b`b`O.6.H`b.e.e.8a6`T`TaL.8a`.P.8.H.e`xa6`D.GaZ.baR#UaW.b.G.Z`K.A",
".l`M.GauaW#U.Z.G.7.Z.G.0`V.q.e.H.8`Oa``naUaL.M`i`O`#`n.P.P`#`O`b.P`O.6`O`ba`.6`n`i`Z.2.8`n`#.P`i.H.e`xa6`y.GaZ.7.S#UaWaZ#N.Z`K#M",
".A.G.b.7`z#U.Z.ka3.Z.G.0.v`x.e.H`i`O`#.ea`.P`O.H`n`#.e`b`O`#`O`b`b`O.6`O`ba`.6a``n`n`O.H.e`#.P`i.H.e`x`ias`paZ.7.S#UaW.G.b.Z`K#M",
".l.G#NauaW#U.Z.k.7.Z`p.l`i.qa``O.8.P`#.6.e`O`na`.e.6a``b`O`#`O`b`b`O.6`O`b.e`#`#`#.ea`a``#`#.P`i.H.e`x#LaV.GaZ.7aR#UaW`M.b.Z`K.A",
".l`M.GauaW#U.Z#sau.Z.GaK`i.q.e.H.8.P.6.6`#.e`#.6.6`7.e`b`O`#`O`b.P`O`#.H`b.e`7`7`7.6.6.6`7.6.P.8.H.e.8.vaV.GaZ.7.S#UaW.GaZ.Z`K.X",
".p.b.GauaW#Uawap.7.Z`p#M`i.qa`.H.8.8`x.q`x`x`x`x.q`x`x`x.H`#`O`b`b`O`#`O.q.8.q`x`x.q`x.q`x.q.8.M.H.e`x.v`4.G.b.7aR`YaWan.b.Z`K.#",
".l.baZauaW#U.Z#s.7aw.G.l.M.q.e.P``.M.M````.M``.M``.M``.M`b.6`O`b`b`O`#`b.M.M````.M``.M``````.M.M`Oa``xa6`y.GauaZaR#UaW`M`M.ZaZar",
".#.b.paVaW#UaR`M.p.G.G`a`i.q.ea``x.8`x.8`x.8`x.8.8.8`x.8`n.6`O`b.P`O.6`n`x.8.8`x.8.8.8`x.8`x.8`x`n.e`x`i.l.baQ.7aRa8aw.7.r#s.7.X",
"`d.pa0.A.0.G.7a0.#.p.laO`i.q`O.P.q.q.q`x.q.q`x.q.q.q`x.q`O.H`O.P`b`O.H`O`b.q.q`x.q.q.q.q.q`x.q.q`b`O`x`i.X.p.A#M`y.k`y.#.#`ya0.V",
".V.X.X.V.y.A.#.V.X`d.V`C.2`i`i``.M.M.M.M.M.M.M.M.M.M.M``.M.M.8`x.q.8`i````.M.M.M.M.M.M``.M.M.M.M```i`i.MaO.X.X.V.#.#.X.Var.V.V`C",
".V.V`C.V.VaX.V.V.V.y`C.VaL`i.M`i`i.M`i.M`i.M`i.M`i.M`i`i`i.M.M`i.M.M.M`i`i.M`i.M`i.M`i`i.M`i.M`i`i.M`iaL`d.V.V`C.V.V`d.V`d.y`C.V"
};
