/* XPM */
static char *ab0c9f6084d14f01cee62fe1c6a02c7cnCUwGU7390QG15LO[] = {
/* columns rows colors chars-per-pixel */
"64 64 168 2 ",
"   c None",
".  c #2C2C2C",
"X  c #392C2D",
"o  c #2D3132",
"O  c #323232",
"+  c #3C3534",
"@  c #3D3D3D",
"#  c #3C3A37",
"$  c #403837",
"%  c #793A33",
"&  c #5D402F",
"*  c #5E4131",
"=  c #5E4B35",
"-  c #614433",
";  c #664937",
":  c #694C39",
">  c #624F39",
",  c #704F3C",
"<  c #6E513D",
"1  c #65523B",
"2  c #71543F",
"3  c #197D43",
"4  c #735641",
"5  c #765944",
"6  c #7C5E48",
"7  c #6B5841",
"8  c #7F614B",
"9  c #DC3F30",
"0  c #C24234",
"q  c #CC4335",
"w  c #CE4538",
"e  c #D14436",
"r  c #D74638",
"t  c #DC4638",
"y  c #DE4A3A",
"u  c #DD533F",
"i  c #D3513B",
"p  c #CB573E",
"a  c #E64335",
"s  c #E64738",
"d  c #EC4739",
"f  c #E64C3C",
"g  c #EA4B3C",
"h  c #EB4335",
"j  c #F14639",
"k  c #E8503F",
"l  c #83664E",
"z  c #896C53",
"x  c #92755A",
"c  c #96795D",
"v  c #BE6848",
"b  c #9B7D61",
"n  c #D85942",
"m  c #E75D48",
"M  c #EB624D",
"N  c #FB6A57",
"B  c #ED755C",
"V  c #F2755D",
"C  c #1A8346",
"Z  c #1DAD5A",
"A  c #19AC57",
"S  c #25A55C",
"D  c #25AA5D",
"F  c #1CBA63",
"G  c #27AF61",
"H  c #28AF61",
"J  c #25B060",
"K  c #29B162",
"L  c #26BC66",
"P  c #2ABB67",
"I  c #2BBD69",
"U  c #30B267",
"Y  c #34B56A",
"T  c #3DBA67",
"R  c #76854C",
"E  c #78995C",
"W  c #6FA15F",
"Q  c #689765",
"!  c #50B467",
"~  c #4BBE7B",
"^  c #43B565",
"/  c #15CF6E",
"(  c #15D572",
")  c #27C068",
"_  c #2CC36C",
"`  c #24CA6D",
"'  c #2BCA6F",
"]  c #33C56E",
"[  c #30C86F",
"{  c #38C56E",
"}  c #2DCC71",
"|  c #26CE71",
" . c #37C573",
".. c #33CB72",
"X. c #39CD74",
"o. c #38C674",
"O. c #2DD173",
"+. c #24D575",
"@. c #31D778",
"#. c #32D175",
"$. c #33E47E",
"%. c #6AC97D",
"&. c #978755",
"*. c #9C8867",
"=. c #A68B6B",
"-. c #AF9071",
";. c #B99C79",
":. c #9FAB72",
">. c #BFA17E",
",. c #A4A871",
"<. c #DD8369",
"1. c #EF8266",
"2. c #F69D7C",
"3. c #C0B07E",
"4. c #5AD986",
"5. c #67D081",
"6. c #6AD384",
"7. c #70D687",
"8. c #75CD9B",
"9. c #68C891",
"0. c #7ED0A1",
"q. c #C9AC87",
"w. c #CCB28B",
"e. c #C7B088",
"r. c #D1B78E",
"t. c #D3B98F",
"y. c #D6BC92",
"u. c #D8BE94",
"i. c #D5B790",
"p. c #FFBC97",
"a. c #81D38A",
"s. c #8EDE95",
"d. c #98D691",
"f. c #DCC399",
"g. c #DBC197",
"h. c #E2C59C",
"j. c #E5C99E",
"k. c #EACDA1",
"l. c #E7CBA0",
"z. c #FBCCA1",
"x. c #EDD1A5",
"c. c #ECDBAA",
"v. c #FBD5A7",
"b. c #F4D6A9",
"n. c #F4DDAD",
"m. c #FBDCAD",
"M. c #FEDFB0",
"N. c #E3E0AC",
"B. c #FFE5B5",
"V. c #FFE6B6",
"C. c #FFE1B2",
"Z. c #FFE8B7",
"A. c #FFEAB9",
"S. c #FFEAB9",
"D. c #FFF1BF",
"F. c #AEE2C3",
"G. c #B8E5CB",
"H. c #FFF3C0",
"J. c #FFFFCB",
"K. c #DCF2E5",
"L. c #F3F9F6",
"P. c #F1F9F5",
"I. c white",
"U. c #FEFFFE",
"Y. c #FCFEFD",
"T. c #FAFDFB",
"R. c #F7FBF9",
"E. c #E7F6EE",
/* pixels */
"                                                                                                                                ",
"                                                                                                                                ",
"                                                                                                                                ",
"                                                                                                                                ",
"                                                                                                                                ",
"                                                                                                                                ",
"                                                                                                                                ",
"                                              Y Y Y Y Y Y Y Y Y Y Y Y Y Y Y Y Y Y                                               ",
"                                  3 G L L L L G J J G G J G J J J J J J G J J G J L L I L D C                                   ",
"                                _ P K G H H H K K K K K K K K K K K K K K K K K K G H G K K P P                                 ",
"                              I G G G K H J K K K K K K K K K K K K K K H K K K K K K K K G G G _                               ",
"                            J K K K K K K K K K K K K K K K J J K K K K K K K H K J K K K K K G K S                             ",
"                            S K G K K K K K K K K K K G A D K U K U Z A H K K K K G K G K K K G K D                             ",
"                            D K G K K K K K J K K K Z Y 0.G.K.K.K.K.G.8.Y Z K K K K K K J K K K K G                             ",
"                            D K K K K J G K K K K Z 8.P.U.U.U.U.U.U.U.U.E.9.A K K K K K K K K G K S                             ",
"                            D K G K K K K K K K Z 8.U.Y.Y.U.U.U.U.U.U.Y.Y.Y.9.A K K K J K K G K K D                             ",
"                            S K K K H K K K K D ~ Y.U.U.U.U.U.U.U.U.U.U.T.U.P.~ G K J K K K J K K D                             ",
"                            D P K K K K K J K Z F.U.U.U.U.U.U.U.U.U.U.U.U.Y.U.F.Z K K K K K K K P D                             ",
"                            D K H K K H D K J U K.R.P.P.L.L.L.L.L.L.L.L.L.L.R.K.U G H H G H K G K S                             ",
"                            S K K K P P I P I _ o.o.o.{ o. . . . .o. . . . . .o._ I I P I K K K K D                             ",
"                            I } } } } } ..} O.} O.' O.O.O.' O.} } } } ' } ' } ' } } } } } } ..} O.I                             ",
"                            _ O.} } } } } } } } } [ ' [ ' ..' } } } } } } } } } } } } } } } } } O.]                             ",
"                            I ..} } } } } } ..} [ O.O.' } ..} } } ' } ..} } } } } } ..} } } } } ..I                             ",
"                            } O.} } } } ' } } } O.' ' ' ' O.' O.' O.' } } | } } } } } } ' } } ' O.}                             ",
"                              ..] ]  .X.X.X.X.X.X.X.X.X.X.X.X.X.X.X.X.X.X.X.X.X.X.X.X.X.X.X.] ] ..                              ",
"                              > 1 7 f.C.n.n.n.n.n.n.n.n.n.n.n.n.n.n.n.n.n.n.n.n.n.n.n.n.N.V.*.> 1                               ",
"                              ; & -.S.B.m.V.C.M.V.C.B.C.C.C.C.C.B.C.C.C.C.C.B.V.C.C.B.M.C.V.j.: -                               ",
"                          w.e.; z M.C.M.V.j.z l f.V.M.C.M.M.C.C.C.C.C.M.M.M.Z.h.z l f.Z.M.m.A.;.- w.w.                          ",
"                        j.f.w.z x.V.M.C.V.c & & c V.C.C.C.M.C.M.C.M.C.C.C.M.V.c % & x Z.M.M.C.C.b w.h.h.                        ",
"                      f.y.y.y.b.Z.m.C.C.m.4 : : 4 b.C.M.M.C.M.C.M.M.C.C.M.C.b.4 ; : 1 n.B.M.M.C.n.y.y.y.g.                      ",
"                      g.y.y.u.m.C.C.m.C.b.4 : ; 4 b.V.M.C.C.C.M.M.C.C.C.C.C.m.2 : : 2 b.C.M.C.C.m.u.u.y.g.                      ",
"                      f.y.u.u.m.C.C.C.C.C.x * - x C.M.M.m.C.j.f.h.j.m.C.m.C.B.x - - x B.C.M.C.C.m.u.u.i.g.                      ",
"                      f.u.y.u.b.C.C.C.M.V.h.6 4 h.V.M.V.S.l.y.u.y.t.j.A.B.M.B.j.6 5 h.B.M.M.C.C.m.y.y.u.f.                      ",
"                        u.f.u.b.C.C.M.M.M.B.m.m.B.M.V.k.;.u.u.u.g.g.g.;.j.Z.M.B.M.m.B.M.M.M.C.C.b.y.f.u.                        ",
"                          r.e.l.B.m.C.C.C.M.C.B.M.V.w.: - =.r.r.r.r.=.- , q.B.M.B.M.M.M.M.M.C.C.b.w.r.                          ",
"                                D.m.M.C.M.C.M.M.V.i.; ; : ; : 4 < < ; : ; & q.Z.M.M.C.M.M.C.M.V.x.                              ",
"                                H.m.C.C.C.M.C.C.M.l ; : : : : : : : : < < ; 5 m.M.M.M.M.M.M.m.H.                                ",
"                                D.m.C.C.M.M.C.C.m.8 * - - ; : : ; ; ; - & & l m.B.M.B.M.M.M.m.H.                                ",
"                                c.Z.M.M.M.M.M.M.B.k.>.b z 5 < 4 2 2 5 z c >.x.M.M.M.M.M.M.M.V.c.                                ",
"                              L %.p.C.B.B.M.B.B.B.B.S.V.M.m.v.m.v.m.m.C.Z.S.C.B.B.M.B.M.B.B.p.%.L                               ",
"                            $.O.` &.N B B B B V :.4.%.5.5.6.6.6.6.6.6.6.5.5.4.,.N B B B B N &.| } $.                            ",
"                          @.' ' ` / R 9 a a a h n T / ` ` ` ` ` ` ` ` ` ` ( ^ i h s s a 9 R / ` ' ..@.                          ",
"                        ) #.` X.7.d.s.e.m s g f j n Q ' +.| } } } } O.+...W n d k f s m 3.s.d.a.X.` #.)                         ",
"                        ) } 6.c.B.B.M.S.b.B s g s m d n E !  . .{ { ! E v j g f f s B b.V.B.B.C.c.6.| I                         ",
"                        F 7.C.C.M.M.C.m.A.z.g f j m h j j f n n n u f j d f f f f f z.A.m.C.C.M.C.B.6.F                         ",
"                        [ N.C.M.C.C.M.C.M.m.M s n j a n n d d d g d g f f g f k s M m.C.C.C.C.m.C.C.N.{                         ",
"                        Q S.M.M.M.C.M.C.C.v.M s n h n t d t e w e e r f f f f g s m m.C.M.C.C.C.C.C.S.Q                         ",
"                          D.m.M.C.M.M.M.B.z.m g h m h n 9 9 w w q q q q y g f f g m z.C.m.C.C.C.C.m.H.                          ",
"                          H.m.C.M.M.M.M.S.p.h n d m 9 9 w w 9 0 0 0 q q 0 r g f m a 2.S.M.M.M.M.C.m.H.                          ",
"                          H.m.C.M.M.M.B.z.n d d d s 0 9 0 9 0 0 0 9 q w w 9 f g d s m v.B.M.B.M.m.m.H.                          ",
"                          x.C.m.M.M.v.m.V h a n n 0 9 0 w r s n y s r w w 0 e f s f a 1.V.M.M.M.M.C.x.                          ",
"                            J.C.M.B.V.p.d m d g t 9 n 0 w             0 9 r q f g g g d 2.A.V.M.C.J.                            ",
"                              x.b.f.<.y y y s n 9 0 % $                 $ % 0 w y y y y s <.h.n.x.                              ",
"                                @ # X + + + + # O O O O                 O o + + + + + # + X # #                                 ",
"                                O O O O O O O O O O O @                 # O O O O O O O O O O O                                 ",
"                                  + O . O O O O o o O .                 . O O O o O O O O O O                                   ",
"                                    O @ @ @ @ @ @ @                         @ @ @ @ @ @ @ #                                     ",
"                                                                                                                                ",
"                                                                                                                                ",
"                                                                                                                                ",
"                                                                                                                                ",
"                                                                                                                                ",
"                                                                                                                                ",
"                                                                                                                                "
};
