/* XPM */
static char *box_xpm[] = {
/* width height num_colors chars_per_pixel */
"    64    64      256            2",
/* colors */
"`` c #040204",
"`. c #745e24",
"`# c #ac8a34",
"`a c #bca244",
"`b c #9c6a2c",
"`c c #3c3214",
"`d c #cc8e34",
"`e c #64421c",
"`f c #b49644",
"`g c #84722c",
"`h c #9c7a2c",
"`i c #d4a23c",
"`j c #8c5e24",
"`k c #b47a2c",
"`l c #1c1a0c",
"`m c #54461c",
"`n c #bc8a2c",
"`o c #64521c",
"`p c #c49634",
"`q c #7c6a2c",
"`r c #cc9a3c",
"`s c #543614",
"`t c #9c8234",
"`u c #bca64c",
"`v c #d4ae44",
"`w c #bc8e4c",
"`x c #845e24",
"`y c #34220c",
"`z c #7c5224",
"`A c #9c722c",
"`B c #bc9654",
"`C c #947e34",
"`D c #1c120c",
"`E c #ac7a2c",
"`F c #8c6a2c",
"`G c #b4822c",
"`H c #bc9234",
"`I c #cca234",
"`J c #4c3e1c",
"`K c #644a1c",
"`L c #e4aa4c",
"`M c #dc9e44",
"`N c #7c6624",
"`O c #b49234",
"`P c #947234",
"`Q c #d4aa4c",
"`R c #74521c",
"`S c #c49654",
"`T c #cc9a54",
"`U c #0c0e04",
"`V c #4c3214",
"`W c #cc9634",
"`X c #bc9e3c",
"`Y c #ac762c",
"`Z c #bc8234",
"`0 c #c48a34",
"`1 c #c49e34",
"`2 c #d49a3c",
"`3 c #543e14",
"`4 c #342a14",
"`5 c #744e1c",
"`6 c #7c5e24",
"`7 c #b48e44",
"`8 c #bc9634",
".` c #a47a2c",
".. c #dca244",
".# c #5c4e1c",
".a c #ac8234",
".b c #ccaa4c",
".c c #a4722c",
".d c #8c7a34",
".e c #8c6624",
".f c #2c220c",
".g c #6c5a24",
".h c #846a24",
".i c #ccaa44",
".j c #6c4a1c",
".k c #b48a34",
".l c #8c722c",
".m c #c49644",
".n c #cca254",
".o c #e4b24c",
".p c #946a2c",
".q c #b4823c",
".r c #cca244",
".s c #5c3e14",
".t c #bc9644",
".u c #140a04",
".v c #c4a234",
".w c #443a14",
".x c #cc9244",
".y c #9c7e3c",
".z c #d4a64c",
".A c #5c461c",
".B c #bc8a3c",
".C c #6c521c",
".D c #cc9a44",
".E c #dcae4c",
".F c #84662c",
".G c #7c5a24",
".H c #ac7e3c",
".I c #140e04",
".J c #4c3a18",
".K c #d4963e",
".L c #442e14",
".M c #846a34",
".N c #0c0a04",
".O c #745e34",
".P c #a46e2c",
".Q c #443214",
".R c #cc923b",
".S c #9c7e33",
".T c #d4a644",
".U c #2c1e0c",
".V c #c49a38",
".W c #a48234",
".X c #c48e44",
".Y c #846226",
".Z c #3c2614",
".0 c #9c7633",
".1 c #bc9e4d",
".2 c #ac7e33",
".3 c #b48633",
".4 c #c4923b",
".5 c #cca63b",
".6 c #644e21",
".7 c #947a34",
".8 c #745a24",
"#` c #bc863c",
"#. c #3c2a13",
"## c #0c0604",
"#a c #6c461c",
"#b c #241a0c",
"#c c #c4a24c",
"#d c #24160c",
"#e c #8c763c",
"#f c #cca25c",
"#g c #c4a244",
"#h c #dcaa4c",
"#i c #94662a",
"#j c #845a24",
"#k c #7c6634",
"#l c #b49244",
"#m c #cc9644",
"#n c #c49e44",
"#o c #74622c",
"#p c #9c6e2c",
"#q c #8c6225",
"#r c #b47e34",
"#s c #bc8e34",
"#t c #7c6e34",
"#u c #cc9e3b",
"#v c #543a16",
"#w c #bc9254",
"#x c #342611",
"#y c #bc9a4c",
"#z c #94823c",
"#A c #8c6e2f",
"#B c #947631",
"#C c #745624",
"#D c #4c3615",
"#E c #bc8634",
"#F c #c48e3a",
"#G c #d49e43",
"#H c #54421c",
"#I c #7c6228",
"#J c #bc9a3a",
"#K c #a47e34",
"#L c #dca646",
"#M c #5c5224",
"#N c #ac8638",
"#O c #a4762d",
"#P c #2c260c",
"#Q c #846e2c",
"#R c #6c4e1e",
"#S c #b48e35",
"#T c #8c7634",
"#U c #cca64c",
"#V c #946e2c",
"#W c #5c421c",
"#X c #c4a63c",
"#Y c #5c4a1e",
"#Z c #6c5624",
"#0 c #dcb24c",
"#1 c #141206",
"#2 c #443616",
"#3 c #a48634",
"#4 c #3c2e14",
"#5 c #040604",
"#6 c #64461c",
"#7 c #b49a44",
"#8 c #544a1c",
"a` c #7c5624",
"a. c #1c160c",
"a# c #4c421c",
"aa c #c49a54",
"ab c #cc9e54",
"ac c #ccae4c",
"ad c #c49a44",
"ae c #b4863c",
"af c #cca644",
"ag c #bc9a44",
"ah c #bc8e3c",
"ai c #cc9e44",
"aj c #846e34",
"ak c #c49244",
"al c #241e0c",
"am c #cca65c",
"an c #745e2c",
"ao c #ac8a3c",
"ap c #cc8e3c",
"aq c #847234",
"ar c #9c7a34",
"as c #d4a244",
"at c #bc8a34",
"au c #645224",
"av c #c4963c",
"aw c #d4ae4c",
"ax c #845e2c",
"ay c #9c7234",
"az c #947e3c",
"aA c #ac7a34",
"aB c #b48234",
"aC c #bc923c",
"aD c #cca23c",
"aE c #644a24",
"aF c #7c662c",
"aG c #b4923c",
"aH c #745224",
"aI c #cc963c",
"aJ c #bc9e44",
"aK c #ac7634",
"aL c #c48a3c",
"aM c #c49e3c",
"aN c #d49a44",
"aO c #543e1c",
"aP c #744e24",
"aQ c #7c5e2c",
"aR c #b48e4c",
"aS c #bc963c",
"aT c #a47a34",
"aU c #5c4e24",
"aV c #ac823c",
"aW c #a47234",
"aX c #8c662c",
"aY c #2c2214",
"aZ c #6c5a2c",
"a0 c #846a2c",
"a1 c #b48a3c",
"a2 c #8c7234",
"a3 c #5c3e1c",
"a4 c #c4a23c",
"a5 c #6c5224",
"a6 c #dcae54",
"a7 c #7c5a2c",
"a8 c #140e0c",
/* pixels */
"#f.4`p`H#F`H.4.4`Hav`Hat#E#saCat.4`Hav.V`8#sav.VaSav`HaC#savaC#saC.4`H#sat#s#sav`Hav.4`H#F`H.4`H#F`H#s#E`Zatatatat#s.4.4at#E#F#F",
"#c#G.T#Gas`i.ras#uas#GaIaIaIai`rasaf.T`Qas`rai.T.T`Q.Tai#u.Tasasasaf#G`raI.D#G`ias`Qasas`i#G#G`i`2as`2.R.RaIaIaI#G#G#G`i`2.4`2`W",
"am.Ta6.T.Tasas.Tasas#G.D.D#Gasas.Tas.T.z.T#Gas.T.E.E.Tas.zas.T.T`Q#hai.D#Gasasas.z.E.E.TasasasasasaiaN.RaI.D#GaN#G#G#GasaNaIaNaI",
"am`v#h#G#G.Tas#GaiaiaI.D`r#u.Daias.z.T.z.T#Gas.Taw`Q.zaiasai#Gas.T`Q#G`r#Gaiaiai.E#0.T#G#Gasas.D#G#m.R#m.DaIaI#Gai#G#Gas#GaN#GaI",
"am.Tas`2#Gas#has#GaN#Gas#G#Gas.T.T#h#h.E.E.T.T#h#0#h.T.T#LaI.z#L#h.E.TaNas..aN#G.Ea6..#G...T.T#G.K.K#G#G`2aN#G#G`M#L..asasaN`2aI",
".n#G.T#Gas.D.a.a.2aBaV.q.2.aaB.aaVae#Na1#N.3#Naea1#Nae.q#NaAaeaoaea1aeaV#raVaBaeaea1#N.a.aaeaeaB.H.a.q.H.2.2.2.H.2aV#N..#L#G#GaI",
"aa#G`ias.TaIa5#W.A#W.A#6#W.A`K#6.6.6`K.j`K.6.j`K.6.jaE.6#R#R.6.j.6#R#R#R.6aE.6#R#R#R#R#R#R#RaE#RaE.6`K#6#6aE#6`K.Aa3#V.z..#G#GaI",
"ab`Was.T#L#GaX#4#Y#Yau#Z#Y.f.Ia.#d#b#b#b.U.U.Ual.Ual.U.U.f.U.f.U.f.f.UaYal.Ual.Ual.Ual.Ual.Ualal.U.U#b#b#b#b`l#d`U#4`7#h#Las#G`r",
"aa`Was#Gas#G`P.Aaj.l#B#B.S.FaY``.I.I#1`Da.a.a.#b#b#b#b#b#b#b#bal.U#b#b#b#bal#bal.U#b.U.U#b#b#b#b#da.a.a.a.`D.I.N```3aJasas..#G`2",
"abaI#G`Mas.Dar`K.l.S.S.S.W#N`h#4#1.f.Z#..Z#4.Q.Q.L.Q.L#4.L#4.L#..L#4.L.Q.Q`V.Q.L.Q.Q.Q.L.Q.L.L#.#.#4#.#..Z.f.U`D.N#Y#nas#Gas#GaI",
"aa.K#G#Gas.D#O`6.W#N#S`O#S`O`8`#`J#b.L#D.J`3#Wa3#W#W.A#W`e#Wa3#Ha3#W.Aa3a3aOa3aOa3#v#v#v`s#v#v#v.s.s.s`3`3.J#.#b.Iau`aas..#G`M`r",
"`T.R#G#Gas.D#O.g#S`8.V`1`1#JaMaD.V#Y.U#D.s#W`K`K`K#R.j.j.j.j.j#R#R`R.j`K#a#6`e`e`K#aaE.j#6#6#W#W#6`K`K#6#WaO.Lal`D#Z#cas..`2#G.K",
"`S.4#G#G#GaIaT#x`N.r`paM`1`IaD.r`I#XaZ#xaO#6.j.jaH`RaHaH`5a5.CaHaH#CaH`R`5`RaH`R`RaH`RaH#R.j.j#6#6.j.j#6.j.s#D.Ua.`.`a.T#L`M#G`r",
"`S`d`ias#G.R.2.Ua8.7aD.VaM`1aDa4aD`i.baF#.#v`K#RaH#C#C`RaH#Ca``RaHa`#j.G.G#C`6a``5#C.G#C`R`5`R`5`5aH`R#R`K#W#D.U#b`.#J.z#h....`W",
"aa`W#G#G#G#m.2#4``#b.SaD.VaM`IaDa4.5.5.b`q.Q#W.C#C.G.Ga`#C#j`x`x`x.Y`x`x`6`x`xa``5#C.G.G.Ga`aH`Ra5#R#R.j#a#W`Val.U#IaJas#Las#G`W",
"`TaI..#G#G#m.a.L.N#1#x.S.5#u`1aD#uaD.5afaw#t.L#6#RaHa`a``Ra`.G`x`6.G.G.G#j`x.G.Ga`.G#j.Y`x`6.Ga`a`a`a`#CaH`K#vaY`y#IaJ#L#L..as`d",
"aa`W#G#GaNaI.2.Q.I.U.U`4`t.5.V#u.vaDaDaDaM#U#t#4#W`5#Ca``RaHaH.G`6a`a`a`.G`x`x`6#j.G`x`x`x#j.G#j.Ga`a``RaH`K#D.f#x`6`X.z#h#LaN`0",
"aa.R..#G.D.R#K.Q#1.U#4#x#4.`.5`1`r#na4`I`I#uafaj.Q#6#R#R`R`RaHa`#j.G#j`x.G`x`x#j`x`x`jaXaXaX#q`xa`#C`5#R.j#6.Q.f.Z`.#J#G..#G`2#F",
"`TaI#G`MaN#FaA#2a.`y.Q#v.L`c.W.5#uaDaD#n`I.v`Iafaj.Q#R#CaHa`.G.G.G#j`x`x`j.Y#qax#j.Y.Y#qaX#q`x.G#C`Ra`a`#R#R.s#x.L.8.taI`2aI.K.4",
"abaI..as#G#FaV#D`l`y.Q#v`3.L`c#3.5#n.V.VaM#u`1aD#XaqaO`5`x`x`j`x#q.YaXaX#Vay#p#p.p#p#p`YaA#p#p.p#q#ja`#j.G#RaO#..L.8`8#G#GaI#G#F",
"aa.K..as...x.2#D#b#.#WaE.j#6.L#2.W.5#naM`1#u`IaMaD#U#T#W.G#i.p#q#q`b#p#O`E#r`E`Y#O#r`ZaB`E#O.`#O#O`A`b#V.p#j.j#D.Q#C`H#G....#G`d",
"ab.R#G..asak.2.J.U#..A#R`R#R#6`V#2.W.5#u.Va4#ua4a4#u#X#e.j.Y.p#p.p#p.c.c#p.2.2`Y`G.3at.3#raB#r`Y.c.c#p`A.p#q#R#D.Q.8aS#G#L.....R",
"ab.R#GaN#G.x.2#D.U#.#W`Ra7#C`R.j#D#2.WaD#n.VaD#u`1aM#u#g#T.A#j#i#p`Y`E`E`EaB#E`k`EaB#r.3aB#EaB#O`A`E#O#p.p`x#R#D#2#IaS#G....as#G",
"ab.R#G#G`M.4.H#D#P.LaO#6aP#C#R.j.6`V.J#3.5#g.r`1.V#n#n#u#X#e#W#j`b#p`A`A#OaA`E.aaA#raB.BaB#r#r.c.c.0#p.c#V#q`R#D#D`6.taNaNaN..as",
"aa.R`2#G`M#m#K#D`y#D#6a5a`.Ga`aHaH#R#D.J.W.T#gav.V#u`1aMa4af#T.A`x#V.c.`aA.2#raBaBaB#E.3#r.a.2#O#O.c`A#V#i#q#R`V#2aQaS#G#Las`L#G",
"ab#FaI#G`M.4.2#D#x.JaP.YaXaQ#j.Ga`a``5.J.J.WaDaM.V.VaM`1#u`1#g.l.A`x.p.caA#r.2`E`E#O.c#O`Y#O.`#O.c`A.c#p#q`x#R#D#D.8#S#G#L#h.o#G",
"aa`d`r`2as.xaT.J#xaO#C.Y#q`x.G`6#j.Ga`#R.J.J#3af.V.VaM#u.V.V`8#ga2#6#j#i`A.c#p#p`A`A.c`EaA#O#O.c#O.P`A.c#p#q#R#D#2#C.B#G#h#L#LaI",
"`S.4aIaNaN.4.0#2`y`3a`.e.p`xaXaX#q.YaQ.GaH.J#2.W.r.V.V.V`p.V`1`p#n#T`e`x#V#p`A`Y#O#O`Y.c#O`E.``YaT`E`A#i.e#j#R`V.Q.8ah.D..as`MaI",
"aa`daI.R#G.R.0#D#x#v#C#qaX#q.Yax.G#j.Ga`#R.j#D.J#3.r.V#J.V`8.V.V`p#gaq.A`j.p.p#p#p`E.2aT.2`Y`A#O#O`A#p.p#qa`.j.Q.Q.8aC#G#G#G#G.R",
"aa`W.KaIas.x`E#2#x.JaHaX.p#p#V#iaX`x`x.G`z`R`K#D.J#KaD`p`8`p#J.V.V.VaMa2#6`x.e#p.c.c`A#O.c`AaAaB#r#O.c`b#i#j.j.Q.LaQaC.D`2#maNaI",
"`T`W#GaI#G#m#K#D#xaO.G.p`A#OaB#Oay.paX#q.Ga`aH.j#D.J.W.vav`p.V`H`n`H`1aMaq#W.GaX#p.`.P.P#O#O#raB.qaT#p#V#i.Y#R.Q.Q`..taI#GaIaN.R",
"aa`2..aNaN.RaT#D`4#va`.p#O`AaA#O.p.e#i#q#j.G.G.G#R#D.J.WaM.V`p`H`8`H`p`p#J#A#6.G.p`E.2aA.2aA#r.2aA.c`EaT`AaX.C#D#4.8ah#maNaN#u.4",
"`T#G#L#maN.4#O#D`4`3`x#V`A#O.2aVaA#O#p#q`x#j.G`xa`#R.J.J.W.v.V`H`H`p`p#J`H#J#Q#6`x#i#O#OaA#O#OaT.`.0#O`A.p.Y.j.Q#..GaS#maN`raI.4",
"aa`2#L.K#m#F.0#D#x#D#R`x.p`bay`Y#O#O.p#q.Y#j.Ga`.G#C#R#D.J#K#u`8`8`p#J`p`H`8.V#Q#W`xaX.p#i.p#i#V#p#iaX.Y#j`R#W.L#.`6.t.D.KaI#m#F",
"aa`2aNak.R#F.0#D#x.Q.j#jaX.p`A#O#p.c#O#p#i#q.Ga`a``RaH`5.Q.w.WaM`8aC`8`H`H`8`paga0.saH`x#q#q#i.p.p.e#q#qa`a`#6#4#..8aC#m.D.RaI`0",
"aa.K#m.4#m#Far#D#x`V#Rax#q#i`b.p#p#p#p`b#V#q`xa``Ra`#C`5#R.L#2.WaM.Vah#sav`8`H`8.V`qa3.G.e#i.p#p.p`b#i.e#q.G#6.L#4#CahaI#maI#m.R",
"aa.RaI.4aIak#O#DaY`VaH#q.p#V`A#p#p.c.c`A.c#p.p#q#j.G#jaH#R`K.Q.J#3.D`8aS`H#s`H`8`HaSa0aOaH.G.Y.e#q.e#i.e`x#C#6.Q#..GaCav.D`2#G.R",
"aa#FaI.xaI#F.0.Q#x.J#C.Y.e#V#p.p.p`A.c.`.`#O`A.p`x#Ca`a``R.j.j.L.J.S.Vav`Hah`H`H`H.kaSa0`3a`.e#i.p#p#V`F#q`x`K.Q#..8aC#m`2#m.D.4",
"`S#F.RaI#m#Fay.Q#x#D#R.G#q.p#p#p#i.p#p#V`b#p`b#p#q#j`x.G.G.GaH#R#D.J.WaMaS`H#s#S#s.3.k.V.M#Wa``F.p.p#i#q`x.G`e#4#.#CahaN`r`raN`d",
"`S#FaI.4#m.4ay.Q#x#D.j.G`x.p.p#i.p.p#p.p.p#i#V#p.p`x#j.G.G#j.G.G#R#D#2`hav`H`H#s#S.k.k`HaS`Na3#C`x`6`x#j.G#Ra3#.#.#Z#s.DaI#m.D.4",
"`S`d.D#maI#F.0#D#x#DaH`x.p.p#V.p#p.c#p#V`b.p#p#p.p`j`x`xa`a`a`#C.C#6.Q#D.0#J#J`H#s`Hah#N`H.VaF#vaH.Y#q.Y.G`5aO#.#x#Cat#m.R#FaIap",
"`BaIaNaI#maL#p.Q#x.Q#R`xaX#i#V.p`b#V`A#p#p#p`A`A.p#q`x#q.Ga`#C`z`RaH#6.Q#2#K`1aS`O`H.k.3.k`HaSaF`3`5`x.G`z#R.s`4#x#CaC.D.4.B.4#F",
"`T`r`M#maI.B.0#D`y.JaHaX#p#O.c#p`b.c`G#E`E`E#O.c.c.c#i.e`j.G`z#C`RaH#R#6.L#2.Wadah#S#S.k`n#S`Hav#I#vaH.Gaxa`.A#.#x.8aC#mak#F#F#F",
"aa#GaN#F.R#Fay#2aY#DaH.Y#i`A`A.c.c#O.c`h`b`b`A#p#p`A.c#O#p.p`j`x`xa`a`#R.j.Q.Jarav`8`H`O`H`H#S`HaS#I#DaH.Y#C#W#.#x.8aC#maI#F.x#F",
"`TaI#m#Fak.B`A.Q`y#D.G`xaX.caT#O#O.c`A#O.c#O`A.P#O#O.c`A#p#V#p#V#i.Y`x`R`R#R#D#2.SaS`H`H#S#s.k#S`8#J`.#D`K.j#v#x`y#Cah#m.K.4.4#F",
"`S.RaIavaI#F#V.QaY#vaH#j.p#p.c`A#p.p.p.c#O`E`Y.`#O#O`A.c.c`A#p#p#V.p.e.Ga`aH.j#D#D.S#naS#s#S#s`H`O.4`8an`V.A`3.Z.f#Cah.DaN.4.x#s",
"#w#FaIaI#m#F#V.Q`y.J`R`x.p#V#p#p#p#p#p.c.c#O.`.c#O`A`A.c#O#O`A.p#i.eaX#j.GaH.C#R#D.J.S.V`8`8#S#s`O#S`8.t.O#4#D#xal`Rah.KaN`ravap",
"`B`0aI#maN.Xay.L.f#DaH#q`A#Oay.c#p`A.c`Y#O.caT`Y`E.``Y`A#p.c.c.p#q`j.Y#j`Ra`.G`z#6.Q#D.Sav`8`8#S`H`G`O#JaSau`yal.UaHahaNai#m.R#F",
"#w`0aI#maIah#V.Q.U.J#C#q.pay`A#p.0#O#O#O#O#O#raT#O#O.c#p`A#p.c#O#OaAay.e#ja`#j.Y.Ga5#D#D.yav`8`8`H#S`H`O`H#y.6.I#da5ahaI#maNaI#F",
"#wat.4.4#maL#V.L.f#v#C.Y#V`A.p.2#OaT.2.2.2.a.2#O#O.H.`.c.c`A`Y.`aAaT#O#i`x`x.G`x`6a`aH.J#2.Sad`O`H`O.k`8`H#J.t`J.I#R.BaIaI#maI#F",
"#w`0.4.R#mah.p#4.U#D#Ra7#q.p`F.p.p.p.p.paXaX#i#p#Vay`A#p#p#OaAaTaAaTay.p.p.Y#j.G#j#CaH#R#2#2ar`p`H`O.kaC#s#S#c#l`4#6aC.D.K#maI#F",
"#w`n.R.4#m.B#V#4al.L#6aH#Cax#q.Y.Y#q#i#i#i.e.p.p#i#p#VaX#V#pay`Aay`A#p#i.Y`6.Ga`aHaH`K#6#6#..Qar.VaS`OaCaG#S.k.1a2#RahaN.D.4.R#F",
"`w#E.m#maI#EaX#.al#.#6`5#C.G#j`x#q.Y#q.e#q.e#q#q.Y`x#q#q`x.Y#qax#j.Y.Y.Ga`aH`zaH#R#R.j#6.Aa3#4`c.7ad`H`O`Oa1#N#S`taQaeai`MaNaI#F",
"`7#E#maIak.3#V#.#b#.`3`K`5aHa`.G.Ga`.G.G.G.G.G#j#j.G.G.GaHa`.8`6a`a`a``R#Ca`.8#C#R#6.A#6#WaO#D`y`4.7ad`O#S#Sao.a`Pan.3aN#G.D#m#F",
"#w`0av#m.R.B#V#.`D.f.L#DaO.J`3a3a3aO#W#W`e#W`e#Ha3.A#W.saO#W#W`e.A#W.A`e#6.A#W#W`3#v.J#v#D.J.Q#.#b.f.7`H`##Sa1#K#A.G.k.D#G.D`r#s",
"`B`0#maIak.B.p#x.I#baY#x#.#..L#4#4#4#..L.Q.Q.Q.Q#4.L.Q.Q.L.Q.Q.Q.Q.Q.Q.Q.Q.L.Q.Q#4#.`yaY.f#b#ba.`D#5`l#A`f#S`##3`F#C.3#G#GaNaI#E",
"#w`0aIak.4.B`F#baY.Ja#a#a#`m`m`m#Y#8.##Y#8#8#Y#Y.##8#Y#8.#.#.#au.#aU.##Y#8#Y#8#Y#Y#8#8#H.J#2#.#P#b#b.u`D.8#T.Fa0#Z`Kaeaiasai.RaB",
"#w`n#m#mapae.F#I#T.d#T.d.d.d`Caz#z`C#z#z#zaz#z#z#z#z`C`Caz#z#z#z`C#z`C#z#z`Caz#zaz#z#z#z#zaz`Caz`C#Ba2`q#oa0#Qa0#I#IaT.x.D#m.4`0",
"`B`0#m#m.4aB#3.1`f`f`f.taS#7#7#7#y#7`f#yag#y#y#7ag#7#y`f#7ag#7.t`f`f#yagag#7#yaJaJag#yag.t`f`fag#7`f`f`f`fag#y#7.1`f#N.4.RaL#Fat",
"`S#F`r#m#m#F#m.4.B.4.4ah#Fah#FaL.B.B.4.4aI.4.4#F.B#Fak.4atah#F.X#F#`#`a1.Baeat.4akav#m.m.4ah.4#F.B#Fatat.Bah.4.B.B#F#m#maI.4aI#E",
"`B#F`raN#m.xav.x#F.m.Rak#F#Fak#F.B#F.xaN.D#G`2.R.4.R.D.x.4.x#m.4#F#`ae.B.Bae#F.R.4#m#maN#m.x#m#F#F.mak.4ah#F.4aL.B#F.4aN`r`2#m`0",
"`S`0aI#maIakaI.4.4.x.4#F.B#F.4.B#`#F#m.DaN#G.D.K#m.4#m.4.x.4.4.4aL.q#`ahaL.B#Fak#m#FaI.DaIak.R.4.X#m#F#F.B#F#FaLae#F#m.DaN#G.D`0",
"`Bat.R.m#m.4.x#Fak.x.4ahak#F#F.B#`#F.DaN.D#GaN#LaN.x.R.4#m#m.4akaL.q.B.B.4.BakaI#m#F.x#m.4#mak#F.4.x#F.X.4.Xah.B#`.R#m.DaNaN#G.D",
"`S`G#E`0#E#E.BaB`Z`GaB#r.2#raB`k.2aB#E#F`0#E#FaI#F.3#E#Eat#EaB#raA`Y`Y`EaBaB#E#E#E#Eatat#E#E#E`Z`ZaBaB.2.2#r#raA#raB#EaLat#E#F.R"
};
