/* XPM */
static char *_5c5826b6ea04639cb8b796e08e8bfdaDRKoDJg5ji6DKKc6[] = {
/* columns rows colors chars-per-pixel */
"64 64 190 2 ",
"   c None",
".  c #241C1B",
"X  c #2D2D2D",
"o  c #242424",
"O  c #302F2F",
"+  c #2C3333",
"@  c #273132",
"#  c #333333",
"$  c #3C3433",
"%  c #3C3C3C",
"&  c #353738",
"*  c #5B3E2E",
"=  c #473836",
"-  c #4E392B",
";  c #633E2F",
":  c #683A35",
">  c #772C21",
",  c #5C402F",
"<  c #5E4231",
"1  c #634634",
"2  c #6C4335",
"3  c #644936",
"4  c #6A4C39",
"5  c #664B38",
"6  c #6E513D",
"7  c #70533E",
"8  c gray25",
"9  c #725641",
"0  c #7A5B45",
"q  c #795B45",
"w  c #56774C",
"e  c #566543",
"r  c #797B57",
"t  c #87362D",
"y  c #A5362A",
"u  c #EA3D32",
"i  c #F13D33",
"p  c #934038",
"a  c #9D4238",
"s  c #8B4139",
"d  c #A24239",
"f  c #B04539",
"g  c #DA4335",
"h  c #DC4A3B",
"j  c #D54435",
"k  c #DC523E",
"l  c #CE503C",
"z  c #E64536",
"x  c #E94738",
"c  c #E64C3C",
"v  c #EB4C3C",
"b  c #E94638",
"n  c #F24539",
"m  c #F34C3C",
"M  c #F94F3D",
"N  c #E5503F",
"B  c #F4503F",
"V  c #83664E",
"C  c #896A52",
"Z  c #8E7157",
"A  c #96785D",
"S  c #A27D51",
"D  c #B76F4B",
"F  c #D55841",
"G  c #EB5A46",
"H  c #FC5442",
"J  c #EE614C",
"K  c #ED6D56",
"L  c #EE765C",
"P  c #E27A5D",
"I  c #F7705A",
"U  c #ED7B61",
"Y  c #1D874A",
"T  c #1F9953",
"R  c #2A9055",
"E  c #219E55",
"W  c #1DAE5A",
"Q  c #18A051",
"!  c #23A459",
"~  c #24AE5E",
"^  c #22A057",
"/  c #27AE60",
"(  c #28AE61",
")  c #3FA660",
"_  c #3EA961",
"`  c #25B161",
"'  c #28B162",
"]  c #27BB66",
"[  c #29BB67",
"{  c #2BBD69",
"}  c #34B56A",
"|  c #35BD6E",
" . c #4C8D55",
".. c #508251",
"X. c #47975A",
"o. c #78965A",
"O. c #6F9758",
"+. c #5DA35D",
"@. c #6BA25F",
"#. c #5BAE65",
"$. c #4BB969",
"%. c #4EBE7E",
"&. c #1ECB6C",
"*. c #17CF6D",
"=. c #18D372",
"-. c #2CC36C",
";. c #24CA6D",
":. c #2DC96F",
">. c #3AC26D",
",. c #2ECC71",
"<. c #31CC72",
"1. c #3ACD74",
"2. c #23D475",
"3. c #2BD274",
"4. c #2CDC79",
"5. c #32DC7A",
"6. c #3BD57A",
"7. c #2EE27C",
"8. c #4FCF7C",
"9. c #53CF7D",
"0. c #5AD07E",
"q. c #6CC479",
"w. c #8B8D57",
"e. c #9E8064",
"r. c #B28F71",
"t. c #AF9171",
"y. c #B69877",
"u. c #A18365",
"i. c #AAA36F",
"p. c #C88F67",
"a. c #F58A6E",
"s. c #5BD583",
"d. c #5CC488",
"f. c #65CF81",
"g. c #68CF81",
"h. c #63D282",
"j. c #69D283",
"k. c #7AD388",
"l. c #73C897",
"z. c #78D09E",
"x. c #C8AD88",
"c. c #CFB18B",
"v. c #D1B38C",
"b. c #D6B890",
"n. c #DBBD95",
"m. c #F8AA86",
"M. c #F9B992",
"N. c #81DB90",
"B. c #9AD692",
"V. c #96D691",
"C. c #88D48D",
"Z. c #A6D795",
"A. c #AFD898",
"S. c #B9D99C",
"D. c #9FE19B",
"F. c #97D9B3",
"G. c #A6DEBE",
"H. c #9BE3B9",
"J. c #C5DA9F",
"K. c #CAC691",
"L. c #E3C69B",
"P. c #E7C99E",
"I. c #FBC79D",
"U. c #DCDBA6",
"Y. c #DAD7A3",
"T. c #EBCEA3",
"R. c #FFCDA1",
"E. c #EED2A6",
"W. c #EBD8AA",
"Q. c #FCD2A6",
"!. c #F4D6A9",
"~. c #F6DAAC",
"^. c #FBDCAD",
"/. c #FEDFB1",
"(. c #E6E2AC",
"). c #FFE1B2",
"_. c #FFE8B7",
"`. c #FFEAB9",
"'. c #FFF2BF",
"]. c #ACEAC6",
"[. c #B1E9C9",
"{. c #FFF3C0",
"}. c #FFFCC7",
"|. c #D5EFE0",
" X c #EFF0EF",
".X c #EFF1F0",
"XX c #F1F1F1",
"oX c #FFFFFF",
"OX c #FCFEFD",
"+X c #FBFEFC",
/* pixels */
"                                                                                                                                ",
"                                                                                                                                ",
"                                                                                                                                ",
"                                                                                                                                ",
"                                                                                                                                ",
"                                                                                                                                ",
"                                                                                                                                ",
"                                              R >.} } } } } } } } } } } } } | R                                                 ",
"                                        Y { [ ' / ` / ` / ` ` / ` ` ` / / ` / ' ] ] ! Q                                         ",
"                                      ` { / ( ' ' ' ' ' ' ' ' ' ' ' ' ' ' ' ' ' ' ' ' [ -.' !                                   ",
"                                      { / ' ' ' ` ' ' ' ' ' ' ' ' ' ' ' ' ' ' ' ' ' ' ( ( ' ' -.Y                               ",
"                                    Q W ~ ` ' ' ' ' ' ' ' ' ' ' ' ' ' ' ( ' ' ' ' ' ' ' ' ' ( ( { '                             ",
"                                    l.z.d.` W ' ' ' ' ' ' ' ' ' ' ' ( ' ' ' ' ` ' ' ' ' ' ' ' ' ( ( :.                          ",
"                                    XXoX+X|.l.W ' ' ' ' ' ' ' ( ' ' ' ' ' ' ' ' ' ' ' ' ' ' ' ' ' ' ( {                         ",
"                                     XoX+XOXoXG./ ' ' ' ' ' ' ' ' ' ` ' ' ` ' ' ' ' ' ' ' ' ' ' ' ' ( ' (                       ",
"                                    .XoXOX+XOXOXF.W ' ' ' ' ' ' ' ' ' ' ' ' ' ' ' ' ( ' ' ' ( ' ' ' ' ( {                       ",
"                                    XXoXOXOXOX+XOXd.W ' ' ' ( ' ' ' ' ' ' ' ` ' ' ' ' ' ' ' ' ' ' ' ( ' [ ^                     ",
"                                    XXOXOXoXOXOXOX[.! ' ' ' ' ' ' ' ' ' ' ' ' ' ' ' ' ' ' ' ' ' ' ' ' ( ' !                     ",
"                                    ].].].].].].[.H.{ ' ' ( ' ' ~ ( ` ' ' ' ' ' ' ` ' ' ' ' ' ' ' ' ' ' ' /                     ",
"                          [ 3.5.5.5.;.;.;.;.;.;.;.;.,.,.<.:.:.-.-.{ { { ' ' ' ' ( ( ' ' ' ` ' ' ` ' ' ' / {                     ",
"                      3.5.<.,.:.:.:.,.,.<.<.<.<.<.<.,.,.,.,.,.3.,.,.,.3.,.,.-.-.{ { [ ' ' ' ( ' ' ' ' ' ( {                     ",
"                    6.:.:.,.,.,.<.,.,.,.<.<.,.:.,.,.,.,.,.,.,.,.,.,.,.<.,.,.,.,.,.,.,.,.-.-.[ ' ' ( ( ( ` `                     ",
"                    6.3.<.,.,.,.,.,.,.,.,.,.,.,.<.<.<.<.,.<.<.<.<.<.<.<.,.,.-.,.,.,.,.,.,.,.,.,.,.-.{ ' ' E                     ",
"                        ,.-.-.-.-.-.-.1.,.,.,.,.;.;.&.&.&.;.;.;.;.;.;.:.,.,.,.,.,.,.<.,.,.,.,.,.,.,.<.,.<.]                     ",
"                                      Y.U.U.J.J.A.A.B.V.C.k.k.j.h.8.8.1.1.3.<.,.,.,.3.3.4.2.3.3.3.3.3.3.7.T                     ",
"                                      !._.).).).)._./._./._././.).).).~.~.U.r e w w w .. . .X.X._ _ _ X.X.                      ",
"                                      !.)./.).^././././.).~.~._.).).)./.^.`.r.; 4 2 2 2 2 2 2 4 4 4 4 4 :                       ",
"                                      '.^.).).)./././._.c.9 q n._.^./.)./._.L.1 5 9 6 6 3 3 6 5 5 4 4 4 5                       ",
"                                      {.^.)./.).)././.).V < < Z ).).).).).).^.y.c.!.^.!.v.V 1 4 4 4 4 4 3                       ",
"                                      {.^.).).).)./.).~.9 4 4 9 !.).^.)./.).).`._.).).).`.!.0 3 4 4 4 4 3                       ",
"                                      '.^.)./.).)./.).~.9 4 4 9 ^.).^.).)./.).^.^.)././.^.`.x.1 4 4 4 4 3                       ",
"                                  !.~.)./.).).)./././.).Z < < A ).)./.)./.).).).)./.).).)._.P.6 5 4 4 4 3                       ",
"                                W._./.)./.^.!.^.).`.).).T.V Z E._./.)./.).)./.)././.).)./._.P.6 5 4 4 4 3                       ",
"                                }./._.T.A 9 9 9 Z y.E.`././.).)./././.)./.).)./.)././././._.y.3 6 5 4 4 4                       ",
"                                x.!.!.Z * 3 4 3 1 < 9 v._././././.)./.).)././.).)./.).^.).P.6 , 3 4 4 7 -                       ",
"                                      6 4 4 4 4 4 4 3 3 v._./.)././.)././.)./.)./.).)./.).^.b.e.0 4 , 3                         ",
"                                      9 4 4 4 4 4 4 9 1 q _.).).)./.)./.).)./.).).)./.).).)._._.~.b.y.t.                        ",
"                                      0 1 1 3 1 3 < < 1 V ^.).).).)./.).)./.)././.).)./.).).^.^.).)._.}.                        ",
"                                        0 C V V Z A t.x.~.)./.)./.)./.).)./.)./.)./.).).)././.)././._.W.                        ",
"                                        9.Y./././._.`.`.).)./._.).)././.).).).)./.)./.).).).).).)./.^.                          ",
"                                        3.<.h.j.j.j.h.h.j.g.s.i.I P q.0.0.0.0.j.j.j.j.p.I L L L L K h                           ",
"                                      ,.<.,.;.;.;.;.;.:.;.=.O.z u w.N.Z.Z.V.0.;.;.;.=.o.i c z z b x c                           ",
"                                      5.,.,.<.<.<.<.3.2.>.S m b a.(._.)._.).).S.1.:.3.#.c c c c c c H                           ",
"                                      4.,.,.3.2.=.,.$.w.F n c c M._.^./.^.^./._.S.:.2.#.c c c x c c B y                         ",
"                                      6.-.>.$.@.w.D c n x c b G I.)./.).)./.).^.).h.=.o.n G c c c c c c                         ",
"                                    > G k k c n n n c c c c c N I._./././.).).^._.B.*.D n c c c c c c j                         ",
"                                    j c c x c c c c c c c c c x m._./.).).)./.)./.B.#.v c c c c c c v h                         ",
"                                    t M c c c c c c c c c c c b L _././.)./.)./._.K.l m c c c c c c m l                         ",
"                                # + s M c c c c c c v x c c c v c M.`.^./.)./.^._.a.u G c c c c c c m d +                       ",
"                              # $ @ : v c c c c c c c c c c c c z G Q._.^.).^._.Q.G z c c c c c c c H t @ &                     ",
"                              # $ + = c c c c c c c c c N c c x c z K Q.`.).`.^.K z c c c c x c c c v : + # %                   ",
"                              X # # + a M c c v c v v v v v v c v c b G m.R.m.J u G v v v v v v c M f + & + =                   ",
"                                % # # # s h h h c h h h h g h h h h h g g h g g j h h h h h F h h d $ # # #                     ",
"                                o & # # + $ = $ $ = .                                 $ $ $ = $ $ + + # &                       ",
"                                    & # # # # # + &                                   + # # + & # # $ &                         ",
"                                      X # # O # + &                                   o # O # + # + X                           ",
"                                          # 8 % 8                                       % % = 8 &                               ",
"                                                                                                                                ",
"                                                                                                                                ",
"                                                                                                                                ",
"                                                                                                                                ",
"                                                                                                                                ",
"                                                                                                                                ",
"                                                                                                                                "
};
