/* XPM */
static char *bc2e17a037b44115ce61a7723ccbbfb8BmKkxGtwVQydKF2Y[] = {
/* columns rows colors chars-per-pixel */
"64 64 156 2 ",
"   c None",
".  c #2C2D2D",
"X  c #2C3233",
"o  c #323233",
"O  c #3D3433",
"+  c #3D3D3D",
"@  c #423837",
"#  c #5F4231",
"$  c #634634",
"%  c #6F4436",
"&  c #664B38",
"*  c #694C39",
"=  c #654835",
"-  c #65513B",
";  c #6F523E",
":  c #70533F",
">  c #197D43",
",  c #5E5D40",
"<  c #765944",
"1  c #755843",
"2  c #596242",
"3  c #556A45",
"4  c #497749",
"5  c #7D6C5D",
"6  c #853D36",
"7  c #8C3731",
"8  c #963831",
"9  c #CC4335",
"0  c #D34537",
"q  c #D74638",
"w  c #D94738",
"e  c #DD4A3B",
"r  c #CB573E",
"t  c #DD533F",
"y  c #D3513B",
"u  c #E54435",
"i  c #EB4335",
"p  c #EE473A",
"a  c #E64C3C",
"s  c #EA4C3C",
"d  c #E44738",
"f  c #F14639",
"g  c #82644D",
"h  c #967C4D",
"j  c #8C6E54",
"k  c #8F7157",
"l  c #987A5F",
"z  c #BE6848",
"x  c #9B7D61",
"c  c #D95841",
"v  c #F25040",
"b  c #FB5241",
"n  c #C26747",
"m  c #ED755C",
"M  c #EB7057",
"N  c #F6705A",
"B  c #EE7E63",
"V  c #1A8346",
"C  c #229D56",
"Z  c #24A65B",
"A  c #28A159",
"S  c #25A95D",
"D  c #1CBA63",
"F  c #27AF61",
"G  c #28AF61",
"H  c #25B161",
"J  c #28B162",
"K  c #26BB66",
"L  c #2ABC67",
"P  c #2BBD69",
"I  c #34B56A",
"U  c #3DBA67",
"Y  c #44844F",
"T  c #7C965A",
"R  c #74995B",
"E  c #6FA15F",
"W  c #689764",
"Q  c #43B565",
"!  c #50B467",
"~  c #51B86A",
"^  c #67A560",
"/  c #78BD77",
"(  c #1EC76C",
")  c #15D572",
"_  c #1BD170",
"`  c #27C068",
"'  c #25CB6E",
"]  c #2EC86F",
"[  c #2DC66D",
"{  c #35C56E",
"}  c #39C36D",
"|  c #2ECD72",
" . c #25D676",
".. c #2AD173",
"X. c #34D074",
"o. c #32D778",
"O. c #35E27E",
"+. c #67C77B",
"@. c #9E8164",
"#. c #A48669",
"$. c #B49675",
"%. c #B99B79",
"&. c #9FAB72",
"*. c #A4A871",
"=. c #ED8166",
"-. c #F28A6E",
";. c #F08569",
":. c #E89473",
">. c #F49B7B",
",. c #F39777",
"<. c #5BDB87",
"1. c #6DCE81",
"2. c #68D283",
"3. c #6EDB8C",
"4. c #70D486",
"5. c #C7AC86",
"6. c #C6AB85",
"7. c #CBB28C",
"8. c #D1B78E",
"9. c #D5BB91",
"0. c #D9BE94",
"q. c #E2AA82",
"w. c #F7B08B",
"e. c #FDBF97",
"r. c #F7B892",
"t. c #DBC299",
"y. c #E5C89D",
"u. c #E2C49A",
"i. c #F9C99F",
"p. c #ECD0A4",
"a. c #E3DFAB",
"s. c #EFDAAB",
"d. c #EFD4A8",
"f. c #F1D3A6",
"g. c #F2D6A8",
"h. c #FCDDAF",
"j. c #F6D8AA",
"k. c #FEDFB0",
"l. c #FDDEB0",
"z. c #FCDFB0",
"x. c #FEE0B1",
"c. c #FFE0B1",
"v. c #FFE0B2",
"b. c #FFE1B2",
"n. c #FFE2B3",
"m. c #FDE3B3",
"M. c #FFE3B4",
"N. c #FFE6B5",
"B. c #FDE4B5",
"V. c #FDE8B7",
"C. c #FFEAB9",
"Z. c #FFEBBB",
"A. c #FFF1BF",
"S. c #FFF1BF",
"D. c #FFFFCB",
"F. c #FFF3C0",
/* pixels */
"                                                                                                                                ",
"                                                                                                                                ",
"                                                                                                                                ",
"                                                                                                                                ",
"                                                                                                                                ",
"                                                                                                                                ",
"                                                                                                                                ",
"                                              I I I I I I I I I I I I I I I I I I                                               ",
"                                  > F K K K K F H H H F H H F H H J H H H H H F H L K K K S V                                   ",
"                                [ L J F G G G J J J J J J J J J J J J J J J J J J G G J G J L P                                 ",
"                              P F F G J J J J J J J J J J J J J J J J J J J J J J J J J J G F F [                               ",
"                            H J J J J J J J J J J J J J J J J J J J J J J H J J J J J J J J J J J Z                             ",
"                            Z J J J J J J J J J J J J J J J J J J J J J J J J J J J J J J J J G J F                             ",
"                            S J G J J J J J J H J J J J H J J J J J J J J J J J J J J J J J J J J S                             ",
"                            S L J J J J J J J J J J J J J J J J J J J J J J J J J J J J J J J G J S                             ",
"                            S J G J H J J J J J J J J J J J J J J J J J H J J J J H J J H J J J L S                             ",
"                            S J J J J J J J J J J J J J J G G J J J J J J J H H J H J J J J H J J S                             ",
"                            S L J J J J J J J J J J J G J K G G G H K J J J J H J J J J J J J G J S                             ",
"                            S J G J J J J J J J J J F F F Y 2 , , 2 Y G J J H H J J J J J J J J J S                             ",
"                            Z J G J G J J G J G J G H D 3 % * * % * % 3 F J H H J G J G J G J H I S                             ",
"                            C S Z S Z Z Z Z S Z Z Z S 4 % * * * * * - % 4 H Z S Z S Z Z Z S Z Z S C                             ",
"                            C S Z Z Z S Z Z Z Z Z S Z - * * * * * * * * - C S Z Z Z Z Z Z S Z Z S C                             ",
"                            C Z Z Z Z Z Z Z Z Z Z Z Z 2 * - - - * - - * 2 Z Z Z Z Z Z Z Z Z Z Z S C                             ",
"                            Z S Z S Z Z S Z S S Z Z S Z A Z A A Z Z A A Z S S Z S S Z Z Z S S A S Z                             ",
"                              S C Z Z C A A A A A A A A Z A A Z A Z Z A A A A A A A A A A A A C A                               ",
"                              & - - - - - - - - - - - & - * - - * - - * - - - - - - - - - - - - &                               ",
"                              = * * * * * * & * * & * * * * & * * * * * * * & * & & * & & * * * &                               ",
"                          7.5.; * * * & * * * * * * * * * * * * * * * * * * * * * * * * * * * & 1 5.7.                          ",
"                        y.t.8.: = * * * * * * * * * * * * * * & * * * * * * & * * * * * * * * & * 9.t.y.                        ",
"                      t.9.0.8.; & * * * * * * * * * * * * * * * * * * * * * * * * * * * * * * & 1 7.9.9.t.                      ",
"                      0.9.t.8.: * * * * * * * * * * * * * * * * * * * * * & * * * * * * * * * * ; 8.0.9.0.                      ",
"                      t.9.0.9.1 $ * * * * * * * * * * * & * * * * * * * * * * * * * * * * ; * $ : 8.t.9.t.                      ",
"                      t.t.9.9.#.< * # # $ * * * * * * * * * * * * * * * * * * * * * * = # # * : @.9.9.t.t.                      ",
"                        9.t.0.s.x.y.%.@.g ; & $ $ # = $ $ = = = $ $ = * & $ $ # = * ; g l %.t.z.j.t.u.9.                        ",
"                          8.5.y.B.m.Z.B.h.g.9.6.$.#.x k g g g g g g g < j x #.$.%.t.p.z.m.C.m.m.j.7.8.                          ",
"                                S.h.h.x.v.v.C.C.Z.N.B.B.z.l.h.l.z.z.z.z.l.B.N.Z.C.N.m.c.c.h.c.m.p.                              ",
"                                A.h.x.x.x.x.x.h.l.l.l.v.B.l.v.v.v.v.v.v.l.l.l.l.c.z.c.c.c.c.j.A.                                ",
"                                A.h.x.x.x.x.x.x.v.v.v.v.l.l.l.v.x.x.x.x.l.v.v.v.c.c.c.c.c.c.h.S.                                ",
"                                s.m.x.x.v.x.x.v.x.x.v.v.k.B.l.l.x.x.x.x.v.v.v.l.c.c.c.c.c.z.z.f.                                ",
"                              K +.i.v.m.m.v.m.m.v.x.v.v.k.l.B.B.v.v.v.v.v.v.v.m.c.m.m.c.m.m.i./ (                               ",
"                            O. .T i M m m N m N &.<.1.2.2.2.2.2.2.2.2.2.2.+.<.*.N m N m m m f @. .O.                            ",
"                          o.[ | n f a d d u d i c I ) ' ' ' ' ' ' ' ' ' ' ) Q y p d d d d d p t } | o.                          ",
"                        ` X._ ~ a a a a a a a a d c W P  .' | | | .... .| E t s a a a a a a s s ^ _ X.`                         ",
"                        L ' 3.q.i a a a a a a a v v f n T ! { { } { ! T n f a a a a a s a a a i :.3.' L                         ",
"                        D 4.C.>.u a a a a a a s e v q i i v c c t t a f f a a a a a a a a a a u -.C.4.D                         ",
"                        { a.C.:.u a a s a a a a v p v c c p p d s s a a a a a a a a a a a a a u =.B.a.{                         ",
"                        W C.m.;.u a a e 0 0 q 0 0 0 c v i v d v s a a a a a 0 0 q q 0 0 w a a d m z.Z.W                         ",
"                          S.C.-.u a a q 9 9 9 9 9 9 u p u c d c a a a a a a 9 9 9 9 9 9 w s a i B z.F.                          ",
"                          S.C.>.u v d q 9 9 9 9 9 0 d v d v d v a a a a d v 9 9 9 9 9 9 w p d u -.B.F.                          ",
"                          F.m.w.q v v q 0 9 9 9 9 e v d v d e d a a d a c p e 9 9 9 9 0 d c v u ,.B.S.                          ",
"                          p.m.i.v e e v v 0 0 0 0 v e v c v b b v b v a p d d e 0 0 0 a v d d p r.N.p.                          ",
"                            D.C.B u v p v w v d d d v 0 v             v q v v p s s s a a v i B B.D.                            ",
"                              f.5 7 c e c d e c c e 6 @                 @ 6 c w e c e d c e 8 5 d.                              ",
"                                X X O O O O O O O O X o                 o o O O O O O O O O o .                                 ",
"                                o O o o o o X o o o o O                 + o o o o o o o o o + o                                 ",
"                                  O o . o . . X . o o .                 . o o . o o . o . o o                                   ",
"                                    o + + + , o + +                         + + + + + + , .                                     ",
"                                                                                                                                ",
"                                                                                                                                ",
"                                                                                                                                ",
"                                                                                                                                ",
"                                                                                                                                ",
"                                                                                                                                ",
"                                                                                                                                "
};
