/* XPM */
static char *_b0f9eb70c5e4d86e1511914a546a99ewuNgovhoFqcdPf88[] = {
/* columns rows colors chars-per-pixel */
"64 64 185 2 ",
"   c None",
".  c #2A2B2C",
"X  c #352D2E",
"o  c #2C3233",
"O  c #263132",
"+  c #333333",
"@  c #3C3434",
"#  c #3D3D3D",
"$  c #3C3A37",
"%  c #513734",
"&  c #5D3835",
"*  c #403837",
"=  c #7C3A33",
"-  c #753C36",
";  c #5D402F",
":  c #5E4131",
">  c #5E4B35",
",  c #614433",
"<  c #664937",
"1  c #694C39",
"2  c #624F39",
"3  c #704F3C",
"4  c #6E513D",
"5  c #65523B",
"6  c #71543F",
"7  c #197D43",
"8  c #735641",
"9  c #765944",
"0  c #7C5E48",
"q  c #6B5841",
"w  c #7F614B",
"e  c #6E6A5C",
"r  c #8A3F37",
"t  c #DC3F30",
"y  c #B64438",
"u  c #CC4335",
"i  c #C64335",
"p  c #D24436",
"a  c #D74638",
"s  c #DB4638",
"d  c #DE493A",
"f  c #D1493B",
"g  c #DD533F",
"h  c #D3513B",
"j  c #CB573E",
"k  c #E54335",
"l  c #E64738",
"z  c #ED4739",
"x  c #E64C3C",
"c  c #EA4C3C",
"v  c #EB4335",
"b  c #F14639",
"n  c #F24E3D",
"m  c #E8503F",
"M  c #83664E",
"N  c #896C53",
"B  c #92755A",
"V  c #96795D",
"C  c #BE6848",
"Z  c #9B7D61",
"A  c #D85942",
"S  c #E75D48",
"D  c #C26747",
"F  c #EB624D",
"G  c #FA6C58",
"H  c #ED755C",
"J  c #EB7057",
"K  c #F3745C",
"L  c #CB7C65",
"P  c #1A8346",
"I  c #1DAD5A",
"U  c #19AC57",
"Y  c #25A55C",
"T  c #25AA5D",
"R  c #1CBA63",
"E  c #27AF61",
"W  c #28AF61",
"Q  c #25B060",
"!  c #29B162",
"~  c #25BC66",
"^  c #2ABB67",
"/  c #2BBD69",
"(  c #30B267",
")  c #34B56A",
"_  c #3DBA67",
"`  c #78985A",
"'  c #76844C",
"]  c #6FA15F",
"[  c #689765",
"{  c #50B467",
"}  c #51B86A",
"|  c #4BBE7B",
" . c #43B565",
".. c #1ACF6F",
"X. c #15D572",
"o. c #27C068",
"O. c #2CC36C",
"+. c #24CA6D",
"@. c #2CC96F",
"#. c #33C56E",
"$. c #38C56E",
"%. c #30C86F",
"&. c #2DCC71",
"*. c #26CE71",
"=. c #37C573",
"-. c #34CB71",
";. c #39CD74",
":. c #38C674",
">. c #24D675",
",. c #2DD173",
"<. c #31D778",
"1. c #33D175",
"2. c #34E37E",
"3. c #6AC97D",
"4. c #978755",
"5. c #9C8867",
"6. c #A68B6B",
"7. c #AF9071",
"8. c #B99C79",
"9. c #9FAB72",
"0. c #BFA17E",
"q. c #A4A871",
"w. c #DE8369",
"e. c #EF8266",
"r. c #F1886C",
"t. c #EF9172",
"y. c #F59C7B",
"u. c #C0B07E",
"i. c #5AD986",
"p. c #67D081",
"a. c #6AD384",
"s. c #6EDA8B",
"d. c #70D586",
"f. c #75CD9B",
"g. c #68C891",
"h. c #7ED0A1",
"j. c #C9AC87",
"k. c #CCB28B",
"l. c #C7B088",
"z. c #D1B78E",
"x. c #D3B98F",
"c. c #D6BC92",
"v. c #D8BE94",
"b. c #D5B790",
"n. c #FDBE97",
"m. c #EDAD87",
"M. c #8EDE95",
"N. c #8DD58E",
"B. c #DCC299",
"V. c #DBC197",
"C. c #E2C59C",
"Z. c #E5C99E",
"A. c #F7C99F",
"S. c #EACDA1",
"D. c #E7CBA0",
"F. c #FBCCA1",
"G. c #EDD1A5",
"H. c #ECDAAA",
"J. c #E3DEAA",
"K. c #FBD5A7",
"L. c #F4D6A9",
"P. c #F4DEAD",
"I. c #FBDCAD",
"U. c #FEDFB0",
"Y. c #FFE5B5",
"T. c #FFE6B6",
"R. c #FFE1B2",
"E. c #FEE8B7",
"W. c #FFEAB9",
"Q. c #FFEABA",
"!. c #FFF1BE",
"~. c #E3E0AC",
"^. c #AEE2C3",
"/. c #B8E5CB",
"(. c #FFF3C0",
"). c #FFFFCB",
"_. c #DCF2E5",
"`. c #F3F9F6",
"'. c #F1F9F5",
"]. c white",
"[. c #FEFFFE",
"{. c #FCFEFD",
"}. c #FAFDFB",
"|. c #F7FBF9",
" X c #E7F6EE",
/* pixels */
"                                                                                                                                ",
"                                                                                                                                ",
"                                                                                                                                ",
"                                                                                                                                ",
"                                                                                                                                ",
"                                                                                                                                ",
"                                                                                                                                ",
"                                              ) ) ) ) ) ) ) ) ) ) ) ) ) ) ) ) ) (                                               ",
"                                  7 E ~ ~ ~ ~ E Q E Q E Q E Q Q Q Q Q Q E Q Q Q Q ~ ~ / ~ T P                                   ",
"                                O.^ ! E W W W W ! ! ! ! ! ! ! ! ! ! ! ! W ! ! ! ! E W E ! ! ^ ^                                 ",
"                              / E E W ! W Q ! ! ! ! ! ! ! ! ! ! ! ! ! ! ! ! ! ! ! ! ! Q ! W E E @.                              ",
"                            Q ! ! ! ! ! ! ! ! ! ! ! Q ! ( ! Q Q ! ! ! ! ! ! W ! Q ! ! ! W ! ! W ! Y                             ",
"                            Y ! W ! ! Q ! ! ! ! Q ! ! Q U T ! ( ! ( I U W ! ! ! ! ! ! Q ! ! ! ! ! T                             ",
"                            T ! ! ! ! ! ! ! Q ! ! ! I ) h./._._._._./.f.( I ! ! W ! ! E ! ! ! W ! T                             ",
"                            T ! W ! ! Q ! E ! ! ! I f.'.[.[.[.[.[.[.[.[. Xg.U ! ! ! ! ! ! ! ! W ! Y                             ",
"                            T ! W ! ! ! ! ! ! ! I f.[.{.{.{.[.[.[.[.[.{.[.{.g.I ! ! ! ! Q ! ! W ! T                             ",
"                            Y ! ! ! W ! ! Q ! T | }.[.[.[.[.[.[.[.[.[.[.[.[.'.| T ! Q ! ! ! ! W ! T                             ",
"                            T ^ ! ! ! ! ! ! ! I ^.[.[.[.[.[.[.[.[.[.[.[.[.}.[.^.I ! ! ! ! Q ! W ^ T                             ",
"                            T ! W ! ! W T ! Q ( _.|.'.'.`.'.`.`.`.`.'.`.'.'.}._.) Q W E W W W W ( Y                             ",
"                            Y ! ! ! ^ ^ / ^ / O.:.:.:.=.:.=.:.:.=.:.=.=.=.:.:.:.O./ / / / ! ~ ! ! T                             ",
"                            / &.&.&.&.-.-.&.,.&.@.,.+.,.+.&.&.&.&.&.&.&.&.&.*.+.&.&.&.&.&.&.&.-.1./                             ",
"                            O.,.&.&.&.&.&.&.&.&.&.,.-.&.1.&.&.&.&.&.&.&.-.&.&.&.&.&.&.&.&.&.&.&.1.O.                            ",
"                            / &.&.&.&.&.&.&.-.&.-.-.-.&.-.&.&.&.&.&.&.&.&.&.&.&.&.&.-.&.-.&.-.@.&.O.                            ",
"                            &.1.&.&.&.+.&.&.&.&.+.,.+.&.&.+.*.&.+.&.&.@.&.+.&.&.&.&.&.&.&.+.,.@.,.@.                            ",
"                              -.#.=.-.;.;.;.;.;.;.;.;.;.;.;.;.-.;.;.;.;.;.;.;.;.;.;.;.;.;.;.#.O.-.                              ",
"                              2 5 q B.R.P.P.P.P.P.P.P.P.P.P.P.R.P.P.P.P.P.P.P.P.P.P.P.P.P.E.5.> 5                               ",
"                              < ; 7.Q.R.U.Y.R.R.Y.U.Y.R.R.U.R.R.Y.R.R.R.R.R.R.Y.U.U.Y.U.U.T.Z.4 ,                               ",
"                          k.l.< N R.R.U.Y.Z.N M B.Y.U.R.U.R.R.R.R.R.R.U.R.R.Y.Z.N M C.T.U.P.W.8., k.k.                          ",
"                        Z.B.k.N G.Y.U.U.Y.V ; ; V Y.U.U.U.U.R.I.R.U.U.R.U.R.Y.V & ; V T.I.R.R.I.Z k.B.Z.                        ",
"                      B.c.c.c.L.Y.U.R.R.P.8 1 1 8 I.Y.U.U.U.R.R.U.R.R.U.U.R.I.8 1 1 6 I.Y.R.R.R.I.b.c.c.B.                      ",
"                      B.c.c.v.I.R.R.I.R.K.8 < < 8 L.Y.U.R.R.R.U.I.R.R.R.U.R.L.8 < < 6 P.R.R.U.R.U.v.c.c.v.                      ",
"                      B.c.v.v.I.R.R.R.R.Y.B : , B Y.U.U.U.U.Z.B.C.Z.U.U.U.U.Y.B : , B R.U.R.R.R.P.V.c.c.B.                      ",
"                      B.v.c.c.L.R.R.R.U.Y.Z.0 9 Z.Y.I.Y.W.S.c.c.c.x.Z.Q.Y.I.Y.Z.w 6 Z.Y.U.U.U.R.I.c.x.V.B.                      ",
"                        v.B.v.L.R.U.R.U.U.Y.I.I.Y.I.W.S.8.c.V.v.V.V.v.8.S.W.U.Y.P.I.Y.U.U.U.R.R.L.V.V.V.                        ",
"                          x.l.D.R.R.U.R.U.U.R.R.I.W.k.1 , 6.z.z.z.z.6., 1 j.Y.U.R.R.U.R.R.U.R.R.L.k.k.                          ",
"                                !.I.R.U.R.R.U.U.Y.b.< < 1 < 4 4 4 4 < 1 < ; j.W.U.U.U.U.U.R.U.T.G.                              ",
"                                (.I.R.R.R.U.R.R.R.M < 1 1 1 1 1 1 1 1 1 6 < 9 I.R.U.R.R.U.U.I.!.                                ",
"                                !.I.U.U.U.R.U.R.I.w : , , < 1 < < < 1 , : ; M I.R.U.R.U.U.U.I.!.                                ",
"                                H.Y.R.U.U.U.U.U.Y.G.0.Z N 9 6 8 6 6 9 N V 0.G.U.U.U.U.U.U.U.W.H.                                ",
"                              o.3.A.Y.R.Y.R.R.Y.R.Y.Q.Y.U.I.I.I.K.I.I.R.W.Q.R.Y.Y.R.Y.R.Y.Y.n.3.o.                              ",
"                            2.>.` v J H H H H G 9.i.3.p.p.a.a.a.a.a.a.a.p.3.i.q.K H K H H G 4.+.1.2.                            ",
"                          <.@.+.D b l l l k l l A _ X...+.+.+.+.+.+.+.+.+.X. .h v l x k s ' ..+.@.%.<.                          ",
"                        O.1...{ x x c x x x x x z A ] -.>.&.-.&.&.&.,.>.&.] A b x m l S 0.M.N.N.;.+.1.o.                        ",
"                        ^ +.s.m.v x x x x x x x x c z C ` { =.#.:.$.{ ` D b c x x l J K.Y.Y.Y.Y.H.a.*.O.                        ",
"                        R a.Q.y.k m c x x x c x x x x z b x g A g g x b z x x x x x F.W.I.R.U.U.R.R.a.R                         ",
"                        #.~.Q.t.k x x x x x x x x x x x x c z c c c x x x x x c x F I.R.U.R.R.U.R.R.~.#.                        ",
"                        [ Q.Y.e.k x x x x x x c x x x x x p p u p p s x x x x x l F I.R.R.U.R.R.R.R.Q.[                         ",
"                          !.Y.r.k x x x c x c x x x x x u u u u u u u u d x x x x c F.Y.U.U.U.U.R.I.(.                          ",
"                          Q.W.y.k x c n c x x x c n d u u u u u u u u u u s c x c k y.W.U.R.R.U.R.I.!.                          ",
"                          (.Y.m.x m f r & % % % - y p u u u u u u u u u u u x c x x S K.R.U.U.U.R.I.(.                          ",
"                          G.Y.F.c y @ O o o o + O o = p u s d d d d p p u u p c x x k e.W.U.U.U.U.R.G.                          ",
"                            ).E.L X o @ + + + + + X O r p             i i p u x c c c z y.W.Y.R.R.).                            ",
"                              L.e . @ + + o + + + + o $                 # = i u d d d d l w.B.I.G.                              ",
"                                o + + + + @ + o + + + +                 + o + @ $ $ @ $ * X $ $                                 ",
"                                + + + + @ + + @ @ + + $                 $ X + o o + + + + o + +                                 ",
"                                  @ + X o o + + o X + .                 o + + X + X o X + + +                                   ",
"                                    + # # # # # # #                         # # # # # # # @                                     ",
"                                                                                                                                ",
"                                                                                                                                ",
"                                                                                                                                ",
"                                                                                                                                ",
"                                                                                                                                ",
"                                                                                                                                ",
"                                                                                                                                "
};
