/* XPM */
static char *e193b12a64b54d95ea093b782c3fd3f4Ie4iHBQ9yODulGWW[] = {
/* columns rows colors chars-per-pixel */
"64 64 187 2 ",
"   c None",
".  c #241C1B",
"X  c #2D2D2D",
"o  c #242424",
"O  c #302F2F",
"+  c #263132",
"@  c #2C3334",
"#  c #333333",
"$  c #3C3433",
"%  c #3C3C3C",
"&  c #353738",
"*  c #5B3E2E",
"=  c #473836",
"-  c #4E392B",
";  c #633E2F",
":  c #6D352E",
">  c #5C402F",
",  c #5E4231",
"<  c #634634",
"1  c #6C4335",
"2  c #644936",
"3  c #6A4C39",
"4  c #664B38",
"5  c #6E513D",
"6  c #70533E",
"7  c gray25",
"8  c #725641",
"9  c #7A5B45",
"0  c #795B45",
"q  c #56774C",
"w  c #566543",
"e  c #797B57",
"r  c #8A3B32",
"t  c #A5362A",
"y  c #EA3D32",
"u  c #F13D33",
"i  c #994138",
"p  c #8B4139",
"a  c #A14239",
"s  c #AD4439",
"d  c #DA4335",
"f  c #DC4A3B",
"g  c #D54435",
"h  c #DC523E",
"j  c #CE4F3C",
"k  c #E64536",
"l  c #E94738",
"z  c #E64C3C",
"x  c #EB4C3C",
"c  c #E94638",
"v  c #F24539",
"b  c #F44C3C",
"n  c #F94F3D",
"m  c #E5503F",
"M  c #F4503F",
"N  c #83664E",
"B  c #896A52",
"V  c #8E7157",
"C  c #96785D",
"Z  c #A27D51",
"A  c #B76F4B",
"S  c #D55841",
"D  c #EB5A46",
"F  c #FC5442",
"G  c #EE614C",
"H  c #ED6D56",
"J  c #EE765C",
"K  c #E27A5D",
"L  c #F7705A",
"P  c #ED7B61",
"I  c #1D874A",
"U  c #1F9953",
"Y  c #279555",
"T  c #1DAE5A",
"R  c #18A051",
"E  c #23A459",
"W  c #24AE5E",
"Q  c #22A057",
"!  c #27AE60",
"~  c #28AE61",
"^  c #3FA660",
"/  c #3EA961",
"(  c #25B161",
")  c #28B162",
"_  c #27BB66",
"`  c #29BB67",
"'  c #2BBD69",
"]  c #34B56A",
"[  c #35BD6E",
"{  c #4C8D55",
"}  c #508251",
"|  c #47975A",
" . c #78965A",
".. c #6F9758",
"X. c #5DA35D",
"o. c #6BA25F",
"O. c #5BAE65",
"+. c #4BB969",
"@. c #4EBE7E",
"#. c #1ECB6C",
"$. c #17CF6D",
"%. c #18D372",
"&. c #2CC36C",
"*. c #24CA6D",
"=. c #2DC96F",
"-. c #3AC26D",
";. c #2ECC71",
":. c #31CC72",
">. c #3ACD74",
",. c #23D475",
"<. c #2BD274",
"1. c #2CDC79",
"2. c #32DC7A",
"3. c #3BD57A",
"4. c #2EE27C",
"5. c #4FCF7C",
"6. c #53CF7D",
"7. c #5AD07E",
"8. c #6CC479",
"9. c #8B8D57",
"0. c #9E8064",
"q. c #B28F71",
"w. c #AF9171",
"e. c #B69877",
"r. c #A18365",
"t. c #AAA36F",
"y. c #C88F67",
"u. c #F58B6E",
"i. c #5BD583",
"p. c #5CC488",
"a. c #65CF81",
"s. c #68CF81",
"d. c #63D282",
"f. c #69D283",
"g. c #7AD388",
"h. c #73C897",
"j. c #78D09E",
"k. c #C8AD88",
"l. c #CFB18B",
"z. c #D1B38C",
"x. c #D6B890",
"c. c #DBBD95",
"v. c #F8AA86",
"b. c #F9B992",
"n. c #81DB90",
"m. c #9AD692",
"M. c #96D691",
"N. c #88D48D",
"B. c #A6D795",
"V. c #AFD898",
"C. c #B9D99C",
"Z. c #A0E09B",
"A. c #97D9B3",
"S. c #A6DEBE",
"D. c #9BE3B9",
"F. c #CCC490",
"G. c #C5DA9F",
"H. c #E3C69B",
"J. c #E7C99E",
"K. c #FBC79D",
"L. c #DCDBA6",
"P. c #DAD7A3",
"I. c #EBCEA3",
"U. c #FFCDA1",
"Y. c #EED2A6",
"T. c #EBD8AA",
"R. c #FCD2A6",
"E. c #F4D6A9",
"W. c #F6DAAC",
"Q. c #FBDCAD",
"!. c #FEDFB1",
"~. c #E6E2AC",
"^. c #FFE1B2",
"/. c #FFE8B7",
"(. c #FFEAB9",
"). c #FFF2BF",
"_. c #ACEAC6",
"`. c #B1E9C9",
"'. c #FFF3C0",
"]. c #FFFCC7",
"[. c #D5EFE0",
"{. c #EFF0EF",
"}. c #EFF1F0",
"|. c #F1F1F1",
" X c #FFFFFF",
".X c #FCFEFD",
"XX c #FBFEFC",
/* pixels */
"                                                                                                                                ",
"                                                                                                                                ",
"                                                                                                                                ",
"                                                                                                                                ",
"                                                                                                                                ",
"                                                                                                                                ",
"                                                                                                                                ",
"                                                Y [ ] ] ] ] ] ] ] ] ] ] ] ] ] [ Y                                               ",
"                                        Y W _ _ ) ~ W ) W ( ( W ( ) ( ~ ( ~ ( W ) ` &.I                                         ",
"                                  E ` [ _ ) ~ ~ ) ) ) ) ) ) ) ) ) ) ) ) ) ~ ) ) ) ) W ` (                                       ",
"                              I &.) ) W ~ ) ) ) ) ) ) ) ) ) ) ) ) ) ) ) ) ) ) ) ) ) ) ~ '                                       ",
"                            ) ' W ) ~ ) ) ( ) ) ) ) ) ) ) ) ) ) ( ) ) ) ) ) ) ) ) ) ( W T R                                     ",
"                          =.~ ~ ~ ) ) ) ) ) ) ) ) ) ) ) ) ~ ) ) ) ) ~ ( ) ) ) ) ) T ~ @.j.h.                                    ",
"                        ` ~ ) ~ ) ) ) ) ) ) ( ) ) ) ) ) ) ) ) ) ) ) ) ) ) ) ) ) W h.[.XX X|.                                    ",
"                      W ) ~ ) ) ) ) ) ) ) ) ) ) ) ) ( ) ) ) ) ) ) ) ) ) ) ) ) W S. X X X X{.                                    ",
"                      ' ~ ) ) ) ( ) ) ) ) ) ) ) ) ) ) ) ) ) ) ) ) ) ) ) ) ) T A. XXXXX X X|.                                    ",
"                    E ) ~ ) ) ) ) ) ) ) ) ( ) ) ) ) ) ) ( ) ) ) ) ) ) ) ~ T p. XXXXXXXXX X}.                                    ",
"                    E _ ~ ) ) ) ~ ) ) ) ) ) ) ) ) ) ~ ) ) ) ) ~ ) ) ) ) ) W `.XXXX XXXXX X|.                                    ",
"                    ( ) ) ) ) ) ) ) ) ) ) ) ) ) ) ) ) ) ~ ) W ~ ) ) ) ) ) ] D.`._.`._._.`._.                                    ",
"                    ` ~ ) ) ) ) ( ) ) ) ) ~ ~ ~ ~ ) ) _ ` ` &.&.&.=.=.=.=.=.*.*.*.*.*.*.*.*.2.2.2.:.`                           ",
"                    ` ~ ) ) ~ ) ~ ~ ~ ~ ) _ ` ' &.=.=.;.;.;.;.<.<.;.;.=.<.=.:.:.:.:.:.;.:.;.=.=.;.;.;.2.<.                      ",
"                    ( ) ~ ~ ) ) _ ` &.=.;.;.;.:.;.;.;.;.;.;.;.;.:.=.<.:.=.=.<.:.=.:.:.=.:.;.;.;.;.;.;.=.=.3.                    ",
"                    Q ) _ ' &.;.;.;.:.;.;.;.;.;.;.;.:.=.:.:.;.:.;.:.:.:.:.:.<.;.;.;.;.;.;.;.<.;.:.;.;.:.1.3.                    ",
"                    ` =.=.:.;.:.=.:.=.=.:.;.;.;.;.;.;.<.=.*.=.*.*.*.#.*.#.*.*.*.;.;.;.:.>.&.&.&.&.&.&.=.                        ",
"                    Y 4.<.<.<.<.<.<.1.,.,.<.<.:.;.=.:.>.>.5.5.i.f.g.g.N.M.m.V.V.G.G.P.L.P.                                      ",
"                      | / | / / | | { { } q q q w e T.W.W.Q.^.^.^.^./.^.^.^./.^.^.^.^./.E.                                      ",
"                      1 3 3 3 4 1 3 1 1 1 1 1 3 * w.(.^.^.^.^.!.^.W.W.^.^.!.!.!.!.!.Q./.E.                                      ",
"                      2 3 3 4 3 3 3 2 2 5 8 8 2 < H./.Q.^.^.Q./.H.8 8 l.(.!.^.!.^.!.^.Q.'.                                      ",
"                      2 3 3 3 3 3 2 N z.E.W.E.z.e.^.^.!.^.!.^.^.V < < N !.^.^.!.!.^.!.Q.'.                                      ",
"                      2 3 3 3 3 2 9 E.(.^.^.^.(./.^.!.^.^.Q.^.W.8 3 2 8 E.^.!.^.^.^.^.W.'.                                      ",
"                      2 3 3 3 3 2 k.(.Q.!.!.!.!.Q.^.^.!.^.Q.^.W.8 2 3 8 W.^.!.^.^.!.^.Q.).                                      ",
"                      2 3 3 3 4 3 I.^.!.!.^.^.!.^.!.!.^.^.^.^.^.C * , V ^.!.!.!.^.^.^.!.^.W.E.                                  ",
"                      2 3 3 3 3 5 J./.!.^.!.!.^.!.!.^.^.^.!.^.^.Y.V N H.^.^.(.^.Q.R.W.!.^.!.(.T.                                ",
"                      3 3 3 3 3 < e./.!.!.^.^.!.^.^.^.Q.!.^.^.!.^.^.!.^.(.Y.e.V 8 6 0 C I./.!.].                                ",
"                      - 6 3 3 2 > 5 J.^.!.^.!.^.!.!.!.^.^.!.!.^.^.!.!./.x.8 , < 4 4 4 * V E.W.k.                                ",
"                        2 , 4 9 r.x.W.^.!.^.^.^.!.^.^.!.^.^.^.^.^.!./.x.2 2 3 3 3 3 3 3 3                                       ",
"                        q.e.x.W././.^.^.^.!.!.!.!.!.^.!.^.!.^.!.!.!.!.N 2 3 3 3 4 3 3 4 6                                       ",
"                        ]././.^.Q.Q.^.^.!.!.!.^.^.!.!.^.^.!.!.^.!.!.!.B < * < 2 2 < 2 < 9                                       ",
"                        T./.Q.^.^.^.!.^.!.^.!.^.!.^.^.!.!.^.!.^.!.!.^.W.k.w.C V N N B 9                                         ",
"                          Q.!.^.^.^.^.^.^.^.^.^.^.^.^.^.^.!.^././.!.!.^.(.(.(.!.Q.!.L.6.                                        ",
"                          f H J J J J L y.7.f.f.f.i.7.7.i.8.P L t.i.f.f.a.a.a.f.f.f.:.1.                                        ",
"                          x k k k k k v  .$.;.*.#.7.m.B.B.n.9.y f ..%.#.*.*.*.*.*.*.;.;.;.                                      ",
"                          F f z z z z x O.<.:.>.C.^./.^.!.^.~.P c v Z -.,.<.:.:.:.=.;.=.2.                                      ",
"                        t F z z z z z z O.<.*.C./.^.Q.^.!.Q.(.b.l D v S 9.+.;.,.,.,.;.;.1.                                      ",
"                        z z z z z z z v  .%.d.^.Q.^.^.!.^.!./.K.D k z x v D A 9.o.+.+.[ 3.                                      ",
"                        d z z x z z z v A $.m./.!.!.!.^.!.!.^.K.D l z z z k v v l z S S M :                                     ",
"                        f x z z z z z z x X.Z.^.!.^.^.!.^.Q./.v.y z z z z z z f x l D l b g                                     ",
"                        j x z z z z z x x j F./.^.Q.^.^.^.!./.P d z z z z z z z x z k f n r                                     ",
"                      @ a b z z z z z z z y u./.Q.!.!.!.Q.(.b.k z x z z z z x z z z z z F p @ #                                 ",
"                    $ + p M z z z z z z z z D R./.Q.!.!./.R.D k D z z z z x z z z z z z x : + $ #                               ",
"                  % # @ ; z z z z z z c z z k J Q./.^.(.R.J k z c z z z z z z z z z z z z = @ # #                               ",
"                  % O # @ s n z x x x D x x z l D v.U.v.D l z x x x x x z x x z x x x n i @ # # X                               ",
"                    # # # $ a f f f z f f f f f d d f d f f f f f f f f f f f f f f f p # # # %                                 ",
"                      % # # @ $ $ $ $ $ $                                 . = $ = $ $ @ # # # o                                 ",
"                        # & # # # # # # @                                   & @ # # # # # %                                     ",
"                          X O # O O @ # o                                   # O O # # # X                                       ",
"                              # % = 7 7                                       7 % 7 #                                           ",
"                                                                                                                                ",
"                                                                                                                                ",
"                                                                                                                                ",
"                                                                                                                                ",
"                                                                                                                                ",
"                                                                                                                                ",
"                                                                                                                                "
};
